<svg id="Layer_1" data-name="Layer 1" xmlns="http://www.w3.org/2000/svg" viewBox="0 0 109.53 92.39"><path d="M110.59,13.53H9.49a4.21,4.21,0,0,0-4.21,4.21V86.42a4.21,4.21,0,0,0,4.21,4.22h101.1a4.22,4.22,0,0,0,4.22-4.22V17.74A4.22,4.22,0,0,0,110.59,13.53Zm.39,71a2.51,2.51,0,0,1-2.51,2.51H11.4a2.51,2.51,0,0,1-2.51-2.51v-65A2.51,2.51,0,0,1,11.4,17h97.07A2.52,2.52,0,0,1,111,19.55Z" transform="translate(-5.28 -13.53)" style="fill:#231f20"/><rect x="1.78" y="59.23" width="106.65" height="16.48" style="fill:#231f20"/><circle cx="54.31" cy="68.09" r="2.62" style="fill:#fff"/><rect x="34.59" y="87.83" width="39.83" height="4.56" rx="2.28" style="fill:#231f20"/><rect x="43.75" y="81.57" width="21.78" height="7.02" style="fill:#231f20"/><path d="M41.5,101.46c-.08-.26,2.41-.46,4.38-1.37a5,5,0,0,0,3.21-5l.1,6.49C43,101.81,41.57,101.66,41.5,101.46Z" transform="translate(-5.28 -13.53)" style="fill:#231f20"/><path d="M78.36,101.68c.09-.29-2.41-.5-4.38-1.46a5.36,5.36,0,0,1-3.21-5.3q0,3.45-.1,6.9C76.83,102.05,78.3,101.89,78.36,101.68Z" transform="translate(-5.28 -13.53)" style="fill:#231f20"/></svg>