<svg id="Layer_1" data-name="Layer 1" xmlns="http://www.w3.org/2000/svg" viewBox="0 0 96.13 183.07"><path d="M80.16,170.46A5.19,5.19,0,1,1,75,165.27,5.19,5.19,0,0,1,80.16,170.46Z" transform="translate(-27.26 -7.27)" style="fill:#231f20"/><path d="M83.81,26.14V28a3.3,3.3,0,0,1-3.3,3.3H69.43a3.3,3.3,0,0,1-3.3-3.3V26.14a3.3,3.3,0,0,1,3.3-3.3H80.51A3.3,3.3,0,0,1,83.81,26.14Z" transform="translate(-27.26 -7.27)" style="fill:#231f20"/><rect x="2.74" y="29.22" width="89.94" height="5.32" style="fill:#231f20"/><rect x="3.53" y="150.13" width="89.94" style="fill:#231f20"/><path d="M83.81,26.14V28a3.3,3.3,0,0,1-3.3,3.3H69.43a3.3,3.3,0,0,1-3.3-3.3V26.14a3.3,3.3,0,0,1,3.3-3.3H80.51A3.3,3.3,0,0,1,83.81,26.14Z" transform="translate(-27.26 -7.27)" style="fill:#231f20"/><path d="M106.61,7.27H44A16.77,16.77,0,0,0,27.26,24.05V173.56A16.77,16.77,0,0,0,44,190.34h62.58a16.78,16.78,0,0,0,16.78-16.78V24.05A16.78,16.78,0,0,0,106.61,7.27Zm11,160.23a15,15,0,0,1-15,15H48.58a15,15,0,0,1-15-15V29.76a15,15,0,0,1,15-15h54.06a15,15,0,0,1,15,15Z" transform="translate(-27.26 -7.27)" style="fill:#231f20"/><rect x="3.53" y="147.75" width="89.94" height="5.32" style="fill:#231f20"/></svg>