<svg id="Layer_1" data-name="Layer 1" xmlns="http://www.w3.org/2000/svg" viewBox="0 0 154.98 279.32"><path d="M157.3,42.53H48.52a23.1,23.1,0,0,0-23.1,23.1V298.75a23.1,23.1,0,0,0,23.1,23.1H157.3a23.1,23.1,0,0,0,23.1-23.1V65.63A23.1,23.1,0,0,0,157.3,42.53ZM69.86,55.87a7.17,7.17,0,0,1,5.06-2.09h58.24a7.15,7.15,0,1,1,0,14.3H74.92a7.16,7.16,0,0,1-5.06-12.21Zm35,253.53a11.25,11.25,0,0,1-11.65-9.94,11,11,0,0,1,10.13-11.84A11.28,11.28,0,0,1,115,298.51,11,11,0,0,1,104.82,309.4Zm68.43-42.55a8.55,8.55,0,0,1-8.56,8.55H42.4a8.55,8.55,0,0,1-8.56-8.55V87.36A8.56,8.56,0,0,1,42.4,78.8H164.69a8.56,8.56,0,0,1,8.56,8.56Z" transform="translate(-25.42 -42.53)" style="fill:#231f20"/></svg>