<svg id="Layer_1" data-name="Layer 1" xmlns="http://www.w3.org/2000/svg" viewBox="0 0 710.01 97"><g id="Node_Express" data-name="Node &amp; Express"><path d="M297.08,42.34a4.29,4.29,0,0,0-2.14.52L274.37,54.74a4.35,4.35,0,0,0-2.14,3.76V82.21A4.35,4.35,0,0,0,274.37,86l5.38,3.1c2.61,1.29,3.57,1.27,4.76,1.27,3.86,0,6.07-2.35,6.07-6.42V60.51a.59.59,0,0,0-.62-.57h-2.57a.58.58,0,0,0-.61.57V83.92c0,1.8-1.88,3.62-4.94,2.09l-5.59-3.27a.62.62,0,0,1-.35-.53V58.5a.68.68,0,0,1,.35-.57l20.53-11.84a.61.61,0,0,1,.61,0l20.53,11.84a.72.72,0,0,1,.35.57V82.21a.67.67,0,0,1-.31.57L297.39,94.62a.66.66,0,0,1-.61,0l-5.29-3.15a.53.53,0,0,0-.52,0,13.7,13.7,0,0,1-3.1,1.4c-.34.12-.85.3.17.87l6.9,4.06a4.14,4.14,0,0,0,2.14.57,4.22,4.22,0,0,0,2.14-.56L319.79,86a4.34,4.34,0,0,0,2.14-3.76V58.5a4.33,4.33,0,0,0-2.14-3.76L299.22,42.86a4.24,4.24,0,0,0-2.14-.52Z" transform="translate(-11.67 -11.24)" style="fill:#83cd29"/><path d="M302.59,59.28c-5.86,0-9.35,2.5-9.35,6.64,0,4.5,3.46,5.73,9.08,6.29,6.73.66,7.25,1.65,7.25,3,0,2.3-1.83,3.28-6.15,3.28-5.44,0-6.63-1.36-7-4.07a.6.6,0,0,0-.57-.52h-2.67a.63.63,0,0,0-.61.61c0,3.46,1.88,7.56,10.88,7.56,6.51,0,10.26-2.56,10.26-7s-3-5.63-9.35-6.47-7-1.26-7-2.75c0-1.23.51-2.88,5.24-2.88,4.22,0,5.78.91,6.42,3.75a.59.59,0,0,0,.56.48h2.67a.7.7,0,0,0,.44-.21.57.57,0,0,0,.17-.44c-.41-4.9-3.68-7.21-10.26-7.21Z" transform="translate(-11.67 -11.24)" style="fill:#83cd29"/><path d="M176.15,11.24a1.38,1.38,0,0,0-.66.17,1.33,1.33,0,0,0-.65,1.14V46a.91.91,0,0,1-.44.79.94.94,0,0,1-.92,0L168,43.6a2.61,2.61,0,0,0-2.62,0L143.61,56.18a2.7,2.7,0,0,0-1.31,2.32V83.65a2.62,2.62,0,0,0,1.31,2.27L165.4,98.5a2.61,2.61,0,0,0,2.62,0l21.8-12.58a2.61,2.61,0,0,0,1.31-2.27V20.94a2.66,2.66,0,0,0-1.36-2.32l-13-7.25a1.33,1.33,0,0,0-.65-.13ZM36,42.64a2.48,2.48,0,0,0-1.18.31L13,55.53a2.57,2.57,0,0,0-1.31,2.27l0,33.76a1.26,1.26,0,0,0,.66,1.13,1.24,1.24,0,0,0,1.31,0L26.6,85.27A2.67,2.67,0,0,0,28,83V67.23A2.6,2.6,0,0,1,29.27,65l5.5-3.19a2.62,2.62,0,0,1,1.31-.35,2.65,2.65,0,0,1,1.31.35L42.89,65a2.61,2.61,0,0,1,1.32,2.27V83a2.67,2.67,0,0,0,1.35,2.27l12.93,7.42a1.24,1.24,0,0,0,1.31,0,1.3,1.3,0,0,0,.65-1.13l0-33.76a2.61,2.61,0,0,0-1.31-2.27L37.39,43a2.45,2.45,0,0,0-1.18-.31ZM231.79,43a2.55,2.55,0,0,0-1.31.35L208.69,55.88a2.57,2.57,0,0,0-1.31,2.27V83.3a2.64,2.64,0,0,0,1.35,2.28l21.62,12.31a2.61,2.61,0,0,0,2.58,0L246,90.64a1.35,1.35,0,0,0,.7-1.13,1.31,1.31,0,0,0-.66-1.14L224.15,75.79a1.41,1.41,0,0,1-.7-1.18V66.75a1.33,1.33,0,0,1,.7-1.13L231,61.68a1.33,1.33,0,0,1,1.31,0l6.81,3.94a1.29,1.29,0,0,1,.66,1.13V73a1.31,1.31,0,0,0,2,1.14l13.06-7.6a2.63,2.63,0,0,0,1.31-2.27V58.15a2.6,2.6,0,0,0-1.31-2.27L233.1,43.3a2.62,2.62,0,0,0-1.31-.35ZM166.63,61.73a.76.76,0,0,1,.35.09l7.46,4.32a.66.66,0,0,1,.35.57v8.64a.65.65,0,0,1-.35.57L167,80.25a.7.7,0,0,1-.66,0l-7.47-4.33a.68.68,0,0,1-.35-.57V66.71a.68.68,0,0,1,.35-.57l7.47-4.32a.56.56,0,0,1,.31-.09Z" transform="translate(-11.67 -11.24)" style="fill:#404137"/><path d="M101.42,42.82a2.58,2.58,0,0,0-1.31.35L78.32,55.7A2.68,2.68,0,0,0,77,58V83.17a2.6,2.6,0,0,0,1.31,2.27L100.11,98a2.61,2.61,0,0,0,2.62,0l21.79-12.58a2.57,2.57,0,0,0,1.31-2.27V58a2.68,2.68,0,0,0-1.31-2.32L102.73,43.17A2.62,2.62,0,0,0,101.42,42.82ZM231.75,65.27a.61.61,0,0,0-.27,0l-4.19,2.45a.48.48,0,0,0-.26.43V73a.49.49,0,0,0,.26.43l4.19,2.41a.46.46,0,0,0,.48,0l4.2-2.41a.49.49,0,0,0,.26-.43V68.19a.48.48,0,0,0-.26-.43L232,65.31a.31.31,0,0,0-.21,0Z" transform="translate(-11.67 -11.24)" style="fill:#83cd29"/><path d="M372,90.83a16.27,16.27,0,0,1-7.61-1.7,12.63,12.63,0,0,1-5.05-4.62,12.38,12.38,0,0,1-1.8-6.62,10.38,10.38,0,0,1,1.1-4.83A14.86,14.86,0,0,1,361.8,69a46.25,46.25,0,0,1,5-4l6.85-5.1a17.09,17.09,0,0,0,3.72-3.45,6.73,6.73,0,0,0,1.28-4.16,6,6,0,0,0-1.79-4.26,6.1,6.1,0,0,0-4.62-1.88,6.42,6.42,0,0,0-3.54,1,7.41,7.41,0,0,0-2.47,2.57,6.53,6.53,0,0,0-.91,3.31,7.09,7.09,0,0,0,.83,3.24,20.51,20.51,0,0,0,2.24,3.42c.93,1.19,2,2.5,3.13,3.93l21.59,26.66h-5L369.34,67.1c-1.59-1.94-3-3.68-4.22-5.21a24.61,24.61,0,0,1-2.91-4.42,10.14,10.14,0,0,1-1.06-4.58,10.32,10.32,0,0,1,1.41-5.39,10,10,0,0,1,3.89-3.72,12.67,12.67,0,0,1,11.36,0,9.79,9.79,0,0,1,3.74,3.56,9.35,9.35,0,0,1,1.33,4.89,10,10,0,0,1-1.65,5.67,20.57,20.57,0,0,1-4.79,4.84l-8.58,6.42A17.89,17.89,0,0,0,363,74a8,8,0,0,0-1.32,3.85,8.53,8.53,0,0,0,1.3,4.59,9.53,9.53,0,0,0,3.58,3.37,11,11,0,0,0,5.27,1.29A13.77,13.77,0,0,0,377.41,86a14.72,14.72,0,0,0,4.67-3.33,16.67,16.67,0,0,0,3.32-5.19,20.41,20.41,0,0,0,1.47-6.74l4,0a20.74,20.74,0,0,1-1,6.45,18,18,0,0,1-2.13,4.35c-.8,1.13-1.5,2-2.1,2.74l-.51.69c-.17.23-.34.46-.53.69a14.66,14.66,0,0,1-5.73,3.85A18.88,18.88,0,0,1,372,90.83Z" transform="translate(-11.67 -11.24)" style="fill:#404137"/><path d="M516.36,108.24V43.12h3.53V53.37A13.3,13.3,0,0,0,521,51.92,17.52,17.52,0,0,1,537,42c8-.24,14.59,2.75,18.44,9.91a31.84,31.84,0,0,1,.77,29.19c-3.58,8-12.43,12-21.91,10.56a17.72,17.72,0,0,1-14.14-9.33v25.9Zm3.53-42.08.79,7.64c1.4,8.71,6.54,13.85,14.62,14.82a16.62,16.62,0,0,0,18.25-10.56,28.34,28.34,0,0,0-.62-23.28,16.27,16.27,0,0,0-17.15-9.47A15.86,15.86,0,0,0,521.62,57a81.13,81.13,0,0,0-1.73,9.13ZM631.5,75a19,19,0,0,1-18.61,16.83c-14.82.75-21.77-9.09-22.87-20.44a32.78,32.78,0,0,1,2.88-18,20.13,20.13,0,0,1,21-11.23,19.25,19.25,0,0,1,17.07,14.65,101.3,101.3,0,0,1,1.66,10.82h-38.9c-.72,10.29,4.81,18.57,12.64,20.56,9.77,2.4,18.11-1.83,21.14-11.11.67-2.38,1.9-2.72,4.06-2Zm-37.85-10.7h34.79c-.21-11-7-18.94-16.3-19C601.68,45.11,594.1,52.76,593.65,64.31Zm45,10.94h3.41a13.69,13.69,0,0,0,8,11.78,21,21,0,0,0,18.23-.48,8.21,8.21,0,0,0,4.81-8.06,7.43,7.43,0,0,0-5-7.43c-3.76-1.39-7.75-2.16-11.57-3.39A84.37,84.37,0,0,1,645,63.42c-6.16-3-6.54-14.72.43-18.43a24.56,24.56,0,0,1,23.47-.36,12.36,12.36,0,0,1,6.26,12.6h-2.93c0-.14-.26-.26-.26-.41-.36-9.32-8.2-12.24-16.62-11.42a21.32,21.32,0,0,0-7.21,2.19,7.19,7.19,0,0,0-4.18,7.21,7.21,7.21,0,0,0,4.81,6.79c3.67,1.34,7.57,2.21,11.37,3.26l9.18,2.41A10.84,10.84,0,0,1,676.74,77a11.58,11.58,0,0,1-6.23,12c-8,4.54-21.26,3.34-27.15-2.4a16,16,0,0,1-4.66-11.43Zm81.32-18h-3.2a8.14,8.14,0,0,0-.21-1.18A10.46,10.46,0,0,0,708.08,46a20.94,20.94,0,0,0-13.49.65,8.2,8.2,0,0,0-5.94,7.81,7.56,7.56,0,0,0,5.77,7.6L709,65.82a42.56,42.56,0,0,1,4.67,1.42,12,12,0,0,1,.62,22.39,26.73,26.73,0,0,1-21.64.22,15,15,0,0,1-9.05-14.57h3.13a17.53,17.53,0,0,0,26.69,11.15,8.59,8.59,0,0,0,4.62-8A7.44,7.44,0,0,0,713,71c-3.75-1.4-7.74-2.14-11.56-3.39a85.09,85.09,0,0,1-11.71-4.21c-6-3-6.5-14.57.36-18.27a24.17,24.17,0,0,1,23.85-.27,12.57,12.57,0,0,1,6,12.34ZM510.54,90.66a5.5,5.5,0,0,1-6.83-2.59l-12.43-17.2-1.8-2.4L475.05,88.09a5.28,5.28,0,0,1-6.49,2.55l18.58-24.93L469.85,43.17a5.74,5.74,0,0,1,6.85,2.41L489.59,63l13-17.34a5.18,5.18,0,0,1,6.45-2.4l-6.72,8.9L493.19,64a2.41,2.41,0,0,0-.19,3.39l.19.2,17.32,23.1Zm78.93-47.73v3.39a17.44,17.44,0,0,0-18.54,16.26,17,17,0,0,0,0,1.75V90.79h-3.44V43.15h3.39v9.76c4.16-7.12,10.58-9.76,18.64-10ZM424.05,65.39l1.51-7.48c4.16-14.78,21.12-20.94,32.78-11.78,6.83,5.36,8.54,13,8.2,21.53H428.07c-.63,15.29,10.41,24.52,24.52,19.81A14.73,14.73,0,0,0,461.9,77.1c.74-2.4,2-2.81,4.23-2.12a19.53,19.53,0,0,1-9.33,14.27,22.61,22.61,0,0,1-26.33-3.37A23.69,23.69,0,0,1,424.55,72a9.38,9.38,0,0,0-.48-2.4c0-1.43,0-2.82,0-4.19Zm4.06-1h34.8c-.22-11.08-7.21-19-16.55-19-10.38-.14-17.81,7.55-18.27,19Z" transform="translate(-11.67 -11.24)" style="fill:#404137"/></g></svg>