<svg id="Layer_1" data-name="Layer 1" xmlns="http://www.w3.org/2000/svg" viewBox="0 0 404.24 112.32"><g id="React"><circle cx="63.13" cy="56.16" r="11.26" style="fill:#5dd2f3"/><path d="M38.36,83.12l-2.49-.63C17.37,77.81,6.76,69.87,6.76,60.72S17.38,43.62,35.87,39l2.49-.63.7,2.46A123,123,0,0,0,46.23,59.6l.53,1.12-.53,1.12a122.32,122.32,0,0,0-7.17,18.82ZM34.72,44.69c-14,4-22.69,10-22.69,16s8.63,12.06,22.69,16a133.37,133.37,0,0,1,6.22-16A128.31,128.31,0,0,1,34.72,44.69Zm66.67,38.43-.69-2.47a123.36,123.36,0,0,0-7.17-18.82L93,60.72l.54-1.13a123.61,123.61,0,0,0,7.17-18.82l.69-2.46,2.5.63C122.39,43.62,133,51.56,133,60.72s-10.61,17.09-29.11,21.77Zm-2.58-22.4a129.61,129.61,0,0,1,6.22,16c14.07-4,22.7-10,22.7-16s-8.63-12.07-22.7-16A131.49,131.49,0,0,1,98.81,60.72Z" transform="translate(-6.76 -4.58)" style="fill:#5dd2f3"/><path d="M34.69,44.66,34,42.2c-5.21-18.34-3.63-31.47,4.34-36.05C46.11,1.64,58.64,7,71.77,20.43l1.79,1.85-1.79,1.83A125.32,125.32,0,0,0,59,39.71l-.71,1-1.24.1A125.34,125.34,0,0,0,37.17,44Zm10-34.86a7.29,7.29,0,0,0-3.71.91c-5.22,3-6.14,13.48-2.55,27.62a132.53,132.53,0,0,1,17-2.63A133.5,133.5,0,0,1,66.21,22.31C58,14.32,50.23,9.8,44.66,9.8ZM95.09,116.9C87.6,116.9,78,111.25,68,101l-1.78-1.84L68,97.33A125.76,125.76,0,0,0,80.74,81.71l.7-1,1.22-.12a123,123,0,0,0,19.92-3.19l2.49-.64.7,2.47c5.18,18.33,3.61,31.48-4.34,36.06A12.55,12.55,0,0,1,95.09,116.9ZM73.56,99.12c8.21,8,16,12.52,21.53,12.52a7.4,7.4,0,0,0,3.72-.91c5.23-3,6.15-13.51,2.55-27.65a130.6,130.6,0,0,1-17,2.64A128.45,128.45,0,0,1,73.56,99.12Z" transform="translate(-6.76 -4.58)" style="fill:#5dd2f3"/><path d="M105.07,44.66,102.58,44a122,122,0,0,0-19.92-3.21l-1.22-.11-.7-1A123.09,123.09,0,0,0,68,24.1l-1.78-1.84L68,20.43C81.11,7,93.63,1.65,101.43,6.15c8,4.58,9.54,17.72,4.34,36.05Zm-20.73-9a131.46,131.46,0,0,1,17,2.63C105,24.19,104,13.72,98.81,10.7s-15,1.6-25.25,11.61A130.72,130.72,0,0,1,84.34,35.7ZM44.66,116.9a12.52,12.52,0,0,1-6.33-1.62c-8-4.58-9.55-17.73-4.34-36.06l.68-2.47,2.49.64a122.82,122.82,0,0,0,19.91,3.19l1.23.12.71,1A123,123,0,0,0,71.75,97.33l1.79,1.83L71.75,101C61.77,111.26,52.14,116.9,44.66,116.9ZM38.4,83.09c-3.59,14.13-2.67,24.63,2.55,27.64s14.95-1.61,25.26-11.61A133.5,133.5,0,0,1,55.4,85.73,131.74,131.74,0,0,1,38.4,83.09Z" transform="translate(-6.76 -4.58)" style="fill:#5dd2f3"/><path d="M69.88,86.4c-4.33,0-8.78-.19-13.24-.56l-1.24-.11-.71-1q-3.78-5.43-7.1-11.15T41.47,61.83l-.53-1.11.53-1.13q2.82-6,6.12-11.72c2.19-3.76,4.58-7.51,7.1-11.16l.71-1,1.24-.11a158.08,158.08,0,0,1,26.47,0l1.23.12.71,1A158.21,158.21,0,0,1,98.29,59.6l.53,1.12-.53,1.12A156.38,156.38,0,0,1,85.05,84.72l-.71,1-1.23.11C78.66,86.21,74.21,86.4,69.88,86.4ZM58.32,80.7a153.82,153.82,0,0,0,23.12,0A153.31,153.31,0,0,0,93,60.72a149.16,149.16,0,0,0-11.55-20,151.22,151.22,0,0,0-23.12,0,149.23,149.23,0,0,0-11.56,20A157.57,157.57,0,0,0,58.32,80.7Z" transform="translate(-6.76 -4.58)" style="fill:#5dd2f3"/><path d="M189,97.41V37.81h23.51A25.51,25.51,0,0,1,224,40.21,17,17,0,0,1,231.32,47a20.38,20.38,0,0,1,2.51,10.29,19.43,19.43,0,0,1-2.56,10.2A16.6,16.6,0,0,1,223.86,74a27.48,27.48,0,0,1-11.71,2.27H196.41V66.15h13.7a15.74,15.74,0,0,0,6-1,7.2,7.2,0,0,0,3.56-3,9.46,9.46,0,0,0,1.18-4.92,9.83,9.83,0,0,0-1.18-5,7.44,7.44,0,0,0-3.58-3.09,14.73,14.73,0,0,0-6-1.07h-8.5v49.3Zm32.19-27.13L236,97.41H222L207.56,70.28Z" transform="translate(-6.76 -4.58)" style="fill:#5dd2f3"/><path d="M262.12,98.28a23.73,23.73,0,0,1-11.86-2.8,19,19,0,0,1-7.64-8,26.22,26.22,0,0,1-2.68-12.24,26,26,0,0,1,2.68-12.1A19.77,19.77,0,0,1,250.17,55a22,22,0,0,1,11.45-2.91,23.44,23.44,0,0,1,8.25,1.42,18.5,18.5,0,0,1,6.69,4.23A19.32,19.32,0,0,1,281,64.86a28.2,28.2,0,0,1,1.6,10v3.41H244.89V70.54H271a9.5,9.5,0,0,0-1.16-4.73,8.42,8.42,0,0,0-3.21-3.25,9.36,9.36,0,0,0-4.76-1.18,9.47,9.47,0,0,0-5,1.3,9.25,9.25,0,0,0-3.4,3.46A9.9,9.9,0,0,0,252.19,71v7.31A12.48,12.48,0,0,0,253.43,84a8.74,8.74,0,0,0,3.5,3.72A10.55,10.55,0,0,0,262.32,89a11.62,11.62,0,0,0,3.78-.58A7.89,7.89,0,0,0,269,86.7a7.51,7.51,0,0,0,1.86-2.85l11.47.76a15.68,15.68,0,0,1-3.56,7.2,18,18,0,0,1-6.93,4.77A26.12,26.12,0,0,1,262.12,98.28Z" transform="translate(-6.76 -4.58)" style="fill:#5dd2f3"/><path d="M303.48,98.25a18.3,18.3,0,0,1-7.63-1.5,12,12,0,0,1-5.28-4.45,13.18,13.18,0,0,1-1.94-7.38A13,13,0,0,1,290,78.67a10.91,10.91,0,0,1,3.73-4.07,17.7,17.7,0,0,1,5.36-2.33,39.42,39.42,0,0,1,6.33-1.11q3.9-.41,6.29-.77a8.8,8.8,0,0,0,3.46-1.1,2.42,2.42,0,0,0,1.08-2.15V67a5.39,5.39,0,0,0-1.73-4.28,7.22,7.22,0,0,0-4.9-1.51,8.75,8.75,0,0,0-5.33,1.47,6.89,6.89,0,0,0-2.62,3.68L290.2,65.4a15.74,15.74,0,0,1,3.44-7.06,16.6,16.6,0,0,1,6.62-4.6,25.23,25.23,0,0,1,9.41-1.62,28.41,28.41,0,0,1,7.15.88,18.86,18.86,0,0,1,6.08,2.7,13.48,13.48,0,0,1,4.21,4.7,14.3,14.3,0,0,1,1.54,6.86V97.41H316.89v-6.2h-.35a12.5,12.5,0,0,1-2.88,3.68,12.88,12.88,0,0,1-4.34,2.47A17.66,17.66,0,0,1,303.48,98.25ZM307,89.7a10.42,10.42,0,0,0,4.83-1.09,8.58,8.58,0,0,0,3.29-3,7.7,7.7,0,0,0,1.19-4.22V76.69a6.35,6.35,0,0,1-1.59.68c-.67.2-1.42.39-2.25.55s-1.67.32-2.51.44l-2.26.34a15.37,15.37,0,0,0-3.82,1,6.28,6.28,0,0,0-2.53,1.88,4.69,4.69,0,0,0-.9,2.93,4.42,4.42,0,0,0,1.85,3.85A7.8,7.8,0,0,0,307,89.7Z" transform="translate(-6.76 -4.58)" style="fill:#5dd2f3"/><path d="M358.47,98.28a22.72,22.72,0,0,1-11.8-2.92,19.46,19.46,0,0,1-7.56-8.13,26.21,26.21,0,0,1-2.64-12,26.19,26.19,0,0,1,2.66-12.06,19.8,19.8,0,0,1,7.58-8.12,22.48,22.48,0,0,1,11.7-2.93,23.4,23.4,0,0,1,10.25,2.13,17.09,17.09,0,0,1,6.95,6,17.46,17.46,0,0,1,2.82,9H366.74a9.2,9.2,0,0,0-2.61-5.4,7.58,7.58,0,0,0-5.51-2.05,8.33,8.33,0,0,0-5,1.56,10.06,10.06,0,0,0-3.33,4.52,19.43,19.43,0,0,0-1.19,7.19,19.77,19.77,0,0,0,1.18,7.27,10,10,0,0,0,3.33,4.57,8.33,8.33,0,0,0,5,1.58,8.17,8.17,0,0,0,3.82-.88,7.38,7.38,0,0,0,2.82-2.54,9.79,9.79,0,0,0,1.48-4h11.69a18.35,18.35,0,0,1-2.77,9,16.94,16.94,0,0,1-6.86,6.07A22.93,22.93,0,0,1,358.47,98.28Z" transform="translate(-6.76 -4.58)" style="fill:#5dd2f3"/><path d="M410.18,52.71V62H383.26V52.71ZM389.38,42h12.39V83.67a5.49,5.49,0,0,0,.53,2.66,2.8,2.8,0,0,0,1.47,1.33A5.91,5.91,0,0,0,406,88a9.34,9.34,0,0,0,1.75-.16l1.34-.25L411,96.86c-.63.19-1.49.42-2.62.68a22.34,22.34,0,0,1-4.11.48,18.88,18.88,0,0,1-7.84-1.19,11,11,0,0,1-5.22-4.25,12.92,12.92,0,0,1-1.83-7.27Z" transform="translate(-6.76 -4.58)" style="fill:#5dd2f3"/></g></svg>