<?xml version="1.0" encoding="utf-8"?>
<!-- Generator: Adobe Illustrator 26.0.2, SVG Export Plug-In . SVG Version: 6.00 Build 0)  -->
<svg version="1.1" id="Layer_1" xmlns="http://www.w3.org/2000/svg" xmlns:xlink="http://www.w3.org/1999/xlink" x="0px" y="0px"
	 viewBox="0 0 148 59.2" style="enable-background:new 0 0 148 59.2;" xml:space="preserve">
<style type="text/css">
	.st0{display:none;}
	.st1{display:inline;fill:none;stroke:#000000;stroke-width:0.5;stroke-miterlimit:10;}
	.st2{display:inline;}
	.st3{fill:none;stroke:#000000;stroke-width:0.5;stroke-miterlimit:10;}
	.st4{fill:none;stroke:#000000;stroke-width:0.5;stroke-miterlimit:10;stroke-dasharray:4.9294,4.9294;}
	.st5{display:inline;fill:#DFCF00;}
	.st6{fill:#001E36;}
	.st7{fill:#31A8FF;}
	.st8{display:inline;fill:#001E36;}
	.st9{font-family:'Inter-Black';}
	.st10{font-size:12px;}
	.st11{display:inline;fill:#470137;}
	.st12{fill:#470137;}
	.st13{fill:#FF61F6;}
	.st14{fill:#330000;}
	.st15{fill:#FF9A00;}
	.st16{fill:#0A1929;}
	.st17{display:inline;fill:#00B0FF;}
	.st18{display:inline;fill:#0081CB;}
	.st19{display:none;fill:#404137;}
	.st20{fill:#83CD29;}
	.st21{display:inline;fill:#404137;}
	.st22{display:inline;fill:#83CD29;}
	.st23{display:inline;fill-rule:evenodd;clip-rule:evenodd;fill:#1F2E39;}
	.st24{display:inline;fill-rule:evenodd;clip-rule:evenodd;fill:#FFFFFF;}
	.st25{display:inline;fill-rule:evenodd;clip-rule:evenodd;fill:#A6A385;}
	.st26{display:inline;fill-rule:evenodd;clip-rule:evenodd;fill:#499D4A;}
	.st27{display:inline;fill-rule:evenodd;clip-rule:evenodd;fill:#58AA50;}
	.st28{fill-rule:evenodd;clip-rule:evenodd;fill:#1F2E39;}
	.st29{fill-rule:evenodd;clip-rule:evenodd;fill:#FFFFFF;}
	.st30{fill-rule:evenodd;clip-rule:evenodd;fill:#A6A385;}
	.st31{fill-rule:evenodd;clip-rule:evenodd;fill:#499D4A;}
	.st32{fill-rule:evenodd;clip-rule:evenodd;fill:#58AA50;}
	.st33{display:inline;fill:#1F2E39;}
	.st34{fill:#404137;}
	.st35{fill:#764ABC;}
	.st36{fill:#5DD2F3;}
	.st37{display:none;fill:#CF649A;}
	.st38{fill:#E54C21;}
	.st39{fill:#264DE4;}
	.st40{fill:#EFD81D;}
	.st41{display:inline;fill:#FFFFFF;}
	.st42{clip-path:url(#SVGID_00000003824025329796614440000010316297597421504387_);}
	.st43{fill:#A32422;}
	.st44{fill:#DC382C;}
	.st45{fill:#FFFFFF;}
	.st46{fill:#741113;}
	.st47{fill:#AC2724;}
	.st48{fill:#494C4D;}
	.st49{fill:#3178C5;}
	.st50{fill:#FEFEFE;}
	.st51{fill:#7289DA;}
	.st52{clip-path:url(#SVGID_00000174602260824257354120000009648934972006234801_);}
	.st53{fill-rule:evenodd;clip-rule:evenodd;fill:#7289DA;}
</style>
<g id="Vertical_Bar" class="st0">
	<path class="st1" d="M-157-281.9h264c6.3,0,11.5,5.1,11.5,11.5v551.1"/>
	<g class="st2">
		<g>
			<line class="st3" x1="118.5" y1="277.9" x2="118.5" y2="280.9"/>
			<line class="st4" x1="118.5" y1="285.9" x2="118.5" y2="303.1"/>
			<line class="st3" x1="118.5" y1="305.6" x2="118.5" y2="308.6"/>
		</g>
	</g>
</g>
<g id="CSS_Vert" class="st0">
	<rect x="-80" y="-28.7" class="st5" width="300" height="120"/>
</g>
<g class="st0">
	<g id="Photoshop" class="st2">
		<g id="Layer_2_00000055690548210834815180000003555433012348845497_">
			<g id="Surfaces_00000028307412635965680320000007452740426910325392_">
				<g id="Photo_Surface">
					<g id="Outline_no_shadow_00000127044244288314155990000005834629250377772460_">
						<path class="st6" d="M4.3,11.6h23.8c3.6,0,6.5,2.9,6.5,6.5V41c0,3.6-2.9,6.5-6.5,6.5H4.3c-3.6,0-6.5-2.9-6.5-6.5V18.1
							C-2.3,14.5,0.6,11.6,4.3,11.6z"/>
					</g>
				</g>
			</g>
			<g id="Outlined_Mnemonics_Logos_00000142141680426492987220000000741704560559620759_">
				<g id="Ps">
					<path class="st7" d="M6,36.8V21c0-0.1,0-0.2,0.2-0.2c0.3,0,0.5,0,0.9,0c0.4,0,0.8,0,1.2,0c0.4,0,0.9,0,1.3,0s0.9,0,1.4,0
						c1.3,0,2.3,0.2,3.2,0.5c0.8,0.3,1.5,0.7,2.1,1.3c0.5,0.5,0.9,1.1,1.1,1.8c0.2,0.6,0.4,1.3,0.4,2c0,1.3-0.3,2.4-0.9,3.3
						s-1.5,1.5-2.5,1.9c-1,0.4-2.2,0.5-3.5,0.5c-0.4,0-0.6,0-0.8,0c-0.2,0-0.4,0-0.7,0v4.9c0,0.1-0.1,0.2-0.2,0.2c0,0,0,0-0.1,0H6.2
						C6.1,37,6,37,6,36.8z M9.4,23.8V29c0.2,0,0.4,0,0.6,0h0.8c0.6,0,1.2-0.1,1.8-0.3c0.5-0.1,0.9-0.4,1.3-0.8
						c0.3-0.4,0.5-0.9,0.5-1.6c0-0.5-0.1-1-0.4-1.4c-0.3-0.4-0.6-0.7-1.1-0.9c-0.6-0.2-1.2-0.3-1.8-0.3c-0.4,0-0.8,0-1,0
						C9.7,23.8,9.5,23.8,9.4,23.8L9.4,23.8z"/>
					<path class="st7" d="M27.3,28c-0.5-0.2-1-0.4-1.5-0.5c-0.6-0.1-1.1-0.2-1.7-0.2c-0.3,0-0.6,0-0.9,0.1c-0.2,0-0.4,0.2-0.5,0.3
						c-0.1,0.1-0.1,0.3-0.1,0.4c0,0.1,0.1,0.3,0.2,0.4c0.1,0.2,0.3,0.3,0.5,0.4c0.4,0.2,0.7,0.4,1.1,0.5c0.8,0.3,1.6,0.7,2.4,1.1
						c0.5,0.3,0.9,0.8,1.2,1.3c0.2,0.5,0.4,1,0.4,1.6c0,0.7-0.2,1.4-0.6,2c-0.4,0.6-1,1.1-1.7,1.4c-0.8,0.3-1.7,0.5-2.8,0.5
						c-0.7,0-1.4-0.1-2.1-0.2c-0.5-0.1-1.1-0.3-1.6-0.5c-0.1-0.1-0.2-0.2-0.2-0.3v-2.7c0,0,0-0.1,0.1-0.1c0,0,0.1,0,0.1,0
						c0.6,0.4,1.2,0.6,1.9,0.8c0.6,0.2,1.2,0.2,1.8,0.2c0.6,0,1-0.1,1.3-0.2c0.2-0.1,0.4-0.4,0.4-0.6c0-0.2-0.1-0.4-0.4-0.6
						c-0.2-0.2-0.8-0.4-1.5-0.7c-0.8-0.3-1.5-0.6-2.2-1.1c-0.5-0.3-0.9-0.8-1.2-1.3c-0.2-0.5-0.4-1-0.4-1.6c0-0.7,0.2-1.3,0.5-1.9
						c0.4-0.6,1-1.1,1.6-1.4c0.7-0.4,1.6-0.5,2.7-0.5c0.6,0,1.3,0,1.9,0.1c0.5,0.1,0.9,0.2,1.3,0.4c0.1,0,0.1,0.1,0.2,0.1
						c0,0.1,0,0.1,0,0.2v2.5c0,0.1,0,0.1-0.1,0.2C27.4,28.1,27.3,28.1,27.3,28z"/>
				</g>
			</g>
		</g>
	</g>
	<text transform="matrix(1 0 0 1 43.0892 33.9848)" class="st8 st9 st10">Adobe Photoshop</text>
</g>
<g class="st0">
	<text transform="matrix(1 0 0 1 66.8675 35.1522)" class="st11 st9 st10">Adobe XD</text>
	<g id="XD" class="st2">
		<g transform="matrix(1.000000125 0 0 1.000000125 159.9999625 83.00005)">
			<path class="st12" d="M-132-71.4h23.8c3.6,0,6.5,2.9,6.5,6.5V-42c0,3.6-2.9,6.5-6.5,6.5H-132c-3.6,0-6.5-2.9-6.5-6.5v-22.9
				C-138.5-68.5-135.6-71.4-132-71.4z"/>
			<g>
				<path class="st13" d="M-119.1-62l-4.6,7.6l4.9,8.1c0,0.1,0,0.1,0,0.2c0,0.1-0.1,0-0.2,0h-3.5c-0.2,0-0.4,0-0.5-0.2
					c-0.3-0.6-0.7-1.3-1-1.9c-0.3-0.6-0.7-1.3-1-1.9c-0.4-0.7-0.7-1.3-1.1-2h0c-0.3,0.7-0.7,1.3-1,2c-0.4,0.7-0.7,1.3-1,2
					c-0.4,0.6-0.7,1.3-1.1,1.9c-0.1,0.2-0.2,0.2-0.4,0.2h-3.4c-0.1,0-0.1,0-0.1,0c0-0.1,0-0.1,0-0.2l4.8-7.8L-133-62
					c0-0.1-0.1-0.1,0-0.2c0,0,0.1-0.1,0.2-0.1h3.5c0.1,0,0.2,0,0.2,0c0.1,0,0.1,0.1,0.2,0.1c0.3,0.7,0.6,1.3,1,2
					c0.4,0.7,0.7,1.3,1.1,2c0.4,0.6,0.7,1.3,1,2h0c0.3-0.7,0.7-1.3,1-2c0.3-0.6,0.7-1.3,1-1.9s0.7-1.3,1-1.9c0-0.1,0-0.1,0.1-0.2
					c0.1,0,0.1,0,0.2,0h3.2c0.1,0,0.2,0,0.2,0.1C-119-62.1-119.1-62-119.1-62L-119.1-62z"/>
				<path class="st13" d="M-112-45.7c-1.1,0-2.3-0.2-3.3-0.7c-1-0.4-1.8-1.2-2.3-2.1c-0.6-0.9-0.8-2.1-0.8-3.5
					c0-1.1,0.3-2.3,0.8-3.2c0.6-1,1.4-1.8,2.4-2.4c1.1-0.6,2.4-0.9,3.9-0.9c0.1,0,0.2,0,0.3,0c0.1,0,0.3,0,0.5,0v-4.9
					c0-0.1,0-0.2,0.2-0.2h3.1c0.1,0,0.1,0,0.2,0.1v14.7c0,0.3,0,0.6,0,0.9c0,0.3,0,0.6,0.1,0.9c0,0.1,0,0.2-0.2,0.2
					c-0.8,0.3-1.6,0.6-2.5,0.7C-110.4-45.8-111.2-45.7-112-45.7z M-110.5-48.8v-6.8c-0.1,0-0.3-0.1-0.4-0.1c-0.2,0-0.3,0-0.5,0
					c-0.6,0-1.2,0.1-1.7,0.4c-0.5,0.3-1,0.6-1.3,1.1c-0.3,0.5-0.5,1.2-0.5,2c0,0.5,0.1,1.1,0.3,1.6c0.2,0.4,0.4,0.8,0.7,1.1
					c0.3,0.3,0.6,0.5,1,0.6c0.4,0.1,0.8,0.2,1.3,0.2c0.2,0,0.4,0,0.6,0C-110.8-48.7-110.7-48.7-110.5-48.8L-110.5-48.8z"/>
			</g>
		</g>
	</g>
</g>
<g>
	<g id="Illustrator">
		<g id="Layer_2_1_">
			<g id="Surfaces">
				<g id="Drawing_Surface">
					<g id="Outline_no_shadow">
						<path class="st14" d="M7.1,11.6H31c3.6,0,6.5,2.9,6.5,6.5V41c0,3.6-2.9,6.5-6.5,6.5H7.1c-3.6,0-6.5-2.9-6.5-6.5V18.1
							C0.6,14.5,3.5,11.6,7.1,11.6z"/>
					</g>
				</g>
			</g>
			<g id="Outlined_Mnemonics_Logos">
				<g id="Ai">
					<path class="st15" d="M18.3,35.6h-6.7l-1.4,4.2c0,0.2-0.2,0.3-0.3,0.3H6.5c-0.2,0-0.3-0.1-0.2-0.3l5.8-16.7
						c0.1-0.2,0.1-0.4,0.2-0.6c0.1-0.4,0.1-0.8,0.1-1.2c0-0.1,0.1-0.2,0.1-0.2c0,0,0,0,0.1,0h4.6c0.1,0,0.2,0.1,0.2,0.1L24,39.8
						c0.1,0.2,0,0.3-0.2,0.3H20c-0.1,0-0.3-0.1-0.3-0.2L18.3,35.6z M12.6,31.9h4.6c-0.1-0.4-0.3-0.8-0.4-1.3c-0.2-0.5-0.3-1-0.5-1.5
						c-0.2-0.6-0.3-1.1-0.5-1.7c-0.2-0.6-0.3-1.1-0.5-1.6c-0.1-0.5-0.3-1-0.4-1.4h0c-0.2,0.8-0.4,1.5-0.6,2.3
						c-0.3,0.9-0.5,1.8-0.8,2.7C13.2,30.3,12.9,31.2,12.6,31.9L12.6,31.9z"/>
					<path class="st15" d="M27.9,24.2c-0.6,0-1.2-0.2-1.6-0.6c-0.4-0.4-0.6-1-0.6-1.7c0-0.6,0.2-1.2,0.6-1.6c0.4-0.4,1-0.6,1.6-0.6
						c0.7,0,1.2,0.2,1.6,0.6c0.4,0.4,0.6,1,0.6,1.6c0,0.6-0.2,1.2-0.6,1.7C29.1,24,28.5,24.2,27.9,24.2z M25.9,39.8V25.9
						c0-0.2,0.1-0.3,0.2-0.3h3.6c0.2,0,0.2,0.1,0.2,0.3v13.8c0,0.2-0.1,0.3-0.2,0.3h-3.5C26,40.1,25.9,40,25.9,39.8z"/>
				</g>
			</g>
		</g>
	</g>
	<text transform="matrix(1 0 0 1 45.9621 35.1523)" class="st14 st9 st10">Adobe Illustrator</text>
</g>
<g id="Material_UI" class="st0">
	<g class="st2">
		<path class="st16" d="M29.5,28.8c0,5.3,0,10.6,0,15.9c-1.7,0-3.4,0-5.1,0c0-0.3,0-0.6,0-0.9c0-7.6,0-15.2,0-22.8
			c0-0.8,0.2-1.1,1-1c1.3,0.1,2.7-0.3,3.8,0.2c1,0.5,1.6,1.9,2.4,2.9c1.8,2.3,3.5,4.7,5.3,7c0.2,0.2,0.3,0.4,0.6,0.7
			c0.9-1.2,1.7-2.3,2.5-3.4c1.6-2.2,3.3-4.5,4.9-6.7c0.3-0.5,0.7-0.6,1.3-0.6c1.1,0,2.2,0,3.3,0c0.7,0,0.9,0.2,0.9,0.9
			c0,3.8,0,7.5,0,11.3c0,3.8,0,7.7,0,11.5c0,0.3,0,0.7,0,1.1c-1.7,0-3.3,0-5.1,0c0-5.2,0-10.4,0-15.6c-0.1,0-0.1,0-0.2-0.1
			c-1,1.2-1.9,2.4-2.9,3.7c-1.4,1.8-2.7,3.5-4.1,5.3c-0.5,0.7-0.9,0.7-1.4,0c-2.1-2.9-4.3-5.7-6.4-8.6c-0.2-0.2-0.3-0.4-0.5-0.6
			C29.7,28.8,29.6,28.8,29.5,28.8z"/>
		<path class="st16" d="M183.7,20c0,0.5,0,0.8,0,1.2c0,4.8-0.1,9.6,0,14.4c0.1,5.4-4,9.2-9.1,9.6c-3.6,0.3-6.7-0.7-9.1-3.5
			c-1.4-1.6-2-3.6-2-5.7c0-5,0-10,0-15c0-0.7,0.2-0.9,0.9-0.9c1.4,0.1,2.8,0,4.2,0c0,0.4,0,0.8,0,1.1c0,4.6,0,9.3,0,13.9
			c0,2.3,0.8,4.2,3,5.2c3.2,1.3,6.4-0.6,6.9-4c0.1-0.4,0.1-0.9,0.1-1.3c0-4.6,0-9.2,0-13.8c0-0.8,0.3-1.1,1.1-1
			C181,20.1,182.3,20,183.7,20z"/>
		<path class="st16" d="M92,37.1c0,1.5,0.9,2.9,2.3,3.4c2.3,0.8,4.2,0.5,5.8-1.6c1.3,0.6,2.6,1.2,3.9,1.8c-0.6,1.6-1.7,2.6-3.1,3.3
			c-4.9,2.5-12.3,1-13.9-6.3c-1-4.9,1.6-9.8,6.1-11.1c5.3-1.5,10.4,0.8,11.6,6.5c0.2,1.1,0.1,2.2,0.1,3.3c0,0.7-0.5,0.6-0.9,0.6
			c-3.6,0-7.2,0-10.7,0C92.7,37.1,92.4,37.1,92,37.1z M92.1,33.4c2.5,0,4.9,0,7.4,0c-0.1-1.8-1.5-3.1-3.4-3.2
			C94,30.2,92.4,31.5,92.1,33.4z"/>
		<path class="st16" d="M133.1,33c-1.3-0.6-2.5-1.2-4-1.9c0.5-0.8,1-1.6,1.5-2.2c2.7-3.1,8.3-3.2,11.2-1.5c2,1.2,3.1,2.9,3.1,5.2
			c0,3.9,0,7.8,0,11.7c0,0.1,0,0.2-0.1,0.4c-1.5,0-3,0-4.5,0c0-0.5-0.1-0.9-0.1-1.5c-0.3,0.2-0.6,0.4-0.8,0.6
			c-2.8,1.8-5.7,1.9-8.6,0.4c-1.8-0.9-2.4-2.5-2.4-4.4c0.1-2.3,1.2-3.9,3.3-4.7c1.8-0.6,3.7-0.9,5.5-1.3c0.7-0.1,1.3-0.3,2-0.3
			c0.6-0.1,0.7-0.4,0.6-0.9c-0.1-1-0.7-1.6-1.6-2c-1.8-0.7-3.8,0-4.8,1.6C133.5,32.5,133.3,32.7,133.1,33z M140,36.9
			c-1.7,0.4-3.3,0.6-5,1.1c-1,0.3-1.3,1-1.3,2c0.1,0.9,0.7,1.3,1.4,1.5C137.9,42.2,140.4,39.9,140,36.9z"/>
		<path class="st16" d="M70,44.8c-1.5,0-3,0-4.5,0c0-0.4-0.1-0.9-0.1-1.4c-0.3,0.2-0.5,0.3-0.7,0.4c-2.5,1.8-5.2,1.9-8,0.9
			c-2.1-0.8-3.1-2.5-3.1-4.6c0-2.4,1.2-4.1,3.4-4.9c1.7-0.6,3.6-0.9,5.4-1.3c0.9-0.2,1.7-0.3,2.6-0.4c0.2-1.5-0.4-2.4-1.7-2.8
			c-2-0.6-3.7,0.1-5.2,2.4c-1.2-0.6-2.5-1.2-3.8-1.8c0.3-1.3,1.2-2.3,2.2-3.1c2.7-2.2,7.6-2.5,10.5-0.7c1.9,1.2,3,2.9,3,5.2
			c0.1,3.9,0,7.8,0,11.7C70.1,44.5,70.1,44.6,70,44.8z M65.1,37c-0.4,0.1-0.8,0.1-1.2,0.2c-1.3,0.3-2.6,0.5-3.8,0.8
			c-0.9,0.3-1.3,1-1.3,1.9c0,0.9,0.6,1.4,1.4,1.6C62.9,42.2,65.5,39.9,65.1,37z"/>
		<path class="st16" d="M72.3,31c0-1.5,0-2.8,0-4.2c2.7-0.6,2.7-0.6,3.1-4.1c1.6,0,3.2,0,4.9,0c0,1.3,0,2.6,0,4c1.4,0,2.8,0,4.3,0
			c0,1.4,0,2.6,0,3.9c0,0.2-0.4,0.4-0.7,0.4c-1.1,0-2.3,0-3.5,0c0,2.6-0.1,5.1,0,7.6c0,1.1,0.8,1.8,1.9,2c0.7,0.1,1.4,0.1,2.2,0.2
			c0,1.3,0,2.6,0,3.9c-4.8,1.2-8.9-1-9.1-5.7c-0.1-2.4,0-4.7,0-7.1c0-0.7-0.1-1-0.9-0.9C73.8,31,73.1,31,72.3,31z"/>
		<path class="st16" d="M148.8,19.6c1.6,0,3.2,0,4.8,0c0,8.4,0,16.7,0,25.1c-1.6,0-3.1,0-4.8,0C148.8,36.4,148.8,28.1,148.8,19.6z"
			/>
		<path class="st16" d="M193,44.8c-1.8,0-3.4,0-5,0c0-8.2,0-16.4,0-24.8c1.5,0,3.1,0,4.6,0c0.1,0,0.3,0.3,0.4,0.5
			c0.1,0.2,0,0.4,0,0.6c0,7.5,0,15.1,0,22.6C193,44.1,193,44.4,193,44.8z"/>
		<path class="st16" d="M112.7,29c0.6-1.3,1.7-2,3-2.4c2.5-0.6,2.8-0.4,2.8,2.1c0,2,0,2-2,2.1c-2.1,0.1-3.7,1.8-3.7,4.1
			c0,3,0,5.9,0,8.9c0,0.3,0,0.6,0,1c-1.7,0-3.2,0-4.9,0c0-6,0-12,0-18.1c1.4,0,2.8,0,4.1,0c0.1,0,0.4,0.4,0.4,0.6c0.1,0.5,0,1,0,1.5
			C112.5,28.9,112.6,29,112.7,29z"/>
		<path class="st16" d="M125.6,26.7c0,6,0,12,0,18c-1.6,0-3.2,0-4.8,0c0-6,0-12,0-18C122.4,26.7,123.9,26.7,125.6,26.7z"/>
		<path class="st16" d="M125.5,24.9c-1.6,0-3.2,0-4.8,0c0-1.5,0-3,0-4.5c0-0.1,0.3-0.4,0.4-0.4c1.4,0,2.9,0,4.4,0
			C125.5,21.7,125.5,23.2,125.5,24.9z"/>
	</g>
	<path class="st17" d="M-47.3,36.1V13.8L-28,25v7.4L-40.9,25v14.9L-47.3,36.1z"/>
	<path class="st18" d="M-28,25l19.3-11.1v22.3l-12.9,7.4l-6.4-3.7l12.9-7.4V25L-28,32.4V25z"/>
	<path class="st17" d="M-28,39.8v7.4l12.9,7.4v-7.4L-28,39.8z"/>
	<path class="st18" d="M-15.1,54.7L4.2,43.5V28.7l-6.4,3.7v7.4l-12.9,7.4V54.7z M-2.3,25v-7.4l6.4-3.7v7.4L-2.3,25z"/>
</g>
<path id="Express" class="st19" d="M44.4,55.6v-29H46v4.6c0.2-0.2,0.4-0.4,0.5-0.6c1.3-2.7,4.1-4.4,7.1-4.4c3.6-0.1,6.5,1.2,8.2,4.4
	c2.2,4,2.3,8.9,0.3,13c-1.6,3.6-5.5,5.4-9.8,4.7c-2.7-0.2-5-1.8-6.3-4.2v11.5L44.4,55.6z M46,36.8l0.4,3.4c0.6,3.9,2.9,6.2,6.5,6.6
	c3.5,0.6,6.9-1.4,8.1-4.7c1.4-3.3,1.3-7.1-0.3-10.4c-1.3-3-4.4-4.7-7.6-4.2c-3,0.2-5.5,2.3-6.3,5.2C46.4,34.1,46.2,35.5,46,36.8
	L46,36.8z M95.7,40.8c-0.5,4.2-4,7.4-8.3,7.5c-6.6,0.3-9.7-4.1-10.2-9.1c-0.3-2.7,0.1-5.5,1.3-8c1.7-3.5,5.5-5.5,9.3-5
	c3.7,0.3,6.7,2.9,7.6,6.5c0.3,1.6,0.6,3.2,0.7,4.8H78.9c-0.3,4.6,2.1,8.3,5.6,9.2c4.3,1.1,8.1-0.8,9.4-5
	C94.2,40.6,94.8,40.5,95.7,40.8L95.7,40.8z M78.9,36h15.5c-0.1-4.9-3.1-8.4-7.3-8.5C82.4,27.5,79.1,30.9,78.9,36z M98.9,40.9h1.5
	c0.1,2.3,1.5,4.3,3.6,5.2c2.6,1.2,5.6,1.1,8.1-0.2c1.4-0.6,2.3-2.1,2.1-3.6c0.1-1.5-0.8-2.8-2.2-3.3c-1.7-0.6-3.4-1-5.2-1.5
	c-1.8-0.5-3.5-1.1-5.2-1.9c-2.7-1.3-2.9-6.6,0.2-8.2c3.2-1.8,7.2-1.9,10.5-0.2c2,1.1,3.1,3.3,2.8,5.6h-1.3c0-0.1-0.1-0.1-0.1-0.2
	c-0.2-4.2-3.7-5.5-7.4-5.1c-1.1,0.1-2.2,0.5-3.2,1c-1.2,0.6-2,1.9-1.9,3.2c0,1.4,0.9,2.6,2.1,3c1.6,0.6,3.4,1,5.1,1.5l4.1,1.1
	c1.9,0.6,3.2,2.4,3.3,4.4c0.3,2.2-0.8,4.4-2.8,5.4c-3.6,2-9.5,1.5-12.1-1.1C99.7,44.6,98.9,42.8,98.9,40.9L98.9,40.9z M135.2,32.9
	h-1.4c0-0.2-0.1-0.4-0.1-0.5c0-2.2-1.6-4.1-3.8-4.5c-2-0.6-4.1-0.5-6,0.3c-1.6,0.4-2.6,1.9-2.6,3.5c-0.1,1.6,1,3,2.6,3.4l6.5,1.7
	c0.7,0.2,1.4,0.4,2.1,0.6c2.1,0.8,3.5,2.7,3.6,4.9c0.1,2.2-1.2,4.2-3.3,5.1c-3.1,1.4-6.6,1.4-9.6,0.1c-2.6-1.1-4.2-3.7-4-6.5h1.4
	c0.5,2.5,2.3,4.6,4.6,5.6c2.4,1,5.1,0.8,7.3-0.6c1.3-0.7,2.1-2.1,2.1-3.6c0.1-1.5-0.9-2.8-2.3-3.3c-1.7-0.6-3.4-1-5.2-1.5
	c-1.8-0.5-3.5-1.1-5.2-1.9c-2.7-1.3-2.9-6.5,0.2-8.1c3.3-1.9,7.3-1.9,10.6-0.1C134.4,28.5,135.4,30.6,135.2,32.9L135.2,32.9z
	 M41.8,47.7c-1.2,0.4-2.5-0.1-3-1.2l-5.5-7.7l-0.8-1.1L26,46.6c-0.5,1.1-1.8,1.5-2.9,1.1l8.3-11.1l-7.7-10c1.1-0.4,2.4,0,3.1,1.1
	l5.7,7.8l5.8-7.7c0.5-1,1.8-1.5,2.9-1.1l-3,4l-4.1,5.3c-0.4,0.4-0.5,1.1-0.1,1.5c0,0,0.1,0.1,0.1,0.1L41.8,47.7L41.8,47.7z M77,26.5
	V28c-4.3-0.3-8,3-8.3,7.2c0,0.3,0,0.5,0,0.8c0,3.5,0,7.1,0,10.6v1.2h-1.5V26.6h1.5v4.3C70.6,27.8,73.4,26.6,77,26.5L77,26.5z
	 M3.3,36.5L4,33.2c1.9-6.6,9.4-9.3,14.6-5.2c3,2.4,3.8,5.8,3.7,9.6H5.1C4.8,44.3,9.7,48.4,16,46.3c2.1-0.8,3.6-2.5,4.1-4.6
	c0.3-1.1,0.9-1.3,1.9-0.9c-0.3,2.6-1.9,5-4.2,6.4c-3.8,2.1-8.6,1.5-11.7-1.5c-1.5-1.7-2.5-3.9-2.6-6.2c0-0.4-0.1-0.7-0.2-1.1
	C3.3,37.7,3.3,37.1,3.3,36.5L3.3,36.5z M5.1,36h15.5c-0.1-4.9-3.2-8.4-7.4-8.5C8.6,27.5,5.3,30.9,5.1,36L5.1,36z"/>
<g id="Node" class="st0">
	<g class="st2">
		<path class="st20" d="M129.5,24.7c-0.3,0-0.7,0.1-1,0.2l-9.3,5.4c-0.6,0.3-1,1-1,1.7v10.7c0,0.7,0.4,1.4,1,1.7l2.4,1.4
			c1.2,0.6,1.6,0.6,2.2,0.6c1.7,0,2.7-1.1,2.7-2.9V32.9c0-0.1-0.1-0.3-0.3-0.3h-1.2c-0.1,0-0.3,0.1-0.3,0.3v10.6
			c0,0.8-0.9,1.6-2.2,0.9l-2.5-1.5c-0.1,0-0.2-0.1-0.2-0.2V32c0-0.1,0.1-0.2,0.2-0.3l9.3-5.4c0.1,0,0.2,0,0.3,0l9.3,5.4
			c0.1,0.1,0.2,0.2,0.2,0.3v10.7c0,0.1-0.1,0.2-0.1,0.3l-9.3,5.4c-0.1,0-0.2,0-0.3,0l-2.4-1.4c-0.1,0-0.2,0-0.2,0
			c-0.7,0.4-0.8,0.4-1.4,0.6c-0.2,0.1-0.4,0.1,0.1,0.4l3.1,1.8c0.3,0.2,0.6,0.3,1,0.3c0.3,0,0.7-0.1,1-0.3l9.3-5.4
			c0.6-0.4,1-1,1-1.7V32c0-0.7-0.4-1.4-1-1.7l-9.3-5.4C130.2,24.7,129.8,24.7,129.5,24.7L129.5,24.7z"/>
		<path class="st20" d="M132,32.3c-2.7,0-4.2,1.1-4.2,3c0,2,1.6,2.6,4.1,2.8c3,0.3,3.3,0.7,3.3,1.3c0,1-0.8,1.5-2.8,1.5
			c-2.5,0-3-0.6-3.2-1.8c0-0.1-0.1-0.2-0.3-0.2h-1.2c-0.1,0-0.3,0.1-0.3,0.3c0,1.6,0.9,3.4,4.9,3.4c2.9,0,4.6-1.2,4.6-3.2
			c0-2-1.4-2.5-4.2-2.9c-2.9-0.4-3.2-0.6-3.2-1.2c0-0.6,0.2-1.3,2.4-1.3c1.9,0,2.6,0.4,2.9,1.7c0,0.1,0.1,0.2,0.3,0.2h1.2
			c0.1,0,0.1,0,0.2-0.1c0.1-0.1,0.1-0.1,0.1-0.2C136.4,33.4,135,32.3,132,32.3L132,32.3z"/>
	</g>
	<path class="st21" d="M74.7,10.6c-0.1,0-0.2,0-0.3,0.1c-0.2,0.1-0.3,0.3-0.3,0.5v15.1c0,0.1-0.1,0.3-0.2,0.4
		c-0.1,0.1-0.3,0.1-0.4,0l-2.5-1.4c-0.4-0.2-0.8-0.2-1.2,0L60,30.9c-0.4,0.2-0.6,0.6-0.6,1v11.4c0,0.4,0.2,0.8,0.6,1l9.9,5.7
		c0.4,0.2,0.8,0.2,1.2,0l9.9-5.7c0.4-0.2,0.6-0.6,0.6-1V15c0-0.4-0.2-0.8-0.6-1L75,10.6C74.9,10.6,74.8,10.6,74.7,10.6L74.7,10.6z
		 M11.3,24.8c-0.2,0-0.4,0-0.5,0.1l-9.9,5.7c-0.4,0.2-0.6,0.6-0.6,1l0,15.3c0,0.2,0.1,0.4,0.3,0.5c0.2,0.1,0.4,0.1,0.6,0L7,44.1
		c0.4-0.2,0.6-0.6,0.6-1v-7.1c0-0.4,0.2-0.8,0.6-1l2.5-1.4c0.2-0.1,0.4-0.2,0.6-0.2c0.2,0,0.4,0.1,0.6,0.2l2.5,1.4
		c0.4,0.2,0.6,0.6,0.6,1v7.1c0,0.4,0.2,0.8,0.6,1l5.9,3.4c0.2,0.1,0.4,0.1,0.6,0c0.2-0.1,0.3-0.3,0.3-0.5l0-15.3
		c0-0.4-0.2-0.8-0.6-1l-9.9-5.7c-0.2-0.1-0.3-0.1-0.5-0.1H11.3z M99.9,24.9c-0.2,0-0.4,0.1-0.6,0.2l-9.9,5.7c-0.4,0.2-0.6,0.6-0.6,1
		v11.4c0,0.4,0.2,0.8,0.6,1l9.8,5.6c0.4,0.2,0.8,0.2,1.2,0l5.9-3.3c0.2-0.1,0.3-0.3,0.3-0.5c0-0.2-0.1-0.4-0.3-0.5l-9.9-5.7
		c-0.2-0.1-0.3-0.3-0.3-0.5v-3.6c0-0.2,0.1-0.4,0.3-0.5l3.1-1.8c0.2-0.1,0.4-0.1,0.6,0l3.1,1.8c0.2,0.1,0.3,0.3,0.3,0.5v2.8
		c0,0.2,0.1,0.4,0.3,0.5c0.2,0.1,0.4,0.1,0.6,0l5.9-3.4c0.4-0.2,0.6-0.6,0.6-1v-2.7c0-0.4-0.2-0.8-0.6-1l-9.8-5.7
		C100.3,25,100.1,24.9,99.9,24.9L99.9,24.9z M70.4,33.4c0.1,0,0.1,0,0.2,0l3.4,2c0.1,0.1,0.2,0.2,0.2,0.3v3.9c0,0.1-0.1,0.2-0.2,0.3
		l-3.4,2c-0.1,0.1-0.2,0.1-0.3,0l-3.4-2c-0.1-0.1-0.2-0.2-0.2-0.3v-3.9c0-0.1,0.1-0.2,0.2-0.3l3.4-2C70.3,33.5,70.4,33.4,70.4,33.4
		L70.4,33.4L70.4,33.4z"/>
	<path class="st22" d="M40.9,24.9c-0.2,0-0.4,0.1-0.6,0.2l-9.9,5.7c-0.4,0.2-0.6,0.6-0.6,1v11.4c0,0.4,0.2,0.8,0.6,1l9.9,5.7
		c0.4,0.2,0.8,0.2,1.2,0l9.9-5.7c0.4-0.2,0.6-0.6,0.6-1V31.8c0-0.4-0.2-0.8-0.6-1L41.5,25C41.3,24.9,41.1,24.9,40.9,24.9z M99.9,35
		c0,0-0.1,0-0.1,0l-1.9,1.1c-0.1,0-0.1,0.1-0.1,0.2v2.2c0,0.1,0,0.2,0.1,0.2l1.9,1.1c0.1,0,0.1,0,0.2,0l1.9-1.1
		c0.1,0,0.1-0.1,0.1-0.2v-2.2c0-0.1,0-0.2-0.1-0.2L99.9,35C100,35,99.9,35,99.9,35L99.9,35z"/>
</g>
<g id="Mongoose" class="st0">
	<path class="st23" d="M2.4,27.7h5.3v1.9c2.1-2.8,6.7-2.9,8.3,0.1h0c1.7-2.3,5.1-2.9,7.4-1.6c1.4,0.8,2.2,2.5,2.1,5l0,0v11.7h-5.4
		V35l0,0c0-1.3-0.5-2.1-1.7-2c-1.1,0.1-1.7,1-1.8,2.4v9.3h-5.5v-9.8c0-1.3-0.6-2-1.7-1.9c-1.9,0.1-1.8,2.4-1.8,2.4v9.3H2.4V27.7
		L2.4,27.7z M34.9,27.4c4.8,0,8.6,3.9,8.6,8.8c0,4.8-3.9,8.8-8.6,8.8c-4.8,0-8.6-3.9-8.6-8.8C26.3,31.3,30.1,27.4,34.9,27.4
		L34.9,27.4z M34.9,33c1.6,0,2.9,1.4,2.9,3.2c0,1.7-1.3,3.2-2.9,3.2c-1.6,0-2.9-1.4-2.9-3.2C32,34.4,33.3,33,34.9,33L34.9,33z
		 M44.7,27.7H50v1.4c1.8-1.8,4.8-2.2,6.9-1c1.4,0.8,2.2,2.5,2.1,5l0,0v11.7h-5.4V35l0,0c0-1.3-0.5-2.1-1.7-2
		c-1.1,0.1-1.6,0.8-1.8,2.4v9.3h0h-5.4v-15V27.7L44.7,27.7z M83.7,27.4c4.8,0,8.6,3.9,8.6,8.8c0,4.8-3.9,8.8-8.6,8.8
		c-4.8,0-8.6-3.9-8.6-8.8C75.1,31.3,78.9,27.4,83.7,27.4L83.7,27.4z M83.7,33c1.6,0,2.9,1.4,2.9,3.2c0,1.7-1.3,3.2-2.9,3.2
		c-1.6,0-2.9-1.4-2.9-3.2C80.8,34.4,82.1,33,83.7,33L83.7,33z M67.3,27.5c0.8,0,1.5,0.1,2.2,0.3H75l-1.8,2.5c0,0,0,0.1,0.1,0.1
		c1,1.3,1.5,2.9,1.6,4.6c0.1,1.7-0.5,3.3-1.6,4.6c1.8,2.9,1.9,5.9-0.4,8.9c-3.7,3.6-10.1,2.4-13.6-1c1-1.3,1.9-2.7,2.9-4
		c2.9,3,7.9,3,6.8-1.1c-0.6,0.2-1.3,0.3-2,0.3c-2.6,0-5-1.3-6.2-3.3c-0.7-1.2-1-2.6-1.1-4.2C59.7,30.8,63,27.5,67.3,27.5L67.3,27.5z
		 M67.2,32.9c1.2,0,2.2,1,2.2,2.2c0,1.2-1,2.2-2.2,2.2c-1.2,0-2.2-1-2.2-2.2C65,33.9,66,32.9,67.2,32.9L67.2,32.9z M101.1,27.4
		c4.8,0,8.6,3.9,8.6,8.8c0,4.8-3.9,8.8-8.6,8.8c-4.8,0-8.6-3.9-8.6-8.8C92.4,31.3,96.3,27.4,101.1,27.4L101.1,27.4z M101.1,33
		c1.6,0,2.9,1.4,2.9,3.2c0,1.7-1.3,3.2-2.9,3.2c-1.6,0-2.9-1.4-2.9-3.2C98.1,34.4,99.5,33,101.1,33L101.1,33z M118.9,27.8v4.9
		c-0.7-0.3-2.1-0.6-2.8-0.2c-0.4,0.2-0.6,1.2,0,1.7c1.2,1.2,2.9,2.4,3.2,4.8c0.8,6.9-6.8,5.9-8.9,5.5l-0.1-5.2
		c2.3,0.8,3.2,0,3.1-0.9c-0.1-0.9-1.6-1.8-2.2-2.6c-1.3-1.3-2.2-4.9,0.4-6.9C113.3,27.5,116.5,27.3,118.9,27.8L118.9,27.8z
		 M128.3,27.4c3.7,0,6.5,2.4,7.8,5.8l-9.1,6.5c2.1,1,5.1,0.1,7.6-2.1c0.1,1.5,0.3,4.1,0.4,5.5c-2.1,1.3-4.5,1.9-6.8,1.9
		c-5.2,0-8.6-3.6-8.5-8.7C119.7,31.2,123.5,27.4,128.3,27.4L128.3,27.4z M130,32.6l-5.1,3.8C124.1,33.1,127.7,30.7,130,32.6
		L130,32.6z M137.7,39.6c0.3,0,0.5,0.1,0.8,0.2c0.2,0.1,0.4,0.2,0.6,0.4c0.2,0.2,0.3,0.4,0.4,0.6c0.1,0.2,0.1,0.5,0.1,0.8
		c0,0.4-0.1,0.7-0.3,1c-0.2,0.3-0.4,0.6-0.7,0.7c-0.3,0.2-0.6,0.3-1,0.3c-0.4,0-0.7-0.1-1-0.3c-0.3-0.2-0.5-0.4-0.7-0.7
		c-0.2-0.3-0.3-0.6-0.3-1c0-0.4,0.1-0.7,0.3-1c0.2-0.3,0.4-0.6,0.7-0.7C137,39.7,137.3,39.6,137.7,39.6L137.7,39.6z M137.7,40
		c-0.3,0-0.5,0.1-0.8,0.2c-0.2,0.1-0.4,0.3-0.6,0.6c-0.1,0.2-0.2,0.5-0.2,0.8c0,0.3,0.1,0.6,0.2,0.8c0.1,0.2,0.3,0.4,0.6,0.6
		c0.2,0.1,0.5,0.2,0.8,0.2c0.3,0,0.5-0.1,0.8-0.2c0.2-0.1,0.4-0.3,0.6-0.6c0.1-0.2,0.2-0.5,0.2-0.8c0-0.3-0.1-0.6-0.2-0.8
		c-0.1-0.2-0.3-0.4-0.6-0.6C138.2,40.1,138,40,137.7,40L137.7,40z M138.5,42.7h-0.4l-0.2-0.6c0,0,0-0.1-0.1-0.1c0,0,0-0.1-0.1-0.1
		c0,0-0.1,0-0.1-0.1c0,0-0.1,0-0.1,0h-0.4v0.9H137v-2.2h0.8c0,0,0.1,0,0.1,0c0,0,0.1,0,0.1,0c0,0,0.1,0,0.1,0c0,0,0.1,0,0.1,0.1
		c0,0,0.1,0.1,0.1,0.1c0,0,0,0.1,0.1,0.1c0,0,0,0.1,0,0.1c0,0,0,0.1,0,0.1c0,0.1,0,0.3-0.1,0.3c-0.1,0.1-0.1,0.2-0.2,0.2
		c0.1,0.1,0.1,0.2,0.2,0.3L138.5,42.7L138.5,42.7z M137.3,41.5h0.5c0.1,0,0.1,0,0.2,0c0,0,0.1,0,0.1-0.1c0,0,0-0.1,0.1-0.1
		c0,0,0-0.1,0-0.1c0-0.1,0-0.2-0.1-0.2c-0.1,0-0.1-0.1-0.2-0.1h-0.5V41.5L137.3,41.5z"/>
</g>
<g id="Mongo_DB" class="st0">
	<path class="st23" d="M152.4,24.9c-0.2,0-0.3,0.4-0.3,0.6c0,1.4-0.1,5-0.1,7.5c0,0.1,0.1,0.2,0.2,0.2c0.5,0,1.7,0.1,2.8,0.1
		c1.5,0,2.3-0.2,2.8-0.4c1.2-0.6,1.8-1.9,1.8-3.4c0-3.3-2.3-4.6-5.8-4.6C153.6,24.8,152.9,24.8,152.4,24.9z M161.2,40.2
		c0-3.4-2.5-5.3-7-5.3c-0.2,0-1.6,0-2,0c-0.1,0-0.2,0.1-0.2,0.2c0,2.4,0,6.3,0.1,7.8c0.1,0.6,0.5,1.6,1.1,1.8c0.6,0.3,2,0.4,3,0.4
		C158.9,45.2,161.2,43.7,161.2,40.2L161.2,40.2z M145.4,23c0.3,0,1.4,0.1,4,0.1c2.5,0,4.5-0.1,6.9-0.1c3,0,7.1,1.1,7.1,5.5
		c0,2.2-1.5,3.9-3.6,4.8c-0.1,0-0.1,0.1,0,0.1c2.9,0.7,5.4,2.5,5.4,5.8c0,3.3-2.1,5.4-5,6.7c-1.8,0.8-4.1,1.1-6.4,1.1
		c-1.7,0-6.4-0.2-9-0.1c-0.3-0.1,0.2-1.3,0.5-1.5c0.6,0,1.1-0.1,1.7-0.3c0.9-0.2,1-0.5,1.2-1.9c0.1-1.2,0.1-5.4,0.1-8.4
		c0-4.1,0-6.9,0-8.3c0-1.1-0.4-1.4-1.2-1.6c-0.6-0.1-1.5-0.2-2.3-0.3C144.6,24.3,145.2,23.2,145.4,23L145.4,23z M125.7,44.3
		c0.8,0.6,2.4,0.9,3.9,0.9c1.8,0,3.7-0.3,5.5-1.9c1.8-1.6,3.1-4.2,3.1-8.2c0-3.9-1.5-7-4.5-8.9c-1.7-1.1-3.9-1.5-6.4-1.5
		c-0.8,0-1.5,0-1.9,0.2c-0.1,0.1-0.3,0.4-0.3,0.5c-0.1,0.7-0.1,6-0.1,9c0,3.2,0,7.6,0.1,8.1C124.9,43.2,125.2,44,125.7,44.3
		L125.7,44.3z M117.9,23c0.7,0,3.1,0.1,4.3,0.1c2.2,0,3.7-0.1,7.8-0.1c3.4,0,6.3,0.9,8.3,2.7c2.5,2.2,3.8,5.1,3.8,8.8
		c0,5.2-2.4,8.1-4.7,9.8c-2.4,1.7-5.4,2.8-9.8,2.8c-2.3,0-6.3-0.1-9.6-0.1h0c-0.2-0.3,0.3-1.5,0.5-1.5c0.9-0.1,1.1-0.1,1.6-0.3
		c0.7-0.3,0.9-0.7,1-1.9c0.1-2.4,0.1-5.2,0.1-8.4c0-2.3,0-6.8,0-8.2c-0.1-1.2-0.6-1.5-1.6-1.7c-0.5-0.1-1.2-0.2-2.2-0.3
		C117.1,24.3,117.8,23.2,117.9,23L117.9,23z"/>
	<path class="st23" d="M76.5,45.6c-0.9-0.1-1.5-0.2-2.2-0.6C74.2,45,74,44.6,74,44.5C74,43.3,74,39.9,74,37.6c0-1.8-0.3-3.5-1.1-4.6
		c-0.9-1.3-2.3-2.1-4-2.1c-1.5,0-3.5,1-5.2,2.5c0,0-0.3,0.3-0.3-0.1c0-0.4,0.1-1.1,0.1-1.6c0-0.5-0.2-0.7-0.2-0.7
		c-1.1,0.5-4.2,1.3-5.3,1.4c-0.8,0.2-1,1-0.2,1.2h0c0.9,0.3,1.5,0.6,2,0.9c0.3,0.3,0.3,0.6,0.3,1c0,2.6,0,6.5-0.1,8.7
		c0,0.9-0.3,1.2-0.9,1.3l0.1,0c-0.5,0.1-0.9,0.2-1.4,0.3c-0.2,0.2-0.2,1.3,0,1.5c0.4,0,2.4-0.1,4-0.1c2.3,0,3.4,0.1,4,0.1
		c0.2-0.3,0.3-1.3,0.2-1.5c-0.7,0-1.1-0.1-1.6-0.2c-0.6-0.1-0.8-0.4-0.8-1.2c-0.1-1.8-0.1-5.6-0.1-8.2c0-0.7,0.2-1.1,0.4-1.3
		c0.8-0.7,2.1-1.2,3.2-1.2c1.1,0,1.8,0.3,2.4,0.8c0.8,0.6,1,1.5,1.1,2.2c0.2,1.5,0.1,4.4,0.1,6.9c0,1.4-0.1,1.7-0.6,1.9
		c-0.2,0.1-0.9,0.2-1.6,0.3c-0.2,0.2-0.2,1.3,0,1.5c1,0,2.2-0.1,3.9-0.1c2.1,0,3.5,0.1,4,0.1C76.6,46.9,76.7,45.9,76.5,45.6
		L76.5,45.6z M86,32.6c-1.8,0-2.9,1.4-2.9,3.6c0,2.2,1,4.8,3.8,4.8c0.5,0,1.4-0.2,1.8-0.7c0.7-0.6,1.1-1.8,1.1-3.1
		C89.7,34.3,88.3,32.6,86,32.6L86,32.6z M85.8,47.7c-0.7,0-1.2,0.2-1.5,0.4c-1.4,0.9-2.1,1.8-2.1,2.9c0,1,0.4,1.8,1.2,2.5
		c1,0.9,2.4,1.3,4.1,1.3c3.5,0,5-1.9,5-3.7c0-1.3-0.7-2.2-2-2.6C89.6,47.9,87.9,47.7,85.8,47.7L85.8,47.7z M86,56.6
		c-2.1,0-3.6-0.4-4.9-1.4c-1.3-1-1.8-2.4-1.8-3.4c0-0.3,0.1-1,0.7-1.7c0.4-0.4,1.2-1.2,3.1-2.5c0.1,0,0.1-0.1,0.1-0.1
		c0-0.1-0.1-0.1-0.1-0.2c-1.6-0.6-2.1-1.6-2.2-2.2V45c0-0.2-0.1-0.4,0.2-0.6c0.2-0.2,0.6-0.4,1-0.6c0.6-0.3,1.2-0.7,1.6-1
		c0.1-0.1,0.1-0.1,0.1-0.2c0-0.1-0.1-0.1-0.1-0.2c-2.4-0.8-3.6-2.6-3.6-5.2c0-1.7,0.8-3.3,2.2-4.3c1-0.8,3.4-1.7,4.9-1.7h0.1
		c1.6,0,2.5,0.4,3.8,0.8c0.7,0.2,1.3,0.3,2.2,0.3c1.3,0,1.9-0.4,2.4-0.9c0,0.1,0.1,0.2,0.1,0.7c0,0.4-0.1,1.1-0.4,1.6
		c-0.3,0.4-0.9,0.7-1.5,0.7h-0.2c-0.6-0.1-0.9-0.1-0.9-0.1l-0.1,0.1c0,0.1,0,0.1,0,0.2l0,0.1c0.1,0.3,0.2,1.2,0.2,1.5
		c0,2.8-1.1,4-2.3,5c-1.2,0.9-2.5,1.4-4,1.5c0,0-0.2,0-0.5,0c-0.2,0-0.4,0-0.4,0h0c-0.3,0.1-1,0.4-1,1c0,0.5,0.3,1.1,1.8,1.2
		c0.3,0,0.6,0,1,0.1c1.9,0.1,4.4,0.3,5.5,0.7c1.6,0.6,2.6,2,2.6,3.7c0,2.5-1.8,4.9-4.8,6.4C89.1,56.2,87.6,56.6,86,56.6L86,56.6z
		 M105.5,32.7c-0.7,0-1.4,0.2-1.8,0.5c-1.3,0.8-2,2.5-2,4.9c0,4.5,2.3,7.6,5.5,7.6c1,0,1.7-0.3,2.4-0.8c1-0.8,1.5-2.5,1.5-4.8
		C111,35.7,108.8,32.7,105.5,32.7L105.5,32.7z M106.1,47.4c-5.8,0-7.9-4.3-7.9-8.3c0-2.8,1.1-5,3.4-6.5c1.6-1,3.5-1.5,5.2-1.5
		c4.4,0,7.6,3.2,7.6,7.8c0,3.1-1.2,5.6-3.6,7.1C109.7,46.7,107.7,47.4,106.1,47.4L106.1,47.4L106.1,47.4z M45.2,32.7
		c-0.7,0-1.4,0.2-1.8,0.5c-1.3,0.8-2,2.5-2,4.9c0,4.5,2.3,7.6,5.5,7.6c1,0,1.7-0.3,2.4-0.8c1-0.8,1.5-2.5,1.5-4.8
		C50.7,35.7,48.5,32.7,45.2,32.7z M45.8,47.4c-5.8,0-7.9-4.3-7.9-8.3c0-2.8,1.1-5,3.4-6.5c1.6-1,3.5-1.5,5.2-1.5
		c4.4,0,7.6,3.2,7.6,7.8c0,3.1-1.2,5.6-3.6,7.1C49.4,46.7,47.4,47.4,45.8,47.4L45.8,47.4z M6.7,47c-0.1-0.1-0.1-0.4-0.1-0.8
		c0-0.3,0.1-0.4,0.1-0.5c0.7-0.1,1.1-0.2,1.5-0.3c0.7-0.2,1-0.5,1-1.4c0.1-2.1,0.1-6,0.1-8.7v-0.1c0-0.3,0-0.7-0.4-1
		c-0.5-0.3-1.2-0.6-2.1-0.9c-0.3-0.1-0.5-0.3-0.5-0.5c0-0.2,0.2-0.4,0.7-0.5c1.1-0.1,4.1-0.8,5.2-1.3c0.1,0.1,0.2,0.3,0.2,0.5l0,0.4
		c0,0.4-0.1,0.8-0.1,1.3c0,0.1,0.1,0.2,0.3,0.2c0.1,0,0.1,0,0.2-0.1c2.2-1.7,4.2-2.3,5.2-2.3c1.7,0,3,0.8,4,2.4
		c0.1,0.1,0.1,0.1,0.2,0.1c0.1,0,0.2,0,0.2-0.1c2-1.5,4-2.5,5.4-2.5c3.2,0,5.1,2.4,5.1,6.4c0,1.1,0,2.6,0,3.9c0,1.2,0,2.3,0,3.1
		c0,0.2,0.2,0.7,0.6,0.8c0.5,0.2,1.1,0.3,2,0.5h0c0.1,0.2-0.1,1.1-0.2,1.3c-0.2,0-0.5,0-0.9,0c-0.9,0-1.7-0.1-2.6-0.1
		c-2.1,0-3.2,0-4.3,0.1c-0.1-0.3-0.1-1.1,0-1.3c0.6-0.1,0.9-0.2,1.3-0.3c0.7-0.2,0.9-0.5,0.9-1.4c0-0.6,0.1-6.2-0.1-7.5
		c-0.2-1.4-1.2-3-3.5-3c-0.9,0-2.2,0.3-3.5,1.3c-0.1,0.1-0.1,0.2-0.1,0.3v0c0.1,0.7,0.1,1.5,0.1,2.8v2.2c0,1.5,0,3,0,4.1
		c0,0.8,0.4,0.9,0.8,1.1c0.2,0,0.3,0.1,0.5,0.1c0.3,0.1,0.6,0.1,1.1,0.2c0.1,0.1,0.1,0.6,0,1c0,0.2-0.1,0.3-0.1,0.3
		c-1.2,0-2.4-0.1-4.1-0.1c-0.5,0-1.4,0-2.2,0c-0.6,0-1.2,0-1.5,0c0-0.1-0.1-0.3-0.1-0.7c0-0.3,0.1-0.5,0.1-0.6
		c0.2,0,0.3-0.1,0.5-0.1c0.4-0.1,0.8-0.1,1.1-0.2c0.6-0.2,0.8-0.5,0.8-1.2c0.1-1.7,0.2-6.6,0-7.8c-0.4-2-1.5-3-3.4-3
		c-1.1,0-2.4,0.5-3.5,1.3c-0.2,0.1-0.3,0.5-0.3,0.8v2c0,2.5,0,5.5,0,6.9c0,0.4,0.2,0.9,1,1.1c0.2,0,0.4,0.1,0.8,0.1l0.6,0.1
		c0.1,0.2,0,1-0.1,1.3c-0.3,0-0.8,0-1.2,0c-0.7,0-1.6-0.1-2.7-0.1c-1.2,0-2.1,0-2.7,0.1C7.5,47,7.1,47,6.7,47L6.7,47z"/>
	<path class="st24" d="M-11.3,55.2l-1.4-0.5c0,0,0.2-7.1-2.4-7.7c-1.7-2,0.3-84.1,6.4-0.3c0,0-2.1,1.1-2.5,2.9
		C-11.6,51.5-11.3,55.2-11.3,55.2z"/>
	<path class="st25" d="M-11.3,55.2l-1.4-0.5c0,0,0.2-7.1-2.4-7.7c-1.7-2,0.3-84.1,6.4-0.3c0,0-2.1,1.1-2.5,2.9
		C-11.6,51.5-11.3,55.2-11.3,55.2z"/>
	<path class="st24" d="M-10.5,48.3c0,0,12.3-8.1,9.4-24.9c-2.8-12.2-9.3-16.2-10-17.7c-0.8-1.1-1.5-3-1.5-3l0.5,34
		C-12.2,36.7-13.2,47.1-10.5,48.3"/>
	<path class="st26" d="M-10.5,48.3c0,0,12.3-8.1,9.4-24.9c-2.8-12.2-9.3-16.2-10-17.7c-0.8-1.1-1.5-3-1.5-3l0.5,34
		C-12.2,36.7-13.2,47.1-10.5,48.3"/>
	<path class="st24" d="M-13.4,48.8c0,0-11.5-7.9-10.8-21.7c0.6-13.9,8.8-20.7,10.4-21.9c1-1.1,1.1-1.5,1.1-2.6
		c0.7,1.5,0.6,23,0.7,25.5C-11.8,37.9-12.6,46.9-13.4,48.8z"/>
	<path class="st27" d="M-13.4,48.8c0,0-11.5-7.9-10.8-21.7c0.6-13.9,8.8-20.7,10.4-21.9c1-1.1,1.1-1.5,1.1-2.6
		c0.7,1.5,0.6,23,0.7,25.5C-11.8,37.9-12.6,46.9-13.4,48.8z"/>
</g>
<g id="Mongo__x26__Mongoose" class="st0">
	<g class="st2">
		<path class="st28" d="M109,32.6h3.8V34c1.5-2,4.8-2.1,6,0.1h0c1.2-1.6,3.7-2.1,5.3-1.2c1,0.6,1.6,1.8,1.5,3.5l0,0v8.3h-3.9v-6.9
			l0,0c0-1-0.4-1.5-1.2-1.4c-0.8,0-1.2,0.7-1.3,1.7v6.7h-3.9v-7c0-0.9-0.4-1.4-1.2-1.4c-1.3,0.1-1.3,1.7-1.3,1.7v6.6H109V32.6
			L109,32.6z M132.2,32.4c3.4,0,6.2,2.8,6.2,6.3c0,3.5-2.8,6.3-6.2,6.3c-3.4,0-6.2-2.8-6.2-6.3C126,35.2,128.8,32.4,132.2,32.4
			L132.2,32.4z M132.2,36.4c1.2,0,2.1,1,2.1,2.3c0,1.2-0.9,2.3-2.1,2.3c-1.2,0-2.1-1-2.1-2.3C130.1,37.4,131,36.4,132.2,36.4
			L132.2,36.4z M139.2,32.6h3.8v1c1.3-1.3,3.5-1.6,4.9-0.7c1,0.6,1.6,1.8,1.5,3.5l0,0v8.3h-3.9v-6.9l0,0c0-1-0.4-1.5-1.2-1.4
			c-0.8,0-1.1,0.6-1.3,1.7v6.7h0h-3.9V34.1V32.6L139.2,32.6z M167,32.4c3.4,0,6.2,2.8,6.2,6.3c0,3.5-2.8,6.3-6.2,6.3
			c-3.4,0-6.2-2.8-6.2-6.3C160.9,35.2,163.6,32.4,167,32.4L167,32.4z M167,36.4c1.2,0,2.1,1,2.1,2.3c0,1.2-0.9,2.3-2.1,2.3
			s-2.1-1-2.1-2.3C164.9,37.4,165.9,36.4,167,36.4L167,36.4z M155.4,32.5c0.5,0,1.1,0.1,1.6,0.2h3.9l-1.3,1.8c0,0,0,0,0,0.1
			c0.7,0.9,1.1,2.1,1.1,3.3c0.1,1.2-0.4,2.3-1.1,3.3c1.3,2.1,1.4,4.2-0.3,6.3c-2.6,2.6-7.2,1.7-9.7-0.7c0.7-1,1.4-1.9,2.1-2.9
			c2,2.1,5.6,2.2,4.9-0.8c-0.5,0.1-0.9,0.2-1.4,0.2c-1.9,0-3.5-0.9-4.5-2.4c-0.5-0.8-0.7-1.9-0.8-3
			C149.9,34.8,152.3,32.5,155.4,32.5L155.4,32.5z M155.3,36.4c0.8,0,1.5,0.7,1.5,1.5c0,0.8-0.7,1.5-1.5,1.5c-0.8,0-1.5-0.7-1.5-1.5
			C153.7,37,154.4,36.4,155.3,36.4L155.3,36.4z M179.5,32.4c3.4,0,6.2,2.8,6.2,6.3c0,3.5-2.8,6.3-6.2,6.3c-3.4,0-6.2-2.8-6.2-6.3
			C173.3,35.2,176.1,32.4,179.5,32.4L179.5,32.4z M179.5,36.4c1.2,0,2.1,1,2.1,2.3c0,1.2-0.9,2.3-2.1,2.3c-1.2,0-2.1-1-2.1-2.3
			C177.4,37.4,178.3,36.4,179.5,36.4L179.5,36.4z M192.2,32.7v3.5c-0.5-0.2-1.5-0.4-2-0.2c-0.3,0.2-0.5,0.8,0,1.2
			c0.9,0.8,2.1,1.7,2.3,3.4c0.5,5-4.9,4.2-6.4,3.9l-0.1-3.7c1.6,0.6,2.3,0,2.2-0.6c-0.1-0.6-1.2-1.3-1.6-1.8c-1-1-1.5-3.5,0.3-4.9
			C188.2,32.5,190.5,32.4,192.2,32.7L192.2,32.7z M198.9,32.4c2.7,0,4.7,1.7,5.5,4.1l-6.5,4.6c1.5,0.7,3.7,0.1,5.5-1.5
			c0,1.1,0.2,2.9,0.3,4c-1.5,0.9-3.2,1.3-4.9,1.3c-3.7,0-6.1-2.6-6.1-6.2C192.8,35.1,195.5,32.4,198.9,32.4L198.9,32.4z M200.1,36.1
			l-3.7,2.7C195.9,36.5,198.5,34.8,200.1,36.1L200.1,36.1z M205.6,41.2c0.2,0,0.4,0,0.5,0.1c0.2,0.1,0.3,0.2,0.4,0.3
			c0.1,0.1,0.2,0.3,0.3,0.5c0.1,0.2,0.1,0.4,0.1,0.6c0,0.3-0.1,0.5-0.2,0.7c-0.1,0.2-0.3,0.4-0.5,0.5c-0.2,0.1-0.4,0.2-0.7,0.2
			c-0.3,0-0.5-0.1-0.7-0.2c-0.2-0.1-0.4-0.3-0.5-0.5c-0.1-0.2-0.2-0.5-0.2-0.7c0-0.3,0.1-0.5,0.2-0.7c0.1-0.2,0.3-0.4,0.5-0.5
			C205.1,41.2,205.4,41.2,205.6,41.2L205.6,41.2z M205.6,41.4c-0.2,0-0.4,0.1-0.6,0.2c-0.2,0.1-0.3,0.2-0.4,0.4
			c-0.1,0.2-0.2,0.4-0.2,0.6c0,0.2,0.1,0.4,0.2,0.6c0.1,0.2,0.2,0.3,0.4,0.4c0.2,0.1,0.4,0.2,0.6,0.2c0.2,0,0.4-0.1,0.6-0.2
			c0.2-0.1,0.3-0.2,0.4-0.4c0.1-0.2,0.1-0.4,0.1-0.6c0-0.2,0-0.4-0.1-0.6c-0.1-0.2-0.2-0.3-0.4-0.4C206,41.5,205.8,41.4,205.6,41.4
			L205.6,41.4z M206.2,43.4H206l-0.1-0.4c0,0,0-0.1,0-0.1c0,0,0,0-0.1-0.1c0,0,0,0-0.1,0c0,0-0.1,0-0.1,0h-0.3v0.6h-0.2v-1.6h0.6
			c0,0,0.1,0,0.1,0c0,0,0.1,0,0.1,0c0,0,0.1,0,0.1,0c0,0,0.1,0,0.1,0.1c0,0,0,0,0.1,0.1c0,0,0,0.1,0,0.1c0,0,0,0.1,0,0.1
			c0,0,0,0.1,0,0.1c0,0.1,0,0.2-0.1,0.2c0,0.1-0.1,0.1-0.2,0.2c0.1,0.1,0.1,0.1,0.1,0.2L206.2,43.4L206.2,43.4z M205.3,42.5h0.3
			c0,0,0.1,0,0.1,0c0,0,0.1,0,0.1,0c0,0,0,0,0-0.1c0,0,0-0.1,0-0.1c0-0.1,0-0.1-0.1-0.2c0,0-0.1,0-0.2,0h-0.4V42.5L205.3,42.5z"/>
	</g>
	<g class="st2">
		<path class="st28" d="M72.9,27.8c-0.1,0-0.3,0.3-0.3,0.5c0,1-0.1,3.8-0.1,5.6c0,0.1,0.1,0.2,0.2,0.2c0.4,0,1.3,0.1,2.1,0.1
			c1.1,0,1.8-0.2,2.1-0.3c0.9-0.5,1.4-1.5,1.4-2.6c0-2.5-1.8-3.5-4.4-3.5C73.8,27.7,73.2,27.7,72.9,27.8z M79.5,39.4
			c0-2.6-1.9-4-5.3-4c-0.2,0-1.2,0-1.5,0c-0.1,0-0.2,0.1-0.2,0.2c0,1.8,0,4.8,0.1,5.9c0.1,0.5,0.4,1.2,0.9,1.4
			c0.5,0.3,1.5,0.3,2.3,0.3C77.7,43.2,79.5,42,79.5,39.4L79.5,39.4z M67.6,26.4c0.3,0,1,0.1,3,0.1c1.9,0,3.4-0.1,5.2-0.1
			c2.3,0,5.4,0.8,5.4,4.2c0,1.7-1.2,3-2.7,3.6c-0.1,0-0.1,0.1,0,0.1c2.2,0.5,4.1,1.9,4.1,4.4c0,2.5-1.6,4.1-3.8,5
			c-1.4,0.6-3.1,0.8-4.8,0.8c-1.3,0-4.9-0.2-6.8-0.1c-0.2-0.1,0.2-1,0.4-1.2c0.5,0,0.8-0.1,1.3-0.2c0.7-0.2,0.8-0.4,0.9-1.4
			c0.1-0.9,0.1-4.1,0.1-6.4c0-3.1,0-5.3,0-6.3c0-0.8-0.3-1.1-0.9-1.2c-0.4-0.1-1.2-0.2-1.8-0.3C67,27.3,67.4,26.5,67.6,26.4
			L67.6,26.4z M52.6,42.5c0.6,0.5,1.8,0.7,2.9,0.7c1.4,0,2.8-0.3,4.1-1.5c1.4-1.2,2.3-3.2,2.3-6.2c0-2.9-1.1-5.3-3.4-6.7
			c-1.3-0.8-3-1.1-4.9-1.1c-0.6,0-1.1,0-1.4,0.2c-0.1,0.1-0.3,0.3-0.3,0.4C52,28.7,52,32.7,52,35.1c0,2.4,0,5.8,0.1,6.2
			C52.1,41.6,52.2,42.2,52.6,42.5L52.6,42.5z M46.8,26.4c0.5,0,2.4,0.1,3.3,0.1c1.6,0,2.8-0.1,5.9-0.1c2.6,0,4.8,0.7,6.3,2
			c1.9,1.6,2.9,3.9,2.9,6.6c0,3.9-1.8,6.2-3.6,7.5c-1.8,1.3-4.1,2.1-7.4,2.1c-1.8,0-4.8-0.1-7.3-0.1h0c-0.1-0.2,0.2-1.1,0.4-1.2
			c0.7-0.1,0.9-0.1,1.2-0.2c0.5-0.2,0.6-0.5,0.7-1.5c0.1-1.8,0.1-3.9,0.1-6.4c0-1.7,0-5.1,0-6.2c-0.1-0.9-0.5-1.1-1.2-1.3
			c-0.4-0.1-0.9-0.2-1.6-0.3C46.2,27.3,46.6,26.5,46.8,26.4L46.8,26.4z"/>
		<path class="st28" d="M15.4,43.5c-0.6-0.1-1.1-0.2-1.7-0.4c-0.1-0.1-0.2-0.3-0.2-0.4c-0.1-0.9-0.1-3.5-0.1-5.2
			c0-1.4-0.2-2.6-0.8-3.5c-0.7-1-1.7-1.6-3-1.6c-1.1,0-2.7,0.8-3.9,1.9c0,0-0.2,0.2-0.2-0.1c0-0.3,0.1-0.9,0.1-1.2
			c0-0.4-0.2-0.5-0.2-0.5c-0.8,0.4-3.2,1-4,1c-0.6,0.1-0.8,0.7-0.1,0.9h0C2,34.5,2.4,34.8,2.8,35C3.1,35.2,3,35.5,3,35.7
			c0,1.9,0,4.9-0.1,6.6c0,0.6-0.2,0.9-0.7,1l0.1,0c-0.4,0.1-0.6,0.2-1.1,0.2c-0.2,0.2-0.2,1,0,1.2c0.3,0,1.8-0.1,3-0.1
			c1.7,0,2.6,0.1,3,0.1c0.2-0.2,0.2-1,0.1-1.2c-0.5,0-0.9-0.1-1.2-0.2c-0.5-0.1-0.6-0.3-0.6-0.9c-0.1-1.4-0.1-4.3-0.1-6.2
			c0-0.5,0.2-0.8,0.3-1c0.6-0.5,1.6-0.9,2.4-0.9c0.8,0,1.4,0.3,1.8,0.6c0.6,0.5,0.8,1.1,0.8,1.6c0.1,1.1,0.1,3.3,0.1,5.2
			c0,1-0.1,1.3-0.5,1.4c-0.2,0.1-0.6,0.2-1.2,0.2c-0.2,0.2-0.1,1,0,1.2c0.8,0,1.6-0.1,2.9-0.1c1.6,0,2.6,0.1,3.1,0.1
			C15.5,44.4,15.5,43.7,15.4,43.5L15.4,43.5z M22.6,33.6c-1.4,0-2.2,1.1-2.2,2.7c0,1.7,0.8,3.6,2.9,3.6c0.4,0,1-0.2,1.3-0.5
			c0.5-0.5,0.8-1.4,0.8-2.4C25.4,34.9,24.4,33.6,22.6,33.6L22.6,33.6z M22.4,45c-0.5,0-0.9,0.2-1.1,0.3c-1.1,0.7-1.6,1.4-1.6,2.2
			c0,0.8,0.3,1.3,0.9,1.9c0.8,0.6,1.8,1,3.1,1c2.6,0,3.8-1.4,3.8-2.8c0-1-0.5-1.6-1.5-2C25.3,45.2,24,45,22.4,45L22.4,45z
			 M22.6,51.8c-1.6,0-2.7-0.3-3.7-1.1c-1-0.7-1.4-1.8-1.4-2.6c0-0.2,0.1-0.8,0.5-1.3c0.3-0.3,0.9-0.9,2.4-1.9c0.1,0,0.1-0.1,0.1-0.1
			c0-0.1-0.1-0.1-0.1-0.1c-1.2-0.5-1.6-1.2-1.7-1.6V43c0-0.2-0.1-0.3,0.2-0.5c0.2-0.1,0.4-0.3,0.7-0.5c0.4-0.3,0.9-0.5,1.2-0.8
			c0.1-0.1,0.1-0.1,0.1-0.2S20.8,41,20.7,41C18.9,40.4,18,39,18,37c0-1.3,0.6-2.5,1.7-3.3c0.7-0.6,2.5-1.3,3.7-1.3h0.1
			c1.2,0,1.9,0.3,2.8,0.6c0.5,0.2,1,0.3,1.7,0.3c1,0,1.4-0.3,1.8-0.7c0,0.1,0.1,0.2,0.1,0.5c0,0.3-0.1,0.8-0.3,1.2
			c-0.2,0.3-0.7,0.5-1.1,0.5h-0.1c-0.5-0.1-0.7-0.1-0.7-0.1l-0.1,0.1c0,0.1,0,0.1,0,0.2l0,0.1c0.1,0.2,0.2,0.9,0.2,1.1
			c0,2.1-0.9,3.1-1.8,3.8c-0.9,0.6-1.9,1.1-3,1.2c0,0-0.1,0-0.4,0c-0.1,0-0.3,0-0.3,0h0c-0.2,0.1-0.7,0.3-0.7,0.8
			c0,0.4,0.2,0.9,1.3,0.9c0.2,0,0.5,0,0.7,0.1c1.5,0.1,3.3,0.2,4.2,0.5c1.2,0.4,1.9,1.5,1.9,2.8c0,1.9-1.4,3.7-3.7,4.8
			C24.9,51.5,23.8,51.8,22.6,51.8L22.6,51.8z M37.4,33.7c-0.5,0-1,0.1-1.4,0.4c-1,0.6-1.5,1.9-1.5,3.7c0,3.4,1.7,5.8,4.1,5.8
			c0.7,0,1.3-0.2,1.8-0.6c0.8-0.6,1.1-1.9,1.1-3.6C41.5,36,39.8,33.7,37.4,33.7L37.4,33.7z M37.8,44.8c-4.4,0-6-3.2-6-6.3
			c0-2.1,0.9-3.8,2.6-4.9c1.2-0.8,2.7-1.2,4-1.2c3.4,0,5.7,2.4,5.7,5.9c0,2.4-0.9,4.2-2.7,5.4C40.5,44.3,39,44.8,37.8,44.8
			L37.8,44.8L37.8,44.8z M-8.3,33.7c-0.5,0-1,0.1-1.4,0.4c-1,0.6-1.5,1.9-1.5,3.7c0,3.4,1.7,5.8,4.1,5.8c0.7,0,1.3-0.2,1.8-0.6
			c0.8-0.6,1.1-1.9,1.1-3.6C-4.2,36-5.8,33.7-8.3,33.7z M-7.9,44.8c-4.4,0-6-3.2-6-6.3c0-2.1,0.9-3.8,2.6-4.9c1.2-0.8,2.7-1.2,4-1.2
			c3.4,0,5.7,2.4,5.7,5.9c0,2.4-0.9,4.2-2.7,5.4C-5.1,44.3-6.6,44.8-7.9,44.8L-7.9,44.8z M-37.5,44.5c-0.1-0.1-0.1-0.3-0.1-0.6
			c0-0.2,0.1-0.3,0.1-0.4c0.5-0.1,0.8-0.2,1.1-0.2c0.5-0.1,0.7-0.4,0.8-1.1c0.1-1.6,0.1-4.5,0.1-6.6v-0.1c0-0.2,0-0.5-0.3-0.7
			c-0.4-0.3-0.9-0.5-1.6-0.7c-0.2-0.1-0.4-0.2-0.4-0.4c0-0.2,0.2-0.3,0.5-0.4c0.9-0.1,3.1-0.6,4-1c0.1,0.1,0.1,0.2,0.1,0.4l0,0.3
			c0,0.3-0.1,0.6-0.1,1c0,0.1,0.1,0.2,0.2,0.2c0.1,0,0.1,0,0.2-0.1c1.7-1.3,3.2-1.8,3.9-1.8c1.3,0,2.3,0.6,3,1.8
			c0.1,0.1,0.1,0.1,0.2,0.1c0.1,0,0.1,0,0.2-0.1c1.5-1.2,3.1-1.9,4.1-1.9c2.4,0,3.8,1.8,3.8,4.8c0,0.9,0,2,0,3c0,0.9,0,1.7,0,2.3
			c0,0.1,0.2,0.5,0.5,0.6c0.4,0.2,0.9,0.3,1.5,0.4h0c0.1,0.2-0.1,0.9-0.2,1c-0.2,0-0.4,0-0.6,0c-0.7,0-1.3-0.1-2-0.1
			c-1.6,0-2.4,0-3.2,0.1c-0.1-0.2-0.1-0.8,0-1c0.5-0.1,0.7-0.2,1-0.2c0.5-0.2,0.6-0.4,0.7-1.1c0-0.5,0.1-4.7-0.1-5.7
			c-0.2-1-0.9-2.3-2.6-2.3c-0.6,0-1.7,0.3-2.6,1c-0.1,0.1-0.1,0.2-0.1,0.3v0c0.1,0.5,0.1,1.2,0.1,2.1v1.7c0,1.2,0,2.3,0,3.1
			c0,0.6,0.3,0.7,0.6,0.8c0.2,0,0.3,0.1,0.4,0.1c0.2,0.1,0.5,0.1,0.8,0.2c0.1,0.1,0.1,0.4,0,0.7c0,0.2-0.1,0.2-0.1,0.3
			c-0.9,0-1.8-0.1-3.1-0.1c-0.4,0-1.1,0-1.6,0c-0.5,0-0.9,0-1.2,0c0-0.1-0.1-0.2-0.1-0.5c0-0.2,0.1-0.4,0.1-0.5
			c0.1,0,0.2-0.1,0.4-0.1c0.3-0.1,0.6-0.1,0.8-0.2c0.4-0.1,0.6-0.4,0.6-0.9c0.1-1.3,0.2-5,0-5.9c-0.3-1.5-1.2-2.3-2.5-2.3
			c-0.8,0-1.8,0.4-2.6,1c-0.1,0.1-0.2,0.4-0.2,0.6v1.5c0,1.9,0,4.2,0,5.2c0,0.3,0.1,0.7,0.7,0.8c0.1,0,0.3,0.1,0.6,0.1l0.5,0.1
			c0.1,0.2,0,0.8-0.1,1c-0.3,0-0.6,0-0.9,0c-0.5,0-1.2-0.1-2-0.1c-0.9,0-1.6,0-2.1,0.1C-36.9,44.5-37.1,44.5-37.5,44.5L-37.5,44.5z"
			/>
		<path class="st29" d="M-51.1,50.8l-1.1-0.4c0,0,0.1-5.4-1.8-5.8c-1.3-1.5,0.2-63.7,4.9-0.2c0,0-1.6,0.8-1.9,2.2
			C-51.3,47.9-51.1,50.8-51.1,50.8z"/>
		<path class="st30" d="M-51.1,50.8l-1.1-0.4c0,0,0.1-5.4-1.8-5.8c-1.3-1.5,0.2-63.7,4.9-0.2c0,0-1.6,0.8-1.9,2.2
			C-51.3,47.9-51.1,50.8-51.1,50.8z"/>
		<path class="st29" d="M-50.5,45.5c0,0,9.3-6.1,7.1-18.8c-2.1-9.2-7-12.3-7.6-13.4c-0.6-0.8-1.2-2.3-1.2-2.3l0.4,25.7
			C-51.8,36.7-52.6,44.6-50.5,45.5"/>
		<path class="st31" d="M-50.5,45.5c0,0,9.3-6.1,7.1-18.8c-2.1-9.2-7-12.3-7.6-13.4c-0.6-0.8-1.2-2.3-1.2-2.3l0.4,25.7
			C-51.8,36.7-52.6,44.6-50.5,45.5"/>
		<path class="st29" d="M-52.7,45.9c0,0-8.7-6-8.2-16.4c0.5-10.5,6.7-15.6,7.8-16.6c0.8-0.8,0.8-1.1,0.9-2
			c0.5,1.2,0.4,17.4,0.5,19.3C-51.4,37.6-52.1,44.5-52.7,45.9z"/>
		<path class="st32" d="M-52.7,45.9c0,0-8.7-6-8.2-16.4c0.5-10.5,6.7-15.6,7.8-16.6c0.8-0.8,0.8-1.1,0.9-2
			c0.5,1.2,0.4,17.4,0.5,19.3C-51.4,37.6-52.1,44.5-52.7,45.9z"/>
	</g>
	<path class="st33" d="M94.6,45.5c-0.9,0-1.7-0.2-2.4-0.5c-0.7-0.3-1.2-0.8-1.6-1.4c-0.4-0.6-0.6-1.3-0.6-2c0-0.6,0.1-1.1,0.3-1.5
		s0.6-0.9,1-1.3c0.4-0.4,0.9-0.8,1.6-1.3l2.1-1.6c0.5-0.4,0.9-0.7,1.2-1.1c0.3-0.3,0.4-0.8,0.4-1.3c0-0.5-0.2-0.9-0.6-1.3
		c-0.4-0.4-0.8-0.6-1.4-0.6c-0.4,0-0.8,0.1-1.1,0.3c-0.3,0.2-0.6,0.5-0.8,0.8c-0.2,0.3-0.3,0.7-0.3,1c0,0.3,0.1,0.7,0.3,1
		c0.2,0.3,0.4,0.7,0.7,1.1c0.3,0.4,0.6,0.8,1,1.2l6.7,8.3h-1.5l-5.8-7.2c-0.5-0.6-0.9-1.1-1.3-1.6s-0.7-0.9-0.9-1.4
		c-0.2-0.4-0.3-0.9-0.3-1.4c0-0.6,0.1-1.2,0.4-1.7c0.3-0.5,0.7-0.9,1.2-1.2c0.5-0.3,1.1-0.4,1.8-0.4c0.7,0,1.3,0.1,1.8,0.4
		c0.5,0.3,0.9,0.6,1.2,1.1s0.4,1,0.4,1.5c0,0.7-0.2,1.2-0.5,1.8c-0.3,0.5-0.8,1-1.5,1.5l-2.7,2c-0.7,0.5-1.2,1.1-1.5,1.5
		c-0.3,0.5-0.4,0.9-0.4,1.2c0,0.5,0.1,1,0.4,1.4c0.3,0.4,0.6,0.8,1.1,1c0.5,0.3,1,0.4,1.6,0.4c0.6,0,1.2-0.1,1.7-0.4s1-0.6,1.4-1
		c0.4-0.4,0.8-1,1-1.6c0.3-0.6,0.4-1.3,0.5-2.1l1.2,0c0,0.8-0.1,1.5-0.3,2c-0.2,0.5-0.4,1-0.7,1.3c-0.2,0.4-0.5,0.6-0.6,0.9
		c-0.1,0.1-0.1,0.1-0.2,0.2c-0.1,0.1-0.1,0.1-0.2,0.2c-0.5,0.5-1.1,0.9-1.8,1.2C96,45.3,95.3,45.5,94.6,45.5z"/>
</g>
<g id="Node__x26__Express" class="st0">
	<g class="st2">
		<g>
			<path class="st20" d="M1.1,13.9c-0.8,0-1.5,0.2-2.1,0.5l-20.6,11.9c-1.3,0.8-2.1,2.2-2.1,3.8v23.7c0,1.5,0.8,3,2.1,3.8l5.4,3.1
				c2.6,1.3,3.6,1.3,4.8,1.3c3.9,0,6.1-2.3,6.1-6.4V32.1c0-0.3-0.3-0.6-0.6-0.6h-2.6c-0.3,0-0.6,0.2-0.6,0.6v23.4
				c0,1.8-1.9,3.6-4.9,2.1l-5.6-3.3c-0.2-0.1-0.3-0.3-0.3-0.5V30.1c0-0.2,0.1-0.5,0.3-0.6L0.8,17.7c0.2-0.1,0.4-0.1,0.6,0l20.5,11.8
				c0.2,0.1,0.3,0.3,0.3,0.6v23.7c0,0.2-0.1,0.5-0.3,0.6L1.4,66.2c-0.2,0.1-0.4,0.1-0.6,0l-5.3-3.1C-4.7,63-4.9,63-5,63.1
				c-1.5,0.8-1.7,0.9-3.1,1.4C-8.5,64.6-9,64.7-8,65.3l6.9,4.1c0.7,0.4,1.4,0.6,2.1,0.6c0.8,0,1.5-0.2,2.1-0.6l20.6-11.8
				c1.3-0.8,2.1-2.2,2.1-3.8V30.1c0-1.5-0.8-3-2.1-3.8L3.2,14.4C2.6,14.1,1.8,13.9,1.1,13.9L1.1,13.9z"/>
			<path class="st20" d="M6.6,30.9c-5.9,0-9.3,2.5-9.3,6.6c0,4.5,3.5,5.7,9.1,6.3c6.7,0.7,7.2,1.6,7.2,3c0,2.3-1.8,3.3-6.2,3.3
				c-5.4,0-6.6-1.4-7-4.1c0-0.3-0.3-0.5-0.6-0.5h-2.7c-0.3,0-0.6,0.3-0.6,0.6c0,3.5,1.9,7.6,10.9,7.6c6.5,0,10.3-2.6,10.3-7
				c0-4.4-3-5.6-9.3-6.5c-6.4-0.8-7-1.3-7-2.8c0-1.2,0.5-2.9,5.2-2.9c4.2,0,5.8,0.9,6.4,3.8c0.1,0.3,0.3,0.5,0.6,0.5h2.7
				c0.2,0,0.3-0.1,0.4-0.2c0.1-0.1,0.2-0.3,0.2-0.4C16.4,33.2,13.2,30.9,6.6,30.9L6.6,30.9z"/>
		</g>
		<path class="st34" d="M-119.9-17.2c-0.2,0-0.5,0.1-0.7,0.2c-0.4,0.2-0.7,0.7-0.7,1.1v33.4c0,0.3-0.2,0.6-0.4,0.8
			c-0.3,0.2-0.6,0.2-0.9,0l-5.5-3.1c-0.8-0.5-1.8-0.5-2.6,0l-21.8,12.6c-0.8,0.5-1.3,1.4-1.3,2.3v25.2c0,0.9,0.5,1.8,1.3,2.3
			l21.8,12.6c0.8,0.5,1.8,0.5,2.6,0l21.8-12.6c0.8-0.5,1.3-1.3,1.3-2.3V-7.5c0-1-0.5-1.8-1.4-2.3l-13-7.3
			C-119.4-17.2-119.6-17.2-119.9-17.2L-119.9-17.2z M-260,14.2c-0.4,0-0.8,0.1-1.2,0.3L-283,27.1c-0.8,0.5-1.3,1.3-1.3,2.3l0,33.8
			c0,0.5,0.2,0.9,0.7,1.1c0.4,0.2,0.9,0.2,1.3,0l12.9-7.4c0.8-0.5,1.4-1.3,1.4-2.3V38.8c0-0.9,0.5-1.8,1.3-2.3l5.5-3.2
			c0.4-0.2,0.9-0.4,1.3-0.3c0.4,0,0.9,0.1,1.3,0.3l5.5,3.2c0.8,0.5,1.3,1.3,1.3,2.3v15.8c0,0.9,0.5,1.8,1.4,2.3l12.9,7.4
			c0.4,0.2,0.9,0.2,1.3,0c0.4-0.2,0.7-0.7,0.7-1.1l0-33.8c0-0.9-0.5-1.8-1.3-2.3l-21.8-12.6c-0.4-0.2-0.8-0.3-1.2-0.3H-260z
			 M-64.2,14.5c-0.5,0-0.9,0.1-1.3,0.3l-21.8,12.6c-0.8,0.5-1.3,1.3-1.3,2.3v25.2c0,0.9,0.5,1.8,1.4,2.3l21.6,12.3
			c0.8,0.5,1.8,0.5,2.6,0l13.1-7.3c0.4-0.2,0.7-0.7,0.7-1.1c0-0.5-0.2-0.9-0.7-1.1l-21.9-12.6c-0.4-0.2-0.7-0.7-0.7-1.2v-7.9
			c0-0.5,0.3-0.9,0.7-1.1l6.8-3.9c0.4-0.2,0.9-0.2,1.3,0l6.8,3.9c0.4,0.2,0.7,0.7,0.7,1.1v6.2c0,0.5,0.2,0.9,0.7,1.1
			c0.4,0.2,0.9,0.2,1.3,0l13.1-7.6c0.8-0.5,1.3-1.3,1.3-2.3v-6.1c0-0.9-0.5-1.8-1.3-2.3l-21.7-12.6C-63.3,14.6-63.8,14.5-64.2,14.5
			L-64.2,14.5z M-129.4,33.3c0.1,0,0.2,0,0.3,0.1l7.5,4.3c0.2,0.1,0.3,0.3,0.3,0.6v8.6c0,0.2-0.1,0.5-0.3,0.6l-7.5,4.3
			c-0.2,0.1-0.5,0.1-0.7,0l-7.5-4.3c-0.2-0.1-0.3-0.3-0.3-0.6v-8.6c0-0.2,0.1-0.4,0.3-0.6l7.5-4.3
			C-129.6,33.3-129.5,33.3-129.4,33.3L-129.4,33.3L-129.4,33.3z"/>
		<path class="st20" d="M-194.6,14.4c-0.5,0-0.9,0.1-1.3,0.3l-21.8,12.5c-0.8,0.5-1.3,1.4-1.3,2.3v25.2c0,0.9,0.5,1.8,1.3,2.3
			l21.8,12.6c0.8,0.5,1.8,0.5,2.6,0l21.8-12.6c0.8-0.5,1.3-1.3,1.3-2.3V29.6c0-0.9-0.5-1.8-1.3-2.3l-21.8-12.5
			C-193.7,14.5-194.1,14.4-194.6,14.4z M-64.3,36.8c-0.1,0-0.2,0-0.3,0l-4.2,2.4c-0.2,0.1-0.3,0.3-0.3,0.4v4.8
			c0,0.2,0.1,0.3,0.3,0.4l4.2,2.4c0.2,0.1,0.3,0.1,0.5,0l4.2-2.4c0.2-0.1,0.3-0.3,0.3-0.4v-4.8c0-0.2-0.1-0.3-0.3-0.4l-4.2-2.4
			C-64.1,36.8-64.2,36.8-64.3,36.8L-64.3,36.8z"/>
	</g>
	<g class="st2">
		<path class="st34" d="M76,62.4c-2.9,0-5.4-0.6-7.6-1.7c-2.2-1.1-3.8-2.7-5-4.6c-1.2-2-1.8-4.2-1.8-6.6c0-1.8,0.4-3.4,1.1-4.8
			c0.7-1.4,1.8-2.8,3.2-4.1c1.4-1.3,3.1-2.6,5-4l6.9-5.1c1.6-1.2,2.9-2.3,3.7-3.4s1.3-2.5,1.3-4.2c0-1.6-0.6-3-1.8-4.3
			s-2.7-1.9-4.6-1.9c-1.3,0-2.5,0.3-3.5,1c-1,0.7-1.9,1.5-2.5,2.6c-0.6,1.1-0.9,2.2-0.9,3.3c0,1.1,0.3,2.2,0.8,3.2
			c0.6,1.1,1.3,2.2,2.2,3.4c0.9,1.2,2,2.5,3.1,3.9l21.6,26.7h-5L73.3,38.7c-1.6-1.9-3-3.7-4.2-5.2c-1.2-1.5-2.2-3-2.9-4.4
			c-0.7-1.4-1.1-2.9-1.1-4.6c0-2,0.5-3.8,1.4-5.4c0.9-1.6,2.2-2.8,3.9-3.7c1.6-0.9,3.5-1.4,5.7-1.4c2.2,0,4.1,0.4,5.7,1.3
			c1.6,0.9,2.9,2.1,3.7,3.6c0.9,1.5,1.3,3.1,1.3,4.9c0,2.1-0.6,4-1.6,5.7c-1.1,1.6-2.7,3.3-4.8,4.8l-8.6,6.4c-2.4,1.8-4,3.4-4.8,4.9
			c-0.9,1.5-1.3,2.8-1.3,3.9c0,1.7,0.4,3.2,1.3,4.6c0.9,1.4,2.1,2.5,3.6,3.4c1.5,0.8,3.3,1.3,5.3,1.3c2,0,3.8-0.4,5.6-1.2
			c1.7-0.8,3.3-1.9,4.7-3.3c1.4-1.4,2.5-3.2,3.3-5.2c0.8-2,1.3-4.3,1.5-6.7l4,0c-0.1,2.5-0.4,4.7-1,6.4c-0.6,1.8-1.3,3.2-2.1,4.3
			c-0.8,1.1-1.5,2.1-2.1,2.7c-0.2,0.2-0.3,0.5-0.5,0.7c-0.2,0.2-0.3,0.5-0.5,0.7c-1.5,1.7-3.4,3-5.7,3.9S78.3,62.4,76,62.4z"/>
		<path class="st34" d="M220.4,79.8V14.7h3.5v10.2c0.4-0.5,0.8-0.9,1.2-1.4c3-6.1,9.2-10,16-9.9c8.1-0.2,14.6,2.7,18.4,9.9
			c5,9,5.3,19.9,0.8,29.2c-3.6,8-12.4,12-21.9,10.6c-6-0.5-11.3-4-14.1-9.3v25.9L220.4,79.8z M223.9,37.7l0.8,7.6
			c1.4,8.7,6.5,13.8,14.6,14.8c7.8,1.3,15.5-3.1,18.3-10.6c3.1-7.5,2.9-16-0.6-23.3c-3-6.6-10-10.5-17.1-9.5
			c-6.7,0.5-12.4,5.2-14.2,11.7C224.9,31.6,224.3,34.7,223.9,37.7L223.9,37.7z M335.5,46.6c-1.1,9.5-9.1,16.7-18.6,16.8
			c-14.8,0.7-21.8-9.1-22.9-20.4c-0.8-6.2,0.2-12.4,2.9-18c3.8-7.9,12.3-12.4,20.9-11.2c8.2,0.7,15.1,6.6,17.1,14.6
			c0.8,3.6,1.3,7.2,1.7,10.8h-38.9c-0.7,10.3,4.8,18.6,12.6,20.6c9.8,2.4,18.1-1.8,21.1-11.1C332.1,46.2,333.4,45.9,335.5,46.6
			L335.5,46.6z M297.6,35.9h34.8c-0.2-11-7-18.9-16.3-19C305.7,16.7,298.1,24.3,297.6,35.9z M342.7,46.8h3.4c0.3,5.1,3.4,9.7,8,11.8
			c5.8,2.6,12.5,2.4,18.2-0.5c3.1-1.4,5.1-4.6,4.8-8.1c0.2-3.3-1.9-6.4-5-7.4c-3.8-1.4-7.7-2.2-11.6-3.4c-4-1.1-7.9-2.6-11.6-4.3
			c-6.2-3-6.5-14.7,0.4-18.4c7.3-4.1,16.1-4.2,23.5-0.4c4.5,2.5,7,7.5,6.3,12.6h-2.9c0-0.1-0.3-0.3-0.3-0.4
			c-0.4-9.3-8.2-12.2-16.6-11.4c-2.5,0.3-5,1.1-7.2,2.2c-2.8,1.3-4.5,4.2-4.2,7.2c0,3.1,1.9,5.8,4.8,6.8c3.7,1.3,7.6,2.2,11.4,3.3
			l9.2,2.4c4.3,1.4,7.2,5.3,7.5,9.8c0.7,4.9-1.8,9.8-6.2,12c-8,4.5-21.3,3.3-27.1-2.4C344.3,55.2,342.7,51.1,342.7,46.8L342.7,46.8z
			 M424,28.8h-3.2c0-0.4-0.2-0.8-0.2-1.2c-0.1-4.9-3.7-9.1-8.5-10.1c-4.4-1.3-9.2-1-13.5,0.6c-3.5,1-5.9,4.2-5.9,7.8
			c-0.1,3.6,2.3,6.8,5.8,7.6l14.6,3.8c1.6,0.4,3.1,0.9,4.7,1.4c4.7,1.7,7.8,6,8,11c0.1,5-2.8,9.5-7.3,11.4
			c-6.9,3.1-14.7,3.2-21.6,0.2c-5.8-2.5-9.4-8.3-9-14.6h3.1c1.2,5.7,5.1,10.4,10.4,12.6c5.3,2.2,11.4,1.7,16.3-1.5
			c3-1.5,4.8-4.7,4.6-8c0.1-3.3-1.9-6.3-5.1-7.4c-3.8-1.4-7.7-2.1-11.6-3.4c-4-1.1-7.9-2.5-11.7-4.2c-6-3-6.5-14.6,0.4-18.3
			c7.4-4.3,16.4-4.4,23.9-0.3C422.2,19,424.6,23.9,424,28.8L424,28.8z M214.5,62.2c-2.6,1-5.5-0.1-6.8-2.6l-12.4-17.2l-1.8-2.4
			l-14.4,19.6c-1.2,2.4-4,3.5-6.5,2.5l18.6-24.9l-17.3-22.5c2.6-0.9,5.4,0.1,6.9,2.4l12.9,17.4l13-17.3c1.2-2.3,4-3.4,6.4-2.4
			l-6.7,8.9l-9.1,11.8c-1,0.9-1.1,2.4-0.2,3.4c0.1,0.1,0.1,0.1,0.2,0.2L214.5,62.2L214.5,62.2z M293.5,14.5v3.4
			c-9.6-0.6-17.9,6.6-18.5,16.3c0,0.6,0,1.2,0,1.8c0,7.9,0,15.8,0,23.8v2.7h-3.4V14.7h3.4v9.8C279,17.4,285.4,14.7,293.5,14.5
			L293.5,14.5z M128.1,37l1.5-7.5c4.2-14.8,21.1-20.9,32.8-11.8c6.8,5.4,8.5,13,8.2,21.5h-38.5c-0.6,15.3,10.4,24.5,24.5,19.8
			c4.7-1.7,8.2-5.6,9.3-10.4c0.7-2.4,2-2.8,4.2-2.1c-0.8,5.9-4.2,11.2-9.3,14.3c-8.6,4.7-19.2,3.3-26.3-3.4
			c-3.4-3.9-5.5-8.7-5.9-13.9c0-0.8-0.3-1.6-0.5-2.4C128.1,39.7,128,38.3,128.1,37L128.1,37z M132.1,35.9h34.8
			c-0.2-11.1-7.2-18.9-16.5-19C140,16.8,132.5,24.5,132.1,35.9L132.1,35.9z"/>
	</g>
</g>
<g id="Redux" class="st0">
	<g class="st2">
		<path class="st35" d="M-23.7,40.6c1.8-0.2,3.2-1.7,3.1-3.6c-0.1-1.9-1.6-3.3-3.5-3.3h-0.1c-1.9,0.1-3.4,1.7-3.3,3.6
			c0.1,0.9,0.4,1.7,1,2.3c-2.1,4.2-5.3,7.2-10.2,9.7c-3.3,1.7-6.7,2.4-10.1,1.9c-2.8-0.4-5-1.6-6.3-3.7c-2-3-2.2-6.3-0.5-9.6
			c1.2-2.4,3-4.1,4.2-5c-0.2-0.8-0.6-2.2-0.8-3.2c-9,6.5-8.1,15.3-5.3,19.5c2,3.1,6.2,5,10.8,5c1.2,0,2.5-0.1,3.7-0.4
			C-33.2,52.3-27.1,47.6-23.7,40.6z"/>
		<path class="st35" d="M-12.8,32.9c-4.7-5.5-11.7-8.6-19.6-8.6h-1c-0.6-1.1-1.7-1.9-3-1.9h-0.1c-1.9,0.1-3.4,1.7-3.3,3.6
			c0.1,1.9,1.6,3.3,3.5,3.3h0.1c1.4-0.1,2.5-0.9,3-2.1h1.1c4.7,0,9.2,1.4,13.2,4c3.1,2,5.3,4.7,6.6,7.9c1.1,2.6,1,5.1-0.1,7.3
			c-1.7,3.3-4.6,5.1-8.5,5.1c-2.5,0-4.8-0.7-6.1-1.3c-0.7,0.6-1.9,1.6-2.8,2.2c2.7,1.2,5.4,1.9,8,1.9c6,0,10.4-3.3,12-6.6
			C-8.1,44.4-8.2,38.2-12.8,32.9z"/>
		<path class="st35" d="M-44.3,41.7c0.1,1.9,1.6,3.3,3.5,3.3h0.1c1.9-0.1,3.4-1.7,3.3-3.6c-0.1-1.9-1.6-3.3-3.5-3.3H-41
			c-0.1,0-0.3,0-0.4,0.1c-2.5-4.2-3.6-8.8-3.2-13.8c0.2-3.7,1.5-6.9,3.7-9.6c1.8-2.3,5.3-3.4,7.6-3.5c6.6-0.1,9.4,8.1,9.5,11.3
			c0.8,0.2,2.2,0.6,3.1,0.9c-0.7-10-6.9-15.3-12.9-15.3c-5.6,0-10.7,4-12.8,10c-2.9,7.9-1,15.6,2.5,21.6
			C-44.2,40.3-44.4,41-44.3,41.7z"/>
	</g>
	<g class="st2">
		<path class="st35" d="M7.4,44.5V20.5h9.4c1.8,0,3.3,0.3,4.6,1c1.3,0.6,2.3,1.6,2.9,2.7c0.7,1.2,1,2.5,1,4.1c0,1.6-0.3,3-1,4.1
			c-0.7,1.1-1.7,2-3,2.6c-1.3,0.6-2.9,0.9-4.7,0.9h-6.3v-4.1h5.5c1,0,1.8-0.1,2.4-0.4c0.6-0.3,1.1-0.7,1.4-1.2
			c0.3-0.5,0.5-1.2,0.5-2c0-0.8-0.2-1.5-0.5-2c-0.3-0.5-0.8-1-1.4-1.2c-0.6-0.3-1.4-0.4-2.4-0.4h-3.4v19.8H7.4z M20.3,33.6l5.9,10.9
			h-5.6l-5.8-10.9H20.3z"/>
		<path class="st35" d="M36.7,44.8c-1.8,0-3.4-0.4-4.8-1.1c-1.3-0.8-2.3-1.8-3.1-3.2c-0.7-1.4-1.1-3-1.1-4.9c0-1.8,0.4-3.5,1.1-4.9
			c0.7-1.4,1.7-2.5,3-3.3c1.3-0.8,2.8-1.2,4.6-1.2c1.2,0,2.3,0.2,3.3,0.6c1,0.4,1.9,0.9,2.7,1.7c0.8,0.8,1.4,1.7,1.8,2.8
			c0.4,1.1,0.6,2.5,0.6,4v1.4H29.8v-3.1h10.5c0-0.7-0.2-1.3-0.5-1.9c-0.3-0.6-0.7-1-1.3-1.3c-0.5-0.3-1.2-0.5-1.9-0.5
			c-0.8,0-1.4,0.2-2,0.5c-0.6,0.3-1,0.8-1.4,1.4c-0.3,0.6-0.5,1.2-0.5,1.9v2.9c0,0.9,0.2,1.7,0.5,2.3c0.3,0.6,0.8,1.1,1.4,1.5
			c0.6,0.4,1.3,0.5,2.2,0.5c0.6,0,1.1-0.1,1.5-0.2c0.5-0.2,0.9-0.4,1.2-0.7c0.3-0.3,0.6-0.7,0.7-1.1l4.6,0.3
			c-0.2,1.1-0.7,2.1-1.4,2.9c-0.7,0.8-1.6,1.5-2.8,1.9S38.2,44.8,36.7,44.8z"/>
		<path class="st35" d="M53.3,44.8c-1.1,0-2.2-0.2-3.1-0.6c-0.9-0.4-1.6-1-2.1-1.8c-0.5-0.8-0.8-1.8-0.8-3c0-1,0.2-1.8,0.5-2.5
			c0.4-0.7,0.9-1.2,1.5-1.6c0.6-0.4,1.3-0.7,2.2-0.9c0.8-0.2,1.7-0.4,2.5-0.4c1-0.1,1.9-0.2,2.5-0.3c0.6-0.1,1.1-0.2,1.4-0.4
			c0.3-0.2,0.4-0.5,0.4-0.9v-0.1c0-0.7-0.2-1.3-0.7-1.7c-0.5-0.4-1.1-0.6-2-0.6c-0.9,0-1.6,0.2-2.1,0.6c-0.5,0.4-0.9,0.9-1.1,1.5
			L48,31.6c0.2-1.1,0.7-2,1.4-2.8c0.7-0.8,1.6-1.4,2.7-1.8c1.1-0.4,2.3-0.6,3.8-0.6c1,0,2,0.1,2.9,0.4s1.7,0.6,2.4,1.1
			c0.7,0.5,1.3,1.1,1.7,1.9c0.4,0.8,0.6,1.7,0.6,2.8v12.1h-4.7V42h-0.1c-0.3,0.6-0.7,1.1-1.2,1.5c-0.5,0.4-1.1,0.8-1.7,1
			C55,44.7,54.2,44.8,53.3,44.8z M54.7,41.4c0.7,0,1.4-0.1,1.9-0.4c0.6-0.3,1-0.7,1.3-1.2c0.3-0.5,0.5-1.1,0.5-1.7v-1.9
			c-0.2,0.1-0.4,0.2-0.6,0.3s-0.6,0.2-0.9,0.2c-0.3,0.1-0.7,0.1-1,0.2c-0.3,0-0.6,0.1-0.9,0.1c-0.6,0.1-1.1,0.2-1.5,0.4
			c-0.4,0.2-0.8,0.4-1,0.8c-0.2,0.3-0.4,0.7-0.4,1.2c0,0.7,0.2,1.2,0.7,1.5C53.3,41.2,54,41.4,54.7,41.4z"/>
		<path class="st35" d="M75.4,44.8c-1.8,0-3.4-0.4-4.7-1.2s-2.3-1.9-3-3.3c-0.7-1.4-1.1-3-1.1-4.8c0-1.8,0.4-3.4,1.1-4.8
			c0.7-1.4,1.7-2.5,3-3.3c1.3-0.8,2.9-1.2,4.7-1.2c1.6,0,2.9,0.3,4.1,0.9c1.2,0.6,2.1,1.4,2.8,2.4c0.7,1,1.1,2.2,1.1,3.6h-4.7
			c-0.1-0.9-0.5-1.6-1-2.2c-0.6-0.5-1.3-0.8-2.2-0.8c-0.8,0-1.4,0.2-2,0.6c-0.6,0.4-1,1-1.3,1.8c-0.3,0.8-0.5,1.8-0.5,2.9
			c0,1.1,0.2,2.1,0.5,2.9c0.3,0.8,0.8,1.4,1.3,1.8s1.2,0.6,2,0.6c0.6,0,1.1-0.1,1.5-0.4c0.5-0.2,0.8-0.6,1.1-1
			c0.3-0.4,0.5-1,0.6-1.6h4.7c-0.1,1.4-0.4,2.6-1.1,3.6c-0.7,1-1.6,1.9-2.8,2.4C78.3,44.5,77,44.8,75.4,44.8z"/>
		<path class="st35" d="M96.1,26.5v3.7H85.3v-3.7H96.1z M87.8,22.2h5v16.7c0,0.5,0.1,0.8,0.2,1.1c0.1,0.3,0.3,0.4,0.6,0.5
			s0.5,0.2,0.9,0.2c0.2,0,0.5,0,0.7-0.1c0.2,0,0.4-0.1,0.5-0.1l0.8,3.7c-0.3,0.1-0.6,0.2-1.1,0.3c-0.5,0.1-1,0.2-1.6,0.2
			c-1.2,0-2.2-0.1-3.1-0.5c-0.9-0.4-1.6-0.9-2.1-1.7c-0.5-0.8-0.7-1.7-0.7-2.9V22.2z"/>
	</g>
	<g class="st2">
		<path class="st35" d="M108.8,44.5V20.5h9.4c1.8,0,3.3,0.3,4.6,1c1.3,0.6,2.3,1.6,2.9,2.7c0.7,1.2,1,2.5,1,4.1c0,1.6-0.3,3-1,4.1
			c-0.7,1.1-1.7,2-3,2.6c-1.3,0.6-2.9,0.9-4.7,0.9h-6.3v-4.1h5.5c1,0,1.8-0.1,2.4-0.4c0.6-0.3,1.1-0.7,1.4-1.2
			c0.3-0.5,0.5-1.2,0.5-2c0-0.8-0.2-1.5-0.5-2c-0.3-0.5-0.8-1-1.4-1.2c-0.6-0.3-1.4-0.4-2.4-0.4h-3.4v19.8H108.8z M121.7,33.6
			l5.9,10.9h-5.6l-5.8-10.9H121.7z"/>
		<path class="st35" d="M138.1,44.8c-1.8,0-3.4-0.4-4.8-1.1c-1.3-0.8-2.3-1.8-3.1-3.2c-0.7-1.4-1.1-3-1.1-4.9c0-1.8,0.4-3.5,1.1-4.9
			c0.7-1.4,1.7-2.5,3-3.3c1.3-0.8,2.8-1.2,4.6-1.2c1.2,0,2.3,0.2,3.3,0.6c1,0.4,1.9,0.9,2.7,1.7c0.8,0.8,1.4,1.7,1.8,2.8
			c0.4,1.1,0.6,2.5,0.6,4v1.4h-15.1v-3.1h10.5c0-0.7-0.2-1.3-0.5-1.9c-0.3-0.6-0.7-1-1.3-1.3c-0.5-0.3-1.2-0.5-1.9-0.5
			c-0.8,0-1.4,0.2-2,0.5c-0.6,0.3-1,0.8-1.4,1.4c-0.3,0.6-0.5,1.2-0.5,1.9v2.9c0,0.9,0.2,1.7,0.5,2.3c0.3,0.6,0.8,1.1,1.4,1.5
			c0.6,0.4,1.3,0.5,2.2,0.5c0.6,0,1.1-0.1,1.5-0.2c0.5-0.2,0.9-0.4,1.2-0.7c0.3-0.3,0.6-0.7,0.7-1.1l4.6,0.3
			c-0.2,1.1-0.7,2.1-1.4,2.9c-0.7,0.8-1.6,1.5-2.8,1.9S139.6,44.8,138.1,44.8z"/>
		<path class="st35" d="M156.2,44.8c-1.4,0-2.6-0.4-3.7-1.1c-1.1-0.7-2-1.7-2.6-3.1c-0.6-1.4-1-3.1-1-5.1c0-2.1,0.3-3.8,1-5.1
			s1.5-2.4,2.6-3.1c1.1-0.7,2.3-1,3.6-1c1,0,1.8,0.2,2.5,0.5c0.7,0.3,1.2,0.8,1.6,1.3c0.4,0.5,0.7,1,1,1.5h0.2v-9h5v23.9h-4.9v-2.9
			h-0.2c-0.2,0.5-0.6,1-1,1.5c-0.4,0.5-1,0.9-1.6,1.2C158,44.6,157.2,44.8,156.2,44.8z M157.8,40.8c0.8,0,1.5-0.2,2-0.7
			c0.6-0.4,1-1.1,1.3-1.8c0.3-0.8,0.4-1.7,0.4-2.8s-0.1-2-0.4-2.8c-0.3-0.8-0.7-1.4-1.3-1.8c-0.6-0.4-1.2-0.6-2-0.6
			c-0.8,0-1.5,0.2-2.1,0.7c-0.6,0.4-1,1.1-1.3,1.8c-0.3,0.8-0.4,1.7-0.4,2.7c0,1,0.1,2,0.4,2.8c0.3,0.8,0.7,1.4,1.3,1.9
			S157,40.8,157.8,40.8z"/>
		<path class="st35" d="M182,36.8V26.5h5v17.9h-4.8v-3.3H182c-0.4,1.1-1.1,1.9-2,2.5c-0.9,0.6-2.1,1-3.4,1c-1.2,0-2.3-0.3-3.2-0.8
			c-0.9-0.5-1.6-1.3-2.1-2.3s-0.8-2.2-0.8-3.6V26.5h5v10.5c0,1.1,0.3,1.9,0.9,2.5c0.6,0.6,1.3,0.9,2.3,0.9c0.6,0,1.2-0.1,1.7-0.4
			c0.5-0.3,0.9-0.7,1.3-1.2S182,37.6,182,36.8z"/>
		<path class="st35" d="M195.1,26.5l3.3,6.3l3.4-6.3h5.1l-5.2,9l5.3,9h-5.1l-3.5-6.2l-3.5,6.2h-5.1l5.3-9l-5.1-9H195.1z"/>
	</g>
</g>
<g id="React" class="st0">
	<g class="st2">
		<g>
			<circle class="st36" cx="10.5" cy="29.5" r="5"/>
			<path class="st36" d="M-3.5,39.5l-1.1-0.3c-8.2-2.1-12.9-5.6-12.9-9.7c0-4.1,4.7-7.6,12.9-9.7l1.1-0.3l0.3,1.1
				c0.8,2.9,1.9,5.7,3.2,8.4l0.2,0.5L0,30c-1.3,2.7-2.4,5.5-3.2,8.4L-3.5,39.5z M-5.1,22.4c-6.2,1.8-10.1,4.4-10.1,7.1
				c0,2.7,3.8,5.4,10.1,7.1c0.8-2.4,1.7-4.8,2.8-7.1C-3.5,27.2-4.4,24.8-5.1,22.4z M24.5,39.5l-0.3-1.1c-0.8-2.9-1.9-5.7-3.2-8.4
				l-0.2-0.5L21,29c1.3-2.7,2.4-5.5,3.2-8.4l0.3-1.1l1.1,0.3c8.2,2.1,12.9,5.6,12.9,9.7c0,4.1-4.7,7.6-12.9,9.7L24.5,39.5z
				 M23.3,29.5c1.1,2.4,2.1,4.8,2.8,7.1c6.2-1.8,10.1-4.4,10.1-7.1c0-2.7-3.8-5.4-10.1-7.1C25.3,24.8,24.4,27.2,23.3,29.5z"/>
			<path class="st36" d="M-5.2,22.4l-0.3-1.1c-2.3-8.1-1.6-14,1.9-16c3.5-2,9,0.4,14.9,6.3l0.8,0.8l-0.8,0.8c-2.1,2.2-4,4.5-5.7,6.9
				l-0.3,0.5l-0.5,0c-3,0.2-5.9,0.7-8.8,1.4C-4.1,22.1-5.2,22.4-5.2,22.4z M-0.7,6.9c-0.6,0-1.2,0.1-1.6,0.4
				c-2.3,1.3-2.7,6-1.1,12.3c2.5-0.6,5-0.9,7.6-1.2c1.5-2.1,3.1-4.1,4.8-5.9C5.2,8.9,1.7,6.9-0.7,6.9z M21.7,54.5
				c-3.3,0-7.6-2.5-12-7.1l-0.8-0.8l0.8-0.8c2.1-2.2,4-4.5,5.7-6.9l0.3-0.4l0.5-0.1c3-0.2,5.9-0.7,8.8-1.4l1.1-0.3l0.3,1.1
				c2.3,8.1,1.6,14-1.9,16C23.6,54.2,22.7,54.5,21.7,54.5z M12.1,46.6c3.6,3.5,7.1,5.6,9.6,5.6c0.6,0,1.2-0.1,1.6-0.4
				c2.3-1.3,2.7-6,1.1-12.3c-2.5,0.6-5,1-7.6,1.2C15.4,42.7,13.8,44.7,12.1,46.6z"/>
			<path class="st36" d="M26.1,22.4L25,22.1c-2.9-0.7-5.9-1.2-8.8-1.4l-0.5,0l-0.3-0.5c-1.7-2.5-3.6-4.8-5.7-6.9l-0.8-0.8l0.8-0.8
				c5.8-6,11.4-8.3,14.9-6.3c3.5,2,4.2,7.9,1.9,16L26.1,22.4z M16.9,18.4c2.7,0.2,5.2,0.6,7.6,1.2c1.6-6.3,1.2-10.9-1.1-12.3
				C21,6,16.7,8,12.1,12.5C13.8,14.3,15.4,16.3,16.9,18.4z M-0.7,54.5c-1,0-2-0.2-2.8-0.7c-3.5-2-4.2-7.9-1.9-16l0.3-1.1l1.1,0.3
				c2.7,0.7,5.7,1.2,8.8,1.4l0.5,0.1l0.3,0.4c1.7,2.5,3.6,4.8,5.7,6.9l0.8,0.8l-0.8,0.8C6.9,52,2.6,54.5-0.7,54.5z M-3.5,39.5
				c-1.6,6.3-1.2,10.9,1.1,12.3C-0.1,53,4.3,51,8.8,46.6c-1.7-1.9-3.3-3.9-4.8-5.9C1.5,40.4-1,40-3.5,39.5z"/>
			<path class="st36" d="M10.5,40.9c-1.9,0-3.9-0.1-5.9-0.2l-0.5,0l-0.3-0.5c-1.1-1.6-2.2-3.3-3.2-5c-1-1.7-1.9-3.4-2.7-5.2
				l-0.2-0.5l0.2-0.5c0.8-1.8,1.7-3.5,2.7-5.2c1-1.7,2-3.3,3.2-5L4,18.4l0.5-0.1c3.9-0.3,7.8-0.3,11.8,0l0.5,0.1l0.3,0.4
				c2.2,3.2,4.2,6.6,5.9,10.2l0.2,0.5L23.1,30c-1.7,3.5-3.6,6.9-5.9,10.2l-0.3,0.5l-0.5,0C14.4,40.8,12.4,40.9,10.5,40.9z M5.3,38.4
				c3.5,0.3,6.8,0.3,10.3,0c1.9-2.8,3.6-5.8,5.1-8.9c-1.5-3.1-3.2-6.1-5.1-8.9c-3.4-0.3-6.9-0.3-10.3,0c-1.9,2.8-3.7,5.8-5.1,8.9
				C1.7,32.6,3.4,35.6,5.3,38.4z"/>
		</g>
	</g>
	<g class="st2">
		<path class="st36" d="M55,46.7V16.4h12c2.3,0,4.2,0.4,5.9,1.2c1.6,0.8,2.9,2,3.7,3.5c0.9,1.5,1.3,3.2,1.3,5.2c0,2-0.4,3.7-1.3,5.2
			c-0.9,1.4-2.1,2.6-3.8,3.3c-1.6,0.8-3.6,1.2-6,1.2h-8v-5.2h7c1.2,0,2.2-0.2,3.1-0.5c0.8-0.3,1.4-0.8,1.8-1.5
			c0.4-0.7,0.6-1.5,0.6-2.5c0-1-0.2-1.9-0.6-2.5c-0.4-0.7-1-1.2-1.8-1.6c-0.8-0.4-1.8-0.5-3.1-0.5h-4.3v25.1H55z M71.4,32.9
			l7.5,13.8h-7.1l-7.4-13.8H71.4z"/>
		<path class="st36" d="M92.3,47.2c-2.3,0-4.4-0.5-6-1.4c-1.7-1-3-2.3-3.9-4.1c-0.9-1.8-1.4-3.8-1.4-6.2c0-2.3,0.5-4.4,1.4-6.2
			c0.9-1.8,2.2-3.1,3.8-4.1c1.7-1,3.6-1.5,5.8-1.5c1.5,0,2.9,0.2,4.2,0.7c1.3,0.5,2.4,1.2,3.4,2.2c1,1,1.7,2.2,2.3,3.6
			c0.5,1.4,0.8,3.1,0.8,5.1V37H83.5V33h13.3c0-0.9-0.2-1.7-0.6-2.4c-0.4-0.7-0.9-1.3-1.6-1.7c-0.7-0.4-1.5-0.6-2.4-0.6
			c-1,0-1.8,0.2-2.5,0.7c-0.7,0.4-1.3,1-1.7,1.8c-0.4,0.7-0.6,1.6-0.6,2.4V37c0,1.1,0.2,2.1,0.6,2.9c0.4,0.8,1,1.5,1.8,1.9
			c0.8,0.4,1.7,0.7,2.7,0.7c0.7,0,1.3-0.1,1.9-0.3s1.1-0.5,1.5-0.9c0.4-0.4,0.7-0.9,0.9-1.4l5.8,0.4c-0.3,1.4-0.9,2.6-1.8,3.7
			c-0.9,1-2.1,1.8-3.5,2.4C95.8,46.9,94.1,47.2,92.3,47.2z"/>
		<path class="st36" d="M113.3,47.1c-1.5,0-2.7-0.3-3.9-0.8c-1.1-0.5-2-1.3-2.7-2.3c-0.7-1-1-2.3-1-3.8c0-1.3,0.2-2.3,0.7-3.2
			c0.5-0.9,1.1-1.5,1.9-2.1c0.8-0.5,1.7-0.9,2.7-1.2c1-0.3,2.1-0.5,3.2-0.6c1.3-0.1,2.4-0.3,3.2-0.4c0.8-0.1,1.4-0.3,1.8-0.6
			c0.4-0.2,0.5-0.6,0.5-1.1v-0.1c0-0.9-0.3-1.7-0.9-2.2c-0.6-0.5-1.4-0.8-2.5-0.8c-1.1,0-2,0.2-2.7,0.7c-0.7,0.5-1.1,1.1-1.3,1.9
			l-5.8-0.5c0.3-1.4,0.9-2.6,1.7-3.6c0.9-1,2-1.8,3.4-2.3s3-0.8,4.8-0.8c1.3,0,2.5,0.1,3.6,0.4c1.2,0.3,2.2,0.8,3.1,1.4
			c0.9,0.6,1.6,1.4,2.1,2.4c0.5,1,0.8,2.1,0.8,3.5v15.3h-6v-3.2h-0.2c-0.4,0.7-0.9,1.3-1.5,1.9c-0.6,0.5-1.3,1-2.2,1.3
			C115.4,47,114.4,47.1,113.3,47.1z M115.1,42.8c0.9,0,1.7-0.2,2.5-0.6c0.7-0.4,1.3-0.9,1.7-1.5c0.4-0.6,0.6-1.3,0.6-2.1v-2.4
			c-0.2,0.1-0.5,0.2-0.8,0.3s-0.7,0.2-1.1,0.3c-0.4,0.1-0.8,0.2-1.3,0.2c-0.4,0.1-0.8,0.1-1.2,0.2c-0.7,0.1-1.4,0.3-1.9,0.5
			c-0.6,0.2-1,0.6-1.3,1c-0.3,0.4-0.5,0.9-0.5,1.5c0,0.9,0.3,1.5,0.9,2C113.3,42.6,114.1,42.8,115.1,42.8z"/>
		<path class="st36" d="M141.3,47.2c-2.3,0-4.3-0.5-6-1.5c-1.7-1-3-2.4-3.8-4.1c-0.9-1.8-1.3-3.8-1.3-6.1c0-2.3,0.5-4.4,1.4-6.1
			c0.9-1.8,2.2-3.1,3.9-4.1c1.7-1,3.7-1.5,6-1.5c2,0,3.7,0.4,5.2,1.1c1.5,0.7,2.7,1.7,3.5,3c0.9,1.3,1.3,2.8,1.4,4.6h-5.9
			c-0.2-1.1-0.6-2.1-1.3-2.7c-0.7-0.7-1.7-1-2.8-1c-1,0-1.8,0.3-2.6,0.8c-0.7,0.5-1.3,1.3-1.7,2.3c-0.4,1-0.6,2.2-0.6,3.7
			c0,1.4,0.2,2.7,0.6,3.7c0.4,1,1,1.8,1.7,2.3c0.7,0.5,1.6,0.8,2.6,0.8c0.7,0,1.4-0.1,1.9-0.4c0.6-0.3,1.1-0.7,1.4-1.3
			c0.4-0.6,0.6-1.3,0.8-2.1h5.9c-0.1,1.7-0.6,3.3-1.4,4.6c-0.8,1.3-2,2.3-3.5,3.1C145,46.8,143.3,47.2,141.3,47.2z"/>
		<path class="st36" d="M167.6,24v4.7h-13.7V24H167.6z M157,18.5h6.3v21.2c0,0.6,0.1,1,0.3,1.4c0.2,0.3,0.4,0.5,0.7,0.7
			c0.3,0.1,0.7,0.2,1.1,0.2c0.3,0,0.6,0,0.9-0.1c0.3-0.1,0.5-0.1,0.7-0.1l1,4.7c-0.3,0.1-0.8,0.2-1.3,0.3c-0.6,0.1-1.3,0.2-2.1,0.2
			c-1.5,0.1-2.8-0.1-4-0.6c-1.1-0.5-2-1.2-2.7-2.2c-0.6-1-0.9-2.2-0.9-3.7V18.5z"/>
	</g>
</g>
<path id="Saas" class="st37" d="M97,33.7c-2.7,0-4.9,0.6-6.9,1.6c-0.7-1.4-1.4-2.6-1.5-3.5c-0.1-1.1-0.3-1.7-0.1-2.9
	c0.2-1.3,0.9-3,0.9-3.2c0-0.1-0.2-0.8-1.7-0.8c-1.5,0-2.8,0.3-3,0.7c-0.1,0.4-0.4,1.3-0.6,2.2c-0.3,1.4-3.1,6.2-4.6,8.8
	c-0.5-1-1-1.9-1.1-2.6c-0.1-1.1-0.3-1.7-0.1-2.9c0.2-1.3,0.9-3,0.9-3.2c0-0.1-0.2-0.8-1.7-0.8c-1.5,0-2.8,0.3-3,0.7
	s-0.3,1.3-0.6,2.2c-0.3,0.9-4,9-5,11.1c-0.5,1.1-0.9,1.9-1.2,2.5c-0.3,0.6,0,0,0,0.1c-0.3,0.5-0.4,0.8-0.4,0.8v0
	c-0.2,0.4-0.4,0.7-0.5,0.7c-0.1,0-0.2-1,0-2.3c0.5-2.8,1.9-7.2,1.9-7.4c0-0.1,0.3-0.8-0.9-1.2c-1.1-0.4-1.5,0.3-1.6,0.3
	c-0.1,0-0.2,0.2-0.2,0.2s1.2-4.9-2.3-4.9c-2.2,0-5.2,2.3-6.7,4.5c-0.9,0.5-3,1.6-5.1,2.7c-0.8,0.4-1.7,0.9-2.5,1.3l-0.2-0.2
	c-4.2-4.5-12.1-7.6-11.7-13.6c0.1-2.2,0.9-7.9,15-14.9C64.1,4.2,73.3,5.7,75,9.2c2.3,5-5,14.2-17,15.5c-4.6,0.5-7-1.2-7.6-1.9
	c-0.6-0.7-0.7-0.7-1-0.6c-0.4,0.2-0.1,0.8,0,1.2c0.4,0.9,1.8,2.6,4.4,3.4c2.2,0.7,7.6,1.1,14.1-1.4c7.3-2.8,13-10.5,11.3-17
	c-1.7-6.6-12.8-8.7-23.2-5.1c-6.2,2.2-13,5.6-17.8,10.1c-5.8,5.3-6.7,10-6.3,11.9c1.3,6.9,11,11.4,14.8,14.7
	c-0.2,0.1-0.4,0.2-0.5,0.3c-1.9,0.9-9.3,4.7-11.1,8.7c-2.1,4.5,0.3,7.8,1.9,8.2c4.9,1.4,10-1.1,12.7-5.1c2.7-4,2.4-9.2,1.1-11.6
	l0-0.1l1.5-0.9c1-0.6,1.9-1.1,2.8-1.5c-0.5,1.3-0.8,2.8-1,5c-0.2,2.6,0.9,5.9,2.3,7.2c0.6,0.6,1.4,0.6,1.8,0.6
	c1.6,0,2.4-1.3,3.2-2.9c1-1.9,1.9-4.2,1.9-4.2s-1.1,6.1,1.9,6.1c1.1,0,2.2-1.4,2.7-2.1v0c0,0,0,0,0.1-0.1c0.1-0.2,0.2-0.3,0.2-0.3v0
	c0.4-0.8,1.4-2.5,2.9-5.4c1.9-3.7,3.7-8.3,3.7-8.3s0.2,1.1,0.7,3c0.3,1.1,1,2.3,1.6,3.5c-0.4,0.6-0.7,1-0.7,1l0,0
	c-0.4,0.5-0.8,1-1.2,1.5c-1.5,1.8-3.3,3.8-3.6,4.4c-0.3,0.7-0.2,1.2,0.3,1.6c0.4,0.3,1.1,0.4,1.9,0.3c1.4-0.1,2.3-0.4,2.8-0.6
	c0.7-0.3,1.6-0.7,2.4-1.2c1.5-1.1,2.4-2.6,2.3-4.7c0-1.1-0.4-2.2-0.9-3.3c0.1-0.2,0.3-0.4,0.4-0.6c2.3-3.4,4.1-7.1,4.1-7.1
	s0.2,1.1,0.7,3c0.3,0.9,0.8,2,1.3,3c-2.2,1.8-3.6,3.8-4,5.2c-0.9,2.5-0.2,3.6,1.1,3.9c0.6,0.1,1.4-0.1,2-0.4
	c0.8-0.2,1.7-0.7,2.6-1.3c1.5-1.1,2.9-2.6,2.8-4.6c0-0.9-0.3-1.9-0.6-2.7c1.9-0.8,4.3-1.2,7.3-0.8c6.6,0.8,7.9,4.8,7.6,6.5
	c-0.3,1.7-1.6,2.6-2.1,2.9c-0.5,0.3-0.6,0.4-0.6,0.6c0.1,0.3,0.3,0.3,0.7,0.2c0.5-0.1,3.5-1.4,3.6-4.5
	C107.7,38.1,103.8,33.7,97,33.7L97,33.7z M46.1,50.6c-2.2,2.3-5.2,3.2-6.5,2.5c-1.4-0.8-0.9-4.3,1.8-6.8c1.6-1.5,3.7-2.9,5.1-3.8
	c0.3-0.2,0.8-0.5,1.3-0.8c0.1-0.1,0.1-0.1,0.1-0.1c0.1-0.1,0.2-0.1,0.3-0.2C49.4,45,48.4,48.2,46.1,50.6L46.1,50.6z M62,40
	c-0.8,1.8-2.4,6.5-3.3,6.2c-0.8-0.2-1.3-3.8-0.2-7.3c0.6-1.8,1.9-3.9,2.6-4.7c1.2-1.3,2.5-1.8,2.8-1.2C64.4,33.7,62.5,38.8,62,40z
	 M75.2,46.1c-0.3,0.2-0.6,0.3-0.8,0.2c-0.1-0.1,0.1-0.3,0.1-0.3s1.6-1.7,2.3-2.5c0.4-0.5,0.8-1,1.3-1.6v0.2
	C78.1,44.2,76.1,45.6,75.2,46.1z M85.3,43.9c-0.2-0.2-0.2-0.7,0.6-2.4c0.3-0.7,1-1.8,2.3-2.9c0.1,0.4,0.2,0.9,0.2,1.3
	C88.4,42.5,86.5,43.5,85.3,43.9z"/>
<g class="st0">
	<g id="HTML" class="st2">
		<g id="HTML_00000058579895108832644200000006263697951585788289_">
			<path class="st38" d="M11.2,3.3l4.2,47L34,55.6l0.3-0.1l18.5-5.2l2.2-25l2-22H11.2z M47.6,18.9H26.2l0.5,5.8h20.4L47,25.3
				L45.5,42l-11.2,3L34,45L22.5,42l-0.7-8.9h5.5l0.4,4.5l6.3,1.7l0.3-0.1l5.9-1.6l0.7-7.3H21.5l-1.5-17h28L47.6,18.9z"/>
		</g>
	</g>
	<g class="st2">
		<path class="st16" d="M72.5,37.6V22.2h1.4v7.1h8.7v-7.1h1.4v15.4h-1.4v-7.1h-8.7v7.1H72.5z"/>
		<path class="st16" d="M87.2,23.5v-1.3h11.2v1.3h-4.9v14.1h-1.4V23.5H87.2z"/>
		<path class="st16" d="M101.6,22.2h1.6l5.6,13.4h0.1l5.6-13.4h1.6v15.4h-1.3V25.2h-0.1l-5.2,12.4h-1.3L103,25.2h-0.1v12.4h-1.3
			V22.2z"/>
		<path class="st16" d="M120.2,37.6V22.2h1.4v14.1h7.3v1.3H120.2z"/>
	</g>
</g>
<g class="st0">
	<g id="CSS" class="st2">
		<g>
			<path class="st39" d="M20.9,2.6L23,25.9l2.3,25.6L44.6,57h0l19.5-5.5l4.3-48.9H20.9z M56.9,42.9l-12.2,3.5l-0.1,0l-12.3-3.8
				l-0.7-8.7h5.9l0.4,4.8l6.6,1.8l0.1,0l6.6-1.8l0.8-8h-14l-0.4-4.6l-0.1-1.2h15.1l0.6-6.2h-8.6l-14.4,0l-0.5-5.9h29.9L56.9,42.9z"
				/>
		</g>
	</g>
	<g class="st2">
		<path class="st16" d="M95.3,32.8h-1.5c-0.1-0.5-0.3-1.1-0.6-1.5c-0.3-0.5-0.6-0.9-1.1-1.2c-0.4-0.3-0.9-0.6-1.5-0.8
			C90.2,29.1,89.6,29,89,29c-1,0-1.9,0.3-2.8,0.8c-0.8,0.5-1.5,1.3-2,2.3c-0.5,1-0.7,2.3-0.7,3.7c0,1.5,0.2,2.7,0.7,3.8
			c0.5,1,1.2,1.8,2,2.3c0.8,0.5,1.8,0.8,2.8,0.8c0.6,0,1.2-0.1,1.8-0.3c0.5-0.2,1-0.5,1.5-0.8c0.4-0.3,0.8-0.8,1.1-1.2
			c0.3-0.5,0.5-1,0.6-1.5h1.5c-0.1,0.7-0.4,1.4-0.7,2.1c-0.4,0.6-0.8,1.2-1.4,1.7s-1.2,0.8-1.9,1.1c-0.7,0.3-1.5,0.4-2.4,0.4
			c-1.3,0-2.5-0.3-3.6-1c-1-0.7-1.9-1.6-2.5-2.9c-0.6-1.2-0.9-2.7-0.9-4.4s0.3-3.1,0.9-4.4s1.4-2.2,2.5-2.9c1-0.7,2.2-1,3.6-1
			c0.9,0,1.6,0.1,2.4,0.4c0.7,0.3,1.3,0.6,1.9,1.1c0.6,0.5,1,1,1.4,1.7C95,31.4,95.2,32.1,95.3,32.8z"/>
		<path class="st16" d="M107.5,31.8c-0.1-0.9-0.5-1.6-1.2-2.1c-0.7-0.5-1.6-0.8-2.6-0.8c-0.7,0-1.4,0.1-2,0.4
			c-0.6,0.3-1,0.6-1.3,1.1c-0.3,0.5-0.5,1-0.5,1.5c0,0.4,0.1,0.8,0.3,1.1c0.2,0.3,0.4,0.6,0.7,0.8c0.3,0.2,0.7,0.4,1,0.6
			c0.4,0.2,0.8,0.3,1.1,0.4l1.7,0.5c0.5,0.1,1,0.3,1.5,0.5c0.5,0.2,1,0.5,1.4,0.8c0.4,0.3,0.8,0.7,1,1.2c0.3,0.5,0.4,1.1,0.4,1.7
			c0,0.9-0.2,1.6-0.7,2.3c-0.4,0.7-1.1,1.2-1.9,1.6c-0.8,0.4-1.8,0.6-3,0.6c-1.1,0-2-0.2-2.8-0.5c-0.8-0.4-1.4-0.9-1.9-1.5
			c-0.5-0.6-0.7-1.4-0.8-2.2h1.5c0.1,0.6,0.3,1.2,0.6,1.6c0.4,0.4,0.8,0.8,1.4,1c0.6,0.2,1.2,0.3,2,0.3c0.8,0,1.5-0.1,2.1-0.4
			c0.6-0.3,1.1-0.6,1.5-1.1c0.4-0.5,0.5-1,0.5-1.7c0-0.5-0.1-1-0.4-1.4c-0.3-0.4-0.7-0.7-1.2-0.9c-0.5-0.3-1.1-0.5-1.8-0.7l-1.9-0.6
			c-1.3-0.4-2.2-0.9-2.9-1.6c-0.7-0.7-1-1.5-1-2.5c0-0.9,0.2-1.6,0.7-2.3c0.5-0.7,1.1-1.2,1.9-1.5c0.8-0.4,1.7-0.6,2.7-0.6
			c1,0,1.9,0.2,2.6,0.5c0.8,0.4,1.4,0.9,1.8,1.5c0.5,0.6,0.7,1.4,0.7,2.2H107.5z"/>
		<path class="st16" d="M121.4,31.8c-0.1-0.9-0.5-1.6-1.2-2.1c-0.7-0.5-1.6-0.8-2.6-0.8c-0.7,0-1.4,0.1-2,0.4
			c-0.6,0.3-1,0.6-1.3,1.1c-0.3,0.5-0.5,1-0.5,1.5c0,0.4,0.1,0.8,0.3,1.1c0.2,0.3,0.4,0.6,0.7,0.8c0.3,0.2,0.7,0.4,1,0.6
			c0.4,0.2,0.8,0.3,1.1,0.4l1.7,0.5c0.5,0.1,1,0.3,1.5,0.5c0.5,0.2,1,0.5,1.4,0.8c0.4,0.3,0.8,0.7,1,1.2c0.3,0.5,0.4,1.1,0.4,1.7
			c0,0.9-0.2,1.6-0.7,2.3c-0.4,0.7-1.1,1.2-1.9,1.6s-1.8,0.6-3,0.6c-1.1,0-2-0.2-2.8-0.5c-0.8-0.4-1.4-0.9-1.9-1.5
			c-0.5-0.6-0.7-1.4-0.8-2.2h1.5c0.1,0.6,0.3,1.2,0.6,1.6c0.4,0.4,0.8,0.8,1.4,1c0.6,0.2,1.2,0.3,2,0.3c0.8,0,1.5-0.1,2.1-0.4
			c0.6-0.3,1.1-0.6,1.5-1.1c0.4-0.5,0.5-1,0.5-1.7c0-0.5-0.1-1-0.4-1.4c-0.3-0.4-0.7-0.7-1.2-0.9c-0.5-0.3-1.1-0.5-1.8-0.7l-1.9-0.6
			c-1.3-0.4-2.2-0.9-2.9-1.6c-0.7-0.7-1-1.5-1-2.5c0-0.9,0.2-1.6,0.7-2.3c0.5-0.7,1.1-1.2,1.9-1.5c0.8-0.4,1.7-0.6,2.7-0.6
			c1,0,1.9,0.2,2.6,0.5c0.8,0.4,1.4,0.9,1.8,1.5c0.5,0.6,0.7,1.4,0.7,2.2H121.4z"/>
	</g>
</g>
<g class="st0">
	<g id="JS_00000011710363869494616110000013580470534947457431_" class="st2">
		<g id="JS">
			<g>
				<path d="M8.8,47.7l4-2.5c0,0,0.1,0.2,0.3,0.4c0.5,0.9,1,1.5,1.8,1.9c0.8,0.3,2.7,0.5,3.5-1.1c0.5-0.8,0.3-3.3,0.3-6
					c0-4.3,0-8.5,0-12.8h5v0.1c0,4.6,0,9.1,0,13.7c0,2.8,0.3,5.3-0.9,7.4c-0.8,1.6-2.3,2.6-4,3.1c-2.7,0.6-5.2,0.2-7.1-0.9
					C10.5,50.3,9.5,49.1,8.8,47.7z"/>
				<path d="M38.6,44.5c-0.6-2.1-5-2.6-8-4.9c-3.1-2.1-3.8-7-1.3-9.9c0.9-1.1,2.3-1.9,3.8-2.2l1.6-0.2c3-0.1,4.9,0.7,6.3,2.3
					c0.4,0.4,0.7,0.8,1.3,1.7c-1.6,1-1.6,1-3.9,2.5c-0.5-1.1-1.3-1.7-2.2-2c-1.3-0.4-3,0-3.3,1.5c-0.1,0.4-0.1,0.8,0.1,1.6
					c0.5,1.2,2.3,1.8,4,2.5c4.7,1.9,6.2,3.9,6.6,6.4l-0.1-0.1c0.4,2.1-0.1,3.4-0.2,3.6c-1.7,5.9-11.3,6.1-15.2,2.2
					c-0.8-0.9-1.3-1.4-1.8-2.5l4-2.3c1.1,1.7,2.1,2.5,3.9,2.9C36.7,47.9,39.2,47.1,38.6,44.5z"/>
				<path class="st40" d="M-5.1,3.3v53h53v-53H-5.1z M22.8,48.9c-0.1,0.2-0.2,0.4-0.3,0.6c-0.1,0.2-0.2,0.4-0.4,0.5
					c-0.1,0.1-0.2,0.2-0.3,0.3c-0.1,0.1-0.2,0.2-0.3,0.3c-0.1,0.1-0.2,0.2-0.3,0.2c-0.1,0.1-0.3,0.2-0.5,0.3c0,0,0,0,0,0
					c-0.1,0-0.1,0.1-0.2,0.1c-0.1,0.1-0.3,0.2-0.5,0.3c-0.2,0.1-0.4,0.2-0.6,0.3c-0.2,0.1-0.4,0.2-0.7,0.2c-2.7,0.6-5.2,0.2-7.1-0.9
					c-1.3-0.8-2.2-2-2.9-3.4l4-2.5c0,0,0.1,0.2,0.3,0.4c0.5,0.9,1,1.4,1.8,1.9c0.8,0.3,2.7,0.5,3.5-1.1c0.4-0.8,0.3-3.3,0.3-6
					c0-4.3,0-8.5,0-12.8h5v0.1c0,4.6,0,9.1,0,13.7C23.7,44.3,24,46.8,22.8,48.9z M43.3,47.2c-1.7,5.9-11.3,6.1-15.2,2.2
					c-0.8-0.9-1.3-1.4-1.8-2.5l4-2.3c1.1,1.7,2.1,2.5,3.9,2.9c2.4,0.3,4.9-0.5,4.3-3.1c-0.6-2.1-5-2.6-8-4.9c-3-2.1-3.8-7-1.3-9.9
					c0.9-1.1,2.3-1.8,3.8-2.2l1.6-0.2c3-0.1,4.9,0.7,6.3,2.3c0.4,0.4,0.7,0.8,1.3,1.7c-1.6,1-1.6,1-3.9,2.5c-0.5-1.1-1.3-1.7-2.2-2
					c-1.3-0.4-3,0-3.3,1.5c-0.1,0.4-0.1,0.8,0.1,1.6c0.5,1.2,2.4,1.7,4,2.5c4.7,1.9,6.2,3.9,6.6,6.3l-0.1-0.1
					C43.8,45.6,43.4,47,43.3,47.2z"/>
			</g>
		</g>
	</g>
	<g class="st2">
		<path class="st16" d="M70.7,28l4.9,13.8h0.1L80.6,28h1.5l-5.7,15.6h-1.5L69.2,28H70.7z"/>
		<path class="st16" d="M83.5,43.6H82L87.7,28h1.5l5.7,15.6h-1.5l-4.9-13.8h-0.1L83.5,43.6z M84.6,37.6h7.7v1.3h-7.7V37.6z"/>
		<path class="st16" d="M109.7,28v15.6h-1.4l-9.2-13.1H99v13.1h-1.4V28h1.4l9.3,13.1h0.1V28H109.7z"/>
		<path class="st16" d="M115.3,28v15.6h-1.4V28H115.3z"/>
		<path class="st16" d="M119.4,43.6V28h1.4v14.3h7.4v1.3H119.4z"/>
		<path class="st16" d="M131.5,43.6V28h1.4v14.3h7.4v1.3H131.5z"/>
		<path class="st16" d="M144.6,43.6h-1.5l5.7-15.6h1.5l5.7,15.6h-1.5l-4.9-13.8h-0.1L144.6,43.6z M145.7,37.6h7.7v1.3h-7.7V37.6z"/>
	</g>
</g>
<g id="Socket" class="st0">
	<path class="st2" d="M10.1,31.1c0,13-10.6,23.5-23.5,23.5C-26.4,54.6-37,44-36.9,31c0-12.9,10.6-23.4,23.5-23.4
		C-0.5,7.6,10.1,18.1,10.1,31.1z M6.2,31.1c0-10.9-8.7-19.7-19.6-19.7c-11,0-19.8,8.7-19.8,19.7c0,10.9,8.7,19.7,19.6,19.7
		C-2.6,50.8,6.2,42,6.2,31.1z"/>
	<path class="st2" d="M192.1,32.3c-0.1,3.8-1,7.3-3.8,10.1c-3.8,3.8-8.4,4.5-13.3,3.1c-4.7-1.4-7.4-4.8-8.3-9.6
		c-0.7-4.1-0.3-8.1,2.1-11.6c2.9-4.4,8.5-6.4,14-5.1c5.1,1.3,8.6,5.3,9.2,10.9C192,30.8,192,31.6,192.1,32.3z M186.2,32.6
		c-0.5-1.9-0.6-3.7-1.4-5.3c-2-4.4-7.9-4.8-10.7-0.8c-2.1,3-2.2,8.6-0.2,11.7c2.7,4.1,8.7,3.8,10.8-0.5
		C185.6,36.1,185.8,34.3,186.2,32.6z"/>
	<path class="st2" d="M43.8,24.8c-1.6-0.5-3.1-1.1-4.7-1.3c-1.4-0.2-2.9,0-4.3,0.4c-2,0.7-2.3,2.9-0.6,4.2c1.2,0.8,2.5,1.4,3.8,2.1
		c1.4,0.8,3,1.4,4.3,2.5c4.3,3.4,3.3,10.3-1.8,12.4c-4.2,1.7-8.4,1.4-12.7,0c-0.3-0.1-0.7-0.5-0.7-0.8c-0.1-1.6,0-3.3,0-4.7
		c1.9,0.7,3.8,1.5,5.7,1.9c1.2,0.3,2.6,0,3.9-0.2c1-0.2,1.8-0.8,2-1.9c0.2-1.1-0.2-2-1.1-2.6c-1.3-0.8-2.6-1.4-3.9-2.1
		c-1.2-0.6-2.4-1.1-3.5-1.9c-2.4-1.6-3.4-4-3.1-6.9c0.3-2.9,1.9-4.8,4.6-5.9c3.7-1.5,7.6-1.3,11.4-0.3c0.3,0.1,0.7,0.5,0.7,0.8
		C43.9,21.8,43.8,23.4,43.8,24.8z"/>
	<path class="st2" d="M95.9,35.2c1.6-2.5,3.3-5.1,4.9-7.6c0.4-0.7,0.9-0.9,1.7-0.9c1.8,0.1,3.6,0,5.5,0c-0.2,0.4-0.3,0.6-0.5,0.9
		c-1.8,2.4-3.6,4.8-5.4,7.1c-0.5,0.7-0.5,1.1,0,1.8c1.9,2.6,3.8,5.2,5.7,7.9c0.3,0.4,0.5,0.7,0.9,1.3c-2.3,0-4.3,0-6.4,0
		c-0.3,0-0.6-0.4-0.8-0.8c-1.6-2.4-3.1-4.7-4.6-7.1c-0.3-0.4-0.5-0.8-1.1-1.2c0,3,0,6,0,9c-2,0-3.8,0-5.7,0c0-9.2,0-18.4,0-27.7
		c1.8,0,3.6,0,5.6,0c0,2.8,0,5.7,0,8.6c0,2.9,0,5.8,0,8.7C95.7,35.2,95.8,35.2,95.9,35.2z"/>
	<path class="st2" d="M47.9,36.2c0-6.2,3.9-10,10.3-10c6.1,0,9.9,3.8,9.9,9.8c0,6.2-4,10.1-10.2,10.1C51.6,46.1,47.9,42.3,47.9,36.2
		z M62.3,36.1c-0.1-0.7-0.1-1.4-0.2-2c-0.4-2.2-1.7-3.4-3.9-3.5c-2.2-0.1-3.8,1-4.3,3.1c-0.3,1.4-0.3,2.9-0.2,4.3
		c0.3,2.4,1.8,3.6,4.1,3.7c2.3,0,3.7-1.1,4.2-3.5C62.2,37.5,62.2,36.8,62.3,36.1z"/>
	<path class="st2" d="M127.3,37.7c-4.3,0-8.2,0-12.2,0c-0.3,2.4,1.4,4.1,4.1,4.3c2.2,0.1,4.3-0.2,6.4-1.3c0,1.3,0.1,2.4,0,3.5
		c0,0.3-0.4,0.7-0.7,0.8c-3.4,1.2-6.8,1.6-10.2,0.3c-1.2-0.5-2.4-1.4-3.3-2.4c-3.2-3.7-2.6-10.9,1-14.2c2.8-2.6,7.1-3.2,10.5-1.6
		c2.3,1.1,3.6,3,4,5.4C127.2,34.2,127.2,35.8,127.3,37.7z M121.8,34.2c0.2-2.4-0.9-3.9-2.8-4.1c-2.2-0.2-3.8,1.5-4,4.1
		C117.2,34.2,119.5,34.2,121.8,34.2z"/>
	<path class="st2" d="M132.1,30.9c-1.1,0-1.9,0-2.9,0c0-1.4,0-2.7,0-4.2c0.9,0,1.8,0,2.9,0c0-1.1,0-2.2,0-3.2c0-0.7,0.2-1,0.8-1.2
		c1.5-0.4,3.1-0.9,4.8-1.4c0,2,0,3.8,0,5.7c1.5,0,2.8,0,4.2,0c0,1.4,0,2.7,0,4.2c-1.3,0-2.6,0-4.1,0c0,0.7-0.1,1.2-0.1,1.8
		c0,1.8,0,3.6,0,5.5c0,3.3,1,4,4.2,3.2c0,1.2,0,2.3,0,3.5c0,0.3-0.4,0.7-0.7,0.8c-2,0.7-4,0.7-5.9,0c-2-0.8-3-2.4-3.1-4.4
		c-0.2-2.8-0.1-5.6-0.1-8.4C132.1,32.2,132.1,31.7,132.1,30.9z"/>
	<path class="st2" d="M86,31.7c-4.2-1.6-6.8-1.2-8.4,1c-1.4,1.9-1.4,5.3,0,7.2c1.6,2.1,4.3,2.4,8.4,0.7c0,1.4,0,2.8,0,4.1
		c0,0.2-0.4,0.6-0.7,0.7c-3.2,1-6.4,1.2-9.5-0.3c-3.8-1.8-5.5-6-4.7-10.7c1-5.7,5.8-8.5,11.9-7.9c3.2,0.3,3.2,0.4,3.2,3.5
		C86,30.4,86,31,86,31.7z"/>
	<path class="st2" d="M161.8,45.6c-1.9,0-3.6,0-5.5,0c0-8.8,0-17.5,0-26.3c1.8,0,3.6,0,5.5,0C161.8,28,161.8,36.7,161.8,45.6z"/>
	<path class="st2" d="M147.9,46.1c-1.8,0-3.3-1.4-3.2-3.1c0-1.7,1.5-3,3.4-3c1.9,0,3.3,1.3,3.3,3C151.3,44.8,149.9,46.1,147.9,46.1z
		"/>
	<path class="st41" d="M121.8,34.2c-2.3,0-4.6,0-6.8,0c0.2-2.6,1.9-4.2,4-4.1C120.9,30.2,122,31.8,121.8,34.2z"/>
	<path class="st2" d="M-8,32.6c-4.8,4-9.7,7.9-14.5,11.9c-0.1-0.1-0.1-0.1-0.2-0.2c0.2-0.3,0.3-0.6,0.5-0.9
		c2.3-3.4,4.5-6.9,6.8-10.3c0.4-0.6,0.8-0.9,1.6-0.8c1.9,0.1,3.9,0,5.8,0C-8.1,32.4-8,32.5-8,32.6z"/>
	<path class="st2" d="M-4.2,18c-2.5,3.8-5,7.7-7.6,11.5c-0.1,0.2-0.5,0.4-0.8,0.4c-2.1,0-4.2,0-6.4-0.2c4.8-4,9.7-8,14.5-11.9
		C-4.3,17.8-4.3,17.9-4.2,18z"/>
</g>
<g id="Reddis" class="st0">
	<g id="Layer_1-2" class="st2">
		<g>
			<defs>
				<rect id="SVGID_1_" x="-3.1" y="4.6" width="58.3" height="50"/>
			</defs>
			<clipPath id="SVGID_00000116237739458071884880000000959297335385624722_">
				<use xlink:href="#SVGID_1_"  style="overflow:visible;"/>
			</clipPath>
			<g style="clip-path:url(#SVGID_00000116237739458071884880000000959297335385624722_);">
				<path class="st43" d="M52.9,43.1c-3.1,1.6-19.2,8.3-22.7,10.1s-5.3,1.8-8.1,0.5S2.3,45.4-0.8,43.9c-1.6-0.7-2.4-1.4-2.4-1.9
					v-5.9c0,0,22.3-4.8,26-6.2c3.6-1.3,4.9-1.3,7.9-0.2c3.1,1.1,21.4,4.4,24.5,5.5v5.8C55.2,41.7,54.5,42.3,52.9,43.1L52.9,43.1z"/>
				<path class="st44" d="M52.9,37.3c-3.1,1.6-19.2,8.3-22.7,10c-3.5,1.8-5.3,1.8-8.1,0.5c-2.7-1.3-19.8-8.3-22.9-9.7
					c-3.1-1.5-3.2-2.5-0.1-3.7c3-1.2,20.1-7.9,23.7-9.2c3.6-1.3,4.9-1.3,7.9-0.2c3.1,1.1,19.1,7.5,22.1,8.6S56,35.6,52.9,37.3
					L52.9,37.3z"/>
				<path class="st43" d="M52.9,33.5c-3.1,1.6-19.2,8.3-22.7,10c-3.5,1.8-5.3,1.8-8,0.5c-2.7-1.3-19.8-8.2-22.9-9.7
					c-1.6-0.7-2.4-1.4-2.4-2v-5.9c0,0,22.3-4.9,26-6.2s4.9-1.3,7.9-0.2s21.4,4.4,24.5,5.5v5.8C55.2,32.1,54.5,32.7,52.9,33.5z"/>
				<path class="st44" d="M52.9,27.6c-3.1,1.6-19.2,8.3-22.7,10c-3.5,1.8-5.3,1.8-8.1,0.5c-2.7-1.3-19.8-8.2-22.9-9.7
					c-3.1-1.5-3.2-2.5-0.1-3.7c3-1.2,20.1-7.9,23.7-9.2s4.9-1.4,7.9-0.2c3.1,1.1,19.1,7.5,22.1,8.6C55.9,25,56,26,52.9,27.6
					L52.9,27.6z"/>
				<path class="st43" d="M52.9,23.5c-3.1,1.6-19.2,8.3-22.7,10c-3.5,1.8-5.3,1.8-8,0.5c-2.7-1.3-19.8-8.2-22.9-9.7
					c-1.6-0.7-2.4-1.4-2.4-1.9v-5.9c0,0,22.3-4.8,26-6.2s4.9-1.3,7.9-0.2s21.4,4.4,24.5,5.5v5.8C55.2,22.1,54.5,22.7,52.9,23.5z"/>
				<path class="st44" d="M52.9,17.6c-3.1,1.6-19.2,8.3-22.7,10s-5.3,1.8-8.1,0.5S2.3,19.9-0.8,18.5C-3.9,17-3.9,16-0.9,14.8
					s20.1-7.9,23.7-9.2s4.9-1.3,7.9-0.2s19.1,7.5,22.1,8.6S56,16,52.9,17.6L52.9,17.6z"/>
			</g>
		</g>
		<polygon class="st45" points="26.9,9.3 30.8,8 29.8,10.5 33.7,12 28.6,12.5 27.5,15.2 25.7,12.2 19.8,11.7 24.2,10.1 22.9,7.7 
			26.9,9.3 26.9,9.3 		"/>
		<polygon class="st45" points="27.2,25.2 17.8,21.3 31.3,19.2 27.2,25.2 27.2,25.2 		"/>
		<path class="st45" d="M14.1,13.5c4,0,7.2,1.3,7.2,2.8s-3.2,2.8-7.2,2.8s-7.2-1.3-7.2-2.8C6.9,14.7,10.1,13.5,14.1,13.5z"/>
		<polygon class="st46" points="39.6,12.7 47.6,15.9 39.7,19 39.6,12.7 39.6,12.7 		"/>
		<polygon class="st47" points="39.6,12.7 39.7,19 38.8,19.4 30.8,16.2 39.6,12.7 39.6,12.7 		"/>
		<path class="st48" d="M73.8,21.1c0.7-0.8,1.5-1.3,2.5-1.7c0.9-0.4,1.9-0.6,2.9-0.6c0.7-0.1,1.4,0.2,2,0.6c0.4,0.4,0.6,0.9,0.6,1.5
			c0,0.6-0.2,1.1-0.6,1.5c-0.4,0.4-0.9,0.7-1.5,0.6c-2.5,0.2-5.9,2.7-5.9,6.1v7.6c0,1.2-1,2.1-2.2,2.2c-0.6,0-1.2-0.2-1.5-0.7
			c-0.4-0.4-0.6-0.9-0.6-1.5V20.8c0-0.6,0.2-1.1,0.6-1.5c0.5-0.3,1-0.5,1.6-0.5c1.2,0,2.1,1,2.2,2.2L73.8,21.1z"/>
		<path class="st48" d="M99.9,28.1c0,0.5-0.2,1-0.5,1.4c-0.4,0.4-0.9,0.6-1.5,0.6H85.2c0.1,1,0.6,1.9,1.4,2.6c1,1.1,2.3,1.7,3.8,1.8
			c1.5,0.3,3-0.1,4.2-1c0.4-0.4,1-0.7,1.6-0.6c0.5,0,1,0.2,1.4,0.5c0.7,0.7,0.8,1.8,0.1,2.5c0,0,0,0,0,0c0,0-0.1,0.1-0.1,0.1
			c-1.9,1.8-4.4,2.7-7,2.6c-2.7,0.1-5.2-1-7-3c-1.8-1.9-2.9-4.5-2.9-7.1c-0.1-2.7,1-5.3,2.9-7.1c1.7-1.9,4.2-3,6.8-2.9
			c2.5-0.1,4.9,0.9,6.7,2.7c1.8,1.8,2.9,4.1,3,6.7L99.9,28.1L99.9,28.1z M90.3,22.4c-1.3,0-2.6,0.5-3.6,1.4
			c-0.9,0.7-1.5,1.7-1.7,2.8h11.3c-0.3-1.1-1-2-1.9-2.7C93.2,23,91.8,22.4,90.3,22.4"/>
		<path class="st48" d="M120.3,36.5c0,1.2-1,2.1-2.2,2.2c-1,0-1.9-0.7-2.2-1.7c-1.6,1.1-3.5,1.8-5.5,1.7c-2.6,0-5.1-1-6.9-2.9
			c-1.9-1.9-2.9-4.5-2.8-7.1c0-2.6,1-5.2,2.8-7.1c1.8-1.9,4.3-3,6.9-3c1.9,0,3.8,0.6,5.4,1.7v-7.5c0-0.6,0.2-1.1,0.6-1.5
			c0.4-0.4,1-0.6,1.5-0.6c0.6,0,1.1,0.2,1.5,0.6c0.4,0.4,0.6,0.9,0.6,1.5L120.3,36.5L120.3,36.5z M110.5,34.3c1.5,0,2.8-0.6,3.8-1.7
			c2.1-2.2,2.1-5.7,0-8c-1-1.1-2.3-1.7-3.8-1.7c-1.5-0.1-2.9,0.6-3.8,1.7c-2.1,2.2-2.1,5.7,0,8C107.7,33.7,109.1,34.3,110.5,34.3"/>
		<path class="st48" d="M126.6,12.7v0.9c0,0.6-0.2,1.2-0.7,1.6c-0.4,0.4-1,0.6-1.5,0.5c-0.6,0-1.1-0.2-1.5-0.6
			c-0.4-0.4-0.7-1-0.6-1.6v-0.8c0-0.6,0.2-1.1,0.6-1.5c0.4-0.4,0.9-0.6,1.5-0.6c0.6,0,1.1,0.2,1.5,0.7
			C126.4,11.5,126.6,12.1,126.6,12.7 M123,19.2c0.4-0.4,0.9-0.6,1.5-0.6c0.6,0,1.1,0.2,1.5,0.6c0.4,0.4,0.6,1,0.6,1.6v15.8
			c0,0.6-0.2,1.1-0.7,1.5c-0.4,0.4-0.9,0.6-1.5,0.6c-0.6,0-1.1-0.2-1.5-0.6c-0.4-0.4-0.6-0.9-0.6-1.5V20.9
			C122.3,20.3,122.5,19.7,123,19.2"/>
		<path class="st48" d="M141.9,20.8c0.4,0.3,0.8,0.8,0.9,1.3c0.1,0.5,0,1.1-0.2,1.6c-0.3,0.4-0.8,0.7-1.3,0.9
			c-0.6,0.1-1.1,0-1.6-0.3c-1.5-1-2.7-1.5-3.7-1.5c-0.9-0.1-1.7,0.2-2.4,0.7c-0.4,0.3-0.6,0.5-0.6,0.8c0,0.2,0,0.4,0.1,0.5
			c0.1,0.1,0.3,0.2,0.4,0.3c0.9,0.6,1.9,0.9,2.9,1l0,0c1.3,0.2,2.6,0.6,3.9,1.2c1.1,0.5,2,1.3,2.6,2.3c1.6,2.5,0.9,5.8-1.6,7.4
			c0,0,0,0,0,0c-1.5,1.1-3.3,1.6-5.2,1.6c-2.5,0-4.9-1-7.1-2.8c-0.4-0.4-0.7-0.9-0.8-1.4c-0.1-1.1,0.7-2.1,1.9-2.3
			c0.5,0,1.1,0.1,1.5,0.4c1.2,1.1,2.8,1.8,4.4,1.7c1,0,1.9-0.2,2.7-0.8c0.4-0.4,0.8-0.8,0.8-1.1c0-0.3,0-0.4-0.1-0.5
			c0-0.1-0.2-0.3-0.5-0.4c-1-0.6-2.1-1-3.2-1.1l0,0c-1.3-0.2-2.5-0.6-3.7-1.2c-1-0.5-1.9-1.3-2.6-2.3c-0.4-0.8-0.6-1.6-0.6-2.5
			c0-1.8,0.9-3.4,2.4-4.4c1.5-1,3.2-1.5,5-1.5C137.8,18.6,139.8,19.3,141.9,20.8"/>
	</g>
</g>
<g id="Typescrip" class="st0">
	<g class="st2">
		<path class="st49" d="M85.9,31.3c-0.9-4.2-5.4-5.8-8.8-3.7c-0.7,0.4-1.2,1-1.9,1.6c0-0.7-0.1-1.3-0.1-1.9h-3.3v21.2h3.4v-8.3
			c3.1,3.4,8.6,2.1,10.1-1.7C86.3,36.2,86.4,33.8,85.9,31.3z M81.7,37.7c-0.8,1.5-2.3,2-3.9,1.7c-1.4-0.3-2.6-1.8-2.7-3.3
			c0-0.4,0-0.8,0-1.1c-0.1-1.7,0.2-3.3,1.6-4.4c1.9-1.5,4.5-0.8,5.3,1.5C82.9,33.9,82.7,35.9,81.7,37.7z"/>
		<path class="st49" d="M70,27.2c-1.1,2.9-2.2,5.7-3.3,8.4c-1.2,3.1-2.2,6.4-3.8,9.4c-1.6,3.2-3.3,4.1-6.6,3.8
			c-0.3,0-0.8-0.5-0.8-0.7c-0.1-0.8,0-1.6,0-2.4c2.4,0.5,3.5,0.2,4.7-2.3c0.9-1.9-0.2-3.2-0.7-4.6C58,35,56.5,31.4,55,27.7
			c-0.1-0.1,0-0.3-0.1-0.6c1.2,0,2.3-0.1,3.4,0c0.3,0,0.6,0.5,0.7,0.8c1,3,2,6,3,9c0.1,0.3,0.2,0.6,0.4,1.1c0.8-2.4,1.6-4.5,2.4-6.7
			c0.4-1.2,0.8-2.3,1.2-3.5c0.2-0.5,0.4-0.8,1-0.8C67.9,27.2,68.9,27.2,70,27.2z"/>
		<path class="st49" d="M101.1,35.5c0-0.8,0-1.5,0-2.2c-0.1-3.5-1.8-5.6-5.1-6.4c-3.2-0.8-6.7,1.3-7.8,4.3c-0.6,1.8-0.8,3.7-0.4,5.5
			c0.3,1.9,1.1,3.5,2.8,4.4c2.9,1.8,6,1.4,8.9,0.1c0.2-0.1,0.4-0.4,0.4-0.7c0.1-0.8,0-1.6,0-2.4c-1.8,0.7-3.4,1.7-5.4,1.3
			c-2.1-0.4-3.4-2.1-3.3-4H101.1z M95.2,29.4c1.5,0.2,2.6,1.7,2.4,3.4h-6C91.5,31.3,93.1,29.2,95.2,29.4z"/>
		<polygon class="st49" points="57.9,21.3 57.9,24.3 52,24.3 52,41.8 48.3,41.8 48.3,24.4 42.6,24.4 42.6,21.3 		"/>
		<path class="st49" d="M153.7,32.1c-0.1-1.5-0.7-3-1.9-4c-2.1-1.8-5.3-1.9-7.6-0.3c-0.5,0.4-1,0.7-1.6,1.2
			c-0.1-0.7-0.1-1.3-0.1-1.9H141v21.2h1.6V40c0.3,0.3,0.5,0.4,0.6,0.6c2.3,2.9,7.8,2.1,9.6-1.6C153.8,36.7,153.9,34.4,153.7,32.1z
			 M142.6,29.3C142.6,29.3,142.6,29.3,142.6,29.3C142.7,29.3,142.7,29.3,142.6,29.3C142.6,29.3,142.6,29.3,142.6,29.3
			C142.6,29.3,142.6,29.3,142.6,29.3z M150.8,39.2c-1.2,1.4-2.8,1.8-4.5,1.5c-1.6-0.3-2.7-1.4-3.3-2.9c-0.3-0.9-0.4-2-0.6-2.9
			c0-1.8,0.5-3.3,1.5-4.8c1.3-2.1,5.7-2.4,7.4-0.1C153,32.4,152.6,37,150.8,39.2z"/>
		<path class="st49" d="M113.5,38.4c-0.5,1.8-2.2,3.6-4.5,3.7c-1.6,0-3.2,0.1-4.8-0.3c-1.6-0.4-1.9-0.2-1.6-2.1c1.8,0.3,3.6,1,5.4,1
			c3,0,4.7-2.3,3.6-5c-0.3-0.7-1-1.3-1.6-1.8c-1.9-1.4-3.9-2.5-5.8-3.9c-1.6-1.2-1.8-3.1-1.4-5c0.4-2,1.9-3.2,3.8-3.7
			c2-0.5,4-0.4,6.1,0.3v1.6c-1.1-0.2-2.3-0.4-3.4-0.6c-2.3-0.3-4.3,0.5-5,3.1c-0.3,1.2,0.4,2.7,1.8,3.6c1.7,1.1,3.4,2.1,5,3.2
			C113.2,33.7,114.2,36.1,113.5,38.4z"/>
		<path class="st49" d="M160.3,42.3c-2.3,0-3.5-0.8-3.5-3.3c-0.1-3.1,0-6.1,0-9.2v-1.2h-2.5v-1.3h2.5c0-0.9,0.1-1.7,0-2.5
			c-0.1-1.2,0.4-1.7,1.6-1.7v4.1h3.6v1.3h-3.6v4.3c0,1.9,0.1,3.8,0,5.7c-0.2,1.7,1.1,2.7,2.9,2.1c0.2-0.1,0.5-0.2,0.7-0.3
			C162.1,41.8,161.8,42.3,160.3,42.3z"/>
		<path class="st49" d="M125.8,40.3c0.1,0.3,0.1,0.7,0.1,1c-1.9,1.1-4,1.3-6.1,0.7c-2.6-0.8-4.4-3.2-4.6-6.1
			c-0.2-2.4,0.2-4.7,1.8-6.7c1.4-1.8,4.7-2.8,6.6-2.5c0.8,0.2,1.6,0.4,2.4,0.7c-0.1,0.9-0.4,1.3-1.3,1c-0.7-0.2-1.4-0.1-2.2-0.1
			h-0.3c-2.3-0.2-4.6,1.6-5.3,4.7c-0.6,2.7,0.2,5.9,2.7,7.2c1.5,0.8,3.3,1.3,5,0.2c0.1-0.1,0.2-0.1,0.3-0.1
			C125.2,40.3,125.5,40.3,125.8,40.3z"/>
		<path class="st49" d="M129,29.3c-0.1-0.9-0.1-1.5-0.1-2h-1.3v14.6h1.5c0-3-0.1-6,0-8.9c0.1-3.4,2.5-5.2,5.5-4.2V27
			C132.3,26.2,130.5,27.1,129,29.3z M129.1,29.4C129.1,29.4,129,29.3,129.1,29.4c-0.1-0.1,0-0.1,0-0.1
			C129.1,29.3,129.1,29.3,129.1,29.4C129.1,29.3,129.1,29.4,129.1,29.4z"/>
		<rect x="136.6" y="27.2" class="st49" width="1.5" height="14.6"/>
		<path class="st49" d="M137.5,23.7c-0.9,0-1.5-0.4-1.4-1.2c0.1-0.5,0.7-1.2,1.1-1.2c0.4,0,1.1,0.6,1.3,1.1
			C138.8,23.2,138.1,23.5,137.5,23.7z"/>
		<path class="st49" d="M122.3,28.3c0.1,0,0.2,0,0.3,0C122.4,28.3,122.4,28.3,122.3,28.3z"/>
		<path class="st49" d="M142.6,29.3C142.6,29.3,142.6,29.3,142.6,29.3C142.7,29.3,142.7,29.3,142.6,29.3
			C142.6,29.3,142.6,29.3,142.6,29.3C142.6,29.3,142.6,29.3,142.6,29.3z"/>
		<path class="st49" d="M129.1,29.3C129.1,29.3,129.1,29.4,129.1,29.3c-0.1,0-0.1,0-0.1,0C129,29.3,129,29.3,129.1,29.3
			C129.1,29.3,129.1,29.3,129.1,29.3z"/>
	</g>
	<g class="st2">
		<path class="st50" d="M7.4,52.1c5,0,10,0,15.1,0c0.2,0,0.4,0,0.7-0.1c1-0.2,1.8-0.7,2.5-1.5c0.6-0.7,1-1.6,1-2.6c0-10,0-20,0-30
			c0-0.2,0-0.4-0.1-0.7c-0.2-1-0.7-1.8-1.4-2.4c-0.8-0.6-1.6-1.1-2.6-1.1c-10,0-20.1,0-30.1,0c-0.2,0-0.4,0-0.7,0.1
			c-1,0.2-1.8,0.7-2.4,1.5c-0.6,0.7-1.1,1.6-1.1,2.6c0,10,0,20.1,0,30.1c0,0.2,0,0.4,0.1,0.7c0.2,1,0.7,1.8,1.4,2.4
			c0.8,0.7,1.6,1.1,2.6,1.1C-2.6,52.1,2.4,52.1,7.4,52.1z"/>
		<path class="st49" d="M7.4,52.1c-5,0-10,0-15,0c-1,0-1.9-0.4-2.6-1.1c-0.7-0.6-1.2-1.4-1.4-2.4c0-0.2-0.1-0.4-0.1-0.7
			c0-10,0-20.1,0-30.1c0-1,0.4-1.9,1.1-2.6c0.6-0.7,1.5-1.2,2.4-1.5c0.2,0,0.4-0.1,0.7-0.1c10,0,20.1,0,30.1,0c1,0,1.9,0.4,2.6,1.1
			c0.8,0.6,1.2,1.5,1.4,2.4c0.1,0.2,0.1,0.4,0.1,0.7c0,10,0,20,0,30c0,1-0.4,1.8-1,2.6c-0.7,0.8-1.5,1.3-2.5,1.5
			c-0.2,0-0.4,0.1-0.7,0.1C17.5,52.1,12.4,52.1,7.4,52.1z M22.7,35.8c0-1.2,0-2.3,0-3.5c0-0.2-0.1-0.2-0.2-0.2
			c-1-0.4-2.1-0.5-3.2-0.5c-0.9,0-1.8,0-2.7,0.1c-1,0.2-1.9,0.4-2.7,1c-0.8,0.5-1.4,1.2-1.8,2.2c-0.2,0.7-0.3,1.3-0.3,2
			c0,0.6,0.1,1.2,0.4,1.8c0.5,1.1,1.4,1.8,2.5,2.4c1,0.5,2.1,0.9,3.1,1.4c0.5,0.3,1,0.6,1.4,1.1c0.5,0.8,0.2,1.8-0.9,2.2
			c-0.9,0.3-1.9,0.3-2.8,0.2c-1-0.2-1.9-0.5-2.7-1.1c-0.3-0.2-0.5-0.4-0.8-0.5c0,0,0,0.1,0,0.1c0,1.2,0,2.4,0,3.6
			c0,0.1,0.1,0.2,0.2,0.2c1.2,0.5,2.5,0.8,3.8,0.8c0.8,0,1.7,0,2.5-0.1c0.9-0.1,1.8-0.3,2.7-0.8c0.9-0.5,1.5-1.1,1.9-2
			c0.5-1,0.5-2.1,0.4-3.2c-0.2-1.3-0.9-2.2-2-2.9c-1.1-0.8-2.4-1.2-3.6-1.8c-0.6-0.3-1.1-0.6-1.5-1c-0.3-0.3-0.4-0.6-0.4-1
			c0-0.6,0.4-1,0.9-1.2c1-0.5,2-0.5,3.1-0.3C20.9,34.8,21.9,35.1,22.7,35.8z M5.7,41.9c0-2.2,0-4.4,0-6.6c0-0.2,0-0.3,0.3-0.3
			c1.4,0,2.9,0,4.3,0c0.2,0,0.3,0,0.3-0.2c0-0.9,0-1.8,0-2.7c0-0.2,0-0.2-0.2-0.2c-4.3,0-8.7,0-13,0c-0.2,0-0.2,0.1-0.2,0.2
			c0,0.9,0,1.8,0,2.6c0,0.2,0,0.3,0.3,0.3c1.4,0,2.8,0,4.2,0c0.3,0,0.3,0.1,0.3,0.3c0,4.4,0,8.8,0,13.1c0,0.2,0,0.3,0.3,0.3
			c1.1,0,2.2,0,3.3,0c0.2,0,0.3-0.1,0.3-0.3C5.7,46.3,5.7,44.1,5.7,41.9z"/>
		<path class="st50" d="M22.7,35.8c-0.9-0.6-1.8-0.9-2.8-1.1c-1-0.2-2.1-0.2-3.1,0.3c-0.5,0.3-0.8,0.7-0.9,1.2c0,0.4,0.1,0.7,0.4,1
			c0.4,0.5,1,0.8,1.5,1c1.2,0.6,2.5,1,3.6,1.8c1,0.7,1.8,1.7,2,2.9c0.2,1.1,0.1,2.2-0.4,3.2c-0.4,0.9-1.1,1.5-1.9,2
			c-0.8,0.4-1.7,0.6-2.7,0.8C17.7,49,16.8,49,16,49c-1.3-0.1-2.6-0.3-3.8-0.8C12,48.1,12,48,12,47.9c0-1.2,0-2.4,0-3.6
			c0,0,0,0,0-0.1c0.3,0.2,0.5,0.4,0.8,0.5c0.8,0.5,1.7,0.9,2.7,1.1c1,0.2,1.9,0.2,2.8-0.2c1.1-0.4,1.4-1.4,0.9-2.2
			c-0.3-0.5-0.8-0.8-1.4-1.1c-1-0.5-2.1-0.9-3.1-1.4c-1-0.6-1.9-1.3-2.5-2.4c-0.3-0.6-0.4-1.1-0.4-1.8c0-0.7,0-1.4,0.3-2
			c0.4-0.9,1-1.6,1.8-2.2c0.8-0.5,1.7-0.8,2.7-1c0.9-0.2,1.8-0.1,2.7-0.1c1.1,0,2.2,0.2,3.2,0.5c0.1,0,0.2,0.1,0.2,0.2
			C22.7,33.4,22.7,34.6,22.7,35.8z"/>
		<path class="st50" d="M5.7,41.9c0,2.2,0,4.4,0,6.6c0,0.2,0,0.3-0.3,0.3c-1.1,0-2.2,0-3.3,0c-0.2,0-0.3-0.1-0.3-0.3
			c0-4.4,0-8.8,0-13.1c0-0.2,0-0.3-0.3-0.3c-1.4,0-2.8,0-4.2,0c-0.2,0-0.3-0.1-0.3-0.3c0-0.9,0-1.8,0-2.6c0-0.2,0-0.2,0.2-0.2
			c4.3,0,8.7,0,13,0c0.2,0,0.2,0.1,0.2,0.2c0,0.9,0,1.8,0,2.7c0,0.2-0.1,0.2-0.3,0.2c-1.4,0-2.9,0-4.3,0c-0.2,0-0.3,0.1-0.3,0.3
			C5.7,37.5,5.7,39.7,5.7,41.9z"/>
	</g>
</g>
<g class="st0">
	<g class="st2">
		<path class="st51" d="M20.2,13.9H-6.4c-2.2,0-4.1,1.8-4.1,4.1v26.8c0,2.3,1.8,4.1,4.1,4.1h22.5L15,45.2l2.5,2.4l2.4,2.2l4.3,3.8
			V18C24.2,15.7,22.4,13.9,20.2,13.9z M12.5,39.8c0,0-0.7-0.9-1.3-1.6c2.6-0.7,3.6-2.4,3.6-2.4c-0.8,0.5-1.6,0.9-2.3,1.2
			c-1,0.4-1.9,0.7-2.9,0.9c-1.9,0.4-3.7,0.3-5.1,0c-1.1-0.2-2.1-0.5-2.9-0.9c-0.5-0.2-1-0.4-1.4-0.7c-0.1,0-0.1-0.1-0.2-0.1
			c0,0-0.1,0-0.1-0.1c-0.4-0.2-0.6-0.3-0.6-0.3s1,1.6,3.5,2.3c-0.6,0.8-1.3,1.6-1.3,1.6c-4.4-0.1-6.1-3-6.1-3
			c0-6.4,2.9-11.6,2.9-11.6c2.9-2.1,5.6-2.1,5.6-2.1L4,23.4c-3.6,1-5.2,2.6-5.2,2.6s0.4-0.2,1.2-0.6c2.1-0.9,3.8-1.2,4.5-1.3
			c0.1,0,0.2,0,0.3,0c1.2-0.2,2.6-0.2,4,0c1.9,0.2,3.9,0.8,6,1.9c0,0-1.6-1.5-4.9-2.5l0.3-0.3c0,0,2.7-0.1,5.6,2.1
			c0,0,2.9,5.2,2.9,11.6C18.6,36.8,16.9,39.7,12.5,39.8z M3.3,30.5c-1.1,0-2,1-2,2.2c0,1.2,0.9,2.2,2,2.2c1.1,0,2-1,2-2.2
			C5.3,31.5,4.4,30.5,3.3,30.5 M10.5,30.5c-1.1,0-2,1-2,2.2c0,1.2,0.9,2.2,2,2.2c1.1,0,2-1,2-2.2C12.6,31.5,11.7,30.5,10.5,30.5"/>
	</g>
	<g class="st2">
		<defs>
			<rect id="SVGID_00000102510876007773034930000016868005843241230754_" x="37.8" y="23.6" width="118.2" height="21"/>
		</defs>
		<clipPath id="SVGID_00000098913891570216363290000014834927064646795419_">
			<use xlink:href="#SVGID_00000102510876007773034930000016868005843241230754_"  style="overflow:visible;"/>
		</clipPath>
		<g style="clip-path:url(#SVGID_00000098913891570216363290000014834927064646795419_);">
			<path class="st51" d="M143.9,39.3c1.4,1.3,3.3,2.2,5.2,2.2c2.2,0,3.5-1,3.5-2.5c0-1.6-1.3-2.2-3.1-2.9l-2.7-1.2
				c-2-0.8-4-2.4-4-5.3c0-3.2,2.8-5.6,6.6-5.6c2.3,0,4.6,1,6.1,2.5l-1.8,2.2c-1.2-1.1-2.6-1.7-4.3-1.7c-1.9,0-3.1,0.9-3.1,2.3
				c0,1.5,1.5,2.1,3.2,2.8l2.7,1.1c2.4,1,4,2.5,4,5.4c0,3.2-2.7,5.9-7.1,5.9c-2.7,0-5.2-1.1-7.1-2.9L143.9,39.3z"/>
			<path class="st51" d="M136.6,24h3.4v13.7c0,3.6-2.2,6.8-6.3,6.8c-2.8,0.2-5.2-1.8-5.8-3.7c0.5-0.1,1-0.2,1.6-0.4
				c0.5-0.2,1.2-0.5,1.2-0.5c0.6,0.9,1.5,1.5,2.7,1.5c1.7,0,3.2-1.4,3.2-3.2L136.6,24z"/>
			<path class="st53" d="M134.3,31.5c0-1.5-0.3-2.8-0.8-3.9c-0.6-1.1-1.4-2-2.6-2.6c-1.1-0.6-2.5-0.9-4.1-0.9h-6v15.2h5.1h0.6
				c1.5,0,2.7-0.2,3.7-0.8c0,0,0-0.1,0-0.1c0-1.7,1.4-3.2,3.2-3.2c0.1,0,0.1,0,0.2,0C134.1,34,134.3,32.9,134.3,31.5z M124.4,27.3
				V36h2.1c1.3,0,2.3-0.4,3-1.2c0.7-0.8,1-1.8,1-3.2c0-1.3-0.3-2.4-1-3.1c-0.7-0.8-1.6-1.1-2.9-1.1H124.4z"/>
			<path class="st51" d="M135.4,38.3c0,1.1-0.9,2-2,2c-1.1,0-2-0.9-2-2c0-1.1,0.9-2,2-2C134.5,36.3,135.4,37.2,135.4,38.3z"/>
			<path class="st51" d="M43.6,39.2c1.7,0,3.1-0.3,4.3-1c1.2-0.7,2.1-1.6,2.6-2.7c0.6-1.1,0.9-2.5,0.9-4c0-1.5-0.3-2.8-0.8-3.9
				c-0.6-1.1-1.4-2-2.6-2.6S45.5,24,43.9,24h-6v15.2H43.6z M41.5,36v-8.7h2.2c1.3,0,2.3,0.4,2.9,1.1c0.7,0.8,1,1.8,1,3.1
				c0,1.4-0.3,2.4-1,3.2c-0.7,0.8-1.7,1.2-3,1.2H41.5z M57.6,24h-3.6v15.2h3.6V24z M65.7,39.7c1.8,0,3.2-0.4,4.3-1.3
				c1-0.9,1.5-2.1,1.5-3.6c0-1.1-0.3-2.1-1-2.8c-0.7-0.7-1.7-1.3-3.1-1.8l-1.6-0.5c-0.6-0.2-1-0.5-1.3-0.7c-0.3-0.2-0.4-0.5-0.4-0.9
				c0-0.9,0.7-1.4,2.2-1.4c1.5,0,3,0.5,4.4,1.5v-3.3c-1.5-0.9-3.1-1.3-4.8-1.3c-1.8,0-3.1,0.4-4.1,1.2c-1,0.8-1.5,2-1.5,3.4
				c0,1.1,0.3,2,0.9,2.7c0.6,0.7,1.5,1.3,2.8,1.7l1.8,0.6c0.6,0.3,1.1,0.5,1.3,0.7c0.2,0.2,0.3,0.6,0.3,0.9c0,1-0.7,1.6-2.2,1.6
				c-0.9,0-1.7-0.2-2.6-0.5c-0.9-0.3-1.7-0.7-2.4-1.3v3.4C61.9,39.1,63.7,39.7,65.7,39.7z M81.2,39.6c0.9,0,1.8-0.1,2.7-0.4
				c0.8-0.2,1.6-0.6,2.2-1V35c-0.6,0.4-1.2,0.7-1.9,0.9c-0.7,0.2-1.4,0.4-2.2,0.4c-1,0-1.9-0.2-2.7-0.6c-0.8-0.4-1.3-0.9-1.8-1.6
				c-0.4-0.7-0.6-1.5-0.6-2.4s0.2-1.7,0.6-2.4c0.4-0.7,1-1.3,1.8-1.6c0.8-0.4,1.6-0.6,2.6-0.6c1.5,0,2.8,0.5,4.1,1.3v-3.4
				c-1.4-0.8-3-1.2-4.8-1.2c-1.6,0-3.1,0.3-4.3,1c-1.2,0.7-2.2,1.6-2.8,2.9c-0.7,1.2-1,2.6-1,4.2c0,1.5,0.3,2.8,1,4
				c0.6,1.2,1.6,2.2,2.8,2.9C78.1,39.3,79.5,39.6,81.2,39.6z M95.7,39.6c1.5,0,2.9-0.3,4.1-1c1.2-0.7,2.1-1.6,2.8-2.8
				c0.7-1.2,1-2.6,1-4.1c0-1.5-0.3-2.9-1-4.2c-0.7-1.2-1.6-2.2-2.8-2.9c-1.2-0.7-2.6-1-4.1-1c-1.5,0-2.9,0.3-4.1,1
				c-1.2,0.7-2.1,1.6-2.8,2.9c-0.7,1.2-1,2.6-1,4.2c0,1.5,0.3,2.9,1,4.1c0.7,1.2,1.6,2.2,2.8,2.8S94.2,39.6,95.7,39.6z M95.7,36.2
				c-0.8,0-1.5-0.2-2.1-0.6c-0.6-0.4-1.1-0.9-1.4-1.6c-0.3-0.7-0.5-1.5-0.5-2.3c0-0.9,0.2-1.6,0.5-2.4c0.3-0.7,0.8-1.2,1.4-1.6
				c0.6-0.4,1.3-0.6,2.1-0.6c0.8,0,1.6,0.2,2.2,0.6c0.6,0.4,1.1,1,1.4,1.6c0.3,0.7,0.5,1.5,0.5,2.4c0,0.9-0.2,1.6-0.5,2.3
				c-0.3,0.7-0.8,1.2-1.4,1.6C97.3,36,96.6,36.2,95.7,36.2z M114.1,33.1c1.3-0.2,2.3-0.6,3-1.4c0.7-0.8,1.1-1.8,1.1-3
				c0-1.5-0.5-2.6-1.5-3.4c-1-0.8-2.3-1.3-3.9-1.3h-6.7v15.2h3.6v-6.4l4.5,6.4h4.4L114.1,33.1z M109.8,27.1h2.3
				c0.7,0,1.3,0.2,1.6,0.5c0.4,0.3,0.6,0.8,0.6,1.5c0,0.7-0.2,1.2-0.6,1.5c-0.4,0.4-1,0.5-1.8,0.5h-2.1V27.1z"/>
		</g>
	</g>
</g>
</svg>
