<?xml version="1.0" encoding="utf-8"?>
<!-- Generator: Adobe Illustrator 26.0.2, SVG Export Plug-In . SVG Version: 6.00 Build 0)  -->
<svg version="1.1" id="Layer_1" xmlns="http://www.w3.org/2000/svg" xmlns:xlink="http://www.w3.org/1999/xlink" x="0px" y="0px"
	 viewBox="0 0 300 120" style="enable-background:new 0 0 300 120;" xml:space="preserve">
<style type="text/css">
	.st0{display:none;}
	.st1{display:inline;fill:none;stroke:#000000;stroke-width:0.5;stroke-miterlimit:10;}
	.st2{display:inline;}
	.st3{fill:none;stroke:#000000;stroke-width:0.5;stroke-miterlimit:10;}
	.st4{fill:none;stroke:#000000;stroke-width:0.5;stroke-miterlimit:10;stroke-dasharray:4.9294,4.9294;}
	.st5{display:inline;fill:#DFCF00;}
	.st6{fill:#330000;}
	.st7{fill:#FF9A00;}
	.st8{fill:#0A1929;}
	.st9{fill:#001E36;}
	.st10{fill:#31A8FF;}
	.st11{fill:#470137;}
	.st12{fill:#FF61F6;}
	.st13{fill:#264DE4;}
	.st14{fill:#EFD81D;}
	.st15{fill:#E54C21;}
	.st16{display:inline;fill:#00B0FF;}
	.st17{display:inline;fill:#0081CB;}
	.st18{display:none;fill:#404137;}
	.st19{fill:#83CD29;}
	.st20{display:inline;fill:#404137;}
	.st21{display:inline;fill:#83CD29;}
	.st22{display:inline;fill-rule:evenodd;clip-rule:evenodd;fill:#1F2E39;}
	.st23{display:inline;fill-rule:evenodd;clip-rule:evenodd;fill:#FFFFFF;}
	.st24{display:inline;fill-rule:evenodd;clip-rule:evenodd;fill:#A6A385;}
	.st25{display:inline;fill-rule:evenodd;clip-rule:evenodd;fill:#499D4A;}
	.st26{display:inline;fill-rule:evenodd;clip-rule:evenodd;fill:#58AA50;}
	.st27{fill-rule:evenodd;clip-rule:evenodd;fill:#1F2E39;}
	.st28{fill-rule:evenodd;clip-rule:evenodd;fill:#FFFFFF;}
	.st29{fill-rule:evenodd;clip-rule:evenodd;fill:#A6A385;}
	.st30{fill-rule:evenodd;clip-rule:evenodd;fill:#499D4A;}
	.st31{fill-rule:evenodd;clip-rule:evenodd;fill:#58AA50;}
	.st32{display:inline;fill:#1F2E39;}
	.st33{fill:#404137;}
	.st34{fill:#764ABC;}
	.st35{fill:#5DD2F3;}
	.st36{fill:#CF649A;}
</style>
<g id="Vertical_Bar" class="st0">
	<path class="st1" d="M-77-253.5h264c6.3,0,11.5,5.1,11.5,11.5V309"/>
	<g class="st2">
		<g>
			<line class="st3" x1="198.5" y1="306.4" x2="198.5" y2="309.4"/>
			<line class="st4" x1="198.5" y1="314.3" x2="198.5" y2="331.5"/>
			<line class="st3" x1="198.5" y1="334" x2="198.5" y2="337"/>
		</g>
	</g>
</g>
<g id="CSS_Vert" class="st0">
	<rect x="0" y="-0.3" class="st5" width="300" height="120"/>
</g>
<g id="Illustrator" class="st0">
	<g id="Layer_2_1_" class="st2">
		<g id="Surfaces">
			<g id="Drawing_Surface">
				<g id="Outline_no_shadow">
					<path class="st6" d="M137.4,41.7h23.8c3.6,0,6.5,2.9,6.5,6.5v22.9c0,3.6-2.9,6.5-6.5,6.5h-23.8c-3.6,0-6.5-2.9-6.5-6.5V48.3
						C130.8,44.7,133.8,41.7,137.4,41.7z"/>
				</g>
			</g>
		</g>
		<g id="Outlined_Mnemonics_Logos">
			<g id="Ai">
				<path class="st7" d="M148.5,65.7h-6.7l-1.4,4.2c0,0.2-0.2,0.3-0.3,0.3h-3.4c-0.2,0-0.3-0.1-0.2-0.3l5.8-16.7
					c0.1-0.2,0.1-0.4,0.2-0.6c0.1-0.4,0.1-0.8,0.1-1.2c0-0.1,0.1-0.2,0.1-0.2c0,0,0,0,0.1,0h4.6c0.1,0,0.2,0.1,0.2,0.1l6.6,18.5
					c0.1,0.2,0,0.3-0.2,0.3h-3.8c-0.1,0-0.3-0.1-0.3-0.2L148.5,65.7z M142.9,62.1h4.6c-0.1-0.4-0.3-0.8-0.4-1.3
					c-0.2-0.5-0.3-1-0.5-1.5c-0.2-0.6-0.3-1.1-0.5-1.7c-0.2-0.6-0.3-1.1-0.5-1.6c-0.1-0.5-0.3-1-0.4-1.4h0c-0.2,0.8-0.4,1.5-0.6,2.3
					c-0.3,0.9-0.5,1.8-0.8,2.7C143.4,60.5,143.2,61.3,142.9,62.1L142.9,62.1z"/>
				<path class="st7" d="M158.2,54.3c-0.6,0-1.2-0.2-1.6-0.6c-0.4-0.4-0.6-1-0.6-1.7c0-0.6,0.2-1.2,0.6-1.6c0.4-0.4,1-0.6,1.6-0.6
					c0.7,0,1.2,0.2,1.6,0.6c0.4,0.4,0.6,1,0.6,1.6c0,0.6-0.2,1.2-0.6,1.7C159.4,54.1,158.8,54.4,158.2,54.3z M156.1,69.9V56.1
					c0-0.2,0.1-0.3,0.2-0.3h3.6c0.2,0,0.2,0.1,0.2,0.3v13.8c0,0.2-0.1,0.3-0.2,0.3h-3.5C156.2,70.2,156.1,70.1,156.1,69.9z"/>
			</g>
		</g>
	</g>
	<g class="st2">
		<path class="st8" d="M179,64.7h-2.3l3.4-10h2.7l3.4,10h-2.3l-2.5-7.7h-0.1L179,64.7z M178.8,60.7h5.3v1.6h-5.3V60.7z"/>
		<path class="st8" d="M189.9,64.8c-0.6,0-1.1-0.1-1.5-0.4c-0.5-0.3-0.8-0.7-1.1-1.3s-0.4-1.3-0.4-2.1c0-0.9,0.1-1.6,0.4-2.1
			c0.3-0.6,0.6-1,1.1-1.3c0.5-0.3,1-0.4,1.5-0.4c0.4,0,0.8,0.1,1,0.2c0.3,0.1,0.5,0.3,0.7,0.5c0.2,0.2,0.3,0.4,0.4,0.6h0.1v-3.7h2.1
			v10h-2v-1.2H192c-0.1,0.2-0.2,0.4-0.4,0.6s-0.4,0.4-0.7,0.5C190.6,64.7,190.3,64.8,189.9,64.8z M190.5,63.1c0.3,0,0.6-0.1,0.8-0.3
			c0.2-0.2,0.4-0.4,0.5-0.8s0.2-0.7,0.2-1.2c0-0.4-0.1-0.8-0.2-1.2c-0.1-0.3-0.3-0.6-0.5-0.8s-0.5-0.3-0.9-0.3
			c-0.3,0-0.6,0.1-0.9,0.3c-0.2,0.2-0.4,0.4-0.5,0.8c-0.1,0.3-0.2,0.7-0.2,1.1c0,0.4,0.1,0.8,0.2,1.2c0.1,0.3,0.3,0.6,0.5,0.8
			C189.9,63,190.2,63.1,190.5,63.1z"/>
		<path class="st8" d="M199.2,64.8c-0.8,0-1.4-0.2-2-0.5c-0.5-0.3-1-0.8-1.3-1.4c-0.3-0.6-0.4-1.3-0.4-2c0-0.8,0.1-1.4,0.4-2
			c0.3-0.6,0.7-1,1.3-1.4c0.6-0.3,1.2-0.5,2-0.5c0.8,0,1.4,0.2,2,0.5c0.6,0.3,1,0.8,1.3,1.4c0.3,0.6,0.4,1.3,0.4,2
			c0,0.8-0.1,1.4-0.4,2c-0.3,0.6-0.7,1-1.3,1.4C200.6,64.6,200,64.8,199.2,64.8z M199.2,63.2c0.3,0,0.6-0.1,0.9-0.3
			c0.2-0.2,0.4-0.5,0.5-0.8s0.2-0.7,0.2-1.2c0-0.4-0.1-0.8-0.2-1.2c-0.1-0.3-0.3-0.6-0.5-0.8s-0.5-0.3-0.9-0.3
			c-0.3,0-0.6,0.1-0.9,0.3s-0.4,0.5-0.5,0.8c-0.1,0.3-0.2,0.7-0.2,1.2c0,0.4,0.1,0.8,0.2,1.2c0.1,0.3,0.3,0.6,0.5,0.8
			C198.6,63.1,198.9,63.2,199.2,63.2z"/>
		<path class="st8" d="M204.3,64.7v-10h2.1v3.7h0.1c0.1-0.2,0.2-0.4,0.4-0.6c0.2-0.2,0.4-0.4,0.7-0.5c0.3-0.1,0.6-0.2,1-0.2
			c0.5,0,1,0.1,1.5,0.4s0.8,0.7,1.1,1.3c0.3,0.6,0.4,1.3,0.4,2.1c0,0.8-0.1,1.5-0.4,2.1s-0.6,1-1.1,1.3c-0.5,0.3-1,0.4-1.5,0.4
			c-0.4,0-0.7-0.1-1-0.2c-0.3-0.1-0.5-0.3-0.7-0.5c-0.2-0.2-0.3-0.4-0.4-0.6h-0.1v1.2H204.3z M206.3,60.9c0,0.4,0.1,0.8,0.2,1.2
			c0.1,0.3,0.3,0.6,0.5,0.8c0.2,0.2,0.5,0.3,0.9,0.3c0.3,0,0.6-0.1,0.9-0.3c0.2-0.2,0.4-0.4,0.5-0.8c0.1-0.3,0.2-0.7,0.2-1.2
			c0-0.4-0.1-0.8-0.2-1.1c-0.1-0.3-0.3-0.6-0.5-0.8c-0.2-0.2-0.5-0.3-0.9-0.3c-0.3,0-0.6,0.1-0.9,0.3c-0.2,0.2-0.4,0.4-0.5,0.8
			C206.4,60.1,206.3,60.5,206.3,60.9z"/>
		<path class="st8" d="M216.4,64.8c-0.8,0-1.4-0.2-2-0.5c-0.6-0.3-1-0.8-1.3-1.3s-0.4-1.3-0.4-2c0-0.8,0.1-1.4,0.4-2s0.7-1,1.3-1.4
			c0.5-0.3,1.2-0.5,1.9-0.5c0.5,0,1,0.1,1.4,0.2s0.8,0.4,1.1,0.7c0.3,0.3,0.6,0.7,0.7,1.2c0.2,0.5,0.3,1,0.3,1.7v0.6h-6.3v-1.3h4.4
			c0-0.3-0.1-0.6-0.2-0.8s-0.3-0.4-0.5-0.5c-0.2-0.1-0.5-0.2-0.8-0.2c-0.3,0-0.6,0.1-0.8,0.2c-0.2,0.1-0.4,0.3-0.6,0.6
			c-0.1,0.2-0.2,0.5-0.2,0.8v1.2c0,0.4,0.1,0.7,0.2,1c0.1,0.3,0.3,0.5,0.6,0.6c0.3,0.1,0.6,0.2,0.9,0.2c0.2,0,0.4,0,0.6-0.1
			c0.2-0.1,0.4-0.2,0.5-0.3s0.2-0.3,0.3-0.5l1.9,0.1c-0.1,0.5-0.3,0.9-0.6,1.2c-0.3,0.3-0.7,0.6-1.2,0.8
			C217.5,64.7,217,64.8,216.4,64.8z"/>
		<path class="st8" d="M226.5,54.7v10h-2.1v-10H226.5z"/>
		<path class="st8" d="M230.3,54.7v10h-2.1v-10H230.3z"/>
		<path class="st8" d="M234,54.7v10h-2.1v-10H234z"/>
		<path class="st8" d="M240.4,61.5v-4.3h2.1v7.5h-2v-1.4h-0.1c-0.2,0.4-0.4,0.8-0.8,1.1c-0.4,0.3-0.9,0.4-1.4,0.4
			c-0.5,0-0.9-0.1-1.3-0.3c-0.4-0.2-0.7-0.6-0.9-1c-0.2-0.4-0.3-0.9-0.3-1.5v-4.8h2.1v4.4c0,0.4,0.1,0.8,0.4,1
			c0.2,0.3,0.5,0.4,0.9,0.4c0.2,0,0.5-0.1,0.7-0.2c0.2-0.1,0.4-0.3,0.5-0.5C240.4,62.1,240.4,61.8,240.4,61.5z"/>
		<path class="st8" d="M250.4,59.3l-1.9,0.1c0-0.2-0.1-0.3-0.2-0.4c-0.1-0.1-0.2-0.2-0.4-0.3c-0.2-0.1-0.4-0.1-0.6-0.1
			c-0.3,0-0.6,0.1-0.8,0.2s-0.3,0.3-0.3,0.5c0,0.2,0.1,0.3,0.2,0.5c0.1,0.1,0.4,0.2,0.7,0.3l1.4,0.3c0.7,0.1,1.3,0.4,1.6,0.7
			c0.4,0.3,0.5,0.8,0.5,1.3c0,0.5-0.1,0.9-0.4,1.3s-0.7,0.7-1.2,0.9s-1.1,0.3-1.7,0.3c-1,0-1.8-0.2-2.4-0.6s-0.9-1-1-1.7l2-0.1
			c0.1,0.3,0.2,0.5,0.4,0.7c0.2,0.2,0.5,0.2,0.9,0.2c0.4,0,0.7-0.1,0.9-0.2c0.2-0.1,0.3-0.3,0.3-0.5c0-0.2-0.1-0.3-0.2-0.5
			c-0.2-0.1-0.4-0.2-0.7-0.3l-1.3-0.3c-0.7-0.1-1.3-0.4-1.6-0.8S244,60,244,59.4c0-0.5,0.1-0.9,0.4-1.2c0.3-0.3,0.6-0.6,1.1-0.8
			s1-0.3,1.7-0.3c0.9,0,1.7,0.2,2.2,0.6C250,58.1,250.3,58.6,250.4,59.3z"/>
		<path class="st8" d="M255.9,57.2v1.6h-4.5v-1.6H255.9z M252.4,55.4h2.1v7c0,0.2,0,0.3,0.1,0.4c0.1,0.1,0.1,0.2,0.2,0.2
			c0.1,0,0.2,0.1,0.4,0.1c0.1,0,0.2,0,0.3,0s0.2,0,0.2,0l0.3,1.5c-0.1,0-0.2,0.1-0.4,0.1c-0.2,0-0.4,0.1-0.7,0.1
			c-0.5,0-0.9,0-1.3-0.2s-0.7-0.4-0.9-0.7c-0.2-0.3-0.3-0.7-0.3-1.2V55.4z"/>
		<path class="st8" d="M257.2,64.7v-7.5h2v1.3h0.1c0.1-0.5,0.4-0.8,0.7-1.1c0.3-0.2,0.7-0.4,1.1-0.4c0.1,0,0.2,0,0.3,0
			s0.2,0,0.3,0.1V59c-0.1,0-0.2-0.1-0.4-0.1s-0.3,0-0.5,0c-0.3,0-0.6,0.1-0.8,0.2c-0.2,0.1-0.4,0.3-0.6,0.5s-0.2,0.5-0.2,0.8v4.2
			H257.2z"/>
		<path class="st8" d="M264.7,64.8c-0.5,0-0.9-0.1-1.3-0.3c-0.4-0.2-0.7-0.4-0.9-0.7c-0.2-0.3-0.3-0.7-0.3-1.2c0-0.4,0.1-0.8,0.2-1
			c0.2-0.3,0.4-0.5,0.6-0.7c0.3-0.2,0.6-0.3,0.9-0.4c0.3-0.1,0.7-0.1,1.1-0.2c0.4,0,0.8-0.1,1.1-0.1s0.5-0.1,0.6-0.2
			s0.2-0.2,0.2-0.4v0c0-0.3-0.1-0.5-0.3-0.7s-0.5-0.3-0.8-0.3c-0.4,0-0.7,0.1-0.9,0.2c-0.2,0.2-0.4,0.4-0.4,0.6l-1.9-0.2
			c0.1-0.5,0.3-0.8,0.6-1.2c0.3-0.3,0.7-0.6,1.1-0.8c0.5-0.2,1-0.3,1.6-0.3c0.4,0,0.8,0,1.2,0.1c0.4,0.1,0.7,0.2,1,0.5
			c0.3,0.2,0.5,0.5,0.7,0.8c0.2,0.3,0.3,0.7,0.3,1.1v5h-2v-1h-0.1c-0.1,0.2-0.3,0.4-0.5,0.6s-0.4,0.3-0.7,0.4
			C265.4,64.7,265.1,64.8,264.7,64.8z M265.3,63.4c0.3,0,0.6-0.1,0.8-0.2c0.2-0.1,0.4-0.3,0.5-0.5c0.1-0.2,0.2-0.4,0.2-0.7v-0.8
			c-0.1,0-0.2,0.1-0.3,0.1s-0.2,0.1-0.4,0.1c-0.1,0-0.3,0.1-0.4,0.1c-0.1,0-0.3,0-0.4,0.1c-0.2,0-0.5,0.1-0.6,0.2
			c-0.2,0.1-0.3,0.2-0.4,0.3c-0.1,0.1-0.2,0.3-0.2,0.5c0,0.3,0.1,0.5,0.3,0.6C264.7,63.3,265,63.4,265.3,63.4z"/>
		<path class="st8" d="M274.5,57.2v1.6H270v-1.6H274.5z M271,55.4h2.1v7c0,0.2,0,0.3,0.1,0.4c0.1,0.1,0.1,0.2,0.2,0.2
			c0.1,0,0.2,0.1,0.4,0.1c0.1,0,0.2,0,0.3,0s0.2,0,0.2,0l0.3,1.5c-0.1,0-0.2,0.1-0.4,0.1c-0.2,0-0.4,0.1-0.7,0.1
			c-0.5,0-0.9,0-1.3-0.2s-0.7-0.4-0.9-0.7c-0.2-0.3-0.3-0.7-0.3-1.2V55.4z"/>
		<path class="st8" d="M279.2,64.8c-0.8,0-1.4-0.2-2-0.5c-0.5-0.3-1-0.8-1.3-1.4c-0.3-0.6-0.4-1.3-0.4-2c0-0.8,0.1-1.4,0.4-2
			c0.3-0.6,0.7-1,1.3-1.4c0.6-0.3,1.2-0.5,2-0.5c0.8,0,1.4,0.2,2,0.5c0.6,0.3,1,0.8,1.3,1.4c0.3,0.6,0.4,1.3,0.4,2
			c0,0.8-0.1,1.4-0.4,2c-0.3,0.6-0.7,1-1.3,1.4C280.6,64.6,279.9,64.8,279.2,64.8z M279.2,63.2c0.3,0,0.6-0.1,0.9-0.3
			c0.2-0.2,0.4-0.5,0.5-0.8s0.2-0.7,0.2-1.2c0-0.4-0.1-0.8-0.2-1.2c-0.1-0.3-0.3-0.6-0.5-0.8s-0.5-0.3-0.9-0.3
			c-0.3,0-0.6,0.1-0.9,0.3s-0.4,0.5-0.5,0.8c-0.1,0.3-0.2,0.7-0.2,1.2c0,0.4,0.1,0.8,0.2,1.2c0.1,0.3,0.3,0.6,0.5,0.8
			C278.6,63.1,278.8,63.2,279.2,63.2z"/>
		<path class="st8" d="M284.2,64.7v-7.5h2v1.3h0.1c0.1-0.5,0.4-0.8,0.7-1.1c0.3-0.2,0.7-0.4,1.1-0.4c0.1,0,0.2,0,0.3,0
			s0.2,0,0.3,0.1V59c-0.1,0-0.2-0.1-0.4-0.1s-0.3,0-0.5,0c-0.3,0-0.6,0.1-0.8,0.2c-0.2,0.1-0.4,0.3-0.6,0.5s-0.2,0.5-0.2,0.8v4.2
			H284.2z"/>
	</g>
</g>
<g id="Photoshop" class="st0">
	<g id="Layer_2_00000055690548210834815180000003555433012348845497_" class="st2">
		<g id="Surfaces_00000028307412635965680320000007452740426910325392_">
			<g id="Photo_Surface">
				<g id="Outline_no_shadow_00000127044244288314155990000005834629250377772460_">
					<path class="st9" d="M137.4,41.7h23.8c3.6,0,6.5,2.9,6.5,6.5v22.9c0,3.6-2.9,6.5-6.5,6.5h-23.8c-3.6,0-6.5-2.9-6.5-6.5V48.3
						C130.8,44.7,133.8,41.7,137.4,41.7z"/>
				</g>
			</g>
		</g>
		<g id="Outlined_Mnemonics_Logos_00000142141680426492987220000000741704560559620759_">
			<g id="Ps">
				<path class="st10" d="M139.2,67V51.2c0-0.1,0-0.2,0.2-0.2c0.3,0,0.5,0,0.9,0c0.4,0,0.8,0,1.2,0c0.4,0,0.9,0,1.3,0s0.9,0,1.4,0
					c1.3,0,2.3,0.2,3.2,0.5c0.8,0.3,1.5,0.7,2.1,1.3c0.5,0.5,0.9,1.1,1.1,1.8c0.2,0.6,0.4,1.3,0.4,2c0,1.3-0.3,2.4-0.9,3.3
					s-1.5,1.5-2.5,1.9c-1,0.4-2.2,0.5-3.5,0.5c-0.4,0-0.6,0-0.8,0c-0.2,0-0.4,0-0.7,0V67c0,0.1-0.1,0.2-0.2,0.2c0,0,0,0-0.1,0h-2.9
					C139.2,67.2,139.2,67.1,139.2,67z M142.5,54v5.2c0.2,0,0.4,0,0.6,0h0.8c0.6,0,1.2-0.1,1.8-0.3c0.5-0.1,0.9-0.4,1.3-0.8
					c0.3-0.4,0.5-0.9,0.5-1.6c0-0.5-0.1-1-0.4-1.4c-0.3-0.4-0.6-0.7-1.1-0.9c-0.6-0.2-1.2-0.3-1.8-0.3c-0.4,0-0.8,0-1,0
					C142.8,53.9,142.6,53.9,142.5,54L142.5,54z"/>
				<path class="st10" d="M160.4,58.2c-0.5-0.2-1-0.4-1.5-0.5c-0.6-0.1-1.1-0.2-1.7-0.2c-0.3,0-0.6,0-0.9,0.1
					c-0.2,0-0.4,0.2-0.5,0.3c-0.1,0.1-0.1,0.3-0.1,0.4c0,0.1,0.1,0.3,0.2,0.4c0.1,0.2,0.3,0.3,0.5,0.4c0.4,0.2,0.7,0.4,1.1,0.5
					c0.8,0.3,1.6,0.7,2.4,1.1c0.5,0.3,0.9,0.8,1.2,1.3c0.2,0.5,0.4,1,0.4,1.6c0,0.7-0.2,1.4-0.6,2c-0.4,0.6-1,1.1-1.7,1.4
					c-0.8,0.3-1.7,0.5-2.8,0.5c-0.7,0-1.4-0.1-2.1-0.2c-0.5-0.1-1.1-0.3-1.6-0.5c-0.1-0.1-0.2-0.2-0.2-0.3v-2.7c0,0,0-0.1,0.1-0.1
					c0,0,0.1,0,0.1,0c0.6,0.4,1.2,0.6,1.9,0.8c0.6,0.2,1.2,0.2,1.8,0.2c0.6,0,1-0.1,1.3-0.2c0.2-0.1,0.4-0.4,0.4-0.6
					c0-0.2-0.1-0.4-0.4-0.6c-0.2-0.2-0.8-0.4-1.5-0.7c-0.8-0.3-1.5-0.6-2.2-1.1c-0.5-0.3-0.9-0.8-1.2-1.3c-0.2-0.5-0.4-1-0.4-1.6
					c0-0.7,0.2-1.3,0.5-1.9c0.4-0.6,1-1.1,1.6-1.4c0.7-0.4,1.6-0.5,2.7-0.5c0.6,0,1.3,0,1.9,0.1c0.5,0.1,0.9,0.2,1.3,0.4
					c0.1,0,0.1,0.1,0.2,0.1c0,0.1,0,0.1,0,0.2V58c0,0.1,0,0.1-0.1,0.2C160.5,58.2,160.4,58.2,160.4,58.2z"/>
			</g>
		</g>
	</g>
	<g class="st2">
		<path class="st8" d="M179,63.3h-2.3l3.4-10h2.7l3.4,10h-2.3l-2.5-7.7h-0.1L179,63.3z M178.8,59.4h5.3V61h-5.3V59.4z"/>
		<path class="st8" d="M189.9,63.4c-0.6,0-1.1-0.1-1.5-0.4c-0.5-0.3-0.8-0.7-1.1-1.3s-0.4-1.3-0.4-2.1c0-0.9,0.1-1.6,0.4-2.1
			c0.3-0.6,0.6-1,1.1-1.3c0.5-0.3,1-0.4,1.5-0.4c0.4,0,0.8,0.1,1,0.2c0.3,0.1,0.5,0.3,0.7,0.5c0.2,0.2,0.3,0.4,0.4,0.6h0.1v-3.7h2.1
			v10h-2v-1.2H192c-0.1,0.2-0.2,0.4-0.4,0.6s-0.4,0.4-0.7,0.5C190.6,63.4,190.3,63.4,189.9,63.4z M190.5,61.8c0.3,0,0.6-0.1,0.8-0.3
			c0.2-0.2,0.4-0.4,0.5-0.8s0.2-0.7,0.2-1.2c0-0.4-0.1-0.8-0.2-1.2c-0.1-0.3-0.3-0.6-0.5-0.8s-0.5-0.3-0.9-0.3
			c-0.3,0-0.6,0.1-0.9,0.3c-0.2,0.2-0.4,0.4-0.5,0.8c-0.1,0.3-0.2,0.7-0.2,1.1c0,0.4,0.1,0.8,0.2,1.2c0.1,0.3,0.3,0.6,0.5,0.8
			C189.9,61.7,190.2,61.8,190.5,61.8z"/>
		<path class="st8" d="M199.2,63.5c-0.8,0-1.4-0.2-2-0.5c-0.5-0.3-1-0.8-1.3-1.4c-0.3-0.6-0.4-1.3-0.4-2c0-0.8,0.1-1.4,0.4-2
			c0.3-0.6,0.7-1,1.3-1.4c0.6-0.3,1.2-0.5,2-0.5c0.8,0,1.4,0.2,2,0.5c0.6,0.3,1,0.8,1.3,1.4c0.3,0.6,0.4,1.3,0.4,2
			c0,0.8-0.1,1.4-0.4,2c-0.3,0.6-0.7,1-1.3,1.4C200.6,63.3,200,63.5,199.2,63.5z M199.2,61.9c0.3,0,0.6-0.1,0.9-0.3
			c0.2-0.2,0.4-0.5,0.5-0.8s0.2-0.7,0.2-1.2c0-0.4-0.1-0.8-0.2-1.2c-0.1-0.3-0.3-0.6-0.5-0.8s-0.5-0.3-0.9-0.3
			c-0.3,0-0.6,0.1-0.9,0.3s-0.4,0.5-0.5,0.8c-0.1,0.3-0.2,0.7-0.2,1.2c0,0.4,0.1,0.8,0.2,1.2c0.1,0.3,0.3,0.6,0.5,0.8
			C198.6,61.8,198.9,61.9,199.2,61.9z"/>
		<path class="st8" d="M204.3,63.3v-10h2.1v3.7h0.1c0.1-0.2,0.2-0.4,0.4-0.6c0.2-0.2,0.4-0.4,0.7-0.5c0.3-0.1,0.6-0.2,1-0.2
			c0.5,0,1,0.1,1.5,0.4s0.8,0.7,1.1,1.3c0.3,0.6,0.4,1.3,0.4,2.1c0,0.8-0.1,1.5-0.4,2.1s-0.6,1-1.1,1.3c-0.5,0.3-1,0.4-1.5,0.4
			c-0.4,0-0.7-0.1-1-0.2c-0.3-0.1-0.5-0.3-0.7-0.5c-0.2-0.2-0.3-0.4-0.4-0.6h-0.1v1.2H204.3z M206.3,59.6c0,0.4,0.1,0.8,0.2,1.2
			c0.1,0.3,0.3,0.6,0.5,0.8c0.2,0.2,0.5,0.3,0.9,0.3c0.3,0,0.6-0.1,0.9-0.3c0.2-0.2,0.4-0.4,0.5-0.8c0.1-0.3,0.2-0.7,0.2-1.2
			c0-0.4-0.1-0.8-0.2-1.1c-0.1-0.3-0.3-0.6-0.5-0.8c-0.2-0.2-0.5-0.3-0.9-0.3c-0.3,0-0.6,0.1-0.9,0.3c-0.2,0.2-0.4,0.4-0.5,0.8
			C206.4,58.8,206.3,59.1,206.3,59.6z"/>
		<path class="st8" d="M216.4,63.5c-0.8,0-1.4-0.2-2-0.5c-0.6-0.3-1-0.8-1.3-1.3s-0.4-1.3-0.4-2c0-0.8,0.1-1.4,0.4-2s0.7-1,1.3-1.4
			c0.5-0.3,1.2-0.5,1.9-0.5c0.5,0,1,0.1,1.4,0.2s0.8,0.4,1.1,0.7c0.3,0.3,0.6,0.7,0.7,1.2c0.2,0.5,0.3,1,0.3,1.7v0.6h-6.3v-1.3h4.4
			c0-0.3-0.1-0.6-0.2-0.8s-0.3-0.4-0.5-0.5c-0.2-0.1-0.5-0.2-0.8-0.2c-0.3,0-0.6,0.1-0.8,0.2c-0.2,0.1-0.4,0.3-0.6,0.6
			c-0.1,0.2-0.2,0.5-0.2,0.8v1.2c0,0.4,0.1,0.7,0.2,1c0.1,0.3,0.3,0.5,0.6,0.6c0.3,0.1,0.6,0.2,0.9,0.2c0.2,0,0.4,0,0.6-0.1
			c0.2-0.1,0.4-0.2,0.5-0.3s0.2-0.3,0.3-0.5l1.9,0.1c-0.1,0.5-0.3,0.9-0.6,1.2c-0.3,0.3-0.7,0.6-1.2,0.8
			C217.5,63.4,217,63.5,216.4,63.5z"/>
		<path class="st8" d="M224.4,63.3v-10h3.9c0.8,0,1.4,0.1,1.9,0.4c0.5,0.3,0.9,0.7,1.2,1.2c0.3,0.5,0.4,1.1,0.4,1.8
			s-0.1,1.2-0.4,1.8c-0.3,0.5-0.7,0.9-1.2,1.2c-0.5,0.3-1.2,0.4-2,0.4h-2.5v-1.7h2.2c0.4,0,0.7-0.1,1-0.2c0.3-0.1,0.5-0.3,0.6-0.6
			c0.1-0.3,0.2-0.5,0.2-0.9c0-0.3-0.1-0.6-0.2-0.9s-0.3-0.4-0.6-0.6c-0.3-0.1-0.6-0.2-1-0.2h-1.4v8.2H224.4z"/>
		<path class="st8" d="M235.3,59v4.3h-2.1v-10h2v3.8h0.1c0.2-0.4,0.4-0.8,0.8-1c0.4-0.3,0.8-0.4,1.4-0.4c0.5,0,1,0.1,1.4,0.3
			c0.4,0.2,0.7,0.5,0.9,1c0.2,0.4,0.3,0.9,0.3,1.5v4.8h-2.1v-4.4c0-0.5-0.1-0.8-0.3-1.1c-0.2-0.3-0.6-0.4-1-0.4
			c-0.3,0-0.5,0.1-0.7,0.2c-0.2,0.1-0.4,0.3-0.5,0.5C235.4,58.4,235.3,58.7,235.3,59z"/>
		<path class="st8" d="M245.2,63.5c-0.8,0-1.4-0.2-2-0.5c-0.5-0.3-1-0.8-1.3-1.4c-0.3-0.6-0.4-1.3-0.4-2c0-0.8,0.1-1.4,0.4-2
			c0.3-0.6,0.7-1,1.3-1.4c0.6-0.3,1.2-0.5,2-0.5c0.8,0,1.4,0.2,2,0.5c0.6,0.3,1,0.8,1.3,1.4c0.3,0.6,0.4,1.3,0.4,2
			c0,0.8-0.1,1.4-0.4,2c-0.3,0.6-0.7,1-1.3,1.4C246.6,63.3,245.9,63.5,245.2,63.5z M245.2,61.9c0.3,0,0.6-0.1,0.9-0.3
			c0.2-0.2,0.4-0.5,0.5-0.8s0.2-0.7,0.2-1.2c0-0.4-0.1-0.8-0.2-1.2c-0.1-0.3-0.3-0.6-0.5-0.8s-0.5-0.3-0.9-0.3
			c-0.3,0-0.6,0.1-0.9,0.3s-0.4,0.5-0.5,0.8c-0.1,0.3-0.2,0.7-0.2,1.2c0,0.4,0.1,0.8,0.2,1.2c0.1,0.3,0.3,0.6,0.5,0.8
			C244.5,61.8,244.8,61.9,245.2,61.9z"/>
		<path class="st8" d="M254.2,55.8v1.6h-4.5v-1.6H254.2z M250.7,54.1h2.1v7c0,0.2,0,0.3,0.1,0.4c0.1,0.1,0.1,0.2,0.2,0.2
			c0.1,0,0.2,0.1,0.4,0.1c0.1,0,0.2,0,0.3,0s0.2,0,0.2,0l0.3,1.5c-0.1,0-0.2,0.1-0.4,0.1c-0.2,0-0.4,0.1-0.7,0.1
			c-0.5,0-0.9,0-1.3-0.2s-0.7-0.4-0.9-0.7c-0.2-0.3-0.3-0.7-0.3-1.2V54.1z"/>
		<path class="st8" d="M258.8,63.5c-0.8,0-1.4-0.2-2-0.5c-0.5-0.3-1-0.8-1.3-1.4c-0.3-0.6-0.4-1.3-0.4-2c0-0.8,0.1-1.4,0.4-2
			c0.3-0.6,0.7-1,1.3-1.4c0.6-0.3,1.2-0.5,2-0.5c0.8,0,1.4,0.2,2,0.5c0.6,0.3,1,0.8,1.3,1.4c0.3,0.6,0.4,1.3,0.4,2
			c0,0.8-0.1,1.4-0.4,2c-0.3,0.6-0.7,1-1.3,1.4C260.2,63.3,259.6,63.5,258.8,63.5z M258.8,61.9c0.3,0,0.6-0.1,0.9-0.3
			c0.2-0.2,0.4-0.5,0.5-0.8s0.2-0.7,0.2-1.2c0-0.4-0.1-0.8-0.2-1.2c-0.1-0.3-0.3-0.6-0.5-0.8s-0.5-0.3-0.9-0.3
			c-0.3,0-0.6,0.1-0.9,0.3s-0.4,0.5-0.5,0.8c-0.1,0.3-0.2,0.7-0.2,1.2c0,0.4,0.1,0.8,0.2,1.2c0.1,0.3,0.3,0.6,0.5,0.8
			C258.2,61.8,258.5,61.9,258.8,61.9z"/>
		<path class="st8" d="M270.1,58l-1.9,0.1c0-0.2-0.1-0.3-0.2-0.4c-0.1-0.1-0.2-0.2-0.4-0.3c-0.2-0.1-0.4-0.1-0.6-0.1
			c-0.3,0-0.6,0.1-0.8,0.2s-0.3,0.3-0.3,0.5c0,0.2,0.1,0.3,0.2,0.5c0.1,0.1,0.4,0.2,0.7,0.3l1.4,0.3c0.7,0.1,1.3,0.4,1.6,0.7
			c0.4,0.3,0.5,0.8,0.5,1.3c0,0.5-0.1,0.9-0.4,1.3s-0.7,0.7-1.2,0.9s-1.1,0.3-1.7,0.3c-1,0-1.8-0.2-2.4-0.6s-0.9-1-1-1.7l2-0.1
			c0.1,0.3,0.2,0.5,0.4,0.7c0.2,0.2,0.5,0.2,0.9,0.2c0.4,0,0.7-0.1,0.9-0.2c0.2-0.1,0.3-0.3,0.3-0.5c0-0.2-0.1-0.3-0.2-0.5
			c-0.2-0.1-0.4-0.2-0.7-0.3l-1.3-0.3c-0.7-0.1-1.3-0.4-1.6-0.8s-0.5-0.8-0.5-1.4c0-0.5,0.1-0.9,0.4-1.2c0.3-0.3,0.6-0.6,1.1-0.8
			s1-0.3,1.7-0.3c0.9,0,1.7,0.2,2.2,0.6C269.7,56.7,270,57.3,270.1,58z"/>
		<path class="st8" d="M273.6,59v4.3h-2.1v-10h2v3.8h0.1c0.2-0.4,0.4-0.8,0.8-1c0.4-0.3,0.8-0.4,1.4-0.4c0.5,0,1,0.1,1.4,0.3
			c0.4,0.2,0.7,0.5,0.9,1c0.2,0.4,0.3,0.9,0.3,1.5v4.8h-2.1v-4.4c0-0.5-0.1-0.8-0.3-1.1c-0.2-0.3-0.6-0.4-1-0.4
			c-0.3,0-0.5,0.1-0.7,0.2c-0.2,0.1-0.4,0.3-0.5,0.5C273.7,58.4,273.6,58.7,273.6,59z"/>
		<path class="st8" d="M283.5,63.5c-0.8,0-1.4-0.2-2-0.5c-0.5-0.3-1-0.8-1.3-1.4c-0.3-0.6-0.4-1.3-0.4-2c0-0.8,0.1-1.4,0.4-2
			c0.3-0.6,0.7-1,1.3-1.4c0.6-0.3,1.2-0.5,2-0.5c0.8,0,1.4,0.2,2,0.5c0.6,0.3,1,0.8,1.3,1.4c0.3,0.6,0.4,1.3,0.4,2
			c0,0.8-0.1,1.4-0.4,2c-0.3,0.6-0.7,1-1.3,1.4C284.9,63.3,284.3,63.5,283.5,63.5z M283.5,61.9c0.3,0,0.6-0.1,0.9-0.3
			c0.2-0.2,0.4-0.5,0.5-0.8s0.2-0.7,0.2-1.2c0-0.4-0.1-0.8-0.2-1.2c-0.1-0.3-0.3-0.6-0.5-0.8s-0.5-0.3-0.9-0.3
			c-0.3,0-0.6,0.1-0.9,0.3s-0.4,0.5-0.5,0.8c-0.1,0.3-0.2,0.7-0.2,1.2c0,0.4,0.1,0.8,0.2,1.2c0.1,0.3,0.3,0.6,0.5,0.8
			C282.9,61.8,283.2,61.9,283.5,61.9z"/>
		<path class="st8" d="M288.5,66.1V55.8h2v1.3h0.1c0.1-0.2,0.2-0.4,0.4-0.6c0.2-0.2,0.4-0.4,0.7-0.5c0.3-0.1,0.6-0.2,1-0.2
			c0.5,0,1,0.1,1.5,0.4s0.8,0.7,1.1,1.3c0.3,0.6,0.4,1.3,0.4,2.1c0,0.8-0.1,1.5-0.4,2.1s-0.6,1-1.1,1.3c-0.5,0.3-1,0.4-1.5,0.4
			c-0.4,0-0.7-0.1-1-0.2c-0.3-0.1-0.5-0.3-0.7-0.5c-0.2-0.2-0.3-0.4-0.4-0.6h-0.1v4H288.5z M290.6,59.6c0,0.4,0.1,0.8,0.2,1.2
			c0.1,0.3,0.3,0.6,0.5,0.8c0.2,0.2,0.5,0.3,0.9,0.3c0.3,0,0.6-0.1,0.9-0.3c0.2-0.2,0.4-0.4,0.5-0.8c0.1-0.3,0.2-0.7,0.2-1.2
			c0-0.4-0.1-0.8-0.2-1.1c-0.1-0.3-0.3-0.6-0.5-0.8c-0.2-0.2-0.5-0.3-0.9-0.3c-0.3,0-0.6,0.1-0.9,0.3c-0.2,0.2-0.4,0.4-0.5,0.8
			C290.6,58.8,290.6,59.1,290.6,59.6z"/>
	</g>
</g>
<g id="XD" class="st0">
	<g transform="matrix(1.000000125 0 0 1.000000125 159.9999625 83.00005)" class="st2">
		<path class="st11" d="M-22.6-41.3H1.2c3.6,0,6.5,2.9,6.5,6.5v22.9c0,3.6-2.9,6.5-6.5,6.5h-23.8c-3.6,0-6.5-2.9-6.5-6.5v-22.9
			C-29.2-38.3-26.2-41.3-22.6-41.3z"/>
		<g>
			<path class="st12" d="M-9.7-31.8l-4.6,7.6l4.9,8.1c0,0.1,0,0.1,0,0.2c0,0.1-0.1,0-0.2,0h-3.5c-0.2,0-0.4,0-0.5-0.2
				c-0.3-0.6-0.7-1.3-1-1.9c-0.3-0.6-0.7-1.3-1-1.9c-0.4-0.7-0.7-1.3-1.1-2h0c-0.3,0.7-0.7,1.3-1,2c-0.4,0.7-0.7,1.3-1,2
				c-0.4,0.6-0.7,1.3-1.1,1.9c-0.1,0.2-0.2,0.2-0.4,0.2h-3.4c-0.1,0-0.1,0-0.1,0c0-0.1,0-0.1,0-0.2l4.8-7.8l-4.7-7.9
				c0-0.1-0.1-0.1,0-0.2c0,0,0.1-0.1,0.2-0.1h3.5c0.1,0,0.2,0,0.2,0c0.1,0,0.1,0.1,0.2,0.1c0.3,0.7,0.6,1.3,1,2
				c0.4,0.7,0.7,1.3,1.1,2c0.4,0.6,0.7,1.3,1,2h0c0.3-0.7,0.7-1.3,1-2s0.7-1.3,1-1.9s0.7-1.3,1-1.9c0-0.1,0-0.1,0.1-0.2
				c0.1,0,0.1,0,0.2,0h3.2c0.1,0,0.2,0,0.2,0.1C-9.7-31.9-9.7-31.8-9.7-31.8L-9.7-31.8z"/>
			<path class="st12" d="M-2.6-15.6c-1.1,0-2.3-0.2-3.3-0.7c-1-0.4-1.8-1.2-2.3-2.1c-0.6-0.9-0.8-2.1-0.8-3.5c0-1.1,0.3-2.3,0.8-3.2
				c0.6-1,1.4-1.8,2.4-2.4c1.1-0.6,2.4-0.9,3.9-0.9c0.1,0,0.2,0,0.3,0c0.1,0,0.3,0,0.5,0v-4.9c0-0.1,0-0.2,0.2-0.2h3.1
				c0.1,0,0.1,0,0.2,0.1v14.7c0,0.3,0,0.6,0,0.9c0,0.3,0,0.6,0.1,0.9c0,0.1,0,0.2-0.2,0.2c-0.8,0.3-1.6,0.6-2.5,0.7
				C-1-15.6-1.8-15.6-2.6-15.6z M-1.1-18.6v-6.8c-0.1,0-0.3-0.1-0.4-0.1c-0.2,0-0.3,0-0.5,0c-0.6,0-1.2,0.1-1.7,0.4
				c-0.5,0.3-1,0.6-1.3,1.1c-0.3,0.5-0.5,1.2-0.5,2c0,0.5,0.1,1.1,0.3,1.6c0.2,0.4,0.4,0.8,0.7,1.1c0.3,0.3,0.6,0.5,1,0.6
				c0.4,0.1,0.8,0.2,1.3,0.2c0.2,0,0.4,0,0.6,0C-1.5-18.6-1.3-18.6-1.1-18.6L-1.1-18.6z"/>
		</g>
	</g>
	<g class="st2">
		<path class="st8" d="M179,64.8h-2.3l3.5-10.3h2.8l3.5,10.3h-2.3l-2.6-7.9h-0.1L179,64.8z M178.9,60.8h5.5v1.7h-5.5V60.8z"/>
		<path class="st8" d="M190.2,64.9c-0.6,0-1.1-0.2-1.6-0.5c-0.5-0.3-0.8-0.7-1.1-1.3c-0.3-0.6-0.4-1.3-0.4-2.2
			c0-0.9,0.1-1.6,0.4-2.2s0.7-1,1.1-1.3c0.5-0.3,1-0.4,1.6-0.4c0.4,0,0.8,0.1,1.1,0.2c0.3,0.1,0.5,0.3,0.7,0.5s0.3,0.4,0.4,0.6h0.1
			v-3.9h2.1v10.3h-2.1v-1.2h-0.1c-0.1,0.2-0.2,0.4-0.4,0.6c-0.2,0.2-0.4,0.4-0.7,0.5S190.7,64.9,190.2,64.9z M190.9,63.2
			c0.3,0,0.6-0.1,0.9-0.3c0.2-0.2,0.4-0.5,0.6-0.8c0.1-0.3,0.2-0.7,0.2-1.2s-0.1-0.9-0.2-1.2s-0.3-0.6-0.6-0.8s-0.5-0.3-0.9-0.3
			c-0.4,0-0.6,0.1-0.9,0.3c-0.2,0.2-0.4,0.5-0.5,0.8c-0.1,0.3-0.2,0.7-0.2,1.2c0,0.4,0.1,0.8,0.2,1.2c0.1,0.3,0.3,0.6,0.5,0.8
			C190.3,63.1,190.6,63.2,190.9,63.2z"/>
		<path class="st8" d="M199.8,64.9c-0.8,0-1.4-0.2-2-0.5s-1-0.8-1.3-1.4c-0.3-0.6-0.5-1.3-0.5-2.1c0-0.8,0.2-1.5,0.5-2.1
			c0.3-0.6,0.7-1.1,1.3-1.4c0.6-0.3,1.2-0.5,2-0.5s1.4,0.2,2,0.5c0.6,0.3,1,0.8,1.3,1.4c0.3,0.6,0.5,1.3,0.5,2.1
			c0,0.8-0.2,1.5-0.5,2.1c-0.3,0.6-0.7,1.1-1.3,1.4C201.3,64.8,200.6,64.9,199.8,64.9z M199.9,63.3c0.4,0,0.6-0.1,0.9-0.3
			c0.2-0.2,0.4-0.5,0.5-0.8c0.1-0.4,0.2-0.8,0.2-1.2s-0.1-0.8-0.2-1.2s-0.3-0.6-0.5-0.8c-0.2-0.2-0.5-0.3-0.9-0.3
			c-0.4,0-0.7,0.1-0.9,0.3c-0.2,0.2-0.4,0.5-0.5,0.8c-0.1,0.4-0.2,0.7-0.2,1.2s0.1,0.8,0.2,1.2c0.1,0.3,0.3,0.6,0.5,0.8
			S199.5,63.3,199.9,63.3z"/>
		<path class="st8" d="M205.1,64.8V54.5h2.1v3.9h0.1c0.1-0.2,0.2-0.4,0.4-0.6s0.4-0.4,0.7-0.5c0.3-0.1,0.6-0.2,1.1-0.2
			c0.6,0,1.1,0.1,1.6,0.4c0.5,0.3,0.9,0.7,1.1,1.3c0.3,0.6,0.4,1.3,0.4,2.2c0,0.9-0.1,1.6-0.4,2.2c-0.3,0.6-0.6,1-1.1,1.3
			c-0.5,0.3-1,0.5-1.6,0.5c-0.4,0-0.8-0.1-1.1-0.2s-0.5-0.3-0.7-0.5c-0.2-0.2-0.3-0.4-0.4-0.6h-0.1v1.2H205.1z M207.1,60.9
			c0,0.5,0.1,0.9,0.2,1.2c0.1,0.3,0.3,0.6,0.6,0.8s0.5,0.3,0.9,0.3c0.3,0,0.6-0.1,0.9-0.3c0.2-0.2,0.4-0.5,0.5-0.8
			c0.1-0.3,0.2-0.7,0.2-1.2c0-0.4-0.1-0.8-0.2-1.2c-0.1-0.3-0.3-0.6-0.5-0.8c-0.2-0.2-0.5-0.3-0.9-0.3c-0.3,0-0.6,0.1-0.9,0.3
			c-0.2,0.2-0.4,0.4-0.5,0.8S207.1,60.5,207.1,60.9z"/>
		<path class="st8" d="M217.5,64.9c-0.8,0-1.5-0.2-2-0.5s-1-0.8-1.3-1.4c-0.3-0.6-0.5-1.3-0.5-2.1c0-0.8,0.2-1.5,0.5-2.1
			c0.3-0.6,0.7-1.1,1.3-1.4c0.6-0.3,1.2-0.5,2-0.5c0.5,0,1,0.1,1.4,0.2c0.4,0.2,0.8,0.4,1.2,0.7c0.3,0.3,0.6,0.7,0.8,1.2
			c0.2,0.5,0.3,1.1,0.3,1.7v0.6h-6.5v-1.3h4.5c0-0.3-0.1-0.6-0.2-0.8c-0.1-0.2-0.3-0.4-0.6-0.6c-0.2-0.1-0.5-0.2-0.8-0.2
			c-0.3,0-0.6,0.1-0.9,0.2c-0.2,0.1-0.4,0.3-0.6,0.6c-0.1,0.2-0.2,0.5-0.2,0.8v1.3c0,0.4,0.1,0.7,0.2,1c0.1,0.3,0.3,0.5,0.6,0.6
			c0.3,0.2,0.6,0.2,0.9,0.2c0.2,0,0.5,0,0.7-0.1c0.2-0.1,0.4-0.2,0.5-0.3c0.1-0.1,0.2-0.3,0.3-0.5l2,0.1c-0.1,0.5-0.3,0.9-0.6,1.2
			c-0.3,0.4-0.7,0.6-1.2,0.8S218.1,64.9,217.5,64.9z"/>
		<path class="st8" d="M227.7,54.5l2.1,3.5h0.1l2.1-3.5h2.4l-3.1,5.1l3.2,5.1H232l-2.1-3.5h-0.1l-2.1,3.5h-2.5l3.2-5.1l-3.1-5.1
			H227.7z"/>
		<path class="st8" d="M239.4,64.8h-3.6V54.5h3.7c1,0,1.9,0.2,2.7,0.6c0.7,0.4,1.3,1,1.7,1.8s0.6,1.7,0.6,2.7c0,1.1-0.2,2-0.6,2.8
			s-1,1.4-1.7,1.8C241.4,64.6,240.5,64.8,239.4,64.8z M238,62.9h1.4c0.6,0,1.2-0.1,1.6-0.3c0.4-0.2,0.8-0.6,1-1.1
			c0.2-0.5,0.3-1.1,0.3-1.9c0-0.8-0.1-1.4-0.3-1.9c-0.2-0.5-0.6-0.8-1-1.1c-0.4-0.2-1-0.3-1.6-0.3H238V62.9z"/>
	</g>
</g>
<g id="CSS" class="st0">
	<g class="st2">
		<path class="st13" d="M16.7,36.1l1.7,19.6l1.9,21.6L36.8,82h0l16.5-4.7l3.6-41.2H16.7z M47.1,70.1L36.8,73l-0.1,0l-10.4-3.2
			l-0.6-7.4h5l0.4,4l5.6,1.5l0.1,0l5.6-1.5l0.7-6.7H31.3l-0.4-3.9l-0.1-1h12.7l0.5-5.2h-7.2l-12.1,0l-0.4-5h25.2L47.1,70.1z"/>
	</g>
	<g class="st2">
		<path class="st8" d="M186,58.2h-2.2c0-0.3-0.1-0.5-0.2-0.8c-0.1-0.2-0.3-0.4-0.5-0.6c-0.2-0.2-0.4-0.3-0.7-0.4
			c-0.3-0.1-0.5-0.1-0.8-0.1c-0.5,0-1,0.1-1.4,0.4c-0.4,0.3-0.7,0.6-0.9,1.1c-0.2,0.5-0.3,1.1-0.3,1.8c0,0.7,0.1,1.4,0.3,1.9
			s0.5,0.9,0.9,1.1s0.9,0.4,1.4,0.4c0.3,0,0.6,0,0.8-0.1s0.5-0.2,0.7-0.3s0.4-0.3,0.5-0.5s0.2-0.5,0.3-0.7l2.2,0
			c-0.1,0.5-0.2,0.9-0.4,1.4c-0.2,0.4-0.5,0.8-0.9,1.2s-0.8,0.6-1.4,0.8c-0.5,0.2-1.1,0.3-1.8,0.3c-0.9,0-1.7-0.2-2.5-0.6
			c-0.7-0.4-1.3-1-1.7-1.8c-0.4-0.8-0.6-1.7-0.6-2.9c0-1.1,0.2-2.1,0.6-2.9s1-1.4,1.7-1.8c0.7-0.4,1.5-0.6,2.4-0.6
			c0.6,0,1.2,0.1,1.7,0.3s1,0.4,1.4,0.7c0.4,0.3,0.7,0.7,1,1.2S185.9,57.6,186,58.2z"/>
		<path class="st8" d="M193.1,57.5c0-0.4-0.2-0.7-0.5-0.9c-0.3-0.2-0.7-0.3-1.2-0.3c-0.4,0-0.7,0-0.9,0.1c-0.2,0.1-0.4,0.2-0.6,0.4
			c-0.1,0.2-0.2,0.4-0.2,0.6c0,0.2,0,0.3,0.1,0.5c0.1,0.1,0.2,0.3,0.4,0.4c0.2,0.1,0.3,0.2,0.5,0.3c0.2,0.1,0.4,0.1,0.6,0.2l0.9,0.2
			c0.4,0.1,0.9,0.2,1.2,0.4c0.4,0.2,0.7,0.4,1,0.6c0.3,0.2,0.5,0.5,0.6,0.9c0.2,0.3,0.2,0.7,0.2,1.1c0,0.6-0.2,1.2-0.5,1.6
			c-0.3,0.5-0.8,0.8-1.4,1.1c-0.6,0.3-1.3,0.4-2.2,0.4c-0.8,0-1.6-0.1-2.2-0.4c-0.6-0.3-1.1-0.6-1.4-1.1c-0.3-0.5-0.5-1.1-0.5-1.9
			h2.1c0,0.3,0.1,0.6,0.3,0.9c0.2,0.2,0.4,0.4,0.7,0.5c0.3,0.1,0.6,0.2,1,0.2c0.4,0,0.7-0.1,1-0.2s0.5-0.3,0.6-0.4
			c0.2-0.2,0.2-0.4,0.2-0.7c0-0.2-0.1-0.4-0.2-0.6c-0.1-0.2-0.3-0.3-0.6-0.4c-0.3-0.1-0.6-0.2-1-0.3l-1.1-0.3
			c-0.9-0.2-1.6-0.5-2.1-1c-0.5-0.4-0.8-1.1-0.8-1.8c0-0.6,0.2-1.2,0.5-1.6c0.3-0.5,0.8-0.8,1.4-1.1s1.3-0.4,2-0.4
			c0.8,0,1.4,0.1,2,0.4c0.6,0.3,1,0.6,1.3,1.1c0.3,0.5,0.5,1,0.5,1.6H193.1z"/>
		<path class="st8" d="M202.4,57.5c0-0.4-0.2-0.7-0.5-0.9c-0.3-0.2-0.7-0.3-1.2-0.3c-0.4,0-0.7,0-0.9,0.1c-0.2,0.1-0.4,0.2-0.6,0.4
			c-0.1,0.2-0.2,0.4-0.2,0.6c0,0.2,0,0.3,0.1,0.5c0.1,0.1,0.2,0.3,0.4,0.4c0.2,0.1,0.3,0.2,0.5,0.3c0.2,0.1,0.4,0.1,0.6,0.2l0.9,0.2
			c0.4,0.1,0.9,0.2,1.2,0.4c0.4,0.2,0.7,0.4,1,0.6c0.3,0.2,0.5,0.5,0.6,0.9c0.2,0.3,0.2,0.7,0.2,1.1c0,0.6-0.2,1.2-0.5,1.6
			c-0.3,0.5-0.8,0.8-1.4,1.1c-0.6,0.3-1.3,0.4-2.2,0.4c-0.8,0-1.6-0.1-2.2-0.4c-0.6-0.3-1.1-0.6-1.4-1.1c-0.3-0.5-0.5-1.1-0.5-1.9
			h2.1c0,0.3,0.1,0.6,0.3,0.9c0.2,0.2,0.4,0.4,0.7,0.5c0.3,0.1,0.6,0.2,1,0.2c0.4,0,0.7-0.1,1-0.2s0.5-0.3,0.6-0.4
			c0.2-0.2,0.2-0.4,0.2-0.7c0-0.2-0.1-0.4-0.2-0.6c-0.1-0.2-0.3-0.3-0.6-0.4c-0.3-0.1-0.6-0.2-1-0.3l-1.1-0.3
			c-0.9-0.2-1.6-0.5-2.1-1c-0.5-0.4-0.8-1.1-0.8-1.8c0-0.6,0.2-1.2,0.5-1.6c0.3-0.5,0.8-0.8,1.4-1.1s1.3-0.4,2-0.4
			c0.8,0,1.4,0.1,2,0.4c0.6,0.3,1,0.6,1.3,1.1c0.3,0.5,0.5,1,0.5,1.6H202.4z"/>
		<path class="st8" d="M213.1,65c-0.8,0-1.4-0.1-2-0.4c-0.6-0.3-1-0.6-1.4-1.1c-0.3-0.5-0.5-1-0.5-1.6h2.2c0,0.3,0.1,0.5,0.2,0.7
			s0.4,0.3,0.6,0.4c0.3,0.1,0.5,0.2,0.9,0.2c0.3,0,0.6-0.1,0.9-0.2c0.3-0.1,0.5-0.3,0.6-0.5c0.1-0.2,0.2-0.4,0.2-0.7
			c0-0.3-0.1-0.5-0.2-0.7c-0.2-0.2-0.4-0.4-0.7-0.5c-0.3-0.1-0.6-0.2-1-0.2h-1v-1.6h1c0.3,0,0.6-0.1,0.9-0.2
			c0.3-0.1,0.5-0.3,0.6-0.5s0.2-0.4,0.2-0.7c0-0.3-0.1-0.5-0.2-0.7c-0.1-0.2-0.3-0.3-0.5-0.5c-0.2-0.1-0.5-0.2-0.8-0.2
			c-0.3,0-0.6,0.1-0.8,0.2s-0.4,0.3-0.6,0.5c-0.1,0.2-0.2,0.4-0.2,0.7h-2.1c0-0.6,0.2-1.1,0.5-1.6c0.3-0.5,0.8-0.8,1.3-1.1
			c0.6-0.3,1.2-0.4,1.9-0.4c0.7,0,1.3,0.1,1.9,0.4c0.5,0.3,0.9,0.6,1.2,1c0.3,0.4,0.4,0.9,0.4,1.5c0,0.6-0.2,1.1-0.5,1.4
			c-0.4,0.4-0.8,0.6-1.4,0.7v0.1c0.8,0.1,1.3,0.4,1.7,0.8c0.4,0.4,0.6,1,0.6,1.6c0,0.6-0.2,1.1-0.5,1.6c-0.3,0.5-0.8,0.8-1.4,1.1
			C214.6,64.9,213.9,65,213.1,65z"/>
	</g>
</g>
<g id="JS_00000011710363869494616110000013580470534947457431_" class="st0">
	<g id="JS" class="st2">
		<g>
			<path d="M141.1,71.9l2.7-1.7c0,0,0.1,0.1,0.2,0.3c0.4,0.6,0.7,1,1.3,1.3c0.6,0.2,1.9,0.3,2.3-0.7c0.3-0.5,0.2-2.2,0.2-4.1
				c0-2.9,0-5.8,0-8.7h3.4v0.1c0,3.1,0,6.2,0,9.3c0,1.9,0.2,3.6-0.6,5c-0.5,1.1-1.5,1.8-2.7,2.1c-1.8,0.4-3.5,0.2-4.8-0.6
				C142.2,73.7,141.5,72.8,141.1,71.9z"/>
			<path d="M161.3,69.7c-0.4-1.4-3.4-1.8-5.4-3.3c-2.1-1.4-2.6-4.8-0.9-6.7c0.6-0.7,1.5-1.3,2.6-1.5l1.1-0.1c2.1,0,3.3,0.5,4.3,1.5
				c0.3,0.3,0.5,0.5,0.9,1.2c-1.1,0.7-1.1,0.7-2.6,1.7c-0.3-0.7-0.9-1.2-1.5-1.4c-0.9-0.3-2,0-2.3,1c-0.1,0.3-0.1,0.6,0.1,1.1
				c0.4,0.8,1.6,1.2,2.7,1.7c3.2,1.3,4.2,2.7,4.5,4.3l-0.1-0.1c0.2,1.4-0.1,2.3-0.1,2.5c-1.2,4-7.7,4.1-10.3,1.5
				c-0.5-0.6-0.9-0.9-1.2-1.7l2.7-1.6c0.7,1.1,1.4,1.7,2.6,2C160,72,161.7,71.4,161.3,69.7z"/>
			<path class="st14" d="M131.6,41.7v36h36v-36H131.6z M150.6,72.7c-0.1,0.1-0.1,0.3-0.2,0.4c-0.1,0.1-0.2,0.2-0.3,0.4
				c-0.1,0.1-0.1,0.2-0.2,0.2c-0.1,0.1-0.1,0.1-0.2,0.2c-0.1,0.1-0.1,0.1-0.2,0.2c-0.1,0.1-0.2,0.2-0.3,0.2c0,0,0,0,0,0
				c0,0-0.1,0.1-0.1,0.1c-0.1,0.1-0.2,0.1-0.3,0.2c-0.1,0.1-0.3,0.1-0.4,0.2c-0.1,0.1-0.3,0.1-0.4,0.2c-1.8,0.4-3.5,0.2-4.8-0.6
				c-0.9-0.5-1.5-1.3-2-2.3l2.7-1.7c0,0,0.1,0.1,0.2,0.3c0.4,0.6,0.7,1,1.3,1.3c0.6,0.2,1.8,0.3,2.3-0.7c0.3-0.5,0.2-2.2,0.2-4.1
				c0-2.9,0-5.8,0-8.7h3.4v0.1c0,3.1,0,6.2,0,9.3C151.2,69.6,151.4,71.3,150.6,72.7z M164.5,71.5c-1.2,4-7.7,4.1-10.3,1.5
				c-0.5-0.6-0.9-1-1.2-1.7l2.7-1.6c0.8,1.1,1.4,1.7,2.6,2c1.6,0.2,3.3-0.4,3-2.1c-0.4-1.4-3.4-1.8-5.4-3.3
				c-2.1-1.4-2.6-4.8-0.9-6.7c0.6-0.7,1.6-1.3,2.6-1.5l1.1-0.1c2,0,3.3,0.5,4.3,1.6c0.3,0.3,0.5,0.5,0.9,1.2
				c-1.1,0.7-1.1,0.7-2.6,1.7c-0.3-0.7-0.9-1.2-1.5-1.4c-0.9-0.3-2,0-2.3,1c-0.1,0.3-0.1,0.6,0.1,1.1c0.4,0.8,1.6,1.2,2.7,1.7
				c3.2,1.3,4.2,2.7,4.5,4.3l-0.1-0.1C164.8,70.5,164.5,71.4,164.5,71.5z"/>
		</g>
	</g>
	<g class="st2">
		<path class="st8" d="M179.1,54.8l2.5,7.8h0.1l2.5-7.8h2.4l-3.6,10.3h-2.8l-3.6-10.3H179.1z"/>
		<path class="st8" d="M189.2,65.3c-0.5,0-0.9-0.1-1.3-0.3s-0.7-0.4-0.9-0.8c-0.2-0.3-0.3-0.8-0.3-1.3c0-0.4,0.1-0.8,0.2-1.1
			c0.2-0.3,0.4-0.5,0.6-0.7s0.6-0.3,0.9-0.4c0.3-0.1,0.7-0.2,1.1-0.2c0.5,0,0.8-0.1,1.1-0.1c0.3,0,0.5-0.1,0.6-0.2
			c0.1-0.1,0.2-0.2,0.2-0.4v0c0-0.3-0.1-0.6-0.3-0.7c-0.2-0.2-0.5-0.3-0.8-0.3c-0.4,0-0.7,0.1-0.9,0.3c-0.2,0.2-0.4,0.4-0.5,0.6
			l-2-0.2c0.1-0.5,0.3-0.9,0.6-1.2c0.3-0.3,0.7-0.6,1.1-0.8c0.5-0.2,1-0.3,1.6-0.3c0.4,0,0.8,0,1.2,0.2c0.4,0.1,0.7,0.3,1.1,0.5
			c0.3,0.2,0.5,0.5,0.7,0.8s0.3,0.7,0.3,1.2v5.2h-2V64h-0.1c-0.1,0.2-0.3,0.5-0.5,0.6c-0.2,0.2-0.5,0.3-0.8,0.4
			C189.9,65.2,189.6,65.3,189.2,65.3z M189.8,63.8c0.3,0,0.6-0.1,0.8-0.2c0.2-0.1,0.4-0.3,0.6-0.5c0.1-0.2,0.2-0.5,0.2-0.7v-0.8
			c-0.1,0-0.2,0.1-0.3,0.1c-0.1,0-0.2,0.1-0.4,0.1c-0.1,0-0.3,0.1-0.4,0.1c-0.1,0-0.3,0-0.4,0.1c-0.3,0-0.5,0.1-0.7,0.2
			c-0.2,0.1-0.3,0.2-0.4,0.3s-0.2,0.3-0.2,0.5c0,0.3,0.1,0.5,0.3,0.7C189.2,63.7,189.5,63.8,189.8,63.8z"/>
		<path class="st8" d="M197.3,60.6v4.5h-2.1v-7.7h2v1.4h0.1c0.2-0.4,0.5-0.8,0.9-1.1c0.4-0.3,0.9-0.4,1.5-0.4c0.5,0,1,0.1,1.4,0.4
			c0.4,0.2,0.7,0.6,0.9,1c0.2,0.4,0.3,1,0.3,1.6v4.9h-2.1v-4.5c0-0.5-0.1-0.8-0.4-1.1c-0.2-0.3-0.6-0.4-1-0.4
			c-0.3,0-0.5,0.1-0.8,0.2s-0.4,0.3-0.5,0.5C197.4,60,197.3,60.3,197.3,60.6z"/>
		<path class="st8" d="M205.1,56.4c-0.3,0-0.6-0.1-0.8-0.3c-0.2-0.2-0.3-0.5-0.3-0.8c0-0.3,0.1-0.5,0.3-0.8s0.5-0.3,0.8-0.3
			c0.3,0,0.6,0.1,0.8,0.3s0.3,0.5,0.3,0.8c0,0.3-0.1,0.6-0.3,0.8C205.7,56.3,205.4,56.4,205.1,56.4z M204,65.1v-7.7h2.1v7.7H204z"/>
		<path class="st8" d="M210,54.8v10.3h-2.1V54.8H210z"/>
		<path class="st8" d="M213.9,54.8v10.3h-2.1V54.8H213.9z"/>
		<path class="st8" d="M217.8,65.3c-0.5,0-0.9-0.1-1.3-0.3s-0.7-0.4-0.9-0.8c-0.2-0.3-0.3-0.8-0.3-1.3c0-0.4,0.1-0.8,0.2-1.1
			c0.2-0.3,0.4-0.5,0.6-0.7s0.6-0.3,0.9-0.4c0.3-0.1,0.7-0.2,1.1-0.2c0.5,0,0.8-0.1,1.1-0.1c0.3,0,0.5-0.1,0.6-0.2
			c0.1-0.1,0.2-0.2,0.2-0.4v0c0-0.3-0.1-0.6-0.3-0.7c-0.2-0.2-0.5-0.3-0.8-0.3c-0.4,0-0.7,0.1-0.9,0.3c-0.2,0.2-0.4,0.4-0.5,0.6
			l-2-0.2c0.1-0.5,0.3-0.9,0.6-1.2c0.3-0.3,0.7-0.6,1.1-0.8c0.5-0.2,1-0.3,1.6-0.3c0.4,0,0.8,0,1.2,0.2c0.4,0.1,0.7,0.3,1.1,0.5
			c0.3,0.2,0.5,0.5,0.7,0.8s0.3,0.7,0.3,1.2v5.2h-2V64H220c-0.1,0.2-0.3,0.5-0.5,0.6c-0.2,0.2-0.5,0.3-0.8,0.4
			C218.5,65.2,218.2,65.3,217.8,65.3z M218.4,63.8c0.3,0,0.6-0.1,0.8-0.2c0.2-0.1,0.4-0.3,0.6-0.5c0.1-0.2,0.2-0.5,0.2-0.7v-0.8
			c-0.1,0-0.2,0.1-0.3,0.1c-0.1,0-0.2,0.1-0.4,0.1c-0.1,0-0.3,0.1-0.4,0.1c-0.1,0-0.3,0-0.4,0.1c-0.3,0-0.5,0.1-0.7,0.2
			c-0.2,0.1-0.3,0.2-0.4,0.3s-0.2,0.3-0.2,0.5c0,0.3,0.1,0.5,0.3,0.7C217.8,63.7,218.1,63.8,218.4,63.8z"/>
	</g>
</g>
<g id="HTML" class="st0">
	<g id="HTML_00000058579895108832644200000006263697951585788289_" class="st2">
		<path class="st15" d="M133.9,41.7l2.9,32.3l12.8,3.7l0.2-0.1l12.7-3.6l1.5-17.2l1.3-15.2H133.9z M158.9,52.5h-14.7l0.3,4h14l0,0.5
			l-1,11.5l-7.7,2.1l-0.2,0l-7.9-2.1l-0.5-6.1h3.8l0.3,3.1l4.3,1.2l0.2,0l4.1-1.1l0.5-5H141l-1-11.7h19.3L158.9,52.5z"/>
	</g>
	<g class="st2">
		<path class="st8" d="M176.7,64.8V54.5h2.2v4.3h4.4v-4.3h2.2v10.3h-2.2v-4.3h-4.4v4.3H176.7z"/>
		<path class="st8" d="M186.9,56.3v-1.8h8.5v1.8h-3.2v8.5h-2.2v-8.5H186.9z"/>
		<path class="st8" d="M196.8,54.5h2.7l2.8,6.9h0.1l2.8-6.9h2.7v10.3h-2.1v-6.7h-0.1l-2.7,6.7h-1.4l-2.7-6.7h-0.1v6.7h-2.1V54.5z"/>
		<path class="st8" d="M209.7,64.8V54.5h2.2V63h4.4v1.8H209.7z"/>
		<path class="st8" d="M224.8,65c-0.7,0-1.3-0.1-1.9-0.4c-0.6-0.3-1-0.6-1.3-1.1c-0.3-0.5-0.5-1-0.5-1.6h2.1c0,0.4,0.2,0.7,0.5,1
			c0.3,0.2,0.7,0.4,1.1,0.4c0.3,0,0.6-0.1,0.9-0.2c0.3-0.2,0.5-0.4,0.6-0.6s0.2-0.6,0.2-0.9c0-0.4-0.1-0.7-0.2-1
			c-0.2-0.3-0.4-0.5-0.6-0.6c-0.3-0.2-0.6-0.2-0.9-0.2c-0.3,0-0.6,0.1-0.9,0.2c-0.3,0.1-0.5,0.3-0.7,0.5l-1.9-0.3l0.5-5.4h6.3v1.8
			h-4.5l-0.3,2.6h0.1c0.2-0.3,0.5-0.5,0.8-0.6c0.4-0.2,0.8-0.3,1.2-0.3c0.6,0,1.2,0.1,1.7,0.4c0.5,0.3,0.9,0.7,1.2,1.2
			c0.3,0.5,0.4,1.1,0.4,1.8c0,0.7-0.2,1.3-0.5,1.8c-0.3,0.5-0.8,1-1.4,1.3C226.2,64.8,225.5,65,224.8,65z"/>
	</g>
</g>
<g id="Material_UI" class="st0">
	<g class="st2">
		<path class="st8" d="M109.5,55.5c0,4.5,0,9,0,13.5c-1.5,0-2.8,0-4.3,0c0-0.3,0-0.5,0-0.8c0-6.4,0-12.9,0-19.3
			c0-0.7,0.2-0.9,0.9-0.9c1.1,0.1,2.3-0.3,3.2,0.2c0.9,0.4,1.4,1.6,2,2.4c1.5,2,3,4,4.5,5.9c0.1,0.2,0.3,0.3,0.5,0.6
			c0.7-1,1.4-1.9,2.1-2.9c1.4-1.9,2.8-3.8,4.2-5.7c0.3-0.4,0.6-0.6,1.1-0.5c0.9,0,1.9,0,2.8,0c0.6,0,0.7,0.2,0.7,0.7
			c0,3.2,0,6.4,0,9.6c0,3.3,0,6.5,0,9.8c0,0.3,0,0.6,0,0.9c-1.4,0-2.8,0-4.3,0c0-4.4,0-8.8,0-13.2c-0.1,0-0.1,0-0.2-0.1
			c-0.8,1-1.6,2.1-2.4,3.1c-1.2,1.5-2.3,3-3.5,4.5c-0.5,0.6-0.8,0.6-1.2,0c-1.8-2.4-3.6-4.9-5.4-7.3c-0.1-0.2-0.3-0.3-0.4-0.5
			C109.6,55.5,109.5,55.5,109.5,55.5z"/>
		<path class="st8" d="M240.1,48c0,0.4,0,0.7,0,1c0,4.1-0.1,8.1,0,12.2c0.1,4.6-3.4,7.8-7.7,8.1c-3,0.2-5.7-0.6-7.8-3
			c-1.2-1.4-1.7-3.1-1.7-4.9c0-4.2,0-8.5,0-12.7c0-0.6,0.1-0.8,0.8-0.8c1.2,0,2.3,0,3.6,0c0,0.4,0,0.6,0,0.9c0,3.9,0,7.9,0,11.8
			c0,1.9,0.7,3.6,2.6,4.4c2.7,1.1,5.5-0.5,5.9-3.4c0.1-0.4,0.1-0.7,0.1-1.1c0-3.9,0-7.8,0-11.7c0-0.7,0.2-0.9,0.9-0.9
			C237.8,48.1,238.9,48,240.1,48z"/>
		<path class="st8" d="M162.4,62.5c0,1.2,0.8,2.5,1.9,2.9c1.9,0.7,3.6,0.4,4.9-1.3c1.1,0.5,2.2,1,3.3,1.6c-0.5,1.4-1.5,2.2-2.7,2.8
			c-4.2,2.1-10.5,0.8-11.8-5.4c-0.9-4.1,1.3-8.3,5.2-9.4c4.5-1.3,8.9,0.7,9.8,5.5c0.2,0.9,0.1,1.9,0.1,2.8c0,0.6-0.4,0.5-0.8,0.5
			c-3,0-6.1,0-9.1,0C163,62.5,162.7,62.5,162.4,62.5z M162.5,59.4c2.1,0,4.2,0,6.3,0c-0.1-1.6-1.3-2.7-2.9-2.7
			C164.1,56.7,162.7,57.8,162.5,59.4z"/>
		<path class="st8" d="M197.3,59.1c-1.1-0.5-2.1-1-3.4-1.6c0.5-0.7,0.8-1.3,1.3-1.9c2.3-2.6,7.1-2.7,9.5-1.2c1.7,1,2.6,2.5,2.6,4.4
			c0,3.3,0,6.6,0,9.9c0,0.1,0,0.2-0.1,0.3c-1.3,0-2.5,0-3.8,0c0-0.4-0.1-0.7-0.1-1.3c-0.3,0.2-0.5,0.4-0.7,0.5
			c-2.4,1.5-4.8,1.6-7.3,0.4c-1.5-0.8-2.1-2.2-2-3.8c0.1-1.9,1-3.3,2.8-4c1.5-0.5,3.1-0.8,4.7-1.1c0.6-0.1,1.1-0.2,1.7-0.3
			c0.5,0,0.6-0.3,0.5-0.8c-0.1-0.8-0.6-1.4-1.4-1.7c-1.5-0.6-3.2,0-4.1,1.4C197.5,58.6,197.4,58.8,197.3,59.1z M203.1,62.4
			c-1.4,0.3-2.8,0.5-4.2,0.9c-0.8,0.2-1.1,0.8-1.1,1.7c0.1,0.7,0.6,1.1,1.2,1.3C201.3,66.8,203.4,64.9,203.1,62.4z"/>
		<path class="st8" d="M143.8,69c-1.3,0-2.5,0-3.8,0c0-0.4-0.1-0.7-0.1-1.2c-0.2,0.1-0.4,0.2-0.6,0.3c-2.1,1.5-4.4,1.6-6.8,0.7
			c-1.8-0.7-2.6-2.1-2.6-3.9c0-2,1-3.5,2.9-4.2c1.5-0.5,3-0.7,4.6-1.1c0.7-0.2,1.5-0.3,2.2-0.4c0.1-1.2-0.4-2-1.5-2.4
			c-1.7-0.5-3.2,0.1-4.4,2.1c-1.1-0.5-2.1-1-3.3-1.5c0.3-1.1,1-1.9,1.8-2.6c2.3-1.9,6.4-2.1,8.9-0.6c1.6,1,2.6,2.5,2.6,4.4
			c0,3.3,0,6.6,0,9.9C143.9,68.8,143.8,68.9,143.8,69z M139.6,62.5c-0.4,0.1-0.7,0.1-1,0.2c-1.1,0.2-2.2,0.4-3.2,0.7
			c-0.8,0.2-1.1,0.8-1.1,1.6c0,0.8,0.5,1.2,1.2,1.3C137.8,66.8,139.9,64.9,139.6,62.5z"/>
		<path class="st8" d="M145.7,57.3c0-1.3,0-2.4,0-3.5c2.3-0.5,2.3-0.5,2.6-3.5c1.3,0,2.7,0,4.1,0c0,1.1,0,2.2,0,3.4
			c1.2,0,2.4,0,3.6,0c0,1.2,0,2.2,0,3.3c0,0.1-0.4,0.3-0.6,0.4c-1,0-1.9,0-3,0c0,2.2-0.1,4.3,0,6.4c0,0.9,0.7,1.6,1.6,1.7
			c0.6,0.1,1.2,0.1,1.9,0.2c0,1.1,0,2.2,0,3.3c-4.1,1.1-7.5-0.9-7.7-4.9c-0.1-2,0-4,0-6c0-0.6-0.1-0.8-0.7-0.8
			C147,57.4,146.4,57.3,145.7,57.3z"/>
		<path class="st8" d="M210.6,47.7c1.4,0,2.7,0,4,0c0,7.1,0,14.2,0,21.3c-1.3,0-2.7,0-4,0C210.6,61.9,210.6,54.9,210.6,47.7z"/>
		<path class="st8" d="M248,69c-1.5,0-2.8,0-4.3,0c0-7,0-13.9,0-21c1.3,0,2.6,0,3.9,0c0.1,0,0.3,0.2,0.3,0.4c0.1,0.2,0,0.3,0,0.5
			c0,6.4,0,12.8,0,19.2C248,68.4,248,68.7,248,69z"/>
		<path class="st8" d="M179.9,55.7c0.5-1.1,1.4-1.7,2.6-2c2.2-0.5,2.3-0.4,2.3,1.8c0,1.7,0,1.7-1.7,1.8c-1.8,0.1-3.1,1.5-3.1,3.5
			c0,2.5,0,5,0,7.5c0,0.3,0,0.5,0,0.8c-1.4,0-2.8,0-4.1,0c0-5.1,0-10.2,0-15.3c1.2,0,2.3,0,3.5,0c0.1,0,0.3,0.3,0.3,0.5
			c0.1,0.4,0,0.9,0,1.3C179.8,55.6,179.9,55.6,179.9,55.7z"/>
		<path class="st8" d="M190.9,53.7c0,5.1,0,10.2,0,15.3c-1.3,0-2.7,0-4.1,0c0-5.1,0-10.1,0-15.3C188.1,53.7,189.5,53.7,190.9,53.7z"
			/>
		<path class="st8" d="M190.8,52.2c-1.4,0-2.7,0-4.1,0c0-1.3,0-2.5,0-3.8c0-0.1,0.2-0.3,0.4-0.3c1.2,0,2.4,0,3.7,0
			C190.8,49.4,190.8,50.8,190.8,52.2z"/>
	</g>
	<path class="st16" d="M55.7,60.9V46.7l12.4,7.1v4.8l-8.2-4.8v9.5L55.7,60.9z"/>
	<path class="st17" d="M68.1,53.8l12.4-7.1v14.3l-8.2,4.8l-4.1-2.4l8.2-4.8v-4.8l-8.2,4.8V53.8z"/>
	<path class="st16" d="M68.1,63.3v4.8l8.2,4.8v-4.8L68.1,63.3z"/>
	<path class="st17" d="M76.3,72.8l12.4-7.1v-9.5l-4.1,2.4v4.8l-8.2,4.8V72.8z M84.5,53.8V49l4.1-2.4v4.8L84.5,53.8z"/>
</g>
<path id="Express" class="st18" d="M134.6,69.1V50.7h1v2.9c0.1-0.1,0.2-0.3,0.3-0.4c0.8-1.7,2.6-2.8,4.5-2.8
	c2.3-0.1,4.1,0.8,5.2,2.8c1.4,2.6,1.5,5.6,0.2,8.3c-1,2.3-3.5,3.4-6.2,3c-1.7-0.1-3.2-1.1-4-2.6v7.3L134.6,69.1z M135.6,57.2
	l0.2,2.2c0.4,2.5,1.9,3.9,4.1,4.2c2.2,0.4,4.4-0.9,5.2-3c0.9-2.1,0.8-4.5-0.2-6.6c-0.8-1.9-2.8-3-4.9-2.7c-1.9,0.1-3.5,1.5-4,3.3
	C135.9,55.5,135.7,56.4,135.6,57.2L135.6,57.2z M167.2,59.7c-0.3,2.7-2.6,4.7-5.3,4.8c-4.2,0.2-6.2-2.6-6.5-5.8
	c-0.2-1.7,0.1-3.5,0.8-5.1c1.1-2.2,3.5-3.5,5.9-3.2c2.3,0.2,4.3,1.9,4.8,4.1c0.2,1,0.4,2,0.5,3.1h-11c-0.2,2.9,1.4,5.3,3.6,5.8
	c2.8,0.7,5.1-0.5,6-3.1C166.3,59.6,166.6,59.5,167.2,59.7L167.2,59.7z M156.5,56.7h9.9c-0.1-3.1-2-5.4-4.6-5.4
	C158.8,51.3,156.6,53.4,156.5,56.7z M169.2,59.8h1c0.1,1.5,1,2.7,2.3,3.3c1.7,0.7,3.6,0.7,5.2-0.1c0.9-0.4,1.4-1.3,1.4-2.3
	c0.1-0.9-0.5-1.8-1.4-2.1c-1.1-0.4-2.2-0.6-3.3-1c-1.1-0.3-2.2-0.7-3.3-1.2c-1.7-0.9-1.9-4.2,0.1-5.2c2.1-1.2,4.6-1.2,6.6-0.1
	c1.3,0.7,2,2.1,1.8,3.6h-0.8c0,0-0.1-0.1-0.1-0.1c-0.1-2.6-2.3-3.5-4.7-3.2c-0.7,0.1-1.4,0.3-2,0.6c-0.8,0.4-1.3,1.2-1.2,2
	c0,0.9,0.5,1.6,1.4,1.9c1,0.4,2.1,0.6,3.2,0.9l2.6,0.7c1.2,0.4,2.1,1.5,2.1,2.8c0.2,1.4-0.5,2.8-1.8,3.4c-2.3,1.3-6,0.9-7.7-0.7
	C169.7,62.2,169.2,61,169.2,59.8L169.2,59.8z M192.3,54.7h-0.9c0-0.1,0-0.2-0.1-0.3c0-1.4-1-2.6-2.4-2.8c-1.3-0.4-2.6-0.3-3.8,0.2
	c-1,0.3-1.7,1.2-1.7,2.2c0,1,0.6,1.9,1.6,2.2l4.1,1.1c0.4,0.1,0.9,0.2,1.3,0.4c1.3,0.5,2.2,1.7,2.3,3.1c0,1.4-0.8,2.7-2.1,3.2
	c-1.9,0.9-4.2,0.9-6.1,0.1c-1.6-0.7-2.7-2.4-2.6-4.1h0.9c0.3,1.6,1.4,2.9,2.9,3.6c1.5,0.6,3.2,0.5,4.6-0.4c0.8-0.4,1.4-1.3,1.3-2.3
	c0-0.9-0.5-1.8-1.4-2.1c-1.1-0.4-2.2-0.6-3.3-1c-1.1-0.3-2.2-0.7-3.3-1.2c-1.7-0.8-1.8-4.1,0.1-5.2c2.1-1.2,4.6-1.2,6.8-0.1
	C191.8,51.9,192.4,53.3,192.3,54.7L192.3,54.7z M132.9,64.2c-0.7,0.3-1.6,0-1.9-0.7l-3.5-4.9l-0.5-0.7l-4.1,5.6
	c-0.3,0.7-1.1,1-1.8,0.7l5.3-7.1l-4.9-6.4c0.7-0.3,1.5,0,1.9,0.7l3.7,4.9l3.7-4.9c0.3-0.7,1.1-1,1.8-0.7l-1.9,2.5l-2.6,3.4
	c-0.3,0.3-0.3,0.7-0.1,1c0,0,0,0,0.1,0.1L132.9,64.2L132.9,64.2z M155.3,50.6v1c-2.7-0.2-5.1,1.9-5.3,4.6c0,0.2,0,0.3,0,0.5
	c0,2.2,0,4.5,0,6.7v0.8h-1V50.7h1v2.8C151.2,51.5,153,50.7,155.3,50.6L155.3,50.6z M108.4,57l0.4-2.1c1.2-4.2,6-5.9,9.3-3.3
	c1.9,1.5,2.4,3.7,2.3,6.1h-10.9c-0.2,4.3,2.9,6.9,6.9,5.6c1.3-0.5,2.3-1.6,2.6-2.9c0.2-0.7,0.6-0.8,1.2-0.6c-0.2,1.7-1.2,3.2-2.6,4
	c-2.4,1.3-5.4,0.9-7.5-1c-1-1.1-1.6-2.5-1.7-3.9c0-0.2-0.1-0.5-0.1-0.7C108.4,57.8,108.4,57.4,108.4,57L108.4,57z M109.6,56.7h9.9
	c-0.1-3.1-2-5.4-4.7-5.4C111.8,51.3,109.7,53.5,109.6,56.7L109.6,56.7z"/>
<g id="Node" class="st0">
	<g class="st2">
		<path class="st19" d="M187.1,56.1c-0.2,0-0.4,0-0.6,0.1l-5.8,3.4c-0.4,0.2-0.6,0.6-0.6,1.1v6.7c0,0.4,0.2,0.8,0.6,1.1l1.5,0.9
			c0.7,0.4,1,0.4,1.3,0.4c1.1,0,1.7-0.7,1.7-1.8v-6.6c0-0.1-0.1-0.2-0.2-0.2h-0.7c-0.1,0-0.2,0.1-0.2,0.2v6.6c0,0.5-0.5,1-1.4,0.6
			l-1.6-0.9c-0.1,0-0.1-0.1-0.1-0.1v-6.7c0-0.1,0-0.1,0.1-0.2l5.8-3.4c0.1,0,0.1,0,0.2,0l5.8,3.4c0.1,0,0.1,0.1,0.1,0.2v6.7
			c0,0.1,0,0.1-0.1,0.2l-5.8,3.4c0,0-0.1,0-0.2,0l-1.5-0.9c0,0-0.1,0-0.1,0c-0.4,0.2-0.5,0.3-0.9,0.4c-0.1,0-0.2,0.1,0,0.2l2,1.2
			c0.2,0.1,0.4,0.2,0.6,0.2c0.2,0,0.4-0.1,0.6-0.2l5.8-3.4c0.4-0.2,0.6-0.6,0.6-1.1v-6.7c0-0.4-0.2-0.8-0.6-1.1l-5.8-3.4
			C187.5,56.2,187.3,56.1,187.1,56.1L187.1,56.1z"/>
		<path class="st19" d="M188.6,60.9c-1.7,0-2.6,0.7-2.6,1.9c0,1.3,1,1.6,2.6,1.8c1.9,0.2,2.1,0.5,2.1,0.8c0,0.7-0.5,0.9-1.7,0.9
			c-1.5,0-1.9-0.4-2-1.2c0-0.1-0.1-0.1-0.2-0.1h-0.8c-0.1,0-0.2,0.1-0.2,0.2c0,1,0.5,2.1,3.1,2.1c1.8,0,2.9-0.7,2.9-2
			c0-1.3-0.9-1.6-2.6-1.8c-1.8-0.2-2-0.4-2-0.8c0-0.3,0.1-0.8,1.5-0.8c1.2,0,1.6,0.3,1.8,1.1c0,0.1,0.1,0.1,0.2,0.1h0.8
			c0,0,0.1,0,0.1-0.1c0,0,0.1-0.1,0-0.1C191.4,61.6,190.5,60.9,188.6,60.9L188.6,60.9z"/>
	</g>
	<path class="st20" d="M152.8,47.3c-0.1,0-0.1,0-0.2,0c-0.1,0.1-0.2,0.2-0.2,0.3v9.5c0,0.1,0,0.2-0.1,0.2c-0.1,0-0.2,0-0.3,0
		l-1.5-0.9c-0.2-0.1-0.5-0.1-0.7,0l-6.2,3.6c-0.2,0.1-0.4,0.4-0.4,0.7v7.1c0,0.3,0.1,0.5,0.4,0.6l6.2,3.6c0.2,0.1,0.5,0.1,0.7,0
		l6.2-3.6c0.2-0.1,0.4-0.4,0.4-0.6V50.1c0-0.3-0.1-0.5-0.4-0.7l-3.7-2.1C152.9,47.3,152.9,47.3,152.8,47.3L152.8,47.3z M113.1,56.2
		c-0.1,0-0.2,0-0.3,0.1l-6.2,3.6c-0.2,0.1-0.4,0.4-0.4,0.6l0,9.6c0,0.1,0.1,0.3,0.2,0.3c0.1,0.1,0.3,0.1,0.4,0l3.7-2.1
		c0.2-0.1,0.4-0.4,0.4-0.6v-4.5c0-0.3,0.1-0.5,0.4-0.6l1.6-0.9c0.1-0.1,0.2-0.1,0.4-0.1c0.1,0,0.3,0,0.4,0.1l1.6,0.9
		c0.2,0.1,0.4,0.4,0.4,0.6v4.5c0,0.3,0.2,0.5,0.4,0.6l3.7,2.1c0.1,0.1,0.3,0.1,0.4,0c0.1-0.1,0.2-0.2,0.2-0.3l0-9.6
		c0-0.3-0.1-0.5-0.4-0.6l-6.2-3.6C113.4,56.3,113.3,56.2,113.1,56.2L113.1,56.2z M168.6,56.3c-0.1,0-0.3,0-0.4,0.1L162,60
		c-0.2,0.1-0.4,0.4-0.4,0.6v7.1c0,0.3,0.2,0.5,0.4,0.6l6.1,3.5c0.2,0.1,0.5,0.1,0.7,0l3.7-2.1c0.1-0.1,0.2-0.2,0.2-0.3
		c0-0.1-0.1-0.3-0.2-0.3l-6.2-3.6c-0.1-0.1-0.2-0.2-0.2-0.3v-2.2c0-0.1,0.1-0.3,0.2-0.3l1.9-1.1c0.1-0.1,0.3-0.1,0.4,0l1.9,1.1
		c0.1,0.1,0.2,0.2,0.2,0.3v1.8c0,0.1,0.1,0.3,0.2,0.3c0.1,0.1,0.3,0.1,0.4,0l3.7-2.2c0.2-0.1,0.4-0.4,0.4-0.6v-1.7
		c0-0.3-0.1-0.5-0.4-0.6l-6.1-3.6C168.8,56.3,168.7,56.3,168.6,56.3L168.6,56.3z M150.1,61.6C150.1,61.6,150.2,61.6,150.1,61.6
		l2.2,1.2c0.1,0,0.1,0.1,0.1,0.2v2.4c0,0.1,0,0.1-0.1,0.2l-2.1,1.2c-0.1,0-0.1,0-0.2,0l-2.1-1.2c-0.1,0-0.1-0.1-0.1-0.2V63
		c0-0.1,0-0.1,0.1-0.2L150.1,61.6C150,61.6,150.1,61.6,150.1,61.6L150.1,61.6L150.1,61.6z"/>
	<path class="st21" d="M131.6,56.3c-0.1,0-0.3,0-0.4,0.1l-6.2,3.6c-0.2,0.1-0.4,0.4-0.4,0.7v7.1c0,0.3,0.1,0.5,0.4,0.6l6.2,3.6
		c0.2,0.1,0.5,0.1,0.7,0l6.2-3.6c0.2-0.1,0.4-0.4,0.4-0.6v-7.1c0-0.3-0.1-0.5-0.4-0.7l-6.2-3.6C131.9,56.3,131.8,56.3,131.6,56.3z
		 M168.5,62.6C168.5,62.6,168.5,62.6,168.5,62.6l-1.3,0.7c0,0-0.1,0.1-0.1,0.1v1.4c0,0.1,0,0.1,0.1,0.1l1.2,0.7c0,0,0.1,0,0.1,0
		l1.2-0.7c0,0,0.1-0.1,0.1-0.1v-1.4c0-0.1,0-0.1-0.1-0.1L168.5,62.6C168.6,62.6,168.6,62.6,168.5,62.6L168.5,62.6z"/>
</g>
<g id="Mongoose" class="st0">
	<path class="st22" d="M82.5,48.4h5.3v1.9c2.1-2.8,6.7-2.9,8.3,0.1h0c1.7-2.2,5.1-2.9,7.4-1.6c1.4,0.8,2.2,2.5,2.1,4.9l0,0v11.6
		h-5.4v-9.7l0,0c0-1.3-0.5-2.1-1.7-2c-1.1,0.1-1.7,1-1.8,2.3v9.3h-5.4v-9.8c0-1.3-0.6-2-1.7-1.9c-1.9,0.1-1.8,2.4-1.8,2.4v9.2h-5.4
		V48.4L82.5,48.4z M114.9,48.2c4.7,0,8.6,3.9,8.6,8.8c0,4.8-3.9,8.8-8.6,8.8c-4.7,0-8.6-3.9-8.6-8.8
		C106.3,52.1,110.1,48.2,114.9,48.2L114.9,48.2z M114.9,53.8c1.6,0,2.9,1.4,2.9,3.2c0,1.7-1.3,3.2-2.9,3.2c-1.6,0-2.9-1.4-2.9-3.2
		C111.9,55.2,113.2,53.8,114.9,53.8L114.9,53.8z M124.6,48.4h5.3v1.4c1.8-1.8,4.8-2.2,6.9-1c1.4,0.8,2.2,2.5,2.1,4.9l0,0v11.6h-5.4
		v-9.7l0,0c0-1.3-0.5-2.1-1.7-2c-1.1,0.1-1.6,0.8-1.8,2.3v9.3h0h-5.4V50.5V48.4L124.6,48.4z M163.5,48.2c4.7,0,8.6,3.9,8.6,8.8
		c0,4.8-3.9,8.8-8.6,8.8c-4.7,0-8.6-3.9-8.6-8.8C154.9,52.1,158.8,48.2,163.5,48.2L163.5,48.2z M163.5,53.8c1.6,0,2.9,1.4,2.9,3.2
		c0,1.7-1.3,3.2-2.9,3.2c-1.6,0-2.9-1.4-2.9-3.2C160.6,55.2,161.9,53.8,163.5,53.8L163.5,53.8z M147.2,48.2c0.8,0,1.5,0.1,2.2,0.3
		h5.5l-1.8,2.5c0,0,0,0.1,0.1,0.1c1,1.3,1.5,2.9,1.6,4.6c0.1,1.7-0.5,3.3-1.6,4.5c1.8,2.9,1.9,5.9-0.4,8.8c-3.7,3.6-10,2.4-13.6-1
		c1-1.3,1.9-2.7,2.9-4c2.8,3,7.9,3,6.8-1.1c-0.6,0.2-1.3,0.3-2,0.3c-2.6,0-4.9-1.3-6.2-3.3c-0.7-1.2-1-2.6-1.1-4.2
		C139.6,51.5,142.9,48.2,147.2,48.2L147.2,48.2z M147.1,53.6c1.2,0,2.1,1,2.1,2.1c0,1.2-1,2.1-2.1,2.1c-1.2,0-2.1-1-2.1-2.1
		C144.9,54.6,145.9,53.6,147.1,53.6L147.1,53.6z M180.8,48.2c4.7,0,8.6,3.9,8.6,8.8c0,4.8-3.9,8.8-8.6,8.8c-4.7,0-8.6-3.9-8.6-8.8
		C172.2,52.1,176.1,48.2,180.8,48.2L180.8,48.2z M180.8,53.8c1.6,0,2.9,1.4,2.9,3.2c0,1.7-1.3,3.2-2.9,3.2c-1.6,0-2.9-1.4-2.9-3.2
		C177.9,55.2,179.2,53.8,180.8,53.8L180.8,53.8z M198.7,48.5v4.9c-0.7-0.3-2.1-0.6-2.8-0.2c-0.4,0.2-0.6,1.2,0,1.7
		c1.2,1.2,2.9,2.4,3.2,4.8c0.8,6.9-6.8,5.9-8.9,5.5L190,60c2.3,0.8,3.2,0,3.1-0.9c-0.1-0.9-1.6-1.8-2.2-2.6
		c-1.3-1.3-2.1-4.8,0.4-6.9C193,48.3,196.2,48.1,198.7,48.5L198.7,48.5z M208,48.2c3.7,0,6.5,2.4,7.7,5.8l-9,6.5
		c2.1,1,5.1,0.1,7.6-2.1c0.1,1.5,0.3,4.1,0.4,5.5c-2,1.3-4.4,1.9-6.8,1.9c-5.2,0-8.6-3.6-8.5-8.7C199.4,52,203.2,48.2,208,48.2
		L208,48.2z M209.6,53.3l-5.1,3.7C203.8,53.8,207.4,51.4,209.6,53.3L209.6,53.3z M217.3,60.3c0.3,0,0.5,0.1,0.8,0.2
		c0.2,0.1,0.4,0.2,0.6,0.4c0.2,0.2,0.3,0.4,0.4,0.6c0.1,0.2,0.1,0.5,0.1,0.8c0,0.4-0.1,0.7-0.3,1c-0.2,0.3-0.4,0.5-0.7,0.7
		c-0.3,0.2-0.6,0.3-1,0.3c-0.4,0-0.7-0.1-1-0.3c-0.3-0.2-0.5-0.4-0.7-0.7c-0.2-0.3-0.3-0.6-0.3-1c0-0.4,0.1-0.7,0.3-1
		c0.2-0.3,0.4-0.5,0.7-0.7C216.7,60.4,217,60.3,217.3,60.3L217.3,60.3z M217.3,60.7c-0.3,0-0.5,0.1-0.8,0.2
		c-0.2,0.1-0.4,0.3-0.6,0.6c-0.1,0.2-0.2,0.5-0.2,0.8c0,0.3,0.1,0.6,0.2,0.8c0.1,0.2,0.3,0.4,0.6,0.6c0.2,0.1,0.5,0.2,0.8,0.2
		c0.3,0,0.5-0.1,0.8-0.2c0.2-0.1,0.4-0.3,0.6-0.6c0.1-0.2,0.2-0.5,0.2-0.8c0-0.3-0.1-0.6-0.2-0.8c-0.1-0.2-0.3-0.4-0.6-0.6
		C217.9,60.8,217.6,60.7,217.3,60.7L217.3,60.7z M218.2,63.5h-0.4l-0.2-0.6c0,0,0-0.1-0.1-0.1c0,0,0-0.1-0.1-0.1c0,0-0.1,0-0.1-0.1
		c0,0-0.1,0-0.1,0H217v0.9h-0.3v-2.2h0.8c0,0,0.1,0,0.1,0c0,0,0.1,0,0.1,0c0,0,0.1,0,0.1,0c0,0,0.1,0,0.1,0.1c0,0,0.1,0.1,0.1,0.1
		c0,0,0,0.1,0.1,0.1c0,0,0,0.1,0,0.1c0,0,0,0.1,0,0.1c0,0.1,0,0.3-0.1,0.3c-0.1,0.1-0.1,0.2-0.2,0.2c0.1,0.1,0.1,0.2,0.2,0.3
		L218.2,63.5L218.2,63.5z M217,62.2h0.5c0.1,0,0.1,0,0.2,0c0,0,0.1,0,0.1-0.1c0,0,0-0.1,0.1-0.1c0,0,0-0.1,0-0.1
		c0-0.1,0-0.2-0.1-0.2c-0.1,0-0.1-0.1-0.2-0.1H217V62.2L217,62.2z"/>
</g>
<g id="Mongo_DB" class="st0">
	<path class="st22" d="M221.1,55.8c-0.1,0-0.3,0.3-0.3,0.5c0,1.1-0.1,4.2-0.1,6.2c0,0.1,0.1,0.2,0.2,0.2c0.4,0,1.5,0.1,2.3,0.1
		c1.2,0,1.9-0.2,2.3-0.3c1-0.5,1.5-1.6,1.5-2.9c0-2.8-1.9-3.8-4.8-3.8C222.1,55.7,221.5,55.7,221.1,55.8z M228.5,68.6
		c0-2.8-2.1-4.4-5.9-4.4c-0.2,0-1.4,0-1.7,0c-0.1,0-0.2,0.1-0.2,0.2c0,2,0,5.3,0.1,6.5c0.1,0.5,0.5,1.3,0.9,1.5
		c0.5,0.3,1.7,0.3,2.5,0.3C226.5,72.8,228.5,71.6,228.5,68.6L228.5,68.6z M215.3,54.3c0.3,0,1.1,0.1,3.4,0.1c2.1,0,3.8-0.1,5.8-0.1
		c2.5,0,5.9,0.9,5.9,4.6c0,1.8-1.3,3.3-3,4c-0.1,0-0.1,0.1,0,0.1c2.4,0.6,4.5,2.1,4.5,4.9c0,2.8-1.7,4.5-4.2,5.6
		c-1.5,0.7-3.4,0.9-5.3,0.9c-1.5,0-5.4-0.2-7.6-0.1c-0.2-0.1,0.2-1.1,0.4-1.3c0.5,0,0.9-0.1,1.5-0.2c0.8-0.2,0.9-0.4,1-1.6
		c0.1-1,0.1-4.6,0.1-7.1c0-3.5,0-5.8,0-7c0-0.9-0.3-1.2-1-1.3c-0.5-0.1-1.3-0.2-1.9-0.3C214.6,55.3,215.1,54.4,215.3,54.3
		L215.3,54.3z M198.7,72.1c0.7,0.5,2,0.8,3.2,0.8c1.5,0,3.1-0.3,4.6-1.6c1.5-1.4,2.6-3.5,2.6-6.9c0-3.2-1.2-5.9-3.8-7.4
		c-1.4-0.9-3.3-1.3-5.4-1.3c-0.6,0-1.2,0-1.6,0.2c-0.1,0.1-0.3,0.3-0.3,0.5c-0.1,0.6-0.1,5-0.1,7.6c0,2.7,0,6.4,0.1,6.8
		C198.1,71.1,198.3,71.8,198.7,72.1L198.7,72.1z M192.2,54.3c0.5,0,2.6,0.1,3.6,0.1c1.8,0,3.1-0.1,6.5-0.1c2.9,0,5.3,0.8,7,2.2
		c2.1,1.8,3.2,4.3,3.2,7.3c0,4.3-2,6.8-4,8.3c-2,1.5-4.6,2.3-8.2,2.3c-1.9,0-5.3-0.1-8.1-0.1h0c-0.1-0.3,0.2-1.3,0.5-1.3
		c0.7-0.1,0.9-0.1,1.3-0.3c0.6-0.2,0.7-0.5,0.8-1.6c0.1-2,0.1-4.4,0.1-7c0-1.9,0-5.7,0-6.9c-0.1-1-0.5-1.3-1.4-1.4
		c-0.4-0.1-1-0.2-1.8-0.3C191.6,55.3,192.1,54.4,192.2,54.3L192.2,54.3z"/>
	<path class="st22" d="M157.6,73.2c-0.7-0.1-1.2-0.2-1.9-0.5c-0.1-0.1-0.2-0.3-0.2-0.5c-0.1-1-0.1-3.9-0.1-5.8
		c0-1.5-0.3-2.9-0.9-3.8c-0.8-1.1-1.9-1.7-3.3-1.7c-1.3,0-3,0.9-4.4,2.1c0,0-0.3,0.2-0.2-0.1c0-0.3,0.1-0.9,0.1-1.4
		c0-0.4-0.2-0.6-0.2-0.6c-0.9,0.5-3.5,1.1-4.4,1.1c-0.7,0.1-0.9,0.8-0.1,1h0c0.8,0.2,1.3,0.5,1.7,0.7c0.3,0.2,0.3,0.5,0.3,0.8
		c0,2.1,0,5.4-0.1,7.2c0,0.7-0.2,1-0.7,1.1l0.1,0c-0.4,0.1-0.7,0.2-1.2,0.2c-0.2,0.2-0.2,1.1,0,1.3c0.3,0,2-0.1,3.4-0.1
		c1.9,0,2.9,0.1,3.4,0.1c0.2-0.2,0.3-1.1,0.1-1.3c-0.5,0-0.9-0.1-1.3-0.2c-0.5-0.1-0.7-0.4-0.7-1c-0.1-1.5-0.1-4.7-0.1-6.9
		c0-0.6,0.2-0.9,0.3-1.1c0.7-0.6,1.7-1,2.7-1c0.9,0,1.5,0.3,2,0.7c0.6,0.5,0.8,1.3,0.9,1.8c0.1,1.2,0.1,3.7,0.1,5.8
		c0,1.1-0.1,1.4-0.5,1.6c-0.2,0.1-0.7,0.2-1.3,0.3c-0.2,0.2-0.1,1.1,0,1.3c0.8,0,1.8-0.1,3.2-0.1c1.8,0,2.9,0.1,3.4,0.1
		C157.6,74.3,157.7,73.4,157.6,73.2L157.6,73.2z M165.5,62.2c-1.5,0-2.5,1.2-2.5,3c0,1.9,0.8,4,3.2,4c0.4,0,1.1-0.2,1.5-0.6
		c0.5-0.5,0.9-1.5,0.9-2.6C168.6,63.7,167.4,62.2,165.5,62.2L165.5,62.2z M165.3,74.9c-0.6,0-1,0.2-1.2,0.3
		c-1.2,0.8-1.7,1.5-1.7,2.4c0,0.8,0.3,1.5,1,2.1c0.8,0.7,2,1.1,3.4,1.1c2.9,0,4.2-1.6,4.2-3.1c0-1.1-0.5-1.8-1.7-2.2
		C168.5,75.1,167,74.9,165.3,74.9L165.3,74.9z M165.5,82.4c-1.7,0-3-0.4-4.1-1.2c-1.1-0.8-1.5-2-1.5-2.8c0-0.2,0.1-0.9,0.6-1.4
		c0.3-0.3,1-1,2.6-2.1c0.1,0,0.1-0.1,0.1-0.1c0-0.1-0.1-0.1-0.1-0.1c-1.3-0.5-1.7-1.3-1.9-1.8v-0.1c0-0.2-0.1-0.3,0.2-0.5
		c0.2-0.1,0.5-0.3,0.8-0.5c0.5-0.3,1-0.6,1.3-0.9c0.1-0.1,0.1-0.1,0.1-0.2s-0.1-0.1-0.1-0.1c-2-0.7-3-2.1-3-4.4
		c0-1.5,0.7-2.8,1.8-3.6c0.8-0.6,2.8-1.4,4.1-1.4h0.1c1.3,0,2.1,0.3,3.2,0.7c0.6,0.2,1.1,0.3,1.9,0.3c1.1,0,1.6-0.3,2-0.7
		c0,0.1,0.1,0.2,0.1,0.6c0,0.4-0.1,0.9-0.4,1.3c-0.2,0.3-0.7,0.5-1.3,0.5h-0.1c-0.5-0.1-0.7-0.1-0.7-0.1l-0.1,0.1c0,0.1,0,0.1,0,0.2
		l0,0.1c0.1,0.3,0.2,1,0.2,1.2c0,2.3-0.9,3.4-1.9,4.2c-1,0.7-2.1,1.2-3.4,1.3c0,0-0.1,0-0.4,0c-0.1,0-0.3,0-0.4,0h0
		c-0.2,0.1-0.8,0.3-0.8,0.8c0,0.4,0.3,0.9,1.5,1c0.3,0,0.5,0,0.8,0.1c1.6,0.1,3.7,0.3,4.6,0.6c1.3,0.5,2.1,1.7,2.1,3.1
		c0,2.1-1.5,4.1-4,5.3C168.1,82.1,166.8,82.4,165.5,82.4L165.5,82.4z M181.8,62.4c-0.6,0-1.1,0.1-1.5,0.4c-1.1,0.7-1.7,2.1-1.7,4.1
		c0,3.8,1.9,6.4,4.6,6.4c0.8,0,1.4-0.2,2-0.7c0.8-0.7,1.3-2.1,1.3-4C186.4,64.9,184.6,62.4,181.8,62.4L181.8,62.4z M182.3,74.7
		c-4.9,0-6.6-3.6-6.6-6.9c0-2.3,0.9-4.2,2.8-5.4c1.3-0.8,3-1.3,4.4-1.3c3.7,0,6.3,2.7,6.3,6.5c0,2.6-1,4.7-3,5.9
		C185.3,74.1,183.7,74.7,182.3,74.7L182.3,74.7L182.3,74.7z M131.3,62.4c-0.6,0-1.1,0.1-1.5,0.4c-1.1,0.7-1.7,2.1-1.7,4.1
		c0,3.8,1.9,6.4,4.6,6.4c0.8,0,1.4-0.2,2-0.7c0.8-0.7,1.3-2.1,1.3-4C135.9,64.9,134,62.4,131.3,62.4z M131.8,74.7
		c-4.9,0-6.6-3.6-6.6-6.9c0-2.3,0.9-4.2,2.8-5.4c1.3-0.8,3-1.3,4.4-1.3c3.7,0,6.3,2.7,6.3,6.5c0,2.6-1,4.7-3,5.9
		C134.8,74.1,133.2,74.7,131.8,74.7L131.8,74.7z M99.1,74.4C99,74.3,98.9,74,99,73.7c0-0.2,0.1-0.4,0.1-0.4c0.6-0.1,0.9-0.2,1.3-0.3
		c0.6-0.1,0.8-0.5,0.8-1.2c0.1-1.7,0.1-5,0.1-7.2v-0.1c0-0.3,0-0.6-0.3-0.8c-0.5-0.3-1-0.5-1.7-0.7c-0.3-0.1-0.4-0.2-0.4-0.4
		c0-0.2,0.2-0.4,0.5-0.4c0.9-0.1,3.4-0.7,4.4-1.1c0.1,0.1,0.1,0.2,0.1,0.5l0,0.3c0,0.3-0.1,0.7-0.1,1.1c0,0.1,0.1,0.2,0.2,0.2
		c0.1,0,0.1,0,0.2-0.1c1.8-1.4,3.5-1.9,4.4-1.9c1.4,0,2.5,0.7,3.3,2c0.1,0.1,0.1,0.1,0.2,0.1c0.1,0,0.1,0,0.2-0.1
		c1.7-1.3,3.4-2.1,4.5-2.1c2.7,0,4.2,2,4.2,5.3c0,0.9,0,2.2,0,3.3c0,1,0,1.9,0,2.6c0,0.1,0.2,0.6,0.5,0.7c0.4,0.2,0.9,0.3,1.7,0.4h0
		c0.1,0.2-0.1,0.9-0.2,1.1c-0.2,0-0.4,0-0.7,0c-0.7,0-1.5-0.1-2.2-0.1c-1.8,0-2.7,0-3.6,0.1c-0.1-0.2-0.1-0.9,0-1.1
		c0.5-0.1,0.8-0.2,1.1-0.3c0.6-0.2,0.7-0.4,0.7-1.2c0-0.5,0.1-5.2-0.1-6.3c-0.2-1.1-1-2.5-2.9-2.5c-0.7,0-1.8,0.3-2.9,1.1
		c-0.1,0.1-0.1,0.2-0.1,0.3v0c0.1,0.6,0.1,1.3,0.1,2.3v1.9c0,1.3,0,2.5,0,3.4c0,0.6,0.4,0.8,0.7,0.9c0.2,0,0.3,0.1,0.4,0.1
		c0.3,0.1,0.5,0.1,0.9,0.2c0.1,0.1,0.1,0.5,0,0.8c0,0.2-0.1,0.3-0.1,0.3c-1,0-2-0.1-3.4-0.1c-0.4,0-1.2,0-1.8,0c-0.5,0-1,0-1.3,0
		c0-0.1-0.1-0.3-0.1-0.6c0-0.3,0.1-0.5,0.1-0.5c0.1,0,0.3-0.1,0.4-0.1c0.3-0.1,0.6-0.1,0.9-0.2c0.5-0.1,0.7-0.4,0.7-1
		c0.1-1.4,0.2-5.5,0-6.6c-0.3-1.7-1.3-2.5-2.8-2.5c-0.9,0-2,0.4-2.9,1.1c-0.1,0.1-0.3,0.4-0.3,0.7v1.7c0,2.1,0,4.6,0,5.8
		c0,0.3,0.1,0.7,0.8,0.9c0.1,0,0.4,0.1,0.7,0.1l0.5,0.1c0.1,0.2,0,0.9-0.1,1.1c-0.3,0-0.6,0-1,0c-0.6,0-1.4-0.1-2.2-0.1
		c-1,0-1.7,0-2.3,0.1C99.7,74.4,99.4,74.4,99.1,74.4L99.1,74.4z"/>
	<path class="st23" d="M84,81.2l-1.2-0.4c0,0,0.1-6-2-6.4c-1.4-1.7,0.2-70.5,5.4-0.2c0,0-1.8,0.9-2.1,2.4C83.8,78.1,84,81.2,84,81.2
		z"/>
	<path class="st24" d="M84,81.2l-1.2-0.4c0,0,0.1-6-2-6.4c-1.4-1.7,0.2-70.5,5.4-0.2c0,0-1.8,0.9-2.1,2.4C83.8,78.1,84,81.2,84,81.2
		z"/>
	<path class="st23" d="M84.6,75.5c0,0,10.3-6.8,7.9-20.8c-2.3-10.2-7.8-13.6-8.4-14.9c-0.7-0.9-1.3-2.5-1.3-2.5l0.4,28.5
		C83.2,65.7,82.3,74.4,84.6,75.5"/>
	<path class="st25" d="M84.6,75.5c0,0,10.3-6.8,7.9-20.8c-2.3-10.2-7.8-13.6-8.4-14.9c-0.7-0.9-1.3-2.5-1.3-2.5l0.4,28.5
		C83.2,65.7,82.3,74.4,84.6,75.5"/>
	<path class="st23" d="M82.2,75.8c0,0-9.7-6.6-9.1-18.2c0.5-11.6,7.4-17.3,8.7-18.3c0.9-0.9,0.9-1.3,0.9-2.2
		c0.6,1.3,0.5,19.3,0.6,21.4C83.6,66.7,82.9,74.3,82.2,75.8z"/>
	<path class="st26" d="M82.2,75.8c0,0-9.7-6.6-9.1-18.2c0.5-11.6,7.4-17.3,8.7-18.3c0.9-0.9,0.9-1.3,0.9-2.2
		c0.6,1.3,0.5,19.3,0.6,21.4C83.6,66.7,82.9,74.3,82.2,75.8z"/>
</g>
<g id="Mongo__x26__Mongoose" class="st0">
	<g class="st2">
		<path class="st27" d="M189,61h3.8v1.4c1.5-2,4.8-2.1,6,0.1h0c1.2-1.6,3.7-2.1,5.3-1.2c1,0.6,1.6,1.8,1.5,3.5l0,0v8.3h-3.9v-6.9
			l0,0c0-1-0.4-1.5-1.2-1.4c-0.8,0-1.2,0.7-1.3,1.7v6.7h-3.9v-7c0-0.9-0.4-1.4-1.2-1.4c-1.3,0.1-1.3,1.7-1.3,1.7v6.6H189V61L189,61z
			 M212.2,60.8c3.4,0,6.2,2.8,6.2,6.3c0,3.5-2.8,6.3-6.2,6.3c-3.4,0-6.2-2.8-6.2-6.3C206,63.6,208.8,60.8,212.2,60.8L212.2,60.8z
			 M212.2,64.9c1.2,0,2.1,1,2.1,2.3c0,1.2-0.9,2.3-2.1,2.3c-1.2,0-2.1-1-2.1-2.3C210.1,65.9,211,64.9,212.2,64.9L212.2,64.9z
			 M219.2,61h3.8v1c1.3-1.3,3.5-1.6,4.9-0.7c1,0.6,1.6,1.8,1.5,3.5l0,0v8.3h-3.9v-6.9l0,0c0-1-0.4-1.5-1.2-1.4
			c-0.8,0-1.1,0.6-1.3,1.7v6.7h0h-3.9V62.5V61L219.2,61z M247,60.8c3.4,0,6.2,2.8,6.2,6.3c0,3.5-2.8,6.3-6.2,6.3
			c-3.4,0-6.2-2.8-6.2-6.3C240.9,63.6,243.6,60.8,247,60.8L247,60.8z M247,64.9c1.2,0,2.1,1,2.1,2.3c0,1.2-0.9,2.3-2.1,2.3
			s-2.1-1-2.1-2.3C244.9,65.9,245.9,64.9,247,64.9L247,64.9z M235.4,60.9c0.5,0,1.1,0.1,1.6,0.2h3.9l-1.3,1.8c0,0,0,0,0,0.1
			c0.7,0.9,1.1,2.1,1.1,3.3c0.1,1.2-0.4,2.3-1.1,3.3c1.3,2.1,1.4,4.2-0.3,6.3c-2.6,2.6-7.2,1.7-9.7-0.7c0.7-1,1.4-1.9,2.1-2.9
			c2,2.1,5.6,2.2,4.9-0.8c-0.5,0.1-0.9,0.2-1.4,0.2c-1.9,0-3.5-0.9-4.5-2.4c-0.5-0.8-0.7-1.9-0.8-3
			C229.9,63.2,232.3,60.9,235.4,60.9L235.4,60.9z M235.3,64.8c0.8,0,1.5,0.7,1.5,1.5c0,0.8-0.7,1.5-1.5,1.5c-0.8,0-1.5-0.7-1.5-1.5
			C233.7,65.5,234.4,64.8,235.3,64.8L235.3,64.8z M259.5,60.8c3.4,0,6.2,2.8,6.2,6.3c0,3.5-2.8,6.3-6.2,6.3c-3.4,0-6.2-2.8-6.2-6.3
			C253.3,63.6,256.1,60.8,259.5,60.8L259.5,60.8z M259.5,64.9c1.2,0,2.1,1,2.1,2.3c0,1.2-0.9,2.3-2.1,2.3c-1.2,0-2.1-1-2.1-2.3
			C257.4,65.9,258.3,64.9,259.5,64.9L259.5,64.9z M272.2,61.1v3.5c-0.5-0.2-1.5-0.4-2-0.2c-0.3,0.2-0.5,0.8,0,1.2
			c0.9,0.8,2.1,1.7,2.3,3.4c0.5,5-4.9,4.2-6.4,3.9l-0.1-3.7c1.6,0.6,2.3,0,2.2-0.6c-0.1-0.6-1.2-1.3-1.6-1.8c-1-1-1.5-3.5,0.3-4.9
			C268.2,61,270.5,60.8,272.2,61.1L272.2,61.1z M278.9,60.9c2.7,0,4.7,1.7,5.5,4.1l-6.5,4.6c1.5,0.7,3.7,0.1,5.5-1.5
			c0,1.1,0.2,2.9,0.3,4c-1.5,0.9-3.2,1.3-4.9,1.3c-3.7,0-6.1-2.6-6.1-6.2C272.8,63.6,275.5,60.9,278.9,60.9L278.9,60.9z M280.1,64.5
			l-3.7,2.7C275.9,64.9,278.5,63.2,280.1,64.5L280.1,64.5z M285.6,69.6c0.2,0,0.4,0,0.5,0.1c0.2,0.1,0.3,0.2,0.4,0.3
			c0.1,0.1,0.2,0.3,0.3,0.5c0.1,0.2,0.1,0.4,0.1,0.6c0,0.3-0.1,0.5-0.2,0.7c-0.1,0.2-0.3,0.4-0.5,0.5c-0.2,0.1-0.4,0.2-0.7,0.2
			c-0.3,0-0.5-0.1-0.7-0.2c-0.2-0.1-0.4-0.3-0.5-0.5c-0.1-0.2-0.2-0.5-0.2-0.7c0-0.3,0.1-0.5,0.2-0.7c0.1-0.2,0.3-0.4,0.5-0.5
			C285.1,69.6,285.4,69.6,285.6,69.6L285.6,69.6z M285.6,69.9c-0.2,0-0.4,0.1-0.6,0.2c-0.2,0.1-0.3,0.2-0.4,0.4
			c-0.1,0.2-0.2,0.4-0.2,0.6c0,0.2,0.1,0.4,0.2,0.6c0.1,0.2,0.2,0.3,0.4,0.4c0.2,0.1,0.4,0.2,0.6,0.2c0.2,0,0.4-0.1,0.6-0.2
			c0.2-0.1,0.3-0.2,0.4-0.4c0.1-0.2,0.1-0.4,0.1-0.6c0-0.2,0-0.4-0.1-0.6c-0.1-0.2-0.2-0.3-0.4-0.4C286,69.9,285.8,69.9,285.6,69.9
			L285.6,69.9z M286.2,71.8H286l-0.1-0.4c0,0,0-0.1,0-0.1c0,0,0,0-0.1-0.1c0,0,0,0-0.1,0s-0.1,0-0.1,0h-0.3v0.6h-0.2v-1.6h0.6
			c0,0,0.1,0,0.1,0c0,0,0.1,0,0.1,0c0,0,0.1,0,0.1,0c0,0,0.1,0,0.1,0.1c0,0,0,0,0.1,0.1c0,0,0,0.1,0,0.1c0,0,0,0.1,0,0.1
			c0,0,0,0.1,0,0.1c0,0.1,0,0.2-0.1,0.2c0,0.1-0.1,0.1-0.2,0.2c0.1,0.1,0.1,0.1,0.1,0.2L286.2,71.8L286.2,71.8z M285.3,70.9h0.3
			c0,0,0.1,0,0.1,0c0,0,0.1,0,0.1,0c0,0,0,0,0-0.1c0,0,0-0.1,0-0.1c0-0.1,0-0.1-0.1-0.2c0,0-0.1,0-0.2,0h-0.4V70.9L285.3,70.9z"/>
	</g>
	<g class="st2">
		<path class="st27" d="M152.9,56.2c-0.1,0-0.3,0.3-0.3,0.5c0,1-0.1,3.8-0.1,5.6c0,0.1,0.1,0.2,0.2,0.2c0.4,0,1.3,0.1,2.1,0.1
			c1.1,0,1.8-0.2,2.1-0.3c0.9-0.5,1.4-1.5,1.4-2.6c0-2.5-1.8-3.5-4.4-3.5C153.8,56.1,153.2,56.1,152.9,56.2z M159.5,67.8
			c0-2.6-1.9-4-5.3-4c-0.2,0-1.2,0-1.5,0c-0.1,0-0.2,0.1-0.2,0.2c0,1.8,0,4.8,0.1,5.9c0.1,0.5,0.4,1.2,0.9,1.4
			c0.5,0.3,1.5,0.3,2.3,0.3C157.7,71.6,159.5,70.4,159.5,67.8L159.5,67.8z M147.6,54.8c0.3,0,1,0.1,3,0.1c1.9,0,3.4-0.1,5.2-0.1
			c2.3,0,5.4,0.8,5.4,4.2c0,1.7-1.2,3-2.7,3.6c-0.1,0-0.1,0.1,0,0.1c2.2,0.5,4.1,1.9,4.1,4.4c0,2.5-1.6,4.1-3.8,5
			c-1.4,0.6-3.1,0.8-4.8,0.8c-1.3,0-4.9-0.2-6.8-0.1c-0.2-0.1,0.2-1,0.4-1.2c0.5,0,0.8-0.1,1.3-0.2c0.7-0.2,0.8-0.4,0.9-1.4
			c0.1-0.9,0.1-4.1,0.1-6.4c0-3.1,0-5.3,0-6.3c0-0.8-0.3-1.1-0.9-1.2c-0.4-0.1-1.2-0.2-1.8-0.3C147,55.8,147.4,54.9,147.6,54.8
			L147.6,54.8z M132.6,70.9c0.6,0.5,1.8,0.7,2.9,0.7c1.4,0,2.8-0.3,4.1-1.5c1.4-1.2,2.3-3.2,2.3-6.2c0-2.9-1.1-5.3-3.4-6.7
			c-1.3-0.8-3-1.1-4.9-1.1c-0.6,0-1.1,0-1.4,0.2c-0.1,0.1-0.3,0.3-0.3,0.4c-0.1,0.5-0.1,4.5-0.1,6.8c0,2.4,0,5.8,0.1,6.2
			C132.1,70,132.2,70.6,132.6,70.9L132.6,70.9z M126.8,54.8c0.5,0,2.4,0.1,3.3,0.1c1.6,0,2.8-0.1,5.9-0.1c2.6,0,4.8,0.7,6.3,2
			c1.9,1.6,2.9,3.9,2.9,6.6c0,3.9-1.8,6.2-3.6,7.5c-1.8,1.3-4.1,2.1-7.4,2.1c-1.8,0-4.8-0.1-7.3-0.1h0c-0.1-0.2,0.2-1.1,0.4-1.2
			c0.7-0.1,0.9-0.1,1.2-0.2c0.5-0.2,0.6-0.5,0.7-1.5c0.1-1.8,0.1-3.9,0.1-6.4c0-1.7,0-5.1,0-6.2c-0.1-0.9-0.5-1.1-1.2-1.3
			c-0.4-0.1-0.9-0.2-1.6-0.3C126.2,55.7,126.6,54.9,126.8,54.8L126.8,54.8z"/>
		<path class="st27" d="M95.4,71.9c-0.6-0.1-1.1-0.2-1.7-0.4c-0.1-0.1-0.2-0.3-0.2-0.4c-0.1-0.9-0.1-3.5-0.1-5.2
			c0-1.4-0.2-2.6-0.8-3.5c-0.7-1-1.7-1.6-3-1.6c-1.1,0-2.7,0.8-3.9,1.9c0,0-0.2,0.2-0.2-0.1c0-0.3,0.1-0.9,0.1-1.2
			c0-0.4-0.2-0.5-0.2-0.5c-0.8,0.4-3.2,1-4,1c-0.6,0.1-0.8,0.7-0.1,0.9h0c0.7,0.2,1.2,0.4,1.5,0.7c0.3,0.2,0.2,0.5,0.2,0.7
			c0,1.9,0,4.9-0.1,6.6c0,0.6-0.2,0.9-0.7,1l0.1,0c-0.4,0.1-0.6,0.2-1.1,0.2c-0.2,0.2-0.2,1,0,1.2c0.3,0,1.8-0.1,3-0.1
			c1.7,0,2.6,0.1,3,0.1c0.2-0.2,0.2-1,0.1-1.2c-0.5,0-0.9-0.1-1.2-0.2c-0.5-0.1-0.6-0.3-0.6-0.9c-0.1-1.4-0.1-4.3-0.1-6.2
			c0-0.5,0.2-0.8,0.3-1c0.6-0.5,1.6-0.9,2.4-0.9c0.8,0,1.4,0.3,1.8,0.6c0.6,0.5,0.8,1.1,0.8,1.6c0.1,1.1,0.1,3.3,0.1,5.2
			c0,1-0.1,1.3-0.5,1.4c-0.2,0.1-0.6,0.2-1.2,0.2c-0.2,0.2-0.1,1,0,1.2c0.8,0,1.6-0.1,2.9-0.1c1.6,0,2.6,0.1,3.1,0.1
			C95.5,72.9,95.5,72.1,95.4,71.9L95.4,71.9z M102.6,62c-1.4,0-2.2,1.1-2.2,2.7c0,1.7,0.8,3.6,2.9,3.6c0.4,0,1-0.2,1.3-0.5
			c0.5-0.5,0.8-1.4,0.8-2.4C105.4,63.3,104.4,62,102.6,62L102.6,62z M102.4,73.5c-0.5,0-0.9,0.2-1.1,0.3c-1.1,0.7-1.6,1.4-1.6,2.2
			c0,0.8,0.3,1.3,0.9,1.9c0.8,0.6,1.8,1,3.1,1c2.6,0,3.8-1.4,3.8-2.8c0-1-0.5-1.6-1.5-2C105.3,73.6,104,73.5,102.4,73.5L102.4,73.5z
			 M102.6,80.2c-1.6,0-2.7-0.3-3.7-1.1c-1-0.7-1.4-1.8-1.4-2.6c0-0.2,0.1-0.8,0.5-1.3c0.3-0.3,0.9-0.9,2.4-1.9
			c0.1,0,0.1-0.1,0.1-0.1c0-0.1-0.1-0.1-0.1-0.1c-1.2-0.5-1.6-1.2-1.7-1.6v-0.1c0-0.2-0.1-0.3,0.2-0.5c0.2-0.1,0.4-0.3,0.7-0.5
			c0.4-0.3,0.9-0.5,1.2-0.8c0.1-0.1,0.1-0.1,0.1-0.2c0-0.1-0.1-0.1-0.1-0.1c-1.8-0.6-2.7-1.9-2.7-4c0-1.3,0.6-2.5,1.7-3.3
			c0.7-0.6,2.5-1.3,3.7-1.3h0.1c1.2,0,1.9,0.3,2.8,0.6c0.5,0.2,1,0.3,1.7,0.3c1,0,1.4-0.3,1.8-0.7c0,0.1,0.1,0.2,0.1,0.5
			c0,0.3-0.1,0.8-0.3,1.2c-0.2,0.3-0.7,0.5-1.1,0.5h-0.1c-0.5-0.1-0.7-0.1-0.7-0.1l-0.1,0.1c0,0.1,0,0.1,0,0.2l0,0.1
			c0.1,0.2,0.2,0.9,0.2,1.1c0,2.1-0.9,3.1-1.8,3.8c-0.9,0.6-1.9,1.1-3,1.2c0,0-0.1,0-0.4,0c-0.1,0-0.3,0-0.3,0h0
			c-0.2,0.1-0.7,0.3-0.7,0.8c0,0.4,0.2,0.9,1.3,0.9c0.2,0,0.5,0,0.7,0.1c1.5,0.1,3.3,0.2,4.2,0.5c1.2,0.4,1.9,1.5,1.9,2.8
			c0,1.9-1.4,3.7-3.7,4.8C104.9,79.9,103.8,80.2,102.6,80.2L102.6,80.2z M117.4,62.1c-0.5,0-1,0.1-1.4,0.4c-1,0.6-1.5,1.9-1.5,3.7
			c0,3.4,1.7,5.8,4.1,5.8c0.7,0,1.3-0.2,1.8-0.6c0.8-0.6,1.1-1.9,1.1-3.6C121.5,64.4,119.8,62.1,117.4,62.1L117.4,62.1z M117.8,73.2
			c-4.4,0-6-3.2-6-6.3c0-2.1,0.9-3.8,2.6-4.9c1.2-0.8,2.7-1.2,4-1.2c3.4,0,5.7,2.4,5.7,5.9c0,2.4-0.9,4.2-2.7,5.4
			C120.5,72.7,119,73.2,117.8,73.2L117.8,73.2L117.8,73.2z M71.7,62.1c-0.5,0-1,0.1-1.4,0.4c-1,0.6-1.5,1.9-1.5,3.7
			c0,3.4,1.7,5.8,4.1,5.8c0.7,0,1.3-0.2,1.8-0.6c0.8-0.6,1.1-1.9,1.1-3.6C75.8,64.4,74.2,62.1,71.7,62.1z M72.1,73.2
			c-4.4,0-6-3.2-6-6.3c0-2.1,0.9-3.8,2.6-4.9c1.2-0.8,2.7-1.2,4-1.2c3.4,0,5.7,2.4,5.7,5.9c0,2.4-0.9,4.2-2.7,5.4
			C74.9,72.7,73.4,73.2,72.1,73.2L72.1,73.2z M42.5,73c-0.1-0.1-0.1-0.3-0.1-0.6c0-0.2,0.1-0.3,0.1-0.4c0.5-0.1,0.8-0.2,1.1-0.2
			c0.5-0.1,0.7-0.4,0.8-1.1c0.1-1.6,0.1-4.5,0.1-6.6v-0.1c0-0.2,0-0.5-0.3-0.7c-0.4-0.3-0.9-0.5-1.6-0.7c-0.2-0.1-0.4-0.2-0.4-0.4
			c0-0.2,0.2-0.3,0.5-0.4c0.9-0.1,3.1-0.6,4-1c0.1,0.1,0.1,0.2,0.1,0.4l0,0.3c0,0.3-0.1,0.6-0.1,1c0,0.1,0.1,0.2,0.2,0.2
			c0.1,0,0.1,0,0.2-0.1c1.7-1.3,3.2-1.8,3.9-1.8c1.3,0,2.3,0.6,3,1.8c0.1,0.1,0.1,0.1,0.2,0.1c0.1,0,0.1,0,0.2-0.1
			c1.5-1.2,3.1-1.9,4.1-1.9c2.4,0,3.8,1.8,3.8,4.8c0,0.9,0,2,0,3c0,0.9,0,1.7,0,2.3c0,0.1,0.2,0.5,0.5,0.6c0.4,0.2,0.9,0.3,1.5,0.4
			h0c0.1,0.2-0.1,0.9-0.2,1c-0.2,0-0.4,0-0.6,0c-0.7,0-1.3-0.1-2-0.1c-1.6,0-2.4,0-3.2,0.1c-0.1-0.2-0.1-0.8,0-1
			c0.5-0.1,0.7-0.2,1-0.2c0.5-0.2,0.6-0.4,0.7-1.1c0-0.5,0.1-4.7-0.1-5.7c-0.2-1-0.9-2.3-2.6-2.3c-0.6,0-1.7,0.3-2.6,1
			c-0.1,0.1-0.1,0.2-0.1,0.3v0c0.1,0.5,0.1,1.2,0.1,2.1v1.7c0,1.2,0,2.3,0,3.1c0,0.6,0.3,0.7,0.6,0.8c0.2,0,0.3,0.1,0.4,0.1
			c0.2,0.1,0.5,0.1,0.8,0.2c0.1,0.1,0.1,0.4,0,0.7c0,0.2-0.1,0.2-0.1,0.3c-0.9,0-1.8-0.1-3.1-0.1c-0.4,0-1.1,0-1.6,0
			c-0.5,0-0.9,0-1.2,0c0-0.1-0.1-0.2-0.1-0.5c0-0.2,0.1-0.4,0.1-0.5c0.1,0,0.2-0.1,0.4-0.1c0.3-0.1,0.6-0.1,0.8-0.2
			c0.4-0.1,0.6-0.4,0.6-0.9c0.1-1.3,0.2-5,0-5.9c-0.3-1.5-1.2-2.3-2.5-2.3c-0.8,0-1.8,0.4-2.6,1c-0.1,0.1-0.2,0.4-0.2,0.6v1.5
			c0,1.9,0,4.2,0,5.2c0,0.3,0.1,0.7,0.7,0.8c0.1,0,0.3,0.1,0.6,0.1l0.5,0.1c0.1,0.2,0,0.8-0.1,1c-0.3,0-0.6,0-0.9,0
			c-0.5,0-1.2-0.1-2-0.1c-0.9,0-1.6,0-2.1,0.1C43.1,73,42.9,73,42.5,73L42.5,73z"/>
		<path class="st28" d="M28.9,79.2l-1.1-0.4c0,0,0.1-5.4-1.8-5.8c-1.3-1.5,0.2-63.7,4.9-0.2c0,0-1.6,0.8-1.9,2.2
			C28.7,76.3,28.9,79.2,28.9,79.2z"/>
		<path class="st29" d="M28.9,79.2l-1.1-0.4c0,0,0.1-5.4-1.8-5.8c-1.3-1.5,0.2-63.7,4.9-0.2c0,0-1.6,0.8-1.9,2.2
			C28.7,76.3,28.9,79.2,28.9,79.2z"/>
		<path class="st28" d="M29.5,73.9c0,0,9.3-6.1,7.1-18.8c-2.1-9.2-7-12.3-7.6-13.4c-0.6-0.8-1.2-2.3-1.2-2.3l0.4,25.7
			C28.2,65.1,27.4,73,29.5,73.9"/>
		<path class="st30" d="M29.5,73.9c0,0,9.3-6.1,7.1-18.8c-2.1-9.2-7-12.3-7.6-13.4c-0.6-0.8-1.2-2.3-1.2-2.3l0.4,25.7
			C28.2,65.1,27.4,73,29.5,73.9"/>
		<path class="st28" d="M27.3,74.3c0,0-8.7-6-8.2-16.4c0.5-10.5,6.7-15.6,7.8-16.6c0.8-0.8,0.8-1.1,0.9-2c0.5,1.2,0.4,17.4,0.5,19.3
			C28.6,66,27.9,72.9,27.3,74.3z"/>
		<path class="st31" d="M27.3,74.3c0,0-8.7-6-8.2-16.4c0.5-10.5,6.7-15.6,7.8-16.6c0.8-0.8,0.8-1.1,0.9-2c0.5,1.2,0.4,17.4,0.5,19.3
			C28.6,66,27.9,72.9,27.3,74.3z"/>
	</g>
	<path class="st32" d="M174.6,73.9c-0.9,0-1.7-0.2-2.4-0.5c-0.7-0.3-1.2-0.8-1.6-1.4c-0.4-0.6-0.6-1.3-0.6-2c0-0.6,0.1-1.1,0.3-1.5
		s0.6-0.9,1-1.3c0.4-0.4,0.9-0.8,1.6-1.3l2.1-1.6c0.5-0.4,0.9-0.7,1.2-1.1c0.3-0.3,0.4-0.8,0.4-1.3c0-0.5-0.2-0.9-0.6-1.3
		c-0.4-0.4-0.8-0.6-1.4-0.6c-0.4,0-0.8,0.1-1.1,0.3c-0.3,0.2-0.6,0.5-0.8,0.8c-0.2,0.3-0.3,0.7-0.3,1c0,0.3,0.1,0.7,0.3,1
		c0.2,0.3,0.4,0.7,0.7,1.1c0.3,0.4,0.6,0.8,1,1.2l6.7,8.3h-1.5l-5.8-7.2c-0.5-0.6-0.9-1.1-1.3-1.6c-0.4-0.5-0.7-0.9-0.9-1.4
		c-0.2-0.4-0.3-0.9-0.3-1.4c0-0.6,0.1-1.2,0.4-1.7c0.3-0.5,0.7-0.9,1.2-1.2c0.5-0.3,1.1-0.4,1.8-0.4c0.7,0,1.3,0.1,1.8,0.4
		c0.5,0.3,0.9,0.6,1.2,1.1s0.4,1,0.4,1.5c0,0.7-0.2,1.2-0.5,1.8c-0.3,0.5-0.8,1-1.5,1.5l-2.7,2c-0.7,0.5-1.2,1.1-1.5,1.5
		c-0.3,0.5-0.4,0.9-0.4,1.2c0,0.5,0.1,1,0.4,1.4c0.3,0.4,0.6,0.8,1.1,1c0.5,0.3,1,0.4,1.6,0.4c0.6,0,1.2-0.1,1.7-0.4
		c0.5-0.2,1-0.6,1.4-1c0.4-0.4,0.8-1,1-1.6c0.3-0.6,0.4-1.3,0.5-2.1l1.2,0c0,0.8-0.1,1.5-0.3,2c-0.2,0.5-0.4,1-0.7,1.3
		c-0.2,0.4-0.5,0.6-0.6,0.9c-0.1,0.1-0.1,0.1-0.2,0.2c-0.1,0.1-0.1,0.1-0.2,0.2c-0.5,0.5-1.1,0.9-1.8,1.2S175.3,73.9,174.6,73.9z"/>
</g>
<g id="Node__x26__Express" class="st0">
	<g class="st2">
		<g>
			<path class="st19" d="M81.1,42.3c-0.8,0-1.5,0.2-2.1,0.5L58.4,54.7c-1.3,0.8-2.1,2.2-2.1,3.8v23.7c0,1.5,0.8,3,2.1,3.8l5.4,3.1
				c2.6,1.3,3.6,1.3,4.8,1.3c3.9,0,6.1-2.3,6.1-6.4V60.5c0-0.3-0.3-0.6-0.6-0.6h-2.6c-0.3,0-0.6,0.2-0.6,0.6v23.4
				c0,1.8-1.9,3.6-4.9,2.1l-5.6-3.3c-0.2-0.1-0.3-0.3-0.3-0.5V58.5c0-0.2,0.1-0.5,0.3-0.6l20.5-11.8c0.2-0.1,0.4-0.1,0.6,0
				l20.5,11.8c0.2,0.1,0.3,0.3,0.3,0.6v23.7c0,0.2-0.1,0.5-0.3,0.6L81.4,94.6c-0.2,0.1-0.4,0.1-0.6,0l-5.3-3.1
				c-0.2-0.1-0.4-0.1-0.5,0c-1.5,0.8-1.7,0.9-3.1,1.4C71.5,93,71,93.2,72,93.7l6.9,4.1c0.7,0.4,1.4,0.6,2.1,0.6
				c0.8,0,1.5-0.2,2.1-0.6L103.8,86c1.3-0.8,2.1-2.2,2.1-3.8V58.5c0-1.5-0.8-3-2.1-3.8L83.2,42.9C82.6,42.5,81.8,42.3,81.1,42.3
				L81.1,42.3z"/>
			<path class="st19" d="M86.6,59.3c-5.9,0-9.3,2.5-9.3,6.6c0,4.5,3.5,5.7,9.1,6.3c6.7,0.7,7.2,1.6,7.2,3c0,2.3-1.8,3.3-6.2,3.3
				c-5.4,0-6.6-1.4-7-4.1c0-0.3-0.3-0.5-0.6-0.5h-2.7c-0.3,0-0.6,0.3-0.6,0.6c0,3.5,1.9,7.6,10.9,7.6c6.5,0,10.3-2.6,10.3-7
				c0-4.4-3-5.6-9.3-6.5c-6.4-0.8-7-1.3-7-2.8c0-1.2,0.5-2.9,5.2-2.9c4.2,0,5.8,0.9,6.4,3.8c0.1,0.3,0.3,0.5,0.6,0.5h2.7
				c0.2,0,0.3-0.1,0.4-0.2c0.1-0.1,0.2-0.3,0.2-0.4C96.4,61.6,93.2,59.3,86.6,59.3L86.6,59.3z"/>
		</g>
		<path class="st33" d="M-39.9,11.2c-0.2,0-0.5,0.1-0.7,0.2c-0.4,0.2-0.7,0.7-0.7,1.1V46c0,0.3-0.2,0.6-0.4,0.8
			c-0.3,0.2-0.6,0.2-0.9,0l-5.5-3.1c-0.8-0.5-1.8-0.5-2.6,0l-21.8,12.6c-0.8,0.5-1.3,1.4-1.3,2.3v25.2c0,0.9,0.5,1.8,1.3,2.3
			l21.8,12.6c0.8,0.5,1.8,0.5,2.6,0l21.8-12.6c0.8-0.5,1.3-1.3,1.3-2.3V20.9c0-1-0.5-1.8-1.4-2.3l-13-7.3
			C-39.4,11.3-39.6,11.2-39.9,11.2L-39.9,11.2z M-180,42.6c-0.4,0-0.8,0.1-1.2,0.3L-203,55.5c-0.8,0.5-1.3,1.3-1.3,2.3l0,33.8
			c0,0.5,0.2,0.9,0.7,1.1c0.4,0.2,0.9,0.2,1.3,0l12.9-7.4c0.8-0.5,1.4-1.3,1.4-2.3V67.2c0-0.9,0.5-1.8,1.3-2.3l5.5-3.2
			c0.4-0.2,0.9-0.4,1.3-0.3c0.4,0,0.9,0.1,1.3,0.3l5.5,3.2c0.8,0.5,1.3,1.3,1.3,2.3V83c0,0.9,0.5,1.8,1.4,2.3l12.9,7.4
			c0.4,0.2,0.9,0.2,1.3,0c0.4-0.2,0.7-0.7,0.7-1.1l0-33.8c0-0.9-0.5-1.8-1.3-2.3l-21.8-12.6c-0.4-0.2-0.8-0.3-1.2-0.3H-180z
			 M15.8,42.9c-0.5,0-0.9,0.1-1.3,0.3L-7.3,55.9c-0.8,0.5-1.3,1.3-1.3,2.3v25.2c0,0.9,0.5,1.8,1.4,2.3l21.6,12.3
			c0.8,0.5,1.8,0.5,2.6,0L30,90.6c0.4-0.2,0.7-0.7,0.7-1.1c0-0.5-0.2-0.9-0.7-1.1L8.1,75.8c-0.4-0.2-0.7-0.7-0.7-1.2v-7.9
			c0-0.5,0.3-0.9,0.7-1.1l6.8-3.9c0.4-0.2,0.9-0.2,1.3,0l6.8,3.9c0.4,0.2,0.7,0.7,0.7,1.1V73c0,0.5,0.2,0.9,0.7,1.1
			c0.4,0.2,0.9,0.2,1.3,0l13.1-7.6c0.8-0.5,1.3-1.3,1.3-2.3v-6.1c0-0.9-0.5-1.8-1.3-2.3L17.1,43.3C16.7,43.1,16.2,42.9,15.8,42.9
			L15.8,42.9z M-49.4,61.7c0.1,0,0.2,0,0.3,0.1l7.5,4.3c0.2,0.1,0.3,0.3,0.3,0.6v8.6c0,0.2-0.1,0.5-0.3,0.6l-7.5,4.3
			c-0.2,0.1-0.5,0.1-0.7,0l-7.5-4.3c-0.2-0.1-0.3-0.3-0.3-0.6v-8.6c0-0.2,0.1-0.4,0.3-0.6l7.5-4.3C-49.6,61.8-49.5,61.7-49.4,61.7
			L-49.4,61.7L-49.4,61.7z"/>
		<path class="st19" d="M-114.6,42.8c-0.5,0-0.9,0.1-1.3,0.3l-21.8,12.5c-0.8,0.5-1.3,1.4-1.3,2.3v25.2c0,0.9,0.5,1.8,1.3,2.3
			l21.8,12.6c0.8,0.5,1.8,0.5,2.6,0l21.8-12.6c0.8-0.5,1.3-1.3,1.3-2.3V58c0-0.9-0.5-1.8-1.3-2.3l-21.8-12.5
			C-113.7,42.9-114.1,42.8-114.6,42.8z M15.7,65.3c-0.1,0-0.2,0-0.3,0l-4.2,2.4C11.1,67.8,11,68,11,68.2V73c0,0.2,0.1,0.3,0.3,0.4
			l4.2,2.4c0.2,0.1,0.3,0.1,0.5,0l4.2-2.4c0.2-0.1,0.3-0.3,0.3-0.4v-4.8c0-0.2-0.1-0.3-0.3-0.4L16,65.3
			C15.9,65.3,15.8,65.3,15.7,65.3L15.7,65.3z"/>
	</g>
	<g class="st2">
		<path class="st33" d="M156,90.8c-2.9,0-5.4-0.6-7.6-1.7c-2.2-1.1-3.8-2.7-5-4.6c-1.2-2-1.8-4.2-1.8-6.6c0-1.8,0.4-3.4,1.1-4.8
			c0.7-1.4,1.8-2.8,3.2-4.1c1.4-1.3,3.1-2.6,5-4l6.9-5.1c1.6-1.2,2.9-2.3,3.7-3.4s1.3-2.5,1.3-4.2c0-1.6-0.6-3-1.8-4.3
			c-1.2-1.3-2.7-1.9-4.6-1.9c-1.3,0-2.5,0.3-3.5,1c-1,0.7-1.9,1.5-2.5,2.6c-0.6,1.1-0.9,2.2-0.9,3.3c0,1.1,0.3,2.2,0.8,3.2
			c0.6,1.1,1.3,2.2,2.2,3.4c0.9,1.2,2,2.5,3.1,3.9l21.6,26.7h-5l-18.8-23.1c-1.6-1.9-3-3.7-4.2-5.2c-1.2-1.5-2.2-3-2.9-4.4
			s-1.1-2.9-1.1-4.6c0-2,0.5-3.8,1.4-5.4c0.9-1.6,2.2-2.8,3.9-3.7c1.6-0.9,3.5-1.4,5.7-1.4c2.2,0,4.1,0.4,5.7,1.3
			c1.6,0.9,2.9,2.1,3.7,3.6s1.3,3.1,1.3,4.9c0,2.1-0.6,4-1.6,5.7c-1.1,1.6-2.7,3.3-4.8,4.8l-8.6,6.4c-2.4,1.8-4,3.4-4.8,4.9
			c-0.9,1.5-1.3,2.8-1.3,3.9c0,1.7,0.4,3.2,1.3,4.6c0.9,1.4,2.1,2.5,3.6,3.4c1.5,0.8,3.3,1.3,5.3,1.3c2,0,3.8-0.4,5.6-1.2
			c1.7-0.8,3.3-1.9,4.7-3.3c1.4-1.4,2.5-3.2,3.3-5.2c0.8-2,1.3-4.3,1.5-6.7l4,0c-0.1,2.5-0.4,4.7-1,6.4c-0.6,1.8-1.3,3.2-2.1,4.3
			c-0.8,1.1-1.5,2.1-2.1,2.7c-0.2,0.2-0.3,0.5-0.5,0.7c-0.2,0.2-0.3,0.5-0.5,0.7c-1.5,1.7-3.4,3-5.7,3.9
			C160.5,90.4,158.3,90.8,156,90.8z"/>
		<path class="st33" d="M300.4,108.2V43.1h3.5v10.2c0.4-0.5,0.8-0.9,1.2-1.4c3-6.1,9.2-10,16-9.9c8.1-0.2,14.6,2.7,18.4,9.9
			c5,9,5.3,19.9,0.8,29.2c-3.6,8-12.4,12-21.9,10.6c-6-0.5-11.3-4-14.1-9.3v25.9L300.4,108.2z M303.9,66.2l0.8,7.6
			c1.4,8.7,6.5,13.8,14.6,14.8c7.8,1.3,15.5-3.1,18.3-10.6c3.1-7.5,2.9-16-0.6-23.3c-3-6.6-10-10.5-17.1-9.5
			c-6.7,0.5-12.4,5.2-14.2,11.7C304.9,60,304.3,63.1,303.9,66.2L303.9,66.2z M415.5,75c-1.1,9.5-9.1,16.7-18.6,16.8
			c-14.8,0.7-21.8-9.1-22.9-20.4c-0.8-6.2,0.2-12.4,2.9-18c3.8-7.9,12.3-12.4,20.9-11.2c8.2,0.7,15.1,6.6,17.1,14.6
			c0.8,3.6,1.3,7.2,1.7,10.8h-38.9c-0.7,10.3,4.8,18.6,12.6,20.6c9.8,2.4,18.1-1.8,21.1-11.1C412.1,74.7,413.4,74.3,415.5,75
			L415.5,75z M377.6,64.3h34.8c-0.2-11-7-18.9-16.3-19C385.7,45.1,378.1,52.8,377.6,64.3z M422.7,75.2h3.4c0.3,5.1,3.4,9.7,8,11.8
			c5.8,2.6,12.5,2.4,18.2-0.5c3.1-1.4,5.1-4.6,4.8-8.1c0.2-3.3-1.9-6.4-5-7.4c-3.8-1.4-7.7-2.2-11.6-3.4c-4-1.1-7.9-2.6-11.6-4.3
			c-6.2-3-6.5-14.7,0.4-18.4c7.3-4.1,16.1-4.2,23.5-0.4c4.5,2.5,7,7.5,6.3,12.6h-2.9c0-0.1-0.3-0.3-0.3-0.4
			c-0.4-9.3-8.2-12.2-16.6-11.4c-2.5,0.3-5,1.1-7.2,2.2c-2.8,1.3-4.5,4.2-4.2,7.2c0,3.1,1.9,5.8,4.8,6.8c3.7,1.3,7.6,2.2,11.4,3.3
			l9.2,2.4c4.3,1.4,7.2,5.3,7.5,9.8c0.7,4.9-1.8,9.8-6.2,12c-8,4.5-21.3,3.3-27.1-2.4C424.3,83.6,422.7,79.5,422.7,75.2L422.7,75.2z
			 M504,57.2h-3.2c0-0.4-0.2-0.8-0.2-1.2c-0.1-4.9-3.7-9.1-8.5-10.1c-4.4-1.3-9.2-1-13.5,0.6c-3.5,1-5.9,4.2-5.9,7.8
			c-0.1,3.6,2.3,6.8,5.8,7.6l14.6,3.8c1.6,0.4,3.1,0.9,4.7,1.4c4.7,1.7,7.8,6,8,11c0.1,5-2.8,9.5-7.3,11.4
			c-6.9,3.1-14.7,3.2-21.6,0.2c-5.8-2.5-9.4-8.3-9-14.6h3.1c1.2,5.7,5.1,10.4,10.4,12.6c5.3,2.2,11.4,1.7,16.3-1.5
			c3-1.5,4.8-4.7,4.6-8c0.1-3.3-1.9-6.3-5.1-7.4c-3.8-1.4-7.7-2.1-11.6-3.4c-4-1.1-7.9-2.5-11.7-4.2c-6-3-6.5-14.6,0.4-18.3
			c7.4-4.3,16.4-4.4,23.9-0.3C502.2,47.4,504.6,52.3,504,57.2L504,57.2z M294.5,90.7c-2.6,1-5.5-0.1-6.8-2.6l-12.4-17.2l-1.8-2.4
			l-14.4,19.6c-1.2,2.4-4,3.5-6.5,2.5l18.6-24.9l-17.3-22.5c2.6-0.9,5.4,0.1,6.9,2.4L273.6,63l13-17.3c1.2-2.3,4-3.4,6.4-2.4
			l-6.7,8.9L277.2,64c-1,0.9-1.1,2.4-0.2,3.4c0.1,0.1,0.1,0.1,0.2,0.2L294.5,90.7L294.5,90.7z M373.5,42.9v3.4
			c-9.6-0.6-17.9,6.6-18.5,16.3c0,0.6,0,1.2,0,1.8c0,7.9,0,15.8,0,23.8v2.7h-3.4V43.1h3.4v9.8C359,45.8,365.4,43.1,373.5,42.9
			L373.5,42.9z M208.1,65.4l1.5-7.5c4.2-14.8,21.1-20.9,32.8-11.8c6.8,5.4,8.5,13,8.2,21.5h-38.5c-0.6,15.3,10.4,24.5,24.5,19.8
			c4.7-1.7,8.2-5.6,9.3-10.4c0.7-2.4,2-2.8,4.2-2.1c-0.8,5.9-4.2,11.2-9.3,14.3c-8.6,4.7-19.2,3.3-26.3-3.4
			C211,82,209,77.1,208.6,72c0-0.8-0.3-1.6-0.5-2.4C208.1,68.2,208,66.8,208.1,65.4L208.1,65.4z M212.1,64.4h34.8
			c-0.2-11.1-7.2-18.9-16.5-19C220,45.2,212.5,52.9,212.1,64.4L212.1,64.4z"/>
	</g>
</g>
<g id="Redux" class="st0">
	<g class="st2">
		<path class="st34" d="M829.4,83c3.8-0.4,6.6-3.6,6.5-7.5c-0.1-3.9-3.4-7-7.3-7h-0.3c-4,0.1-7.2,3.5-7,7.5c0.1,2,0.9,3.6,2.1,4.8
			c-4.4,8.7-11.2,15.1-21.3,20.4c-6.9,3.6-14,4.9-21.2,4c-5.9-0.8-10.4-3.4-13.3-7.7c-4.2-6.4-4.6-13.3-1-20.2
			c2.5-4.9,6.4-8.6,8.8-10.4c-0.5-1.7-1.3-4.6-1.7-6.6c-18.9,13.7-16.9,32.1-11.2,40.8c4.3,6.5,13,10.5,22.6,10.5
			c2.6,0,5.2-0.3,7.8-0.9C809.6,107.6,822.2,97.7,829.4,83z"/>
		<path class="st34" d="M852.3,66.9c-9.9-11.6-24.4-17.9-41.1-17.9h-2.1c-1.2-2.3-3.6-3.9-6.4-3.9h-0.3c-4,0.1-7.2,3.5-7,7.5
			c0.1,3.9,3.4,7,7.3,7h0.3c2.9-0.1,5.3-2,6.4-4.4h2.3c9.9,0,19.2,2.9,27.7,8.5c6.5,4.3,11.2,9.9,13.8,16.6
			c2.2,5.5,2.1,10.8-0.3,15.3c-3.6,6.9-9.8,10.7-17.8,10.7c-5.2,0-10.1-1.6-12.7-2.7c-1.4,1.3-4,3.4-5.9,4.7c5.6,2.6,11.3,4,16.8,4
			c12.5,0,21.7-6.9,25.2-13.8C862.3,90.9,862,77.9,852.3,66.9z"/>
		<path class="st34" d="M786.2,85.2c0.1,3.9,3.4,7,7.3,7h0.3c4-0.1,7.2-3.5,7-7.5c-0.1-3.9-3.4-7-7.3-7h-0.3c-0.3,0-0.7,0-0.9,0.1
			c-5.3-8.8-7.5-18.5-6.8-28.9c0.5-7.8,3.1-14.6,7.7-20.2c3.8-4.8,11.1-7.2,16-7.3c13.8-0.3,19.6,16.9,20,23.8
			c1.7,0.4,4.6,1.3,6.5,2c-1.6-21.1-14.6-32-27-32c-11.7,0-22.5,8.5-26.8,20.9c-6,16.6-2.1,32.6,5.2,45.2
			C786.5,82.3,786.1,83.8,786.2,85.2z"/>
	</g>
	<g class="st2">
		<path class="st34" d="M906.7,91V40.9h19.8c3.8,0,7,0.7,9.7,2c2.7,1.3,4.7,3.3,6.2,5.7c1.4,2.5,2.1,5.3,2.1,8.7
			c0,3.3-0.7,6.2-2.2,8.6c-1.4,2.4-3.5,4.2-6.2,5.5c-2.7,1.3-6,1.9-9.9,1.9H913v-8.5h11.5c2,0,3.7-0.3,5-0.8c1.3-0.6,2.3-1.4,3-2.5
			c0.7-1.1,1-2.5,1-4.1c0-1.7-0.3-3.1-1-4.2c-0.7-1.1-1.7-2-3-2.6c-1.3-0.6-3-0.9-5.1-0.9h-7.2V91H906.7z M933.8,68.2L946.3,91
			h-11.7l-12.2-22.8H933.8z"/>
		<path class="st34" d="M968.3,91.8c-3.9,0-7.2-0.8-10-2.4c-2.8-1.6-4.9-3.8-6.4-6.7c-1.5-2.9-2.3-6.3-2.3-10.3
			c0-3.9,0.8-7.3,2.3-10.2c1.5-2.9,3.6-5.2,6.4-6.8c2.7-1.6,5.9-2.4,9.6-2.4c2.5,0,4.8,0.4,6.9,1.2c2.1,0.8,4,2,5.6,3.6
			c1.6,1.6,2.9,3.6,3.8,6c0.9,2.4,1.3,5.2,1.3,8.4v2.9h-31.8v-6.5h21.9c0-1.5-0.3-2.8-1-4c-0.7-1.2-1.6-2.1-2.7-2.7s-2.5-1-4-1
			c-1.6,0-3,0.4-4.2,1.1c-1.2,0.7-2.2,1.7-2.9,2.9c-0.7,1.2-1,2.6-1.1,4v6.2c0,1.9,0.3,3.5,1,4.8c0.7,1.4,1.7,2.4,3,3.1
			c1.3,0.7,2.8,1.1,4.5,1.1c1.2,0,2.2-0.2,3.2-0.5c1-0.3,1.8-0.8,2.5-1.5c0.7-0.7,1.2-1.5,1.6-2.4l9.7,0.6c-0.5,2.3-1.5,4.3-3,6.1
			c-1.5,1.7-3.5,3.1-5.8,4C974.1,91.3,971.4,91.8,968.3,91.8z"/>
		<path class="st34" d="M1003.1,91.7c-2.4,0-4.5-0.4-6.4-1.3c-1.9-0.8-3.4-2.1-4.4-3.7c-1.1-1.7-1.6-3.7-1.6-6.2
			c0-2.1,0.4-3.8,1.2-5.3c0.8-1.4,1.8-2.6,3.1-3.4c1.3-0.9,2.8-1.5,4.5-2c1.7-0.4,3.5-0.8,5.3-0.9c2.2-0.2,4-0.4,5.3-0.6
			c1.3-0.2,2.3-0.5,2.9-0.9c0.6-0.4,0.9-1,0.9-1.8v-0.1c0-1.6-0.5-2.8-1.5-3.6c-1-0.8-2.4-1.3-4.1-1.3c-1.9,0-3.4,0.4-4.5,1.2
			c-1.1,0.8-1.8,1.9-2.2,3.1l-9.6-0.8c0.5-2.3,1.5-4.3,2.9-5.9c1.4-1.7,3.3-3,5.6-3.9c2.3-0.9,4.9-1.4,7.9-1.4c2.1,0,4.1,0.2,6,0.7
			s3.6,1.3,5.1,2.3c1.5,1,2.7,2.4,3.5,4c0.9,1.6,1.3,3.5,1.3,5.8V91h-9.9v-5.2h-0.3c-0.6,1.2-1.4,2.2-2.4,3.1
			c-1,0.9-2.2,1.6-3.6,2.1C1006.6,91.5,1004.9,91.7,1003.1,91.7z M1006.1,84.5c1.5,0,2.9-0.3,4.1-0.9c1.2-0.6,2.1-1.4,2.8-2.5
			c0.7-1,1-2.2,1-3.5v-4c-0.3,0.2-0.8,0.4-1.3,0.6c-0.6,0.2-1.2,0.3-1.9,0.5c-0.7,0.1-1.4,0.3-2.1,0.4s-1.3,0.2-1.9,0.3
			c-1.2,0.2-2.3,0.5-3.2,0.9c-0.9,0.4-1.6,0.9-2.1,1.6c-0.5,0.7-0.8,1.5-0.8,2.5c0,1.4,0.5,2.5,1.6,3.2
			C1003.2,84.2,1004.5,84.5,1006.1,84.5z"/>
		<path class="st34" d="M1049.4,91.8c-3.9,0-7.2-0.8-9.9-2.5s-4.9-3.9-6.4-6.8c-1.5-2.9-2.2-6.3-2.2-10.1c0-3.9,0.8-7.2,2.2-10.2
			c1.5-2.9,3.6-5.2,6.4-6.8c2.8-1.6,6-2.5,9.8-2.5c3.3,0,6.2,0.6,8.6,1.8c2.5,1.2,4.4,2.9,5.9,5c1.4,2.2,2.2,4.7,2.4,7.6h-9.8
			c-0.3-1.9-1-3.4-2.2-4.5c-1.2-1.2-2.7-1.7-4.6-1.7c-1.6,0-3,0.4-4.2,1.3c-1.2,0.9-2.1,2.1-2.8,3.8c-0.7,1.7-1,3.7-1,6.1
			c0,2.4,0.3,4.4,1,6.1c0.7,1.7,1.6,3,2.8,3.8c1.2,0.9,2.6,1.3,4.2,1.3c1.2,0,2.3-0.2,3.2-0.7c1-0.5,1.7-1.2,2.4-2.1
			c0.6-0.9,1-2.1,1.2-3.4h9.8c-0.2,2.9-0.9,5.4-2.3,7.6c-1.4,2.2-3.3,3.9-5.8,5.1C1055.6,91.1,1052.7,91.8,1049.4,91.8z"/>
		<path class="st34" d="M1092.9,53.4v7.8h-22.7v-7.8H1092.9z M1075.4,44.4h10.4v35.1c0,1,0.2,1.7,0.4,2.2c0.3,0.5,0.7,0.9,1.2,1.1
			s1.1,0.3,1.9,0.3c0.5,0,1,0,1.5-0.1c0.5-0.1,0.9-0.2,1.1-0.2l1.6,7.8c-0.5,0.2-1.3,0.4-2.2,0.6c-0.9,0.2-2.1,0.4-3.5,0.4
			c-2.5,0.1-4.7-0.2-6.6-1c-1.9-0.8-3.4-2-4.4-3.6c-1-1.6-1.6-3.7-1.5-6.1V44.4z"/>
	</g>
	<g class="st2">
		<path class="st34" d="M1119.5,91V40.9h19.8c3.8,0,7,0.7,9.7,2c2.7,1.3,4.7,3.3,6.2,5.7c1.4,2.5,2.1,5.3,2.1,8.7
			c0,3.3-0.7,6.2-2.2,8.6c-1.4,2.4-3.5,4.2-6.2,5.5c-2.7,1.3-6,1.9-9.9,1.9h-13.2v-8.5h11.5c2,0,3.7-0.3,5-0.8
			c1.3-0.6,2.3-1.4,3-2.5c0.7-1.1,1-2.5,1-4.1c0-1.7-0.3-3.1-1-4.2c-0.7-1.1-1.7-2-3-2.6c-1.3-0.6-3-0.9-5.1-0.9h-7.2V91H1119.5z
			 M1146.5,68.2L1159,91h-11.7l-12.2-22.8H1146.5z"/>
		<path class="st34" d="M1181,91.8c-3.9,0-7.2-0.8-10-2.4c-2.8-1.6-4.9-3.8-6.4-6.7c-1.5-2.9-2.3-6.3-2.3-10.3
			c0-3.9,0.8-7.3,2.3-10.2c1.5-2.9,3.6-5.2,6.4-6.8c2.7-1.6,5.9-2.4,9.6-2.4c2.5,0,4.8,0.4,6.9,1.2c2.1,0.8,4,2,5.6,3.6
			c1.6,1.6,2.9,3.6,3.8,6c0.9,2.4,1.3,5.2,1.3,8.4v2.9h-31.8v-6.5h21.9c0-1.5-0.3-2.8-1-4c-0.7-1.2-1.6-2.1-2.7-2.7s-2.5-1-4-1
			c-1.6,0-3,0.4-4.2,1.1c-1.2,0.7-2.2,1.7-2.9,2.9c-0.7,1.2-1,2.6-1.1,4v6.2c0,1.9,0.3,3.5,1,4.8c0.7,1.4,1.7,2.4,2.9,3.1
			c1.3,0.7,2.8,1.1,4.5,1.1c1.2,0,2.2-0.2,3.2-0.5s1.8-0.8,2.5-1.5c0.7-0.7,1.2-1.5,1.6-2.4l9.7,0.6c-0.5,2.3-1.5,4.3-3,6.1
			c-1.5,1.7-3.5,3.1-5.8,4C1186.9,91.3,1184.1,91.8,1181,91.8z"/>
		<path class="st34" d="M1219,91.6c-2.9,0-5.4-0.7-7.8-2.2c-2.3-1.5-4.1-3.7-5.5-6.5c-1.3-2.9-2-6.4-2-10.6c0-4.3,0.7-7.9,2.1-10.8
			c1.4-2.9,3.2-5,5.5-6.4c2.3-1.4,4.8-2.1,7.6-2.1c2.1,0,3.9,0.4,5.3,1.1c1.4,0.7,2.6,1.6,3.4,2.6c0.9,1.1,1.5,2.1,2,3.1h0.3V40.9
			h10.4V91h-10.3v-6h-0.4c-0.5,1-1.2,2.1-2.1,3.1c-0.9,1-2,1.9-3.5,2.5C1222.7,91.3,1221,91.6,1219,91.6z M1222.3,83.3
			c1.7,0,3.1-0.5,4.3-1.4c1.2-0.9,2.1-2.2,2.7-3.9c0.6-1.7,0.9-3.6,0.9-5.9s-0.3-4.2-0.9-5.8c-0.6-1.7-1.5-2.9-2.7-3.8
			c-1.2-0.9-2.6-1.3-4.3-1.3c-1.7,0-3.2,0.5-4.3,1.4c-1.2,0.9-2.1,2.2-2.7,3.9c-0.6,1.7-0.9,3.6-0.9,5.7c0,2.2,0.3,4.1,0.9,5.8
			c0.6,1.7,1.5,3,2.7,3.9C1219.1,82.9,1220.5,83.3,1222.3,83.3z"/>
		<path class="st34" d="M1273,75V53.4h10.4V91h-10v-6.8h-0.4c-0.8,2.2-2.3,4-4.2,5.3c-2,1.3-4.4,2-7.2,2c-2.5,0-4.7-0.6-6.6-1.7
			c-1.9-1.1-3.4-2.8-4.5-4.9c-1.1-2.1-1.6-4.6-1.6-7.6V53.4h10.4v22.1c0,2.2,0.6,4,1.8,5.3c1.2,1.3,2.8,1.9,4.7,1.9
			c1.3,0,2.4-0.3,3.5-0.9c1.1-0.6,2-1.4,2.7-2.6C1272.7,78.1,1273,76.7,1273,75z"/>
		<path class="st34" d="M1300.5,53.4l6.9,13.1l7.1-13.1h10.7l-10.9,18.8l11.2,18.8h-10.7l-7.4-13l-7.3,13h-10.8l11.2-18.8
			l-10.8-18.8H1300.5z"/>
	</g>
</g>
<g id="React" class="st0">
	<g class="st2">
		<g>
			<circle class="st35" cx="399.8" cy="64.7" r="9.7"/>
			<path class="st35" d="M372.6,84.1l-2.2-0.6c-16-4-25.1-10.9-25.1-18.8c0-7.9,9.2-14.8,25.1-18.8l2.2-0.5l0.6,2.1
				c1.6,5.6,3.7,11,6.2,16.2l0.5,1l-0.5,1c-2.5,5.2-4.6,10.7-6.2,16.3L372.6,84.1z M369.5,50.9c-12.1,3.4-19.6,8.6-19.6,13.8
				c0,5.2,7.5,10.4,19.6,13.8c1.5-4.7,3.3-9.4,5.4-13.8C372.8,60.2,371,55.6,369.5,50.9z M427.1,84.1l-0.6-2.1
				c-1.6-5.6-3.7-11-6.2-16.3l-0.5-1l0.5-1c2.5-5.2,4.6-10.7,6.2-16.3l0.6-2.1l2.2,0.5c16,4,25.1,10.9,25.1,18.8
				c0,7.9-9.2,14.8-25.1,18.8L427.1,84.1z M424.8,64.7c2.2,4.7,4,9.4,5.4,13.8c12.1-3.4,19.6-8.6,19.6-13.8
				c0-5.2-7.5-10.4-19.6-13.8C428.7,55.6,426.9,60.2,424.8,64.7z"/>
			<path class="st35" d="M369.4,50.9l-0.6-2.1c-4.5-15.8-3.1-27.2,3.7-31.1c6.7-3.9,17.5,0.7,28.9,12.3l1.5,1.6l-1.5,1.6
				c-4,4.2-7.7,8.7-11,13.5l-0.6,0.9l-1.1,0.1c-5.8,0.5-11.5,1.4-17.2,2.8C371.6,50.3,369.4,50.9,369.4,50.9z M378.1,20.7
				c-1.2,0-2.3,0.3-3.2,0.8c-4.5,2.6-5.3,11.6-2.2,23.9c4.9-1.1,9.7-1.8,14.7-2.3c2.9-4.1,6-7.9,9.3-11.6
				C389.6,24.7,382.9,20.7,378.1,20.7z M421.6,113.2c-6.5,0-14.8-4.9-23.4-13.7l-1.5-1.6l1.5-1.6c4-4.2,7.7-8.7,11-13.5l0.6-0.9
				l1.1-0.1c5.8-0.4,11.6-1.4,17.2-2.8l2.2-0.5l0.6,2.1c4.5,15.8,3.1,27.2-3.7,31.1C425.4,112.8,423.5,113.3,421.6,113.2z M403,97.9
				c7.1,6.9,13.8,10.8,18.6,10.8c1.2,0,2.3-0.3,3.2-0.8c4.5-2.6,5.3-11.7,2.2-23.9c-4.8,1.1-9.7,1.9-14.7,2.3
				C409.5,90.4,406.4,94.2,403,97.9z"/>
			<path class="st35" d="M430.2,50.9l-2.2-0.5c-5.6-1.4-11.4-2.3-17.2-2.8l-1.1-0.1l-0.6-0.9c-3.3-4.8-7-9.3-11-13.5l-1.5-1.6
				l1.5-1.6c11.3-11.6,22.1-16.2,28.9-12.3c6.9,4,8.2,15.3,3.7,31.1L430.2,50.9z M412.3,43.1c5.2,0.5,10.1,1.2,14.7,2.3
				c3.1-12.2,2.3-21.3-2.2-23.9c-4.5-2.6-12.9,1.4-21.8,10C406.4,35.2,409.5,39.1,412.3,43.1z M378.1,113.2c-1.9,0-3.8-0.5-5.5-1.4
				c-6.9-4-8.2-15.3-3.7-31.1l0.6-2.1l2.2,0.5c5.2,1.3,11,2.3,17.2,2.8l1.1,0.1l0.6,0.9c3.3,4.8,7,9.3,11,13.5l1.5,1.6l-1.5,1.6
				C392.8,108.4,384.5,113.2,378.1,113.2z M372.7,84c-3.1,12.2-2.3,21.3,2.2,23.9c4.5,2.6,12.9-1.4,21.8-10
				c-3.4-3.6-6.5-7.5-9.3-11.6C382.4,85.9,377.5,85.1,372.7,84z"/>
			<path class="st35" d="M399.8,86.9c-3.7,0-7.6-0.2-11.4-0.5l-1.1-0.1l-0.6-0.9c-2.2-3.1-4.2-6.3-6.1-9.6
				c-1.9-3.3-3.7-6.7-5.3-10.1l-0.5-1l0.5-1c1.6-3.4,3.4-6.8,5.3-10.1c1.9-3.2,4-6.5,6.1-9.6l0.6-0.9l1.1-0.1
				c7.6-0.6,15.3-0.6,22.9,0l1.1,0.1l0.6,0.9c4.4,6.3,8.2,12.9,11.4,19.8l0.5,1l-0.5,1c-3.2,6.9-7.1,13.5-11.4,19.8l-0.6,0.9
				l-1.1,0.1C407.4,86.7,403.6,86.9,399.8,86.9z M389.9,82c6.7,0.5,13.3,0.5,20,0c3.8-5.5,7.1-11.3,10-17.3c-2.9-6-6.2-11.8-10-17.3
				c-6.6-0.5-13.3-0.5-20,0c-3.8,5.5-7.1,11.3-10,17.3C382.8,70.7,386.1,76.5,389.9,82z"/>
		</g>
	</g>
	<g class="st2">
		<path class="st35" d="M502.7,96.4V44.9H523c3.9,0,7.2,0.7,10,2.1c2.8,1.4,4.9,3.3,6.3,5.9c1.4,2.5,2.2,5.5,2.2,8.9
			c0,3.4-0.7,6.4-2.2,8.8c-1.5,2.5-3.6,4.3-6.4,5.6c-2.8,1.3-6.2,2-10.1,2h-13.6v-8.7h11.8c2.1,0,3.8-0.3,5.2-0.9
			c1.4-0.6,2.4-1.4,3.1-2.6s1-2.6,1-4.2c0-1.7-0.3-3.2-1-4.3c-0.7-1.2-1.7-2.1-3.1-2.7c-1.4-0.6-3.1-0.9-5.2-0.9h-7.3v42.6H502.7z
			 M530.5,73l12.8,23.4h-12L518.7,73H530.5z"/>
		<path class="st35" d="M565.9,97.2c-4,0-7.4-0.8-10.2-2.4c-2.9-1.6-5.1-3.9-6.6-6.9c-1.5-3-2.3-6.5-2.3-10.6c0-4,0.8-7.5,2.3-10.5
			c1.5-3,3.7-5.3,6.5-7c2.8-1.7,6.1-2.5,9.9-2.5c2.5,0,4.9,0.4,7.1,1.2c2.2,0.8,4.1,2,5.8,3.7c1.7,1.6,2.9,3.7,3.9,6.1
			c0.9,2.5,1.4,5.3,1.4,8.6v2.9H551v-6.6h22.5c0-1.5-0.3-2.9-1-4.1c-0.7-1.2-1.6-2.1-2.8-2.8s-2.6-1-4.1-1c-1.6,0-3.1,0.4-4.3,1.1
			c-1.3,0.7-2.2,1.7-2.9,3c-0.7,1.2-1.1,2.6-1.1,4.2v6.3c0,1.9,0.4,3.6,1.1,4.9c0.7,1.4,1.7,2.5,3,3.2c1.3,0.8,2.9,1.1,4.6,1.1
			c1.2,0,2.3-0.2,3.3-0.5c1-0.3,1.8-0.8,2.5-1.5c0.7-0.7,1.2-1.5,1.6-2.5l9.9,0.7c-0.5,2.4-1.5,4.5-3.1,6.2c-1.6,1.8-3.5,3.1-6,4.1
			C571.8,96.7,569,97.2,565.9,97.2z"/>
		<path class="st35" d="M601.6,97.1c-2.5,0-4.7-0.4-6.6-1.3c-1.9-0.9-3.5-2.1-4.6-3.8c-1.1-1.7-1.7-3.8-1.7-6.4
			c0-2.1,0.4-3.9,1.2-5.4c0.8-1.5,1.9-2.6,3.2-3.5c1.4-0.9,2.9-1.6,4.6-2c1.7-0.5,3.6-0.8,5.5-1c2.2-0.2,4.1-0.5,5.4-0.7
			c1.4-0.2,2.4-0.5,3-0.9c0.6-0.4,0.9-1,0.9-1.9v-0.1c0-1.6-0.5-2.8-1.5-3.7c-1-0.9-2.4-1.3-4.2-1.3c-1.9,0-3.5,0.4-4.6,1.3
			c-1.1,0.8-1.9,1.9-2.3,3.2l-9.9-0.8c0.5-2.3,1.5-4.4,3-6.1c1.5-1.7,3.4-3,5.7-4c2.3-0.9,5-1.4,8.1-1.4c2.1,0,4.2,0.3,6.2,0.8
			s3.7,1.3,5.3,2.3c1.5,1.1,2.7,2.4,3.6,4.1c0.9,1.7,1.3,3.6,1.3,5.9v26h-10.2v-5.4h-0.3c-0.6,1.2-1.4,2.3-2.5,3.2
			c-1,0.9-2.3,1.6-3.7,2.1C605.2,96.9,603.5,97.1,601.6,97.1z M604.6,89.7c1.6,0,3-0.3,4.2-0.9c1.2-0.6,2.2-1.5,2.8-2.6
			c0.7-1.1,1-2.3,1-3.6v-4.1c-0.3,0.2-0.8,0.4-1.4,0.6s-1.2,0.3-1.9,0.5c-0.7,0.1-1.4,0.3-2.2,0.4c-0.7,0.1-1.4,0.2-2,0.3
			c-1.3,0.2-2.4,0.5-3.3,0.9c-0.9,0.4-1.7,0.9-2.2,1.6c-0.5,0.7-0.8,1.5-0.8,2.5c0,1.5,0.5,2.6,1.6,3.3
			C601.6,89.4,603,89.7,604.6,89.7z"/>
		<path class="st35" d="M649.1,97.2c-4,0-7.3-0.8-10.2-2.5c-2.8-1.7-5-4-6.5-7c-1.5-3-2.3-6.5-2.3-10.4c0-4,0.8-7.4,2.3-10.4
			c1.5-3,3.7-5.3,6.5-7c2.8-1.7,6.2-2.5,10.1-2.5c3.4,0,6.3,0.6,8.8,1.8c2.5,1.2,4.5,2.9,6,5.2c1.5,2.2,2.3,4.8,2.4,7.8h-10.1
			c-0.3-1.9-1-3.5-2.3-4.7c-1.2-1.2-2.8-1.8-4.8-1.8c-1.7,0-3.1,0.4-4.3,1.3c-1.2,0.9-2.2,2.2-2.9,3.9c-0.7,1.7-1,3.8-1,6.2
			c0,2.5,0.3,4.6,1,6.3c0.7,1.7,1.6,3,2.9,3.9c1.2,0.9,2.7,1.4,4.3,1.4c1.2,0,2.3-0.3,3.3-0.8c1-0.5,1.8-1.2,2.4-2.2
			c0.6-1,1.1-2.1,1.3-3.5h10.1c-0.2,2.9-1,5.5-2.4,7.8c-1.4,2.2-3.4,4-5.9,5.2C655.5,96.5,652.5,97.2,649.1,97.2z"/>
		<path class="st35" d="M693.7,57.8v8h-23.2v-8H693.7z M675.8,48.6h10.7v36c0,1,0.2,1.8,0.5,2.3c0.3,0.5,0.7,0.9,1.3,1.1
			c0.5,0.2,1.2,0.3,1.9,0.3c0.5,0,1,0,1.5-0.1c0.5-0.1,0.9-0.2,1.2-0.2l1.7,8c-0.5,0.2-1.3,0.4-2.3,0.6c-1,0.2-2.2,0.4-3.5,0.4
			c-2.6,0.1-4.8-0.2-6.8-1c-1.9-0.8-3.4-2-4.5-3.7c-1.1-1.7-1.6-3.8-1.6-6.3V48.6z"/>
	</g>
</g>
<path id="Saas" class="st36" d="M207.2,68.8c-5.6,0-10.4,1.4-14.5,3.3c-1.5-2.9-3-5.5-3.2-7.4c-0.3-2.2-0.6-3.6-0.3-6.2
	c0.3-2.6,1.9-6.4,1.9-6.7c0-0.3-0.3-1.6-3.6-1.7c-3.2,0-6,0.6-6.3,1.4c-0.3,0.8-0.9,2.7-1.3,4.7c-0.6,2.9-6.4,13.1-9.8,18.5
	c-1.1-2.1-2-3.9-2.2-5.4c-0.3-2.2-0.6-3.6-0.3-6.2c0.3-2.6,1.9-6.4,1.9-6.7c0-0.3-0.3-1.6-3.6-1.7c-3.2,0-6,0.6-6.3,1.4
	c-0.3,0.8-0.7,2.8-1.3,4.7c-0.7,1.9-8.5,19-10.5,23.5c-1,2.3-1.9,4.1-2.6,5.3s0,0.1-0.1,0.2c-0.6,1-0.9,1.6-0.9,1.6v0
	c-0.4,0.8-0.9,1.5-1.1,1.5c-0.2,0-0.5-2.1,0.1-4.9c1.2-5.9,4-15.2,3.9-15.5c0-0.2,0.5-1.8-1.8-2.6c-2.3-0.8-3.1,0.6-3.3,0.6
	s-0.3,0.5-0.3,0.5s2.5-10.4-4.8-10.4c-4.6,0-11,5-14.1,9.5c-2,1.1-6.2,3.4-10.7,5.8c-1.7,0.9-3.5,1.9-5.2,2.8l-0.3-0.4
	c-8.9-9.4-25.4-16-24.7-28.6c0.2-4.6,1.9-16.7,31.7-31.3c24.4-12,44-8.7,47.4-1.4c4.8,10.5-10.5,29.9-35.9,32.7
	c-9.7,1.1-14.8-2.6-16-4c-1.3-1.4-1.5-1.5-2-1.2c-0.8,0.4-0.3,1.7,0,2.5c0.7,1.9,3.9,5.4,9.2,7.1c4.6,1.5,16,2.3,29.7-2.9
	c15.4-5.9,27.4-22.2,23.9-35.8c-3.6-13.9-26.9-18.4-49-10.7C107.6,9.4,93.4,16.5,83.2,26C71,37.2,69.1,47,69.9,51
	c2.8,14.5,23.1,23.9,31.2,30.9c-0.4,0.2-0.8,0.4-1.1,0.6c-4.1,2-19.5,9.9-23.4,18.4c-4.4,9.5,0.7,16.4,4.1,17.3
	c10.4,2.9,21.1-2.3,26.9-10.7c5.7-8.5,5.1-19.4,2.4-24.4l-0.1-0.2L113,81c2.1-1.2,4.1-2.3,5.9-3.3c-1,2.7-1.7,5.8-2.1,10.5
	c-0.4,5.4,1.8,12.4,4.8,15.2c1.3,1.2,2.9,1.2,3.8,1.2c3.4,0,5-2.8,6.7-6.1c2.1-4.1,4-8.8,4-8.8s-2.3,12.8,4.1,12.8
	c2.3,0,4.7-3,5.7-4.5v0c0,0,0.1-0.1,0.2-0.3c0.2-0.4,0.4-0.6,0.4-0.6V97c0.9-1.6,3-5.3,6.1-11.3c4-7.8,7.9-17.6,7.9-17.6
	s0.4,2.4,1.5,6.3c0.7,2.3,2.2,4.9,3.3,7.4c-0.9,1.3-1.5,2-1.5,2l0,0c-0.7,1-1.6,2-2.5,3.1c-3.2,3.8-7,8-7.5,9.3
	c-0.6,1.4-0.5,2.5,0.7,3.4c0.8,0.6,2.3,0.7,3.9,0.6c2.9-0.2,4.9-0.9,5.9-1.3c1.6-0.6,3.3-1.4,5.1-2.6c3.1-2.3,5-5.5,4.8-9.8
	c-0.1-2.4-0.9-4.7-1.8-6.9c0.3-0.4,0.6-0.8,0.8-1.2c4.9-7.1,8.7-14.9,8.7-14.9s0.4,2.4,1.5,6.3c0.6,2,1.8,4.2,2.8,6.3
	c-4.6,3.7-7.5,8-8.5,10.9c-1.8,5.2-0.4,7.6,2.3,8.1c1.2,0.2,3-0.3,4.3-0.9c1.6-0.5,3.6-1.4,5.4-2.7c3.1-2.3,6.1-5.4,6-9.7
	c-0.1-2-0.6-3.9-1.3-5.8c3.9-1.6,9-2.5,15.5-1.8c13.9,1.6,16.6,10.1,16.1,13.7s-3.4,5.5-4.4,6.1c-1,0.6-1.3,0.8-1.2,1.2
	c0.1,0.6,0.6,0.6,1.4,0.5c1.2-0.2,7.3-2.9,7.6-9.5C229.8,77.9,221.7,68.7,207.2,68.8L207.2,68.8z M100.2,104.3
	c-4.6,5-11,6.8-13.8,5.2c-3-1.7-1.8-9,3.8-14.2c3.4-3.2,7.9-6.1,10.8-8c0.7-0.4,1.7-1,2.8-1.7c0.2-0.1,0.3-0.2,0.3-0.2
	c0.2-0.1,0.5-0.3,0.7-0.4C107,92.6,105,99.1,100.2,104.3L100.2,104.3z M133.7,81.9c-1.6,3.8-5,13.7-7,13.2
	c-1.7-0.5-2.8-7.9-0.3-15.3c1.2-3.7,3.9-8.1,5.5-9.9c2.5-2.8,5.3-3.7,6-2.6C138.6,68.8,134.7,79.5,133.7,81.9z M161.4,94.9
	c-0.7,0.3-1.3,0.6-1.6,0.4c-0.2-0.1,0.3-0.6,0.3-0.6s3.5-3.7,4.8-5.4c0.8-1,1.7-2.1,2.7-3.4v0.4C167.6,90.7,163.3,93.7,161.4,94.9z
	 M182.7,90.1c-0.5-0.4-0.4-1.5,1.2-5.1c0.7-1.4,2.2-3.8,4.7-6c0.3,0.9,0.5,1.8,0.5,2.6C189.1,87.2,185.1,89.2,182.7,90.1z"/>
</svg>
