<svg id="Layer_1" data-name="Layer 1" xmlns="http://www.w3.org/2000/svg" viewBox="0 0 800 53.95"><g id="bottom-curve"><g id="waves"><path d="M9,89.25C9,86.48,71.78,85.06,78,85c22.17-.09,44.67,2.08,66.5,4.11,41.16,3.84,82,8.92,123.58,11.11,34.81,1.83,69.36-2.61,102.53-8,34-5.53,66-13,101.35-15.6A609.38,609.38,0,0,1,578,78.2c39.26,4,76.84,11.91,116,16.07,37.64,4,76.68,5.68,115,6.07v28.2c-267,0-533,.46-800,.46Z" transform="translate(-9 -75.05)" style="fill:#002d72"/><path d="M9.92,113c4.5-1.58,19.14-1.25,24.54-1.31,32.8-.39,64.94,3,97,5.74,66.11,5.57,131.67,7.5,197.06-.67,62-7.74,127.43-12.44,192.52-10.65,23.25.65,46.28,2.11,69.09,3.91S635.57,114,658.29,116c23.15,2,46.42,3.68,70,4.89q35.57,1.83,71.46,2.5c1.1,0,2.19,0,3.28,0,1.47,0,2.93,0,4.35-.18,1.6-.17,1.64-.73,1.64-.16v6H9V113.52C9,113.38,9.63,113.12,9.92,113Z" transform="translate(-9 -75.05)" style="fill:#ff4a01"/></g></g></svg>