<svg id="home-img-svg" xmlns="http://www.w3.org/2000/svg" viewBox="0 0 574.96 49"><path d="M15.37,37,7.12,10.12H6.91c.29,5.47.44,9.11.44,10.94V37H.86V2.73h9.89l8.11,26.21H19L27.6,2.73h9.89V37H30.72V20.78c0-.76,0-1.65,0-2.65s.14-3.65.33-8h-.21L22,37ZM41.83,10.8h7.83L54.6,25.54a20.79,20.79,0,0,1,.87,4.55h.14a20,20,0,0,1,1-4.55L61.47,10.8h7.66L58.05,40.35a12.77,12.77,0,0,1-4.36,6.14,10.93,10.93,0,0,1-6.59,2,16.35,16.35,0,0,1-3.63-.4V42.46a12.4,12.4,0,0,0,2.81.31,5,5,0,0,0,3.31-1.18,7.38,7.38,0,0,0,2.22-3.49l.42-1.29ZM116.34,37H107.1L92.2,11.08H92c.3,4.58.45,7.84.45,9.8V37H85.94V2.73H95.1L110,28.4h.17c-.24-4.45-.35-7.6-.35-9.45V2.73h6.54Zm24.72,0-1.38-3.56h-.19a10.62,10.62,0,0,1-3.72,3.16,12.07,12.07,0,0,1-5,.87,8.11,8.11,0,0,1-6-2.16,8.32,8.32,0,0,1-2.15-6.14,6.9,6.9,0,0,1,2.9-6.14c2-1.33,4.89-2.06,8.82-2.2l4.54-.14V19.54q0-4-4.07-4a18.7,18.7,0,0,0-7.39,1.9l-2.37-4.83a21.42,21.42,0,0,1,10-2.36c3.51,0,6.21.76,8.08,2.29s2.81,3.86,2.81,7V37ZM139,24.86l-2.76.09a8.88,8.88,0,0,0-4.64,1.13A3.53,3.53,0,0,0,130,29.22q0,3,3.47,3a5.41,5.41,0,0,0,4-1.43A5,5,0,0,0,139,27ZM176.9,37h-7.15V21.7a7.59,7.59,0,0,0-1-4.25,3.32,3.32,0,0,0-3-1.43,4.33,4.33,0,0,0-4,2q-1.25,2-1.24,6.63V37h-7.15V10.8h5.46l1,3.35h.4a7.2,7.2,0,0,1,3-2.81,9.81,9.81,0,0,1,4.58-1c3.92,0,6.57,1.29,8,3.85h.64a7.05,7.05,0,0,1,3.09-2.84,10.47,10.47,0,0,1,4.64-1q4.46,0,6.73,2.3c1.53,1.52,2.29,4,2.29,7.31V37h-7.17V21.7a7.59,7.59,0,0,0-1-4.25,3.31,3.31,0,0,0-3-1.43,4.48,4.48,0,0,0-3.93,1.88q-1.29,1.88-1.29,6Zm34.55-21.61a4.55,4.55,0,0,0-3.57,1.45,6.62,6.62,0,0,0-1.47,4.08h10a5.89,5.89,0,0,0-1.39-4.08A4.68,4.68,0,0,0,211.45,15.39Zm1,22.08q-6.33,0-9.89-3.49T199,24.09q0-6.59,3.28-10.18t9.12-3.61q5.55,0,8.65,3.17t3.09,8.74v3.47h-16.9a6.88,6.88,0,0,0,1.81,4.76,6.34,6.34,0,0,0,4.73,1.71,20.17,20.17,0,0,0,4.48-.49,23.17,23.17,0,0,0,4.4-1.57v5.53a16.74,16.74,0,0,1-4,1.38A24.92,24.92,0,0,1,212.45,37.47ZM242,37V2.73h7.27V37Zm33.61-7.78a7.19,7.19,0,0,1-2.81,6.14q-2.79,2.12-8.37,2.11a25.16,25.16,0,0,1-4.87-.4A18,18,0,0,1,255.77,36V30a25.12,25.12,0,0,0,4.47,1.57,18.38,18.38,0,0,0,4.41.63q3.89,0,3.89-2.25a1.83,1.83,0,0,0-.52-1.36,6.9,6.9,0,0,0-1.78-1.19c-.84-.46-2-1-3.37-1.57a21.93,21.93,0,0,1-4.46-2.35,6.89,6.89,0,0,1-2.06-2.46,8.39,8.39,0,0,1-.63-3.44,6.2,6.2,0,0,1,2.69-5.39c1.82-1.28,4.38-1.93,7.69-1.93a21.69,21.69,0,0,1,9.21,2.07l-2.15,5.15c-1.32-.56-2.54-1-3.68-1.38a11.57,11.57,0,0,0-3.5-.54c-2.1,0-3.16.57-3.16,1.71a2,2,0,0,0,1,1.67,28.51,28.51,0,0,0,4.47,2.08,20.62,20.62,0,0,1,4.5,2.32,6.77,6.77,0,0,1,2.11,2.49A7.5,7.5,0,0,1,275.59,29.22Zm15,17.86a15.65,15.65,0,0,1-4.29-.52v-6a14.29,14.29,0,0,0,3.42.46,3.86,3.86,0,0,0,3.42-1.5,8.19,8.19,0,0,0,1-4.64V2.73h7.27V34.8c0,4-.92,7-2.74,9.14S294.2,47.08,290.62,47.08ZM309.23,4c0-2.32,1.29-3.49,3.89-3.49S317,1.7,317,4a3.4,3.4,0,0,1-1,2.6,4.07,4.07,0,0,1-2.9.92C310.52,7.54,309.23,6.37,309.23,4Zm7.45,33h-7.15V10.8h7.15Zm31,0h-7.14V21.7a7.5,7.5,0,0,0-1-4.25,3.29,3.29,0,0,0-3-1.43,4.35,4.35,0,0,0-4,2c-.82,1.34-1.24,3.55-1.24,6.63V37H324.2V10.8h5.46l1,3.35h.4a7.23,7.23,0,0,1,3.05-2.81,9.77,9.77,0,0,1,4.57-1c3.92,0,6.58,1.29,8,3.85h.63a7.13,7.13,0,0,1,3.1-2.84,10.44,10.44,0,0,1,4.64-1q4.45,0,6.72,2.3c1.53,1.52,2.3,4,2.3,7.31V37h-7.17V21.7a7.59,7.59,0,0,0-1-4.25,3.32,3.32,0,0,0-3-1.43A4.5,4.5,0,0,0,349,17.9q-1.29,1.88-1.29,6Zm47.16,0h-7.15V21.7a7.59,7.59,0,0,0-1-4.25,3.31,3.31,0,0,0-3-1.43,4.34,4.34,0,0,0-4,2q-1.25,2-1.24,6.63V37h-7.15V10.8h5.46l1,3.35h.4a7.17,7.17,0,0,1,3.05-2.81,9.74,9.74,0,0,1,4.57-1c3.92,0,6.58,1.29,8,3.85h.63a7.05,7.05,0,0,1,3.09-2.84,10.47,10.47,0,0,1,4.64-1q4.46,0,6.73,2.3c1.53,1.52,2.3,4,2.3,7.31V37H404V21.7a7.59,7.59,0,0,0-1-4.25,3.29,3.29,0,0,0-3-1.43,4.49,4.49,0,0,0-3.94,1.88q-1.29,1.88-1.29,6Zm19.95-26.2h7.82l5,14.74a20.79,20.79,0,0,1,.87,4.55h.14a20,20,0,0,1,1-4.55l4.86-14.74h7.66L431,40.35a12.64,12.64,0,0,1-4.36,6.14,10.9,10.9,0,0,1-6.58,2,16.22,16.22,0,0,1-3.63-.4V42.46a12.34,12.34,0,0,0,2.81.31,5,5,0,0,0,3.3-1.18,7.31,7.31,0,0,0,2.23-3.49l.42-1.29Zm75.21,9q0,8.5-4.22,13.08t-12.1,4.57q-7.87,0-12.09-4.57t-4.22-13.13q0-8.55,4.22-13T473.71,2.2q7.91,0,12.07,4.54T490,19.82Zm-25,0q0,5.74,2.18,8.65a7.61,7.61,0,0,0,6.51,2.91q8.7,0,8.7-11.56T473.71,8.24a7.68,7.68,0,0,0-6.54,2.93Q465,14.08,465,19.82ZM503.66,37h-7.14V.53h7.14Zm7.22-33c0-2.32,1.3-3.49,3.89-3.49S518.66,1.7,518.66,4a3.39,3.39,0,0,1-1,2.6,4.08,4.08,0,0,1-2.91.92Q510.88,7.54,510.88,4Zm7.46,33h-7.15V10.8h7.15Zm13.75,0-10-26.2h7.48l5.06,14.93a26.77,26.77,0,0,1,1.05,5.36h.14a23.09,23.09,0,0,1,1.06-5.36l5-14.93h7.47l-10,26.2Zm37.74,0-1.38-3.56h-.19a10.73,10.73,0,0,1-3.73,3.16,12,12,0,0,1-5,.87,8.08,8.08,0,0,1-5.95-2.16,8.28,8.28,0,0,1-2.16-6.14A6.89,6.89,0,0,1,554.36,23q2.92-2,8.81-2.2l4.55-.14V19.54q0-4-4.08-4a18.7,18.7,0,0,0-7.38,1.9l-2.37-4.83a21.41,21.41,0,0,1,10-2.36c3.52,0,6.21.76,8.09,2.29s2.81,3.86,2.81,7V37Zm-2.11-12.14L565,25a8.93,8.93,0,0,0-4.64,1.13,3.54,3.54,0,0,0-1.52,3.14q0,3,3.47,3a5.44,5.44,0,0,0,4-1.43,5,5,0,0,0,1.5-3.79Z" transform="translate(-0.36 -0.03)" style="fill:none;stroke:#fff"/></svg>