<svg id="j-logo" data-name="Layer 1" xmlns="http://www.w3.org/2000/svg" xmlns:xlink="http://www.w3.org/1999/xlink" viewBox="0 0 713 713"><defs><linearGradient id="linear-gradient" x1="320.6" y1="41.17" x2="605.99" y2="557.56" gradientUnits="userSpaceOnUse"><stop offset="0" stop-color="#002d72"/><stop offset="0.08" stop-color="#082e6e"/><stop offset="0.2" stop-color="#1f3064"/><stop offset="0.35" stop-color="#433554"/><stop offset="0.53" stop-color="#763a3e"/><stop offset="0.73" stop-color="#b74221"/><stop offset="0.92" stop-color="#ff4a01"/></linearGradient><linearGradient id="linear-gradient-2" x1="191.69" y1="-8.7" x2="507.18" y2="660.52" gradientUnits="userSpaceOnUse"><stop offset="0" stop-color="#002d72"/><stop offset="0.15" stop-color="#032d71"/><stop offset="0.27" stop-color="#0d2f6c"/><stop offset="0.38" stop-color="#1e3165"/><stop offset="0.48" stop-color="#35335b"/><stop offset="0.58" stop-color="#53374e"/><stop offset="0.58" stop-color="#54374d"/><stop offset="0.64" stop-color="#59384b"/><stop offset="0.7" stop-color="#673945"/><stop offset="0.77" stop-color="#7d3c3b"/><stop offset="0.84" stop-color="#9e3f2c"/><stop offset="0.92" stop-color="#c7441a"/><stop offset="0.99" stop-color="#f94904"/><stop offset="1" stop-color="#ff4a01"/></linearGradient></defs><g id="j-logo"><path d="M635.2,131H105.28a356.47,356.47,0,0,1,529.92,0Z" transform="translate(-13.75 -12.98)" style="fill:url(#linear-gradient)"/><path d="M726.75,369.48c0,196.88-159.62,356.5-356.5,356.5S13.75,566.36,13.75,369.48a355.34,355.34,0,0,1,26.41-134.9H373V438.06q0,75.82-63.87,75.82-47.12,0-83.87-50.33l-58.06,70.58q24.51,32,62.89,49.35t84.2,17.32q80,0,121.28-42.16t41.3-126.46V234.58H700.33A355.34,355.34,0,0,1,726.75,369.48Z" transform="translate(-13.75 -12.98)" style="fill:url(#linear-gradient-2)"/></g></svg>