<svg id="j-logo" data-name="Layer 1" xmlns="http://www.w3.org/2000/svg" viewBox="0 0 713 713"><path d="M635.2,131H105.28a356.47,356.47,0,0,1,529.92,0Z" transform="translate(-13.75 -12.98)" style="fill:#002d72"/><path d="M726.75,369.48c0,196.88-159.62,356.5-356.5,356.5S13.75,566.36,13.75,369.48a355.34,355.34,0,0,1,26.41-134.9H373V438.06q0,75.82-63.87,75.82-47.12,0-83.87-50.33l-58.06,70.58q24.51,32,62.89,49.35t84.2,17.32q80,0,121.28-42.16t41.3-126.46V234.58H700.33A355.34,355.34,0,0,1,726.75,369.48Z" transform="translate(-13.75 -12.98)" style="fill:#002d72"/></svg>